<svg width="1001" height="1001" viewBox="0 0 1001 1001" fill="none" xmlns="http://www.w3.org/2000/svg">
<path d="M500.1 1000.25C776.279 1000.25 1000.1 776.429 1000.1 500.25C1000.1 224.071 776.279 0.25 500.1 0.25C223.921 0.25 0.0999756 224.071 0.0999756 500.15C0.0999756 776.229 223.921 1000.25 500.1 1000.25Z" fill="#EEEEEF"/>
<path d="M583.134 523.631L496.503 519.435L504.297 968.375H523.181C529.671 968.412 536.121 967.365 542.266 965.278C547.862 963.28 552.258 960.482 554.856 957.184C578.937 926.009 643.485 836.981 636.391 788.12C634.193 772.932 629.896 758.943 616.007 742.856C616.007 742.856 652.878 751.449 662.47 698.991C667.366 672.013 632.394 658.024 632.394 658.024C632.394 658.024 658.373 649.431 651.479 627.848C644.584 606.265 611.911 594.075 611.911 594.075C611.911 594.075 641.986 591.877 626.899 553.108C620.204 536.321 583.134 523.631 583.134 523.631Z" fill="#F2956A"/>
<path d="M426.559 523.631L513.189 519.435L505.396 968.375H486.511C480.021 968.412 473.571 967.365 467.426 965.278C461.831 963.28 457.434 960.482 454.836 957.184C430.755 926.009 366.207 836.981 373.301 788.12C375.5 772.932 379.796 758.943 393.685 742.856C393.685 742.856 356.815 751.449 347.222 698.991C342.326 672.013 377.298 658.024 377.298 658.024C377.298 658.024 351.319 649.431 358.214 627.848C365.108 606.265 397.782 594.075 397.782 594.075C397.782 594.075 367.706 591.877 382.794 553.108C389.389 536.321 426.559 523.631 426.559 523.631Z" fill="#F2956A"/>
<path d="M583.134 523.631L543.066 522.732C529.776 522.432 516.587 522.132 503.497 521.732L507.194 519.934L509.093 548.011L510.592 576.089L512.09 604.167L513.289 632.244C513.989 650.929 515.088 669.614 515.588 688.299L517.386 744.354C518.086 763.039 518.285 781.724 518.685 800.41L519.784 856.465C520.384 893.835 520.683 931.205 520.683 968.575L504.197 959.882H523.082C523.749 959.899 524.417 959.865 525.08 959.782C526.379 959.682 527.678 959.582 528.877 959.382C531.164 959.001 533.385 958.294 535.472 957.284C536.354 956.833 537.191 956.298 537.97 955.685C538.325 955.411 538.659 955.11 538.969 954.786C539.132 954.645 539.267 954.476 539.369 954.286L539.568 954.087L539.968 953.587C547.462 943.895 554.656 934.103 561.551 924.31C575.34 904.726 588.13 884.842 598.821 864.758C604.162 854.969 608.966 844.895 613.21 834.582C617.246 824.86 620.13 814.699 621.803 804.306C622.586 799.382 622.72 794.377 622.202 789.418C621.642 784.32 620.673 779.274 619.305 774.33C617.87 769.285 615.928 764.397 613.509 759.742C610.834 754.766 607.653 750.078 604.017 745.753L621.303 736.561C621.103 736.561 621.003 736.461 620.803 736.461H621.003C621.303 736.461 621.603 736.561 621.803 736.561C622.47 736.58 623.139 736.546 623.801 736.461C625.618 736.199 627.376 735.624 628.997 734.762C632.936 732.782 636.358 729.907 638.989 726.369C644.484 719.474 647.582 711.481 649.78 703.387L650.48 700.39C650.68 699.39 650.979 698.291 651.079 697.392C651.411 695.546 651.545 693.67 651.479 691.796C651.316 687.928 650.219 684.157 648.281 680.805C646.029 676.907 643.082 673.453 639.588 670.613C637.62 668.955 635.551 667.42 633.393 666.017C632.294 665.318 631.095 664.618 629.896 663.919C629.297 663.619 628.697 663.219 628.098 662.92L626.499 662.12L627.198 653.927C626.998 654.027 627.398 653.827 627.498 653.827L628.098 653.627C628.497 653.427 628.997 653.327 629.397 653.127C630.259 652.755 631.094 652.321 631.895 651.828C633.444 650.944 634.945 649.977 636.391 648.931C638.847 647.034 640.887 644.653 642.386 641.936C643.562 639.385 644.179 636.613 644.197 633.804C644.214 630.995 643.631 628.215 642.486 625.649C640.188 620.054 635.991 614.658 630.096 609.862C626.974 607.292 623.667 604.955 620.204 602.868C618.405 601.768 616.507 600.669 614.508 599.67C612.51 598.671 610.612 597.772 608.513 596.872L611.111 591.377H611.411C611.611 591.377 611.811 591.277 612.11 591.277C612.621 591.191 613.123 591.057 613.609 590.877C614.603 590.588 615.572 590.221 616.507 589.778C618.283 588.919 619.903 587.771 621.303 586.381C623.734 583.838 625.457 580.703 626.299 577.288C627.898 570.693 626.899 563.799 625.1 557.104C624.673 555.407 624.139 553.738 623.501 552.108C622.743 550.424 621.769 548.845 620.604 547.412C617.854 544.063 614.661 541.104 611.111 538.619C602.43 532.502 593.035 527.469 583.134 523.631ZM583.134 523.631C593.717 526.974 603.877 531.534 613.409 537.22C617.533 539.701 621.356 542.652 624.8 546.013C626.305 547.507 627.614 549.186 628.697 551.009C629.6 552.691 630.401 554.426 631.095 556.205C634.116 562.876 635.487 570.176 635.092 577.488C634.713 581.534 633.11 585.368 630.496 588.479C628.671 590.531 626.508 592.255 624.101 593.575C622.566 594.412 620.961 595.114 619.305 595.673C618.356 595.999 617.388 596.266 616.407 596.473L614.808 596.772L613.909 596.872C613.482 596.959 613.045 596.993 612.61 596.972L615.208 591.477C617.806 592.476 620.304 593.475 622.702 594.574C625.1 595.673 627.298 596.772 629.496 597.971C633.662 600.188 637.669 602.692 641.487 605.465C648.881 610.861 654.377 616.856 657.774 623.351C659.435 626.461 660.518 629.847 660.971 633.343C661.368 636.878 660.852 640.456 659.472 643.735C657.778 647.598 655.213 651.018 651.978 653.727C650.109 655.405 648.066 656.879 645.883 658.123C644.684 658.823 643.485 659.522 642.186 660.122C641.487 660.422 640.887 660.721 640.088 661.121L638.989 661.621C638.5 661.847 638 662.047 637.49 662.22L638.19 654.027C639.488 654.526 640.188 654.926 641.187 655.326C642.186 655.725 642.886 656.125 643.685 656.525C645.284 657.324 646.883 658.223 648.381 659.123C651.289 660.766 654.062 662.637 656.675 664.718C661.369 668.19 665.426 672.45 668.665 677.308C671.446 681.484 673.255 686.23 673.961 691.197C674.261 693.552 674.261 695.936 673.961 698.291C673.861 699.49 673.661 700.589 673.461 701.688L672.862 704.986C670.963 713.679 668.365 722.472 661.97 731.365C658.673 736.261 653.577 740.657 646.883 744.454C642.154 746.92 637.06 748.607 631.795 749.45C626.85 750.335 621.812 750.57 616.807 750.15L614.109 749.85C613.609 749.75 613.21 749.75 612.71 749.65L611.911 749.55C611.511 749.45 611.411 749.45 610.712 749.25L627.998 740.058C637.19 750.15 643.585 760.941 647.082 772.032C648.788 777.377 650.025 782.86 650.779 788.419C651.545 793.984 651.612 799.624 650.979 805.206C649.654 816.307 647.004 827.209 643.086 837.68C639.151 848.434 634.58 858.944 629.397 869.154C618.356 890.291 605.973 910.7 592.326 930.256C585.432 940.248 578.138 950.24 570.544 960.132L570.144 960.631L569.544 961.331C569.145 961.73 568.745 962.23 568.345 962.63C567.484 963.538 566.548 964.374 565.548 965.128C563.383 966.922 560.999 968.432 558.453 969.624C552.492 972.574 546.129 974.627 539.568 975.719C535.966 976.361 532.329 976.794 528.677 977.018C526.879 977.118 524.98 977.218 523.082 977.218H504.197C502.078 977.244 499.963 977.009 497.902 976.519C496.027 976.129 494.212 975.491 492.506 974.62C491.154 973.903 489.937 972.956 488.909 971.822C488.124 970.904 487.698 969.733 487.71 968.525C487.71 931.155 488.01 893.785 488.409 856.415L489.409 800.36C489.808 781.674 489.908 762.989 490.608 744.304L492.306 688.249C492.806 669.564 493.805 650.879 494.504 632.194L495.703 604.117L497.202 576.039L498.701 547.962L500.5 519.884V519.784C500.5 519.284 500.899 518.885 501.599 518.585C502.352 518.246 503.171 518.075 503.997 518.085H504.297L544.065 520.783L583.134 523.631Z" fill="#E2815A"/>
<path d="M426.559 523.631L464.828 520.833L503.497 518.135C504.341 518.074 505.19 518.176 505.995 518.435C506.695 518.735 507.194 519.135 507.294 519.634V519.934L509.193 548.011L510.791 576.089L512.39 604.167L513.689 632.244C514.488 650.929 515.588 669.614 516.087 688.299L517.986 744.354C518.685 763.039 518.985 781.724 519.484 800.41L520.683 856.465C521.283 893.835 521.783 931.205 521.883 968.575C521.883 970.873 520.184 973.071 517.086 974.77C513.442 976.527 509.441 977.416 505.396 977.368H486.411C484.512 977.368 482.714 977.268 480.815 977.168C477.159 976.994 473.519 976.56 469.924 975.869C463.375 974.731 457.018 972.679 451.039 969.774C448.534 968.509 446.158 967.003 443.945 965.278C442.969 964.495 442.035 963.661 441.147 962.78C440.747 962.38 440.348 961.88 439.948 961.481L439.349 960.781L438.949 960.282C431.355 950.39 424.161 940.398 417.166 930.406C403.521 910.866 391.139 890.474 380.096 869.354C374.912 859.144 370.341 848.634 366.407 837.88C362.488 827.409 359.838 816.507 358.513 805.406C357.88 799.824 357.947 794.184 358.713 788.619C359.516 783.069 360.752 777.589 362.41 772.232C365.907 761.141 372.302 750.35 381.495 740.258L398.781 749.45C397.982 749.65 397.882 749.65 397.582 749.75L396.783 749.85C396.283 749.95 395.783 749.95 395.384 750.05L392.686 750.35C387.681 750.77 382.642 750.535 377.698 749.65C372.448 748.745 367.363 747.061 362.61 744.654C355.915 740.857 350.719 736.461 347.522 731.565C341.127 722.672 338.629 713.879 336.631 705.186L336.031 701.888C335.831 700.789 335.632 699.69 335.532 698.491C335.232 696.136 335.232 693.752 335.532 691.397C336.237 686.43 338.047 681.684 340.827 677.508C344.095 672.673 348.148 668.417 352.818 664.918C355.479 662.904 358.247 661.036 361.111 659.322C362.61 658.423 364.209 657.624 365.807 656.725C366.607 656.325 367.506 655.925 368.305 655.525C369.105 655.126 370.004 654.726 371.303 654.227L372.002 662.42C371.203 662.12 371.003 662.02 370.504 661.82L369.405 661.321C368.686 661.029 367.986 660.695 367.306 660.322C366.007 659.722 364.808 659.023 363.609 658.323C361.471 657.011 359.434 655.542 357.514 653.927C354.309 651.19 351.75 647.778 350.02 643.935C348.641 640.656 348.125 637.078 348.521 633.543C348.974 630.046 350.058 626.661 351.719 623.551C355.116 617.156 360.612 611.061 368.006 605.665C371.794 602.848 375.804 600.342 379.996 598.171C382.194 596.972 384.393 595.873 386.791 594.774C389.189 593.675 391.687 592.576 394.285 591.677L396.883 597.172C396.483 597.172 396.083 597.072 395.584 597.072L394.684 596.972C394.085 596.872 393.585 596.772 393.086 596.673C392.104 596.466 391.137 596.199 390.188 595.873C388.524 595.333 386.918 594.63 385.392 593.775C382.949 592.509 380.777 590.778 378.997 588.679C376.383 585.568 374.78 581.734 374.401 577.688C374.006 570.376 375.377 563.076 378.397 556.405C379.197 554.706 379.796 553.008 380.795 551.209C381.878 549.386 383.188 547.707 384.692 546.213C388.111 542.822 391.937 539.868 396.083 537.42C405.655 531.623 415.886 526.994 426.559 523.631ZM426.559 523.631C416.789 527.425 407.499 532.355 398.881 538.319C395.331 540.805 392.138 543.763 389.389 547.112C388.223 548.546 387.249 550.124 386.491 551.808C385.853 553.438 385.319 555.107 384.892 556.804C383.094 563.599 382.094 570.494 383.693 576.988C384.453 580.435 386.187 583.592 388.689 586.081C390.07 587.494 391.695 588.645 393.485 589.478C394.427 589.905 395.395 590.272 396.383 590.577C396.883 590.677 397.382 590.877 397.882 590.977C398.105 591.059 398.344 591.093 398.581 591.077H398.881L401.479 596.573C399.381 597.472 397.382 598.371 395.484 599.37C393.585 600.37 391.587 601.469 389.788 602.568C386.309 604.631 383.001 606.97 379.896 609.562C374.001 614.358 369.804 619.754 367.506 625.35C366.337 627.908 365.74 630.691 365.757 633.504C365.775 636.317 366.405 639.093 367.606 641.637C369.046 644.394 371.096 646.786 373.601 648.631C374.991 649.756 376.499 650.727 378.098 651.529C378.897 651.928 379.696 652.428 380.596 652.828C381.011 653.037 381.446 653.205 381.895 653.327L382.494 653.527C382.594 653.627 382.994 653.727 382.794 653.627L383.493 661.82L381.895 662.62C381.274 662.914 380.674 663.248 380.096 663.619C378.897 664.318 377.698 665.018 376.599 665.717C374.424 667.095 372.353 668.632 370.404 670.314C366.937 673.181 363.995 676.629 361.711 680.505C359.773 683.857 358.676 687.629 358.513 691.497C358.444 693.371 358.578 695.247 358.913 697.092C359.013 697.992 359.313 698.991 359.512 700.09L360.212 703.087C362.41 711.081 365.508 719.175 371.003 726.069C373.686 729.559 377.095 732.423 380.995 734.462C382.628 735.295 384.381 735.868 386.191 736.161C386.854 736.242 387.522 736.275 388.19 736.261C388.46 736.282 388.732 736.248 388.989 736.161H389.189C389.02 736.184 388.854 736.218 388.689 736.261L405.975 745.454C402.362 749.795 399.182 754.48 396.483 759.442C394.064 764.097 392.122 768.985 390.688 774.031C389.319 778.974 388.35 784.02 387.79 789.119C387.325 794.079 387.459 799.078 388.19 804.007C389.862 814.4 392.746 824.561 396.783 834.282C400.985 844.613 405.79 854.689 411.171 864.458C421.863 884.542 434.652 904.326 448.441 924.011C455.336 933.803 462.53 943.595 470.024 953.287L470.424 953.787L470.624 953.987C470.723 954.187 470.923 954.286 471.023 954.486C471.333 954.811 471.667 955.111 472.022 955.386C472.786 956.02 473.625 956.557 474.52 956.984C476.59 958.038 478.817 958.747 481.115 959.083C482.368 959.32 483.638 959.453 484.912 959.482C485.512 959.582 486.211 959.482 486.911 959.582H505.795L489.309 968.275C489.209 930.905 489.409 893.535 489.708 856.165L490.508 800.11C490.807 781.425 490.907 762.74 491.507 744.055L493.006 687.999C493.405 669.314 494.405 650.629 495.004 631.944L496.103 603.867L497.502 575.789L498.901 547.712L500.6 519.634L504.397 521.433C491.607 521.832 478.817 522.132 465.827 522.432L426.559 523.631Z" fill="#E2815A"/>
<path d="M611.811 594.275C593.525 597.572 574.74 599.87 555.656 601.369C536.571 602.868 517.586 603.767 498.401 604.067C479.217 604.367 459.832 603.867 440.747 602.568C435.951 602.268 431.155 601.869 426.359 601.369C421.563 600.869 416.867 600.47 412.17 599.67C407.474 598.871 402.778 598.272 398.182 597.372C393.585 596.473 389.089 595.474 384.792 594.375C404.177 594.574 422.862 594.275 441.647 594.075L497.902 593.276C516.687 593.076 535.572 592.876 554.457 592.976C573.441 592.876 592.426 593.176 611.811 594.275Z" fill="#E2815A"/>
<path d="M364.309 658.223C387.09 657.824 409.572 658.024 431.954 658.223L498.601 659.223C520.584 659.422 542.666 659.356 564.848 659.023C587.13 658.723 609.412 658.323 632.294 658.223C610.557 662.675 588.566 665.778 566.447 667.516C543.865 669.514 521.083 670.314 498.201 670.114C475.52 669.814 452.838 668.715 430.456 666.717C407.874 664.918 385.791 662.02 364.309 658.223Z" fill="#E2815A"/>
<path d="M380.695 742.956C400.879 743.955 420.464 744.854 440.048 745.554C459.632 746.253 479.017 746.653 498.401 746.653L505.695 746.753C508.094 746.753 510.492 746.653 512.99 746.653L527.578 746.553C537.27 746.253 546.962 746.253 556.755 745.753C576.339 745.254 595.624 743.855 616.007 743.056C597.367 748.364 578.316 752.107 559.053 754.247L551.559 755.146C549.061 755.446 546.563 755.546 544.065 755.845C539.069 756.245 533.973 756.545 528.877 756.944C518.685 757.344 508.493 757.844 498.301 757.644C478.067 757.639 457.85 756.471 437.75 754.147C417.866 751.649 398.381 748.251 380.695 742.956Z" fill="#E2815A"/>
<path d="M459.133 727.668C464.029 729.067 468.825 730.566 473.321 732.264C477.818 733.963 482.114 735.662 486.311 737.46C494.604 741.057 502.498 744.954 509.892 749.051L497.602 749.401C500.799 747.402 503.997 745.404 507.394 743.505C510.791 741.607 514.289 739.708 517.786 737.81C521.283 735.911 525.18 734.213 529.077 732.514C532.974 730.815 537.17 729.217 541.467 727.718C539.571 730.348 537.465 732.82 535.172 735.112C532.774 737.51 530.276 739.808 527.678 742.006C524.98 744.205 522.282 746.403 519.385 748.601C516.487 750.799 513.489 752.798 510.392 754.896C509.612 755.44 508.727 755.814 507.794 755.995C506.715 756.274 505.61 756.441 504.496 756.495C503.357 756.494 502.221 756.394 501.099 756.195C500.083 756.029 499.103 755.691 498.201 755.196L498.102 755.096C490.77 751.24 483.664 746.97 476.819 742.306C473.521 740.008 470.324 737.71 467.326 735.312C464.407 732.973 461.668 730.418 459.133 727.668Z" fill="#E2815A"/>
<path d="M544.964 779.377C540.368 778.477 535.771 777.378 531.475 776.079C527.178 774.78 522.982 773.581 518.885 772.182C510.791 769.485 502.998 766.487 495.604 763.19L505.196 762.99C501.998 764.589 498.801 766.087 495.504 767.586C492.206 769.085 488.809 770.484 485.312 771.883C481.815 773.282 478.217 774.581 474.42 775.88C470.624 777.179 466.727 778.278 462.63 779.377C464.826 777.195 467.163 775.159 469.624 773.282C472.122 771.383 474.82 769.485 477.518 767.686C480.216 765.888 483.114 764.189 486.111 762.49C489.109 760.792 492.106 759.193 495.204 757.494C496.652 756.838 498.212 756.464 499.8 756.395C501.437 756.334 503.068 756.606 504.596 757.194H504.696C512.29 760.292 519.484 763.689 526.279 767.286C529.676 769.085 532.974 770.983 536.171 772.982C539.21 774.96 542.145 777.095 544.964 779.377Z" fill="#E2815A"/>
<path d="M459.133 642.136C464.029 643.535 468.825 645.034 473.321 646.733C477.818 648.431 482.114 650.13 486.311 651.928C494.604 655.526 502.498 659.422 509.892 663.519L497.602 663.819C500.799 661.82 503.997 659.822 507.394 657.924C510.791 656.025 514.289 654.127 517.786 652.228C521.283 650.33 525.18 648.631 529.077 646.932C532.974 645.234 537.17 643.635 541.467 642.136C539.571 644.766 537.465 647.239 535.172 649.53C532.774 651.928 530.276 654.227 527.678 656.425C524.98 658.623 522.282 660.821 519.385 663.019C516.487 665.218 513.489 667.216 510.392 669.314C509.612 669.858 508.727 670.232 507.794 670.414C506.705 670.644 505.604 670.811 504.496 670.913C503.357 670.913 502.221 670.812 501.099 670.613C500.083 670.448 499.103 670.11 498.201 669.614L498.102 669.514C490.77 665.659 483.664 661.389 476.819 656.725C473.521 654.426 470.324 652.128 467.326 649.73C464.409 647.408 461.67 644.869 459.133 642.136Z" fill="#E2815A"/>
<path d="M459.133 575.79C464.029 577.188 468.825 578.687 473.321 580.386C477.818 582.084 482.114 583.783 486.311 585.582C494.604 589.179 502.498 593.076 509.892 597.172L497.602 597.522C500.799 595.524 503.997 593.525 507.394 591.627C510.791 589.728 514.289 587.83 517.786 585.931C521.283 584.033 525.18 582.334 529.077 580.636C532.974 578.937 537.17 577.338 541.467 575.839C539.571 578.469 537.465 580.942 535.172 583.234C532.774 585.632 530.276 587.93 527.678 590.128C524.98 592.326 522.282 594.525 519.385 596.723C516.487 598.921 513.489 600.919 510.392 603.018C509.612 603.561 508.727 603.936 507.794 604.117C506.715 604.396 505.61 604.563 504.496 604.616C503.356 604.67 502.213 604.569 501.099 604.317C500.083 604.151 499.103 603.813 498.201 603.318L498.102 603.218C490.77 599.362 483.664 595.092 476.819 590.428C473.521 588.13 470.324 585.832 467.326 583.433C464.407 581.095 461.668 578.54 459.133 575.79Z" fill="#E2815A"/>
<path d="M605.516 42.8159L606.915 48.7112C607.414 50.7096 607.714 52.708 608.313 54.6065L610.012 60.4018L610.412 61.8007C610.534 62.2818 610.701 62.7502 610.911 63.1996L611.911 65.9974L612.91 68.7951L613.409 70.194L614.009 71.5929L616.407 76.9886C616.807 77.8879 617.306 78.7871 617.706 79.5865L619.105 82.1844L620.504 84.7823L622.102 87.2803L623.701 89.7784L624.5 90.9774L625.4 92.1764L628.897 96.8727L632.694 101.269C632.999 101.66 633.333 102.027 633.693 102.368L634.692 103.367L636.791 105.366C642.418 110.669 648.541 115.421 655.076 119.555C661.671 123.751 668.565 127.448 675.56 131.045L680.955 133.643C681.855 134.043 682.754 134.543 683.653 134.942L686.351 136.141L691.647 138.539L697.042 140.638L699.74 141.737C700.65 142.13 701.585 142.463 702.538 142.736L708.134 144.634L710.931 145.634L713.729 146.533L719.424 148.331C723.221 149.431 727.018 150.53 730.915 151.629L742.506 154.726C750.3 156.825 758.094 158.823 765.987 161.021L771.883 162.62L777.778 164.319C781.675 165.418 785.671 166.717 789.668 168.016L792.666 168.915L795.663 169.914L801.559 172.013C802.558 172.312 803.557 172.712 804.556 173.112L807.454 174.311C809.452 175.11 811.351 175.909 813.349 176.709C821.307 180.107 828.991 184.116 836.331 188.699C838.13 189.898 840.128 190.997 841.827 192.196L847.022 195.893C850.42 198.491 853.817 200.989 857.114 203.687C863.709 209.083 870.004 214.778 875.999 220.774C881.968 226.791 887.605 233.129 892.886 239.758C898.181 246.353 903.177 253.148 907.874 260.142C912.57 267.136 916.867 274.331 920.963 281.725C925.06 289.119 928.857 296.613 932.254 304.207C935.651 311.801 938.849 319.594 941.647 327.488C944.444 335.382 947.142 343.275 949.341 351.269C951.539 359.263 953.637 367.356 955.436 375.45C957.234 383.543 958.733 391.737 959.932 399.93C960.232 402.029 960.532 404.027 960.731 406.125L961.531 412.32C961.731 414.419 962.03 416.417 962.33 418.515L962.93 424.71C963.729 432.904 964.129 441.097 964.628 449.391C965.754 482.052 964.418 514.752 960.632 547.212C958.833 563.399 956.735 579.487 954.237 595.474C951.739 611.461 948.941 627.448 945.943 643.335C946.243 627.148 946.743 610.961 947.342 594.774C947.942 578.587 948.241 562.5 948.441 546.413C948.841 514.239 948.142 482.264 945.044 450.69C944.145 442.796 943.345 434.902 942.146 427.108L941.347 421.213C941.047 419.215 940.747 417.316 940.348 415.418L939.349 409.622C939.049 407.724 938.649 405.726 938.349 403.827C936.851 396.133 935.152 388.439 933.253 380.845C931.355 373.252 929.257 365.658 926.859 358.264C924.46 350.869 921.962 343.475 919.165 336.181C916.367 328.887 913.269 321.793 909.972 314.698C906.675 307.604 903.177 300.71 899.38 293.915C895.584 287.12 891.587 280.526 887.29 274.131C882.994 267.736 878.497 261.441 873.701 255.446C868.905 249.451 863.809 243.655 858.513 238.16C853.222 232.618 847.653 227.348 841.827 222.372C838.929 219.874 835.931 217.476 832.934 215.178L828.337 211.831C826.839 210.732 825.24 209.732 823.741 208.733C817.475 204.621 810.931 200.948 804.157 197.742C802.458 196.943 800.66 196.143 798.861 195.444C797.062 194.744 795.364 193.845 793.565 193.146L788.169 190.947L785.472 189.848L782.674 188.849C778.977 187.45 775.28 186.151 771.583 184.852L765.987 182.954L760.292 181.055C752.698 178.557 745.004 176.059 737.31 173.561C733.413 172.262 729.616 170.963 725.719 169.664C721.823 168.365 718.026 166.967 714.129 165.468C706.435 162.57 698.641 159.473 691.147 155.875L685.452 153.178L679.856 150.18L677.058 148.681C676.159 148.182 675.26 147.682 674.361 147.082L669.065 143.885C662.07 139.489 655.076 134.892 648.481 129.796C641.814 124.596 635.688 118.738 630.196 112.31L628.197 109.812L627.198 108.613C626.899 108.214 626.599 107.714 626.299 107.314L622.702 102.118L619.504 96.6229C619.205 96.1233 619.005 95.7236 618.705 95.224L618.006 93.8251L616.707 90.9274L615.408 88.1297L614.309 85.232C613.609 83.2336 612.81 81.3351 612.21 79.3367L610.512 73.3415L610.112 71.8427L609.812 70.3439L609.213 67.3463C606.615 59.003 605.915 50.9594 605.516 42.8159Z" fill="#646464"/>
<path d="M413.669 42.8159C415.493 46.5368 416.868 50.4612 417.766 54.5066C418.604 58.6516 419.039 62.8678 419.065 67.0965C418.994 71.3608 418.526 75.6091 417.666 79.7863C417.466 80.8855 417.166 81.8847 416.967 82.8839C416.767 83.8831 416.467 84.9822 416.067 85.9814L415.068 89.0789L413.969 92.0765C412.415 96.1001 410.509 99.9787 408.273 103.667L407.474 105.066L406.575 106.465L404.776 109.163C403.477 110.861 402.278 112.66 400.879 114.259C399.481 115.857 398.082 117.556 396.683 119.155C395.284 120.754 393.685 122.252 392.086 123.751C390.488 125.25 388.889 126.649 387.29 128.148C385.692 129.646 383.993 130.945 382.294 132.244C375.565 137.452 368.488 142.192 361.111 146.433C353.817 150.73 346.423 154.527 338.929 158.224C331.435 161.921 323.841 165.418 316.247 168.715C308.653 172.013 301.059 175.31 293.365 178.407L247.802 196.843C232.714 203.038 217.926 209.333 203.637 216.427C196.543 220.024 189.449 223.621 182.554 227.518C175.66 231.415 169.065 235.612 162.57 240.008C136.786 257.455 115.103 280.298 99.0209 306.955C90.8523 320.344 83.8649 334.419 78.1376 349.021C72.3914 363.762 67.6836 378.887 64.0489 394.285C63.0497 398.082 62.3502 402.078 61.5509 405.975C60.7515 409.872 60.152 413.769 59.3526 417.766C58.5533 421.763 58.0537 425.66 57.5541 429.556C57.2543 431.555 56.9546 433.553 56.7547 435.452L56.1552 441.447C52.658 473.321 52.658 505.796 54.0569 538.469C54.7563 554.756 55.8554 571.143 57.0545 587.43C58.2535 603.717 59.5525 620.204 60.6516 636.591C56.8546 620.604 53.3574 604.517 50.16 588.329C46.9625 572.142 44.1648 555.955 41.8666 539.568C37.2703 506.795 34.9721 473.521 36.6708 439.948L36.9705 433.653C37.0705 431.555 37.2703 429.457 37.4701 427.358C37.8698 423.162 38.1696 418.965 38.7691 414.768C39.3686 410.572 39.7683 406.375 40.4677 402.178C41.1672 397.982 41.7667 393.785 42.666 389.688C45.8242 372.996 50.3355 356.588 56.1552 340.628C61.9951 324.496 69.3207 308.941 78.0377 294.165C86.9151 279.297 97.367 265.428 109.213 252.798C121.17 240.241 134.511 229.079 148.981 219.525C163.202 210.174 178.136 201.955 193.645 194.944C208.933 187.95 224.52 181.855 240.108 176.259C247.902 173.461 255.696 170.664 263.489 168.066L286.771 160.072C294.465 157.374 302.158 154.776 309.752 151.979C317.346 149.181 324.94 146.283 332.434 143.286C339.928 140.288 347.322 137.09 354.616 133.693C361.795 130.373 368.739 126.567 375.4 122.302C388.589 113.809 400.48 103.118 407.874 89.2288C409.735 85.7539 411.338 82.1471 412.67 78.4374C413.94 74.6903 414.909 70.8478 415.568 66.9466C416.168 62.9799 416.369 58.963 416.167 54.9562C415.967 52.9578 415.768 50.9594 415.368 48.961C414.768 46.7128 414.169 44.8143 413.669 42.8159Z" fill="#646464"/>
<path d="M540.368 255.846C544.165 253.747 548.062 251.849 551.958 250.15C555.855 248.451 559.752 246.753 563.749 245.254C571.643 242.256 579.536 239.459 587.53 237.061C603.455 232.217 619.633 228.248 635.991 225.17C652.336 222.015 668.851 219.813 685.452 218.575C693.745 217.976 702.138 217.576 710.632 217.576C714.828 217.576 719.125 217.676 723.421 217.876C727.718 218.076 732.014 218.376 736.311 218.975C732.514 221.073 728.617 222.972 724.72 224.671C720.823 226.369 716.926 228.068 712.93 229.567C705.036 232.664 697.142 235.362 689.149 237.76C673.204 242.629 656.99 246.566 640.588 249.551C624.226 252.601 607.717 254.803 591.127 256.145C582.834 256.745 574.441 257.145 565.947 257.145C561.751 257.145 557.454 257.045 553.257 256.845C548.945 256.76 544.641 256.427 540.368 255.846Z" fill="#646464"/>
<path d="M471.723 255.945C467.856 256.047 463.988 255.947 460.132 255.646C456.335 255.446 452.538 255.046 448.841 254.646C441.347 253.747 434.053 252.548 426.759 251.049C412.17 248.152 398.082 244.055 384.393 239.958C370.704 235.861 357.214 231.565 343.525 227.568C336.731 225.57 329.836 223.671 322.842 221.773C319.345 220.873 315.747 219.874 312.15 218.975C308.553 218.076 304.856 217.276 301.059 216.077C304.572 214.418 308.215 213.048 311.951 211.981C312.85 211.681 313.849 211.481 314.748 211.181C315.669 210.901 316.602 210.668 317.546 210.482C319.444 210.082 321.343 209.782 323.241 209.383C330.909 208.204 338.672 207.769 346.423 208.084C354.107 208.345 361.758 209.214 369.305 210.682C376.76 212.067 384.133 213.868 391.387 216.077C398.581 218.276 405.676 220.774 412.57 223.471C419.464 226.169 426.259 229.267 432.854 232.464C439.449 235.662 446.143 239.259 452.538 243.056C455.735 244.954 458.933 246.953 462.13 249.151C465.501 251.161 468.708 253.433 471.723 255.945Z" fill="#646464"/>
<path d="M506.095 280.026C507.564 283.118 508.865 286.287 509.992 289.519C511.191 292.716 512.19 295.914 513.09 299.111C514.988 305.506 516.487 311.901 517.786 318.296C522.61 343.81 523.921 369.864 521.683 395.734C521.083 402.229 520.184 408.723 518.985 415.318C518.385 418.615 517.686 421.813 516.787 425.11C515.971 428.461 514.97 431.763 513.789 435.002C512.288 431.912 510.954 428.743 509.792 425.51C508.593 422.313 507.594 419.115 506.695 415.918C504.796 409.523 503.297 403.128 501.998 396.733C499.576 383.998 498.04 371.111 497.402 358.164C496.72 345.205 496.988 332.214 498.201 319.295C498.801 312.8 499.7 306.305 500.899 299.711C501.499 296.413 502.198 293.216 503.098 289.918C503.867 286.556 504.868 283.25 506.095 280.026Z" fill="#646464"/>
<path d="M185.152 372.702C186.351 375.5 187.55 378.198 188.749 380.996L192.246 389.289C194.544 394.884 196.743 400.38 198.941 405.976C201.139 411.571 203.337 417.167 205.536 422.662L211.931 439.449C220.324 461.831 228.317 484.413 236.111 506.995C240.008 518.286 243.705 529.677 247.502 540.968L252.998 557.954C254.796 563.649 256.695 569.345 258.493 575.04C262.09 586.431 265.687 597.822 269.185 609.213L274.381 626.299C275.28 629.197 276.079 631.995 276.978 634.892L279.476 643.585C281.175 649.381 282.774 655.176 284.273 661.071C285.771 666.967 287.27 672.762 288.669 678.657C290.068 684.553 291.467 690.348 292.766 696.243C294.065 702.139 295.264 708.034 296.463 713.929C301.259 737.51 305.156 761.291 308.353 785.172C311.551 809.053 313.649 833.034 314.648 857.115C315.148 869.105 315.448 881.195 315.248 893.186C315.048 905.176 314.548 917.266 313.449 929.157C307.654 881.495 299.361 834.832 289.568 788.37C279.776 741.907 268.685 695.844 255.596 650.58L250.5 633.593L245.404 616.407C242.006 605.016 238.709 593.426 235.412 582.035C233.713 576.339 232.214 570.544 230.616 564.749L225.819 547.462C222.722 535.872 219.624 524.381 216.627 512.79C210.632 489.709 204.936 466.427 199.54 443.146L195.644 425.66C194.345 419.764 193.146 413.969 191.847 408.074C190.548 402.179 189.448 396.283 188.249 390.488L186.551 381.595C186.251 378.547 185.652 375.7 185.152 372.702Z" fill="#646464"/>
<path d="M817.946 373.352C815.448 384.543 812.65 395.634 809.852 406.625C808.453 412.121 806.954 417.616 805.456 423.112L800.859 439.649C794.664 461.531 788.07 483.314 781.675 504.896C778.577 515.788 775.38 526.579 772.482 537.37C770.983 542.766 769.584 548.162 768.185 553.557L766.187 561.651L764.289 569.844C761.791 580.736 759.492 591.627 757.394 602.618C755.296 613.609 753.397 624.601 751.599 635.692C744.504 679.956 739.808 724.621 736.711 769.585C736.311 775.18 735.911 780.875 735.612 786.471L734.612 803.358C734.113 814.648 733.513 825.939 733.114 837.23C732.714 848.521 732.414 859.912 732.114 871.203L731.515 905.376C726.714 883.015 723.211 860.395 721.023 837.63C719.924 826.239 719.025 814.848 718.425 803.358L718.026 794.764C717.926 791.867 717.826 789.069 717.726 786.171C717.526 780.476 717.426 774.68 717.326 768.985C716.759 723.032 720.001 677.112 727.018 631.695C730.57 608.89 735.273 586.279 741.107 563.949C744.005 552.758 747.402 541.667 750.999 530.776C754.596 519.884 758.493 509.093 762.69 498.402C770.883 477.019 779.776 456.035 788.969 435.252L795.963 419.665C798.361 414.469 800.659 409.273 803.157 404.177C807.854 393.835 812.75 383.543 817.946 373.352Z" fill="#646464"/>
<path d="M770.883 513.339C772.509 516.256 773.977 519.258 775.28 522.332C776.579 525.33 777.678 528.427 778.777 531.425C780.875 537.52 782.774 543.615 784.273 549.71C787.47 561.901 789.668 573.991 791.667 586.081C793.665 598.171 795.164 610.162 796.663 622.152C796.863 623.651 796.962 625.15 797.162 626.649C797.362 628.148 797.562 629.646 797.662 631.245C797.762 632.044 797.762 632.744 797.862 633.543C797.962 634.343 798.062 635.042 798.162 635.841L798.661 640.438C798.761 642.036 799.061 643.535 799.261 645.134C799.46 646.733 799.66 648.231 799.76 649.93C800.16 653.128 800.66 656.325 800.859 659.822C799.56 658.823 798.261 657.624 797.062 656.525C795.863 655.426 794.564 654.227 793.465 652.928C791.23 650.434 789.161 647.798 787.27 645.034L784.572 640.837C783.644 639.463 782.81 638.027 782.074 636.541C781.275 635.042 780.576 633.643 779.776 632.144C778.977 630.646 778.277 629.147 777.678 627.648C772.525 615.667 768.932 603.074 766.986 590.178C765.008 577.524 764.271 564.706 764.788 551.908C765.088 545.514 765.688 539.119 766.587 532.724C767.086 529.526 767.586 526.329 768.285 523.132C768.964 519.821 769.831 516.551 770.883 513.339Z" fill="#646464"/>
<path d="M236.411 534.323C237.778 537.046 238.979 539.848 240.008 542.716C241.007 545.514 241.907 548.312 242.706 551.109C244.306 556.713 245.508 562.423 246.303 568.196C247.903 579.649 248.204 591.247 247.202 602.768C246.234 614.575 243.471 626.166 239.009 637.141C236.718 642.817 233.731 648.187 230.116 653.128C229.117 654.327 228.218 655.626 227.218 656.725L225.62 658.423C225.103 659.007 224.534 659.542 223.921 660.022C221.669 662.185 219.11 664.003 216.327 665.418C216.927 662.32 217.426 659.523 217.826 656.725L218.126 654.627L218.325 652.528C218.525 651.129 218.625 649.83 218.725 648.431C219.225 643.036 219.624 637.64 219.924 632.344C220.624 621.653 221.323 611.061 222.322 600.27C223.321 589.479 224.62 578.687 226.719 567.696C227.718 562.2 229.017 556.705 230.516 551.109C231.315 548.312 232.114 545.514 233.114 542.716C234.113 539.918 235.112 537.22 236.411 534.323Z" fill="#646464"/>
<path d="M278.777 498.601C283.174 498.601 287.57 498.801 291.867 499.101C296.163 499.401 300.46 499.8 304.656 500.2C313.05 501.099 321.443 502.099 329.536 503.098C345.923 505.096 361.711 506.795 377.398 506.995C392.864 507.179 408.296 505.501 423.361 501.999C431.045 500.154 438.565 497.681 445.843 494.605L451.339 492.107C453.138 491.207 454.936 490.208 456.835 489.309C458.733 488.409 460.432 487.21 462.33 486.211C464.229 485.212 465.927 483.913 467.926 482.814C467.126 484.812 466.127 486.811 465.128 488.809C464.129 490.808 462.83 492.606 461.531 494.505C460.232 496.403 458.833 498.102 457.334 499.8C455.835 501.499 454.237 503.098 452.638 504.696C446.004 511.034 438.418 516.294 430.156 520.284C421.939 524.327 413.243 527.315 404.277 529.177C395.343 531.068 386.229 531.972 377.098 531.875C359.321 531.538 341.725 528.229 325.04 522.083C316.867 519.168 308.89 515.73 301.159 511.791L295.464 508.793C293.565 507.694 291.667 506.695 289.868 505.596C286.033 503.49 282.33 501.154 278.777 498.601Z" fill="#646464"/>
<path d="M533.473 482.364C535.672 483.064 537.67 483.963 539.668 484.762C541.667 485.562 543.765 486.261 545.763 487.061C547.762 487.86 549.76 488.559 551.759 489.259L557.754 491.357C565.747 494.055 573.641 496.453 581.535 498.451C597.133 502.504 613.042 505.245 629.097 506.645C645.153 508.044 661.301 508.044 677.358 506.645C685.452 505.945 693.645 505.046 701.939 503.647C704.037 503.347 706.035 502.948 708.233 502.648L714.528 501.449C716.627 500.949 718.725 500.55 720.923 500.15C723.122 499.75 725.22 499.251 727.518 498.851C725.919 500.45 724.321 501.949 722.622 503.547C720.923 504.946 719.125 506.445 717.426 507.744C715.727 509.043 713.729 510.342 711.931 511.641C710.132 512.94 708.134 513.939 706.135 515.138C698.241 519.637 689.86 523.224 681.155 525.829C645.711 536.469 607.543 533.181 574.441 516.637C566.34 512.535 558.703 507.577 551.659 501.849C549.96 500.35 548.261 498.951 546.563 497.352C544.864 495.754 543.365 494.255 541.767 492.556C540.168 490.857 538.769 489.159 537.37 487.46C535.922 485.881 534.617 484.176 533.473 482.364Z" fill="#646464"/>
<path d="M479.317 606.065C479.483 608.895 479.449 611.733 479.217 614.558C478.817 617.256 478.317 620.054 477.718 622.752C476.918 625.449 476.019 628.047 475.12 630.645C474.021 633.143 472.822 635.741 471.523 638.139C466.03 647.917 458.54 656.428 449.54 663.119C440.6 669.869 430.307 674.607 419.365 677.008C416.567 677.508 413.869 677.907 411.071 678.307C408.279 678.523 405.477 678.59 402.678 678.507C399.88 678.307 397.082 678.007 394.385 677.608C391.617 677.067 388.907 676.264 386.291 675.21C388.689 673.511 390.987 672.012 393.185 670.713C395.384 669.214 397.582 667.915 399.68 666.617C401.779 665.318 403.877 663.919 405.975 662.62C408.074 661.321 409.972 659.922 411.97 658.723C419.864 653.527 427.358 648.431 434.552 643.035C441.747 637.64 448.941 631.944 456.135 625.949C457.834 624.35 459.732 622.852 461.631 621.253C463.529 619.654 465.228 618.055 467.226 616.357C469.025 614.658 470.923 612.959 473.022 611.261C475.12 609.562 477.018 607.764 479.317 606.065Z" fill="#646464"/>
<path d="M528.677 598.372C531.086 599.71 533.421 601.178 535.671 602.768C537.97 604.167 540.068 605.666 542.166 607.165C544.265 608.663 546.363 609.962 548.361 611.461C550.36 612.96 552.458 614.259 554.357 615.658C562.25 621.253 569.844 626.549 577.438 631.845C585.032 637.141 592.826 642.336 600.819 647.732C602.818 649.031 604.816 650.43 606.915 651.829C609.013 653.228 611.011 654.527 613.11 656.125C615.208 657.524 617.306 659.023 619.504 660.622C621.797 662.159 623.999 663.827 626.099 665.618C623.382 666.418 620.61 667.019 617.806 667.416C615.108 667.716 612.31 667.816 609.512 667.916C606.815 667.816 604.017 667.616 601.319 667.416C598.654 667.017 595.957 666.517 593.225 665.918C571.663 660.684 552.8 647.657 540.268 629.347C538.769 627.049 537.37 624.651 536.071 622.253C534.772 619.854 533.673 617.256 532.674 614.758C531.675 612.26 530.875 609.563 530.176 606.865C529.395 604.091 528.893 601.245 528.677 598.372Z" fill="#646464"/>
<path d="M490.008 851.369C491.507 851.569 492.906 851.669 494.005 851.769C495.038 851.79 496.072 851.757 497.102 851.669C498.557 851.489 499.994 851.188 501.399 850.77C503.597 850.07 504.496 849.371 504.996 849.371C505.496 849.371 506.295 850.17 508.393 851.169C509.731 851.801 511.14 852.271 512.59 852.568C513.609 852.807 514.645 852.974 515.687 853.068C517.015 853.206 518.351 853.24 519.684 853.168C520.057 853.813 520.391 854.48 520.683 855.166C520.897 855.82 521.064 856.487 521.183 857.164C521.283 857.864 521.283 858.463 521.383 859.163C521.483 859.862 521.283 860.462 521.283 861.161C520.909 863.751 519.799 866.178 518.086 868.156C516.277 870.182 514.033 871.772 511.521 872.807C509.01 873.843 506.297 874.295 503.585 874.132C500.874 873.968 498.235 873.193 495.866 871.864C493.497 870.535 491.46 868.686 489.908 866.457C488.462 864.251 487.634 861.698 487.51 859.063C487.493 858.395 487.527 857.727 487.61 857.064C487.695 856.39 487.829 855.722 488.01 855.066C488.215 854.409 488.483 853.774 488.809 853.168C489.138 852.524 489.54 851.92 490.008 851.369Z" fill="#646464"/>
<path d="M669.764 464.878C671.263 465.078 672.662 465.178 673.761 465.278C674.795 465.3 675.829 465.266 676.859 465.178C678.313 464.998 679.75 464.698 681.155 464.279C683.353 463.579 684.253 462.88 684.752 462.88C685.252 462.88 686.051 463.679 688.15 464.678C689.488 465.31 690.896 465.78 692.346 466.077C693.366 466.316 694.401 466.483 695.444 466.577C696.771 466.716 698.108 466.749 699.44 466.677C699.813 467.322 700.147 467.99 700.44 468.675C700.653 469.329 700.82 469.997 700.939 470.674C701.039 471.373 701.039 471.973 701.139 472.672C701.239 473.371 701.039 473.971 701.039 474.67C700.665 477.26 699.555 479.687 697.842 481.665C696.033 483.691 693.789 485.282 691.277 486.317C688.766 487.352 686.053 487.805 683.342 487.641C680.63 487.478 677.991 486.702 675.622 485.373C673.254 484.044 671.217 482.195 669.664 479.966C668.218 477.76 667.39 475.207 667.266 472.572C667.25 471.904 667.283 471.236 667.366 470.574C667.451 469.899 667.585 469.231 667.766 468.575C667.971 467.919 668.239 467.283 668.565 466.677C668.93 466.055 669.33 465.454 669.764 464.878Z" fill="#646464"/>
<path d="M316.947 464.878C318.445 465.078 319.844 465.178 320.943 465.278C321.977 465.3 323.011 465.266 324.041 465.178C325.496 464.998 326.933 464.698 328.337 464.279C330.536 463.579 331.435 462.88 331.935 462.88C332.434 462.88 333.234 463.679 335.332 464.678C336.67 465.31 338.079 465.78 339.528 466.077C340.548 466.316 341.583 466.483 342.626 466.577C343.954 466.716 345.29 466.749 346.623 466.677C346.996 467.322 347.329 467.99 347.622 468.675C347.835 469.329 348.002 469.997 348.122 470.674C348.222 471.373 348.222 471.973 348.321 472.672C348.421 473.371 348.222 473.971 348.222 474.67C347.847 477.26 346.737 479.687 345.024 481.665C343.215 483.691 340.971 485.282 338.46 486.317C335.948 487.352 333.235 487.805 330.524 487.641C327.813 487.478 325.173 486.702 322.805 485.373C320.436 484.044 318.399 482.195 316.847 479.966C315.4 477.76 314.572 475.207 314.449 472.572C314.432 471.904 314.465 471.236 314.548 470.574C314.633 469.899 314.767 469.231 314.948 468.575C315.154 467.919 315.421 467.283 315.748 466.677C316.077 466.033 316.479 465.43 316.947 464.878Z" fill="#646464"/>
</svg>
