<svg width="1159" height="1159" viewBox="0 0 1159 1159" fill="none" xmlns="http://www.w3.org/2000/svg">
<path d="M579 1079C855.142 1079 1079 855.142 1079 579C1079 302.858 855.142 79 579 79C302.858 79 79 302.858 79 579C79 855.142 302.858 1079 579 1079Z" fill="#EEEEEF"/>
<path d="M594.728 445.849C597.876 471.389 599.665 496.946 601.043 522.509C602.367 548.072 603.182 573.642 603.488 599.218C603.823 624.794 603.662 650.377 603.004 675.965C602.278 701.554 601.132 727.149 598.614 752.761C595.448 727.221 593.655 701.664 592.281 676.101C590.958 650.537 590.149 624.967 589.854 599.391C589.538 573.815 589.706 548.233 590.356 522.644C591.087 497.055 592.227 471.46 594.728 445.849Z" fill="#646464"/>
<path d="M640.4 445.849L594.728 441.688L598.852 891.25H608.794C612.368 891.252 615.862 890.188 618.827 888.193C621.793 886.199 624.097 883.365 625.443 880.054C638.141 848.794 672.163 759.665 668.411 710.729C667.241 695.478 664.982 681.523 657.666 665.428C657.666 665.428 677.091 674.061 682.126 621.543C684.712 594.576 666.299 580.536 666.299 580.536C666.299 580.536 679.968 571.903 676.371 550.32C672.774 528.738 655.508 516.508 655.508 516.508C655.508 516.508 671.335 514.349 663.421 475.5C659.969 458.552 640.4 445.849 640.4 445.849Z" fill="#F2956A"/>
<path d="M557.915 445.849L603.587 441.688L599.463 891.25H589.521C585.947 891.252 582.454 890.188 579.488 888.193C576.522 886.199 574.219 883.365 572.872 880.054C560.174 848.794 526.152 759.665 529.905 710.729C531.074 695.478 533.334 681.523 540.649 665.428C540.649 665.428 521.225 674.061 516.189 621.543C513.603 594.576 532.016 580.536 532.016 580.536C532.016 580.536 518.347 571.903 521.944 550.321C525.541 528.738 542.808 516.508 542.808 516.508C542.808 516.508 526.98 514.349 534.894 475.5C538.346 458.552 557.915 445.849 557.915 445.849Z" fill="#F2956A"/>
<path d="M640.4 445.848L619.306 444.939C612.313 444.646 605.369 444.302 598.454 443.946L600.427 442.14L601.405 470.209L602.22 498.277L603.031 526.346L603.673 554.415C604.065 573.128 604.612 591.841 604.876 610.553L605.811 666.691C606.176 685.404 606.286 704.117 606.498 722.83L607.074 778.968C607.364 816.394 607.525 853.819 607.557 891.245L598.852 882.545L606.786 882.532L608.77 882.529C609.134 882.493 609.462 882.524 609.804 882.463C610.482 882.4 611.15 882.254 611.792 882.028C613.091 881.596 614.275 880.875 615.254 879.919C615.751 879.453 616.187 878.928 616.553 878.354C616.741 878.07 616.914 877.777 617.073 877.476C617.152 877.325 617.209 877.162 617.285 877.009L617.399 876.772L617.584 876.317C621.529 866.616 625.318 856.844 628.95 847C636.231 827.342 642.958 807.484 648.608 787.415C651.453 777.393 654.045 767.317 656.171 757.205C658.339 747.207 659.848 737.078 660.69 726.883C661.088 721.94 661.161 716.977 660.907 712.024C660.612 706.956 660.136 701.834 659.403 696.901C658.692 691.983 657.676 687.114 656.362 682.322C655.01 677.54 653.34 672.853 651.363 668.293L660.477 659.102C660.388 659.059 660.296 659.022 660.202 658.991L660.157 658.978C660.125 658.974 660.16 658.984 660.16 658.984C660.206 659.002 660.254 659.015 660.302 659.024C660.446 659.055 660.592 659.075 660.74 659.085C661.103 659.099 661.466 659.053 661.814 658.949C662.842 658.614 663.776 658.04 664.539 657.274C666.841 654.867 668.636 652.022 669.817 648.907C672.733 642.017 674.334 633.95 675.511 625.903L675.901 622.853C676.03 621.833 676.167 620.796 676.234 619.889C676.412 618.018 676.485 616.138 676.451 614.258C676.376 610.518 675.808 606.804 674.762 603.213C673.704 599.607 672.168 596.159 670.194 592.961C669.209 591.355 668.114 589.819 666.918 588.363C666.324 587.637 665.705 586.932 665.069 586.267C664.751 585.933 664.43 585.611 664.109 585.3L663.261 584.521L663.623 576.3C663.54 576.358 663.716 576.246 663.792 576.191L664.111 575.961C664.332 575.792 664.559 575.612 664.785 575.417C665.249 575.021 665.692 574.601 666.113 574.158C666.982 573.246 667.769 572.259 668.464 571.208C669.887 569.044 670.948 566.662 671.604 564.157C672.875 558.79 672.889 553.202 671.644 547.829C670.425 542.216 668.218 536.864 665.124 532.025C663.565 529.56 661.818 527.219 659.9 525.022C658.94 523.92 657.939 522.857 656.896 521.831C655.891 520.838 654.837 519.895 653.737 519.007L655.094 513.472C654.936 513.5 655.056 513.484 655.072 513.479L655.22 513.446C655.333 513.414 655.455 513.379 655.583 513.329C655.853 513.229 656.115 513.109 656.367 512.97C656.923 512.661 657.438 512.284 657.901 511.847C658.924 510.864 659.773 509.714 660.412 508.447C661.807 505.588 662.689 502.507 663.02 499.344C663.851 492.778 663.328 485.883 662.396 479.095C662.126 477.401 661.903 475.662 661.538 474.089C661.148 472.471 660.63 470.887 659.99 469.35C658.672 466.218 656.988 463.253 654.974 460.517C650.843 454.955 645.935 450.015 640.4 445.848V445.848ZM640.4 445.848C646.377 449.539 651.761 454.114 656.369 459.417C658.711 462.116 660.726 465.082 662.371 468.255C663.201 469.873 663.889 471.56 664.429 473.296C664.973 475.083 665.304 476.785 665.704 478.504C667.33 485.478 668.036 492.634 667.806 499.791C667.661 503.586 666.846 507.326 665.398 510.837C664.567 512.732 663.421 514.472 662.007 515.982C661.246 516.785 660.39 517.492 659.457 518.087C658.965 518.399 658.451 518.675 657.919 518.912C657.648 519.035 657.359 519.146 657.06 519.251L656.581 519.398C656.365 519.46 656.145 519.508 655.922 519.543L657.279 514.008C658.651 514.978 659.97 516.021 661.23 517.132C662.46 518.209 663.645 519.33 664.784 520.496C667.073 522.835 669.18 525.345 671.085 528.005C674.981 533.407 677.885 539.458 679.661 545.876C680.554 549.143 681.114 552.492 681.334 555.872C681.532 559.365 681.265 562.87 680.539 566.293C679.78 569.82 678.452 573.2 676.607 576.3C675.666 577.874 674.588 579.362 673.384 580.746C672.771 581.454 672.121 582.129 671.438 582.77C671.094 583.097 670.731 583.416 670.352 583.734L669.754 584.213C669.521 584.39 669.382 584.502 668.975 584.772L669.337 576.552C670.027 577.079 670.408 577.411 670.904 577.838C671.362 578.243 671.808 578.652 672.241 579.065C673.107 579.892 673.927 580.745 674.715 581.623C676.291 583.373 677.745 585.228 679.067 587.177C681.73 591.084 683.857 595.331 685.392 599.804C686.925 604.294 687.86 608.968 688.173 613.703C688.333 616.055 688.341 618.416 688.196 620.769C688.139 621.977 688.031 623.045 687.93 624.13L687.619 627.395C686.604 636.113 685.27 644.899 681.893 653.783C680.166 658.656 677.451 663.119 673.918 666.893C671.704 669.167 668.99 670.893 665.992 671.934C663.455 672.801 660.746 673.043 658.096 672.641C657.637 672.577 657.167 672.478 656.683 672.361C656.43 672.294 656.204 672.239 655.922 672.147L655.501 672.008C655.304 671.934 655.261 671.929 654.855 671.755L663.969 662.564C668.798 672.715 672.185 683.491 674.032 694.579C674.959 700.093 675.565 705.506 675.995 710.989C676.398 716.597 676.431 722.226 676.094 727.839C675.416 738.752 674.021 749.609 671.916 760.339C669.897 770.974 667.416 781.451 664.687 791.836C659.072 812.556 652.455 832.89 645.162 852.952C641.504 862.98 637.678 872.945 633.684 882.846L633.497 883.31L633.204 883.977C633.002 884.423 632.809 884.875 632.587 885.312C632.141 886.187 631.649 887.037 631.112 887.859C630.046 889.512 628.793 891.036 627.378 892.401C624.559 895.155 621.16 897.245 617.429 898.517C615.572 899.163 613.647 899.593 611.692 899.8C610.722 899.907 609.746 899.964 608.769 899.971L606.786 899.967L598.852 899.954H598.831C597.69 899.954 596.559 899.728 595.505 899.291C594.451 898.853 593.493 898.212 592.686 897.404C591.88 896.596 591.24 895.637 590.805 894.582C590.369 893.526 590.146 892.396 590.147 891.254C590.157 853.828 590.279 816.402 590.511 778.976L591.028 722.838C591.22 704.125 591.31 685.412 591.656 666.699L592.531 610.56C592.776 591.847 593.302 573.134 593.674 554.42L594.287 526.351L595.069 498.281L595.853 470.211L596.802 442.142L596.807 442.014C596.822 441.55 597.022 441.111 597.361 440.794C597.7 440.476 598.152 440.307 598.616 440.323C598.668 440.325 598.723 440.329 598.775 440.335C605.789 441.215 612.773 442.107 619.709 443.05L640.4 445.848Z" fill="#E2815A"/>
<path d="M557.915 445.849L578.061 443.051C584.815 442.108 591.618 441.216 598.45 440.336C598.91 440.277 599.375 440.403 599.742 440.686C600.11 440.97 600.349 441.388 600.409 441.848L600.422 442.005L600.426 442.137L601.444 470.205L602.296 498.273L603.146 526.341L603.826 554.409C604.243 573.121 604.815 591.833 605.106 610.545L606.116 666.682C606.507 685.394 606.642 704.107 606.88 722.819L607.532 778.957C607.873 816.382 608.085 853.808 608.168 891.233C608.174 893.54 607.264 895.755 605.637 897.391C604.01 899.026 601.8 899.948 599.493 899.955H599.463L591.529 899.968L589.546 899.971C588.569 899.965 587.594 899.908 586.623 899.8C584.668 899.594 582.743 899.163 580.886 898.518C577.156 897.245 573.757 895.156 570.937 892.402C569.522 891.037 568.269 889.513 567.204 887.86C566.666 887.038 566.174 886.187 565.729 885.312C565.506 884.875 565.314 884.424 565.111 883.978L564.818 883.311L564.631 882.846C560.639 872.937 556.813 862.972 553.153 852.952C545.861 832.89 539.243 812.557 533.628 791.836C530.899 781.451 528.418 770.974 526.399 760.339C524.295 749.609 522.899 738.753 522.221 727.84C521.884 722.227 521.917 716.597 522.321 710.989C522.75 705.507 523.357 700.093 524.283 694.579C526.13 683.491 529.517 672.715 534.347 662.564L543.46 671.755C543.054 671.929 543.011 671.934 542.814 672.009L542.393 672.148C542.111 672.239 541.885 672.294 541.632 672.361C541.148 672.478 540.678 672.577 540.22 672.641C537.569 673.043 534.86 672.801 532.323 671.934C529.325 670.893 526.611 669.167 524.397 666.893C520.864 663.119 518.149 658.656 516.422 653.783C513.045 644.899 511.711 636.114 510.696 627.396L510.385 624.131C510.284 623.045 510.176 621.978 510.119 620.77C509.974 618.416 509.982 616.056 510.142 613.703C510.455 608.968 511.39 604.295 512.923 599.804C514.458 595.331 516.586 591.084 519.249 587.177C520.57 585.228 522.024 583.373 523.6 581.624C524.389 580.745 525.208 579.892 526.075 579.065C526.507 578.651 526.952 578.242 527.412 577.838C527.907 577.411 528.288 577.08 528.978 576.553L529.34 584.773C528.933 584.502 528.795 584.39 528.562 584.214L527.963 583.734C527.584 583.416 527.221 583.097 526.877 582.77C526.194 582.129 525.545 581.454 524.931 580.747C523.727 579.362 522.649 577.874 521.708 576.3C519.863 573.2 518.535 569.82 517.776 566.293C517.05 562.87 516.783 559.366 516.982 555.872C517.201 552.492 517.762 549.143 518.654 545.876C520.43 539.458 523.334 533.407 527.23 528.006C529.135 525.345 531.242 522.835 533.532 520.497C534.672 519.331 535.857 518.21 537.086 517.132C538.346 516.021 539.664 514.978 541.037 514.008L542.393 519.543C542.171 519.508 541.951 519.46 541.734 519.398L541.255 519.251C540.956 519.146 540.667 519.036 540.396 518.912C539.864 518.675 539.35 518.399 538.858 518.087C537.926 517.492 537.069 516.785 536.308 515.982C534.894 514.472 533.748 512.732 532.918 510.838C531.469 507.326 530.654 503.586 530.51 499.791C530.279 492.634 530.985 485.478 532.611 478.504C533.011 476.785 533.342 475.083 533.886 473.297C534.426 471.56 535.115 469.873 535.944 468.255C537.589 465.083 539.604 462.116 541.946 459.417C546.554 454.114 551.938 449.54 557.915 445.849V445.849ZM557.915 445.849C552.38 450.015 547.472 454.955 543.341 460.517C541.327 463.253 539.644 466.219 538.326 469.351C537.685 470.887 537.167 472.471 536.778 474.089C536.412 475.663 536.19 477.401 535.919 479.095C534.987 485.883 534.464 492.778 535.296 499.344C535.626 502.508 536.508 505.589 537.903 508.447C538.542 509.714 539.391 510.864 540.414 511.847C540.877 512.284 541.392 512.661 541.948 512.97C542.2 513.11 542.462 513.23 542.732 513.33C542.861 513.38 542.982 513.414 543.095 513.447L543.243 513.479C543.26 513.484 543.379 513.5 543.221 513.473L544.578 519.008C543.478 519.895 542.424 520.838 541.419 521.832C540.379 522.854 539.377 523.917 538.415 525.022C536.497 527.219 534.75 529.561 533.191 532.025C530.097 536.864 527.89 542.216 526.671 547.829C525.427 553.202 525.44 558.79 526.711 564.157C527.367 566.663 528.428 569.045 529.851 571.209C530.546 572.259 531.333 573.247 532.203 574.159C532.623 574.601 533.066 575.021 533.53 575.417C533.756 575.613 533.984 575.792 534.204 575.961L534.523 576.191C534.599 576.247 534.776 576.359 534.692 576.3L535.054 584.521L534.206 585.3C533.886 585.612 533.564 585.933 533.246 586.267C532.61 586.932 531.991 587.637 531.398 588.363C530.201 589.819 529.107 591.355 528.122 592.962C526.147 596.159 524.611 599.607 523.553 603.213C522.508 606.805 521.94 610.518 521.864 614.258C521.831 616.138 521.903 618.018 522.081 619.889C522.148 620.797 522.285 621.833 522.414 622.853L522.804 625.903C523.981 633.95 525.582 642.018 528.498 648.907C529.68 652.022 531.474 654.867 533.776 657.274C534.539 658.04 535.473 658.614 536.501 658.949C536.849 659.054 537.212 659.099 537.576 659.085C537.723 659.075 537.869 659.055 538.013 659.024C538.062 659.015 538.109 659.002 538.155 658.985C538.155 658.985 538.19 658.974 538.158 658.978L538.113 658.991C538.019 659.022 537.927 659.059 537.838 659.102L546.952 668.293C544.976 672.853 543.306 677.54 541.953 682.322C540.639 687.114 539.624 691.983 538.912 696.901C538.18 701.834 537.703 706.956 537.408 712.025C537.154 716.977 537.227 721.94 537.625 726.883C538.467 737.078 539.977 747.207 542.145 757.205C544.271 767.318 546.862 777.393 549.707 787.415C555.358 807.484 562.085 827.342 569.365 847C572.989 856.835 576.778 866.607 580.732 876.317L580.916 876.772L581.03 877.009C581.106 877.163 581.163 877.325 581.243 877.476C581.401 877.777 581.574 878.07 581.762 878.354C582.129 878.928 582.565 879.454 583.061 879.92C584.04 880.875 585.224 881.596 586.523 882.028C587.166 882.254 587.833 882.4 588.512 882.463C588.853 882.525 589.181 882.494 589.546 882.529L591.529 882.532L599.463 882.545L590.758 891.266C590.717 853.84 590.788 816.414 590.97 778.988L591.41 722.849C591.576 704.135 591.641 685.422 591.961 666.709L592.76 610.568C592.979 591.855 593.48 573.141 593.827 554.428L594.401 526.357L595.145 498.286L595.891 470.216L596.802 442.144L598.778 443.945C592.044 444.302 585.28 444.646 578.468 444.938L557.915 445.849Z" fill="#E2815A"/>
<path d="M655.508 516.508C645.887 519.776 635.985 522.151 625.929 523.602C615.941 525.149 605.863 526.042 595.759 526.275C585.605 526.589 575.442 526.076 565.372 524.741C562.847 524.431 560.326 524.033 557.814 523.498C555.304 522.965 552.804 522.551 550.325 521.812C547.85 521.086 545.385 520.425 542.97 519.547C540.564 518.59 538.191 517.614 535.891 516.508C546.13 516.691 555.959 516.407 565.856 516.175L595.501 515.37C605.398 515.16 615.325 515.01 625.305 515.075C635.292 515.178 645.31 515.455 655.508 516.508Z" fill="#E2815A"/>
<path d="M525.1 580.536C537.125 580.087 548.943 580.307 560.724 580.57L595.865 581.532C607.442 581.767 619.065 581.633 630.78 581.311C642.505 581.041 654.27 580.599 666.299 580.536C655.107 584.91 643.467 588.034 631.589 589.852C619.704 591.817 607.664 592.682 595.62 592.437C583.66 592.131 571.735 591.011 559.927 589.083C548.09 587.262 536.436 584.402 525.1 580.536V580.536Z" fill="#E2815A"/>
<path d="M533.733 665.428C544.379 666.436 554.689 667.358 564.999 668.006C575.288 668.705 585.536 669.065 595.742 669.086L599.576 669.145C600.854 669.171 602.128 669.075 603.405 669.057L611.074 668.941C616.168 668.612 621.313 668.613 626.424 668.129C636.741 667.661 646.93 666.195 657.666 665.428C648.265 670.606 638.156 674.377 627.66 676.619L623.726 677.503C622.414 677.814 621.08 677.934 619.757 678.158C617.105 678.577 614.439 678.905 611.773 679.267C606.426 679.661 601.056 680.129 595.687 679.994C584.954 679.983 574.254 678.8 563.778 676.469C553.357 674.107 543.068 670.767 533.733 665.428Z" fill="#E2815A"/>
<path d="M401.077 440.019C400.941 441.545 400.896 443.077 400.944 444.608C400.947 446.137 400.981 447.668 401.033 449.198C401.127 452.257 401.291 455.314 401.474 458.367C401.794 464.473 402.242 470.567 402.817 476.648C403.883 488.806 405.32 500.91 407.231 512.891C408.139 518.887 409.243 524.841 410.427 530.755C411.619 536.667 412.937 542.541 414.499 548.315C416.023 554.097 417.746 559.797 419.742 565.342C420.738 568.141 421.811 570.787 422.928 573.582L424.688 578.021L426.33 582.519C430.652 594.71 433.287 607.436 434.16 620.342C434.858 633.321 433.747 646.334 430.858 659.006C429.485 665.253 427.79 671.331 426.179 677.203C425.334 680.195 424.723 682.803 423.692 686.282C422.707 689.539 421.547 692.652 420.307 695.652C417.825 701.647 415.121 707.242 412.537 712.761C409.939 718.267 407.471 723.707 405.147 729.164C400.524 740.023 396.76 751.227 393.888 762.673C392.443 768.392 391.217 774.173 390.21 780.016L389.487 784.405L388.862 788.848C388.438 791.811 387.968 794.761 387.655 797.759C384.903 821.814 383.361 845.992 383.036 870.202C382.533 894.496 383.096 918.845 384.572 943.173C385.994 967.517 388.62 991.815 392.45 1016.07C384.979 992.646 380.022 968.421 376.263 944.051C372.619 919.621 370.384 895.002 369.567 870.316C368.608 845.525 369.235 820.698 371.447 795.988C371.687 792.884 372.092 789.77 372.451 786.658L373.02 781.992L373.713 777.303C374.692 771.055 375.905 764.834 377.35 758.642C380.292 746.275 384.256 734.174 389.199 722.464C394.007 710.79 399.95 699.709 404.46 689.076C405.564 686.418 406.572 683.795 407.411 681.205C408.171 678.827 409.048 675.49 409.913 672.601C411.642 666.688 413.328 660.985 414.677 655.286C417.532 644.103 418.855 632.583 418.609 621.043C418.214 609.444 416.317 597.946 412.964 586.835L411.657 582.631L410.231 578.453C409.22 575.504 408.157 572.41 407.306 569.366C405.543 563.252 404.116 557.104 402.912 550.945C400.649 538.688 399.132 526.305 398.369 513.864C397.632 501.49 397.422 489.135 397.741 476.801C397.94 470.635 398.261 464.481 398.704 458.336C398.949 455.265 399.248 452.199 399.602 449.138C399.886 446.068 400.379 443.022 401.077 440.019V440.019Z" fill="#646464"/>
<path d="M823.424 751.098C816.199 757.655 808.513 763.687 800.427 769.147C792.382 774.686 784.014 779.761 775.456 784.504C766.892 789.236 758.134 793.613 749.18 797.636C740.225 801.627 731.076 805.183 721.828 808.479C712.581 811.787 703.157 814.579 693.685 817.221L686.535 819.028L682.954 819.918L679.352 820.707L672.142 822.282L664.892 823.663C645.517 827.285 625.906 829.512 606.212 830.326L598.821 830.549L595.124 830.654L591.425 830.598L576.622 830.37C574.155 830.299 571.681 830.366 569.219 830.181L561.83 829.644L547.042 828.556L532.327 826.656L524.966 825.69L517.664 824.345C512.802 823.412 507.905 822.626 503.066 821.566L488.619 818.042C469.403 812.981 450.614 806.42 432.425 798.418L425.62 795.347C423.34 794.348 421.147 793.151 418.907 792.061C416.682 790.936 414.438 789.85 412.228 788.691L405.656 785.086C403.45 783.915 401.301 782.622 399.15 781.333C396.998 780.043 394.83 778.793 392.723 777.397C390.6 776.033 388.48 774.688 386.398 773.2C385.352 772.458 384.31 771.775 383.261 770.984C382.196 770.188 381.218 769.496 380.023 768.54L393.525 763.231C392.434 771.363 391.418 779.596 390.456 787.789C389.49 795.991 388.602 804.194 387.791 812.398C386.973 820.598 386.258 828.795 385.705 836.954C385.165 845.09 384.709 853.292 384.841 861.091L376.133 852.637C377.643 852.628 378.892 852.645 380.235 852.674L384.169 852.796C386.78 852.898 389.377 853.037 391.962 853.211C397.136 853.565 402.291 854.001 407.419 854.612C417.684 855.77 427.875 857.37 437.999 859.317C458.262 863.204 478.195 868.648 497.621 875.6C507.32 879.123 516.884 883.002 526.312 887.237C530.974 889.46 535.69 891.571 540.249 894.008C542.539 895.206 544.855 896.348 547.12 897.592L553.893 901.363C571.884 911.594 588.891 923.463 604.699 936.821L597.05 935.573L626.614 924.388L656.279 913.505C676.082 906.315 695.942 899.258 715.859 892.333C725.826 888.881 735.851 885.59 745.928 882.378C755.972 879.16 766.197 876.086 776.557 873.482C797.124 868.434 817.692 863.911 838.893 860.981L835.912 864.186C836.684 854.817 836.941 845.19 836.897 835.666C836.865 826.117 836.491 816.562 835.693 807.032C834.823 797.505 833.473 788.029 831.647 778.638C830.534 773.993 829.614 769.271 828.126 764.714C826.833 760.02 825.219 755.795 823.424 751.098ZM823.424 751.098C824.363 753.224 825.388 755.37 826.435 757.605C827.57 759.845 828.262 762.113 829.15 764.371C830.965 768.86 832.215 773.529 833.664 778.151C836.16 787.508 838.121 797.001 839.537 806.581C840.906 816.169 841.878 825.808 842.452 835.497C842.966 845.199 843.189 854.831 842.86 864.67L842.771 867.345L839.878 867.875C829.767 869.731 819.5 872.179 809.384 874.725C799.242 877.292 789.136 880.017 779.068 882.9C769.123 885.811 759.306 889.172 749.441 892.755C739.586 896.281 729.787 900.039 719.952 903.693C700.306 911.086 680.724 918.71 661.176 926.424L602.598 949.71L598.489 951.343L594.948 948.463C579.68 935.995 563.295 924.962 546 915.505C537.38 910.725 528.456 906.515 519.491 902.417C510.456 898.459 501.284 894.829 491.973 891.526C473.298 885.052 454.177 879.941 434.762 876.235C425.055 874.397 415.281 872.89 405.479 871.814C400.579 871.259 395.675 870.82 390.78 870.452C388.333 870.276 385.891 870.133 383.455 870.021L379.822 869.888C378.643 869.854 377.368 869.834 376.354 869.834L367.735 869.828L367.646 861.38C367.552 852.569 368.088 844.178 368.686 835.754C369.302 827.35 370.078 819.007 370.954 810.69C371.822 802.37 372.767 794.071 373.788 785.791C374.809 777.498 375.871 769.257 377.033 760.937L379.073 746.338L390.535 755.628C391.236 756.196 392.234 756.922 393.113 757.586C394 758.266 394.99 758.922 395.923 759.592C397.788 760.948 399.777 762.206 401.717 763.512C403.642 764.838 405.669 766.049 407.668 767.292C409.668 768.536 411.663 769.786 413.737 770.929L419.897 774.443C421.975 775.577 424.094 776.643 426.19 777.747C428.305 778.818 430.364 779.994 432.524 780.981L438.968 784.015C456.272 791.969 474.173 798.553 492.507 803.707C510.922 808.788 529.655 812.641 548.58 815.24L562.858 816.68L570.002 817.4C572.384 817.646 574.783 817.643 577.173 817.777L591.533 818.393L595.125 818.548L598.721 818.544L605.917 818.54C625.13 818.477 644.313 817.034 663.319 814.222C672.848 812.926 682.27 810.992 691.697 809.055C701.077 806.921 710.442 804.636 719.664 801.831C738.173 796.298 756.23 789.351 773.675 781.051C782.404 776.88 790.938 772.292 799.304 767.39C807.692 762.494 815.75 757.051 823.424 751.098Z" fill="#646464"/>
<path d="M753.339 440.019C751.784 445.992 750.291 451.962 748.968 457.97C747.582 463.958 746.318 469.963 745.176 475.986C742.794 487.936 741.081 500.01 740.047 512.152C739.529 518.122 739.323 524.114 739.43 530.106C739.476 535.911 740.084 541.697 741.245 547.385C741.82 550.055 742.613 552.674 743.617 555.214C744.704 557.738 746.019 560.158 747.545 562.444C750.763 567.756 753.901 573.098 756.961 578.469C769.295 599.923 780.861 621.783 791.829 643.992C797.294 655.107 802.554 666.334 807.611 677.676C812.625 689.037 817.417 700.523 821.85 712.21C826.353 723.983 830.243 735.982 833.504 748.157C835.072 754.308 836.402 760.804 837.37 766.981C838.355 773.214 839.181 779.442 839.85 785.666C842.388 810.458 843.349 835.385 842.728 860.299C842.216 885.132 840.14 909.909 836.512 934.482C832.706 958.976 827.408 983.379 818.636 1006.49C823.6 982.457 826.762 958.086 828.094 933.581C829.583 909.174 829.889 884.728 829.146 860.346C828.376 835.975 826.724 811.621 823.568 787.628C822.728 781.644 821.859 775.677 820.823 769.77C819.779 763.806 818.536 758.258 816.978 752.506C813.877 741.064 809.958 729.635 805.64 718.322C801.394 706.978 796.771 695.715 791.922 684.528C787.141 673.309 782.097 662.181 776.975 651.076C766.728 628.867 755.946 606.852 744.902 584.989C742.114 579.54 739.328 574.087 736.495 568.684L735.428 566.663L734.877 565.61L734.26 564.38C733.479 562.766 732.803 561.103 732.235 559.402C731.158 556.147 730.381 552.801 729.913 549.404C728.099 536.145 729.479 523.45 731.497 511.07C733.721 498.804 736.712 486.691 740.453 474.8C742.318 468.887 744.307 463.024 746.418 457.213C748.607 451.427 750.816 445.657 753.339 440.019Z" fill="#646464"/>
<path d="M599.824 942.642C603.025 947.514 605.327 952.92 606.621 958.604C607.871 963.832 608.497 969.19 608.487 974.566C608.513 979.941 607.895 985.3 606.645 990.528C605.353 996.216 603.042 1001.62 599.824 1006.49C596.605 1001.62 594.294 996.217 593.002 990.528C591.753 985.3 591.135 979.941 591.161 974.566C591.15 969.19 591.777 963.832 593.027 958.604C594.321 952.92 596.623 947.514 599.824 942.642V942.642Z" fill="#646464"/>
<path d="M401.077 440.019C414.628 433.458 428.558 427.708 442.792 422.802C457.042 417.83 471.554 413.644 486.262 410.263C501.017 406.823 515.991 404.407 531.079 403.034C538.641 402.399 546.237 401.953 553.854 401.969C557.662 401.884 561.473 402.079 565.286 402.156C569.086 402.397 572.935 402.555 576.674 402.927C591.745 404.098 606.743 405.873 621.705 407.891C636.645 410.025 651.555 412.366 666.407 415.014C681.256 417.673 696.064 420.546 710.832 423.631C725.599 426.802 740.256 430.129 755 433.826L748.132 436.279C750.777 432.429 753.438 428.214 755.939 424.068C758.451 419.889 760.876 415.656 763.181 411.366C767.8 402.848 771.913 394.064 775.498 385.062C779.03 376.275 781.68 367.159 783.409 357.849C784.911 348.696 785.082 339.374 783.917 330.172C781.77 311.379 775.789 292.747 769.372 274.049C766.174 264.645 762.741 255.266 759.954 245.103L758.98 241.339C758.68 240.191 758.358 239.064 758.035 237.94C757.403 235.699 756.733 233.502 755.984 231.447C755.352 229.608 754.55 227.831 753.588 226.14C753.504 225.991 753.411 225.847 753.311 225.708C753.24 225.597 753.162 225.491 753.079 225.389C752.952 225.22 752.854 225.144 753.003 225.292C753.52 225.722 754.133 226.021 754.789 226.166C755.6 226.376 756.444 226.417 757.271 226.287C757.778 226.209 758.274 226.07 758.749 225.874C759.018 225.765 759.28 225.637 759.533 225.491L759.977 225.213L760.256 225.013C760.372 224.922 760.422 224.896 760.79 224.571L761.925 223.319C761.105 224.418 760.447 225.249 759.707 226.178L757.534 228.844C756.076 230.597 754.599 232.32 753.103 234.012C750.111 237.404 747.044 240.709 743.902 243.927C737.624 250.375 731.079 256.532 724.268 262.399C717.467 268.272 710.417 273.843 703.117 279.113C695.81 284.357 688.242 289.246 680.477 293.811C664.912 302.974 648.47 310.558 631.396 316.45C614.272 322.351 596.552 326.355 578.554 328.389L576.277 328.646L574.238 327.729L539.206 311.978L504.195 296.177L434.173 264.575L432.095 263.637L430.986 261.851C423.262 249.417 415.805 236.949 408.605 224.164C405.027 217.74 401.505 211.344 398.3 204.393C397.504 202.63 396.731 200.853 396.015 198.78C395.565 197.525 395.241 196.228 395.048 194.909C394.971 194.333 394.944 193.751 394.967 193.17C395.005 191.688 395.493 190.252 396.366 189.054C396.542 188.821 396.731 188.598 396.933 188.386C397.139 188.168 397.362 187.964 397.599 187.779C397.873 187.558 398.165 187.361 398.472 187.188C398.997 186.892 399.561 186.671 400.147 186.531C401.085 186.309 402.062 186.306 403.002 186.52C403.915 186.733 404.771 187.144 405.508 187.725C405.982 188.103 406.4 188.545 406.752 189.039C406.966 189.344 407.156 189.666 407.32 190.002C407.413 190.2 407.498 190.403 407.575 190.609C407.663 190.847 407.697 190.967 407.733 191.092L407.837 191.486C407.914 191.822 407.971 192.162 408.009 192.505C408.084 193.244 408.106 193.987 408.073 194.728C408.052 195.319 408.016 195.857 407.973 196.377C407.885 197.412 407.773 198.388 407.649 199.347C407.4 201.263 407.107 203.116 406.795 204.958C404.168 219.588 400.601 233.723 396.679 247.839C392.715 261.922 388.268 275.871 383.106 289.596C380.484 296.442 377.678 303.23 374.596 309.912C373.054 313.252 371.433 316.562 369.735 319.84C368.896 321.462 367.974 323.137 367.133 324.685C366.317 326.174 365.591 327.728 364.912 329.307C362.242 335.765 360.432 342.546 359.53 349.476C358.562 356.491 358.285 363.585 358.704 370.654C359.553 384.803 363.043 398.982 369.927 411.506C373.337 417.809 377.728 423.53 382.936 428.452C388.226 433.383 394.375 437.304 401.077 440.019ZM401.077 440.019C394.128 437.727 387.674 434.142 382.057 429.452C376.42 424.702 371.575 419.085 367.704 412.813C359.927 400.244 355.605 385.738 353.988 371.049C353.166 363.658 353.112 356.202 353.826 348.801C354.5 341.294 356.161 333.909 358.765 326.837C359.445 325.056 360.185 323.289 361.041 321.561C361.859 319.885 362.608 318.343 363.36 316.707C364.853 313.474 366.267 310.198 367.601 306.881C370.282 300.255 372.701 293.505 374.943 286.691C379.487 273.082 383.343 259.213 386.715 245.239C390.05 231.281 393.012 217.12 395.031 203.116C395.278 201.376 395.502 199.641 395.675 197.955C395.761 197.114 395.831 196.287 395.875 195.513C395.896 195.13 395.909 194.761 395.911 194.447C395.919 194.282 395.914 194.118 395.893 193.954C395.906 194.072 395.926 194.188 395.955 194.303L396.014 194.533L396.12 194.854C396.176 195.008 396.24 195.158 396.312 195.304C396.448 195.59 396.609 195.863 396.793 196.121C397.632 197.296 398.873 198.121 400.281 198.439C401.166 198.643 402.085 198.639 402.968 198.428C403.501 198.306 404.013 198.107 404.488 197.836C404.746 197.692 404.992 197.528 405.223 197.344C405.413 197.191 405.594 197.026 405.765 196.852C406.061 196.541 406.321 196.198 406.541 195.829C406.944 195.17 407.177 194.421 407.22 193.65C407.235 193.361 407.213 193.263 407.222 193.266L407.357 193.73C407.438 193.99 407.549 194.305 407.674 194.635C408.185 195.974 408.897 197.51 409.647 199.025C412.715 205.153 416.385 211.367 420.069 217.491C427.498 229.751 435.371 241.913 443.302 253.892L440.115 251.169L510.558 281.819L545.78 297.143L580.98 312.518L576.665 311.859C593.432 309.872 609.93 306.051 625.863 300.465C641.835 294.856 657.207 287.665 671.749 278.998C679.031 274.667 686.118 270.016 693.009 265.043C699.915 260.11 706.603 254.882 713.075 249.358C719.538 243.844 725.752 238.06 731.716 232.005C734.689 228.983 737.584 225.897 740.399 222.747C741.802 221.174 743.178 219.586 744.526 217.985L746.508 215.58C747.136 214.805 747.833 213.921 748.324 213.272L748.894 212.518L749.459 212.019C749.856 211.669 749.938 211.62 750.085 211.506L750.459 211.238C750.689 211.082 750.909 210.947 751.102 210.837C752.207 210.203 753.421 209.78 754.681 209.591C756.126 209.373 757.6 209.451 759.014 209.821C760.868 210.325 762.58 211.253 764.015 212.532C764.922 213.325 765.741 214.214 766.458 215.183C766.769 215.595 767.062 216.005 767.305 216.388C767.572 216.786 767.806 217.168 768.019 217.539C769.515 220.185 770.751 222.97 771.709 225.854C772.624 228.496 773.374 231.076 774.042 233.645L775.753 240.978C778.106 250.074 781.373 259.484 784.471 268.981C790.687 287.998 796.825 307.658 798.954 328.582C799.492 333.851 799.7 339.149 799.578 344.444C799.446 349.815 798.884 355.168 797.897 360.449C795.848 370.72 792.73 380.748 788.593 390.37C784.599 399.802 780.053 408.989 774.976 417.885C772.466 422.319 769.85 426.684 767.126 430.98C764.382 435.303 761.639 439.464 758.547 443.759L755.941 447.379L751.678 446.212C737.352 442.289 722.773 438.643 708.227 435.191C693.674 431.685 679.07 428.395 664.416 425.322C649.763 422.254 635.055 419.491 620.312 416.931C612.927 415.767 605.551 414.483 598.15 413.447C594.451 412.916 590.754 412.334 587.05 411.844L575.927 410.448C546.5 406.728 516.493 409.014 487.119 414.395C472.404 417.167 457.842 420.697 443.492 424.972C429.086 429.198 414.926 434.222 401.077 440.019V440.019Z" fill="#646464"/>
<path d="M278.157 179.968C277.976 183.477 278.145 186.99 278.201 190.5C278.297 194.01 278.42 197.52 278.572 201.029L279.52 222.071C280.3 236.092 281.025 250.103 281.999 264.095C283.005 278.085 283.978 292.064 285.185 306.014C286.385 319.963 287.877 333.874 289.423 347.743C291.026 361.603 292.895 375.419 295.353 389.039C296.543 395.898 297.984 402.508 299.451 409.359C301.037 416.435 302.204 423.602 303.145 430.793C304.89 445.152 305.479 459.629 304.904 474.083C304.441 488.454 303.007 502.662 301.52 516.642C300.058 530.627 298.535 544.418 297.956 558.034C297.25 571.452 297.994 584.907 300.174 598.166C301.385 604.897 302.702 611.825 304.068 618.668L308.207 639.264L316.626 680.493L333.608 762.995L350.37 845.568L350.724 847.311L350.194 848.796C347.83 855.42 345.62 862.437 343.628 869.374C341.631 876.344 339.794 883.37 338.171 890.443C334.87 904.577 332.419 918.897 330.83 933.325C329.32 947.777 329.143 962.337 330.302 976.821C330.815 984.072 331.909 991.27 333.575 998.346C334.416 1001.87 335.633 1005.29 337.206 1008.55C338.004 1010.18 338.989 1011.7 340.14 1013.09C341.244 1014.54 342.8 1015.59 344.564 1016.07C342.711 1015.76 341.01 1014.86 339.726 1013.49C338.39 1012.17 337.222 1010.7 336.25 1009.1C334.325 1005.9 332.749 1002.5 331.552 998.959C329.196 991.903 327.47 984.653 326.395 977.292C325.23 969.955 324.381 962.617 323.926 955.161C323.511 947.722 323.494 940.268 323.773 932.831C324.054 925.393 324.631 917.97 325.44 910.576C326.278 903.185 327.408 895.834 328.696 888.513C329.988 881.19 331.498 873.91 333.18 866.661C334.886 859.386 336.69 852.266 338.934 844.944L338.758 848.171C332.145 820.85 325.484 793.55 319.062 766.188C312.65 738.824 306.408 711.417 300.336 683.967L291.428 642.723L287.186 622.024C285.779 615.098 284.443 608.231 283.142 601.145C280.495 586.537 280.119 571.728 280.763 557.299C281.397 542.842 283.095 528.701 284.734 514.773C286.382 500.842 287.871 487.09 288.611 473.389C289.377 459.77 289.105 446.112 287.799 432.533C287.09 425.779 286.176 419.041 284.86 412.372C284.26 408.987 283.515 405.347 282.958 401.847C282.391 398.312 281.843 394.779 281.38 391.247C279.433 377.12 278.12 363.011 277.079 348.907C275.993 334.808 275.448 320.696 275.014 306.603C274.611 292.507 274.373 278.419 274.487 264.332C274.56 250.247 274.757 236.17 275.317 222.1C275.597 215.066 275.86 208.033 276.302 201.006C276.514 197.493 276.755 193.98 277.024 190.47C277.313 186.963 277.564 183.441 278.157 179.968Z" fill="#646464"/>
<path d="M884.08 186.043C882.382 194.807 880.604 203.545 878.746 212.258L875.977 225.331L873.079 238.365C869.294 255.766 865.146 273.057 861.13 290.382L854.89 316.307L848.48 342.179L841.932 368.01L835.254 393.803L835.526 391.826C835.583 419.88 835.611 447.945 835.361 476C835.166 504.057 834.815 532.109 834.306 560.156L833.592 602.19C833.461 609.184 833.48 616.106 833.253 623.31C833.153 626.875 832.905 630.419 832.737 633.969L831.96 644.579C830.815 658.699 828.844 672.693 826.655 686.615C824.342 700.522 821.707 714.362 818.38 728.043C819.561 714.022 820.593 700.024 821.352 686.033C822.209 672.055 822.64 658.07 822.833 644.153L822.801 633.725C822.699 630.259 822.678 626.788 822.511 623.336L821.515 602.36C820.922 588.284 820.516 574.244 820.208 560.193C819.571 532.101 819.334 504.021 819.337 475.942C819.292 447.863 819.617 419.793 820.065 391.713L820.082 390.619L820.337 389.736L827.73 364.097L835.253 338.496L842.914 312.937L850.745 287.43C856.109 270.468 861.343 253.471 866.939 236.584L871.076 223.902L875.342 211.26C878.165 202.827 881.078 194.421 884.08 186.043Z" fill="#646464"/>
<path d="M774.404 289.821L783.473 267.7L787.997 256.68L792.613 245.726L811.053 202.005L799.235 247.795L796.293 259.219L794.559 270.977L791.113 294.412L774.404 289.821Z" fill="#646464"/>
<path d="M457.895 483.468C460.091 503.891 462.482 523.868 466.679 543.127C467.139 545.546 467.788 547.906 468.36 550.282C468.895 552.67 469.599 554.988 470.235 557.327C470.824 559.685 471.69 561.925 472.373 564.225C473.041 566.471 473.953 568.91 474.757 571.262L479.699 585.532L484.578 599.874L489.324 614.3C490.836 619.139 492.401 623.968 493.864 628.837C496.781 638.589 499.616 648.366 501.909 658.504C502.207 659.759 502.499 661.038 502.739 662.349C502.987 663.66 503.265 664.906 503.469 666.303C504.01 669.082 504.242 671.912 504.161 674.742C504.085 679.856 503.934 684.972 503.746 690.087C503.312 700.318 502.737 710.542 501.524 720.77C498.962 710.766 497.039 700.759 495.256 690.758C494.393 685.756 493.568 680.757 492.817 675.755L492.528 673.88L492.455 673.413L492.354 673.057L492.167 672.348C491.981 671.482 491.568 670.279 491.229 669.19C490.908 668.105 490.457 666.922 490.061 665.782C489.658 664.641 489.264 663.481 488.826 662.31L478.28 634.061L473.108 619.775L468.151 605.375C466.576 600.544 464.978 595.714 463.459 590.847C461.984 585.969 460.467 581.094 459.108 576.157C458.439 573.659 457.725 571.293 457.112 568.632C456.487 566.035 455.825 563.434 455.407 560.82C454.419 555.64 453.7 550.412 453.253 545.158C452.368 534.792 452.308 524.372 453.072 513.996C453.45 508.841 454.011 503.71 454.798 498.614C455.542 493.51 456.576 488.454 457.895 483.468V483.468Z" fill="#646464"/>
<path d="M704.624 522.155C707.153 534.939 708.854 547.872 709.716 560.875C710.669 573.782 711.113 586.688 711.12 599.595L711.042 609.275L710.832 618.858C710.691 625.119 710.759 631.428 710.871 637.779C711.133 650.495 711.795 663.291 712.073 676.455C706.465 664.485 703.022 651.739 700.701 638.774C699.575 632.249 698.842 625.663 698.507 619.051C698.316 615.683 698.3 612.514 698.206 609.275L698.128 599.595C698.135 586.688 698.579 573.782 699.532 560.875C700.394 547.872 702.095 534.939 704.624 522.155V522.155Z" fill="#646464"/>
<path d="M464.279 726.091C470.326 732.72 475.843 739.814 480.778 747.307C485.661 754.496 490.101 761.781 494.352 769.143C498.626 776.493 502.76 783.836 506.658 791.476C510.639 799.08 514.63 806.626 518.307 815.395C513.98 813.629 509.89 811.33 506.133 808.55C502.41 805.838 498.914 802.827 495.681 799.547C489.384 792.996 483.905 785.704 479.364 777.833C474.854 770.027 471.217 761.749 468.52 753.147C467.169 748.819 466.103 744.408 465.327 739.941C464.489 735.374 464.138 730.732 464.279 726.091V726.091Z" fill="#646464"/>
<path d="M689.875 813.804L704.187 788.343L705.891 785.269C706.478 784.262 707.05 783.247 707.58 782.205C708.639 780.122 709.826 778.137 710.893 776.081C711.94 774.013 713.033 771.98 714.147 769.963C715.184 767.903 716.2 765.834 717.272 763.795C721.339 755.539 725.524 747.311 729.324 738.718C731.467 734.494 733.18 730.098 735.354 725.722C736.521 723.549 737.356 721.285 738.464 719.045C739.513 716.794 740.698 714.531 742.018 712.257C742.556 714.766 742.959 717.302 743.226 719.854C743.56 722.389 743.712 724.945 743.682 727.502C743.688 732.596 743.244 737.681 742.355 742.698C738.814 762.96 729.298 781.702 715.029 796.518C711.469 800.181 707.597 803.53 703.459 806.525C699.289 809.567 694.718 812.017 689.875 813.804Z" fill="#646464"/>
<path d="M390.022 116.184C392.444 123.141 394.484 130.149 396.363 137.177C398.246 144.205 399.914 151.261 401.517 158.325C403.061 165.397 404.535 172.478 405.847 179.581C407.19 186.679 408.385 193.796 409.529 200.921L408.226 197.407C410.189 199.887 411.984 202.496 413.599 205.215C415.231 207.949 416.66 210.799 417.873 213.743C419.135 216.774 420.139 219.906 420.875 223.106C421.711 226.571 422.093 230.13 422.01 233.693C418.708 232.35 415.595 230.583 412.75 228.437C410.108 226.488 407.635 224.319 405.356 221.955C403.139 219.67 401.093 217.225 399.235 214.639C397.383 212.075 395.705 209.39 394.211 206.603L393.04 204.402L392.908 203.089C392.186 195.91 391.515 188.724 390.992 181.519C390.438 174.317 390.046 167.095 389.724 159.864C389.46 152.625 389.262 145.377 389.279 138.101C389.292 130.826 389.466 123.53 390.022 116.184Z" fill="#646464"/>
<path d="M746.764 216.023L755.922 191.028C759.013 182.708 762.115 174.4 765.368 166.097C766.189 164.021 767.015 161.943 767.889 159.852C768.307 158.818 768.816 157.718 769.28 156.653L769.817 155.599L770.275 154.753C770.34 154.634 770.413 154.52 770.492 154.41C770.6 154.208 770.696 154.001 770.78 153.788C771.586 151.998 772.312 149.867 773.03 147.831C773.736 145.76 774.425 143.674 775.097 141.574C777.773 133.172 780.299 124.685 782.759 116.184C781.713 124.977 780.602 133.759 779.317 142.553C778.989 144.752 778.647 146.953 778.279 149.161C777.879 151.392 777.537 153.546 776.915 155.931C776.825 156.249 776.794 156.482 776.653 156.869C776.51 157.258 776.357 157.648 776.194 158.036L776.071 158.326C776.057 158.37 776.046 158.416 776.038 158.463L775.984 158.703C775.947 158.861 775.904 159.015 775.857 159.164C775.604 160.185 775.331 161.149 775.091 162.221C774.593 164.323 774.125 166.463 773.661 168.607C771.829 177.201 770.123 185.873 768.435 194.539L763.485 220.568L746.764 216.023Z" fill="#646464"/>
<path d="M362.972 233.693C364.496 235.815 373.052 303.77 373.052 303.77L380.696 283.351L362.972 232.006V233.693Z" fill="#646464"/>
<path d="M575.104 650.174C577.695 651.536 580.193 653.07 582.58 654.764C584.949 656.413 587.21 658.167 589.411 659.978C593.787 663.595 597.938 667.476 601.84 671.6L595.382 671.885C597.048 669.862 598.756 667.875 600.537 665.947C602.294 664 604.155 662.136 606.037 660.289C607.949 658.467 609.911 656.686 611.972 654.983C614.051 653.243 616.238 651.637 618.52 650.174C617.563 652.711 616.447 655.184 615.177 657.579C613.94 659.948 612.606 662.238 611.22 664.487C609.806 666.712 608.369 668.919 606.83 671.043C605.314 673.186 603.725 675.27 602.093 677.319C601.716 677.791 601.243 678.179 600.706 678.456C600.169 678.733 599.579 678.893 598.976 678.927C598.372 678.96 597.768 678.865 597.204 678.649C596.64 678.433 596.127 678.099 595.701 677.671L595.634 677.604C591.642 673.568 587.9 669.291 584.43 664.798C582.692 662.538 581.014 660.221 579.444 657.799C577.829 655.357 576.379 652.81 575.104 650.174V650.174Z" fill="#E2815A"/>
<path d="M620.322 701.862C617.875 700.936 615.492 699.845 613.192 698.597C610.912 697.389 608.714 696.08 606.567 694.706C602.295 691.965 598.195 688.965 594.291 685.722L599.338 685.499C597.676 687.077 595.977 688.616 594.22 690.097C592.481 691.595 590.668 693.017 588.832 694.416C586.978 695.794 585.079 697.128 583.108 698.386C581.115 699.673 579.044 700.834 576.906 701.862C578.007 699.761 579.24 697.731 580.596 695.785C581.922 693.859 583.32 692.008 584.762 690.202C586.224 688.416 587.708 686.653 589.266 684.967C590.806 683.263 592.404 681.618 594.038 680.012C594.695 679.366 595.566 678.983 596.486 678.934C597.405 678.885 598.311 679.174 599.033 679.746L599.087 679.789C603.076 682.928 606.869 686.308 610.444 689.911C612.237 691.722 613.977 693.598 615.637 695.573C617.338 697.562 618.904 699.663 620.322 701.862Z" fill="#E2815A"/>
<path d="M575.104 564.505C577.695 565.867 580.193 567.4 582.58 569.094C584.949 570.744 587.21 572.498 589.411 574.309C593.787 577.926 597.938 581.807 601.84 585.93L595.382 586.215C597.048 584.193 598.756 582.206 600.537 580.278C602.294 578.33 604.155 576.466 606.037 574.62C607.949 572.798 609.911 571.016 611.972 569.314C614.051 567.574 616.238 565.968 618.52 564.505C617.563 567.041 616.447 569.515 615.177 571.91C613.94 574.279 612.606 576.569 611.22 578.817C609.806 581.043 608.369 583.25 606.83 585.374C605.314 587.516 603.725 589.6 602.093 591.649C601.716 592.122 601.243 592.509 600.706 592.786C600.169 593.063 599.579 593.224 598.976 593.257C598.372 593.29 597.768 593.196 597.204 592.98C596.64 592.763 596.127 592.43 595.701 592.002L595.634 591.934C591.642 587.898 587.9 583.622 584.429 579.129C582.692 576.869 581.014 574.551 579.444 572.129C577.829 569.687 576.379 567.14 575.104 564.505Z" fill="#E2815A"/>
<path d="M575.104 498.064C577.695 499.426 580.193 500.959 582.58 502.654C584.949 504.303 587.21 506.057 589.411 507.868C593.787 511.485 597.938 515.366 601.84 519.489L595.382 519.774C597.048 517.752 598.756 515.765 600.537 513.837C602.294 511.889 604.155 510.025 606.037 508.179C607.949 506.357 609.911 504.575 611.972 502.873C614.051 501.133 616.238 499.527 618.52 498.064C617.563 500.6 616.447 503.074 615.177 505.469C613.94 507.838 612.606 510.128 611.22 512.376C609.806 514.602 608.369 516.809 606.83 518.933C605.314 521.076 603.725 523.159 602.093 525.209C601.716 525.681 601.243 526.068 600.706 526.345C600.169 526.623 599.579 526.783 598.976 526.816C598.372 526.85 597.768 526.755 597.204 526.539C596.64 526.322 596.127 525.989 595.701 525.561L595.634 525.493C591.642 521.457 587.9 517.181 584.429 512.688C582.692 510.428 581.014 508.11 579.444 505.688C577.829 503.246 576.379 500.699 575.104 498.064Z" fill="#E2815A"/>
</svg>
