<svg width="1159" height="1159" viewBox="0 0 1159 1159" fill="none" xmlns="http://www.w3.org/2000/svg">
<path d="M579 1079C855.179 1079 1079 855.179 1079 579C1079 302.821 855.179 79 579 79C302.821 79 79 302.821 79 579C78.9001 855.079 302.821 1079 579 1079Z" fill="#EEEEEF"/>
<path d="M594.4 445.6C597.5 471.1 599.3 496.7 600.7 522.2C602 547.7 602.8 573.3 603.1 598.9C603.4 624.5 603.3 650 602.6 675.6C601.9 701.2 600.7 726.8 598.2 752.4C595 726.9 593.2 701.3 591.9 675.8C590.6 650.3 589.8 624.7 589.5 599.1C589.2 573.5 589.4 548 590 522.4C590.7 496.8 591.9 471.2 594.4 445.6Z" fill="#646464"/>
<path d="M400.8 439.7C400.7 441.2 400.6 442.8 400.7 444.3C400.7 445.8 400.7 447.4 400.8 448.9C400.9 452 401.1 455 401.2 458.1C401.5 464.2 402 470.3 402.5 476.4C403.6 488.6 405 500.6 406.9 512.6C407.8 518.6 408.9 524.5 410.1 530.5C411.3 536.4 412.6 542.3 414.2 548C415.7 553.8 417.4 559.5 419.4 565C420.4 567.8 421.5 570.4 422.6 573.2L424.4 577.6L426 582.1C430.3 594.3 433 607 433.8 619.9C434.5 632.9 433.4 645.9 430.5 658.5C429.1 664.7 427.4 670.8 425.8 676.7C425 679.7 424.3 682.3 423.3 685.8C422.3 689.1 421.2 692.2 419.9 695.2C417.4 701.2 414.7 706.8 412.1 712.3C409.5 717.8 407 723.2 404.7 728.7C400.1 739.6 396.3 750.7 393.4 762.2C392 767.9 390.7 773.7 389.7 779.5L389 783.9L388.4 788.3C388 791.3 387.5 794.2 387.2 797.2C384.4 821.2 382.9 845.4 382.6 869.6C382.1 893.9 382.7 918.2 384.1 942.5C385.5 966.8 388.1 991.1 392 1015.3C384.5 991.9 379.6 967.7 375.8 943.3C372.2 918.9 369.9 894.3 369.1 869.6C368.1 844.8 368.8 820 371 795.3C371.2 792.2 371.6 789.1 372 786L372.6 781.3L373.3 776.6C374.3 770.4 375.5 764.1 376.9 757.9C379.8 745.5 383.8 733.4 388.7 721.7C393.5 710 399.4 699 404 688.3C405.1 685.6 406.1 683 406.9 680.4C407.7 678 408.5 674.7 409.4 671.8C411.1 665.9 412.8 660.2 414.2 654.5C417.1 643.3 418.4 631.8 418.1 620.3C417.7 608.7 415.8 597.2 412.5 586.1L411.2 581.9L409.8 577.7C408.8 574.8 407.7 571.7 406.9 568.6C405.1 562.5 403.7 556.3 402.5 550.2C400.2 538 398.7 525.6 398 513.1C397.3 500.7 397.1 488.4 397.4 476.1C397.6 469.9 397.9 463.8 398.4 457.6C398.6 454.5 398.9 451.5 399.3 448.4C399.6 445.8 400.1 442.7 400.8 439.7Z" fill="#646464"/>
<path d="M840.3 835C839.7 825.3 838.8 815.7 837.4 806.1C836 796.5 834.1 787 831.6 777.7C830.2 773.1 828.9 768.4 827.1 763.9C826.2 761.6 825.5 759.4 824.4 757.1C823.4 754.9 822.2 751.6 821.3 749.5C813.7 755.4 805.9 762 797.6 766.9C789.3 771.8 780.9 776.4 772.2 780.6C754.9 788.9 737.1 795.8 718.8 801.4C709.7 804.2 700.4 806.5 691.1 808.6C681.8 810.5 672.5 812.5 663 813.8C644.2 816.6 625.2 818.1 606.2 818.1H599.1H595.5L591.899 817.9L577.7 817.3C575.3 817.2 573 817.2 570.6 816.9L563.5 816.2L549.399 814.8C530.699 812.2 512.1 808.4 493.9 803.3C475.8 798.1 456.8 798.9 439.6 790.9L435.3 791.5C433.2 790.5 430.9 784.1 428.8 783C426.7 781.9 424.9 783 422.8 781.9L418 779.3C415.9 778.2 414 779.1 412 777.9C410 776.7 407.4 776.1 405.5 774.8C403.6 773.5 401.1 771.7 399.3 770.4C398.4 769.7 397.1 768.1 396.2 767.5C395.3 766.8 393.7 766.2 393 765.7L380.3 755.6L379.6 760.7C378.5 769 377.4 777.3 376.4 785.5C375.4 793.8 374.5 802.1 373.6 810.4C372.7 818.7 372 827.1 371.4 835.4C370.8 843.8 370.3 852.2 370.4 861L370.5 869.4H379C380 869.4 381.3 869.4 382.4 869.5L386 869.6C388.4 869.7 390.8 869.9 393.2 870C398 870.4 402.9 870.8 407.7 871.4C417.4 872.5 427.1 874 436.7 875.8C455.9 879.5 474.8 884.6 493.3 891.1C502.5 894.4 511.6 898 520.5 902C529.4 906.1 538.2 910.3 546.7 915.1C563.8 924.6 580 935.6 595.1 948L598.6 950.9L602.7 949.3L660.7 926C680 918.3 699.4 910.7 718.8 903.3C728.5 899.6 738.2 895.9 748 892.4C757.8 888.8 767.5 885.5 777.3 882.6C787.3 879.7 797.3 877 807.3 874.4C817.3 871.9 827.5 869.4 837.5 867.6L840.4 867.1L840.5 864.4C841 854.3 840.8 844.7 840.3 835Z" fill="#F39469"/>
<path d="M752.9 439.7C751.3 445.7 749.9 451.6 748.5 457.6C747.1 463.6 745.9 469.6 744.7 475.6C742.3 487.5 740.6 499.6 739.6 511.7C739.1 517.7 738.9 523.7 739 529.6C739 535.4 739.7 541.2 740.8 546.9C741.4 549.6 742.2 552.2 743.2 554.7C744.3 557.2 745.6 559.6 747.1 561.9C750.3 567.2 753.5 572.5 756.5 577.9C768.8 599.3 780.4 621.2 791.3 643.4C796.8 654.5 802 665.7 807.1 677.1C812.1 688.5 816.9 699.9 821.3 711.6C825.8 723.4 829.7 735.4 832.9 747.5C834.5 753.6 835.8 760.1 836.8 766.3C837.8 772.5 838.6 778.8 839.3 785C841.8 809.8 842.8 834.7 842.2 859.6C841.7 884.4 839.6 909.2 836 933.7C832.2 958.2 826.9 982.6 818.1 1005.7C823.1 981.7 826.2 957.3 827.6 932.8C829.1 908.4 829.4 884 828.7 859.6C827.9 835.2 826.3 810.9 823.1 786.9C822.3 780.9 821.4 775 820.4 769.1C819.4 763.1 818.1 757.6 816.6 751.8C813.5 740.4 809.6 728.9 805.3 717.6C801.1 706.3 796.4 695 791.6 683.8C786.8 672.6 781.8 661.5 776.7 650.4C766.5 628.2 755.7 606.2 744.6 584.4C741.8 579 739 573.5 736.2 568.1L735.1 566.1L734.5 565L733.9 563.8C733.1 562.2 732.4 560.5 731.9 558.8C730.8 555.5 730 552.2 729.6 548.8C727.8 535.5 729.2 522.9 731.2 510.5C733.4 498.2 736.4 486.1 740.2 474.3C742.1 468.4 744.1 462.5 746.2 456.7C748.2 451.2 750.4 445.4 752.9 439.7Z" fill="#646464"/>
<path d="M599.5 942.1C602.7 947 605 952.4 606.3 958.1C607.5 963.3 608.2 968.7 608.2 974.1C608.2 979.5 607.6 984.8 606.4 990.1C605.1 995.8 602.8 1001.2 599.6 1006.1C596.4 1001.2 594.1 995.8 592.8 990.1C591.6 984.9 590.9 979.5 591 974.1C591 968.7 591.6 963.4 592.9 958.1C594 952.4 596.3 946.9 599.5 942.1Z" fill="#646464"/>
<path d="M277.999 179.8C277.799 183.3 277.999 186.8 277.999 190.3C278.099 193.8 278.2 197.3 278.4 200.8L279.3 221.8C280.1 235.8 280.8 249.8 281.8 263.8C282.8 277.8 283.799 291.8 284.999 305.7C286.199 319.6 287.699 333.5 289.199 347.4C290.799 361.3 292.699 375.1 295.099 388.7C296.299 395.6 297.699 402.2 299.199 409C300.799 416.1 302 423.2 302.9 430.4C304.6 444.8 305.199 459.2 304.699 473.7C304.199 488.1 302.8 502.3 301.3 516.2C299.8 530.2 298.299 544 297.699 557.6C296.999 571 297.7 584.5 299.9 597.7C301.1 604.4 302.4 611.4 303.8 618.2L307.9 638.8L316.299 680L333.299 762.5L350.099 845L350.5 846.7L350 848.2C347.6 854.8 345.4 861.8 343.4 868.8C341.4 875.8 339.6 882.8 337.9 889.9C334.6 904 332.199 918.3 330.599 932.8C329.099 947.2 328.899 961.8 330.099 976.3C330.599 983.5 331.7 990.7 333.4 997.8C334.2 1001.3 335.5 1004.7 337 1008C337.8 1009.6 338.8 1011.1 339.9 1012.5C341 1014 342.599 1015 344.299 1015.5C342.399 1015.2 340.7 1014.3 339.5 1012.9C338.2 1011.6 337 1010.1 336 1008.5C334.1 1005.3 332.499 1001.9 331.299 998.4C328.899 991.3 327.199 984.1 326.099 976.7C324.899 969.4 324.099 962 323.599 954.6C323.199 947.2 323.2 939.7 323.4 932.3C323.7 924.9 324.299 917.4 325.099 910.1C325.899 902.7 327.1 895.4 328.4 888C329.7 880.7 331.2 873.4 332.9 866.2C334.6 858.9 336.399 851.8 338.699 844.5L338.5 847.7C331.9 820.4 325.199 793.1 318.799 765.8C312.399 738.5 306.199 711.1 300.099 683.6L291.199 642.4L287 621.7C285.6 614.8 284.299 607.9 282.999 600.8C280.399 586.2 280 571.4 280.6 557C281.2 542.6 282.9 528.4 284.6 514.5C286.2 500.6 287.7 486.8 288.5 473.1C289.3 459.5 288.999 445.8 287.699 432.3C286.999 425.5 286.1 418.8 284.8 412.2C284.2 408.8 283.5 405.2 282.9 401.7C282.3 398.2 281.8 394.6 281.3 391.1C279.4 377 277.999 362.9 276.999 348.8C275.899 334.7 275.4 320.6 274.9 306.5C274.5 292.4 274.3 278.3 274.4 264.3C274.5 250.2 274.699 236.2 275.199 222.1C275.499 215.1 275.699 208 276.199 201C276.399 197.5 276.7 194 276.9 190.5C277.1 186.8 277.399 183.3 277.999 179.8Z" fill="#646464"/>
<path d="M883.6 185.9C881.9 194.7 880.1 203.4 878.3 212.1L875.5 225.2L872.6 238.2C868.8 255.6 864.7 272.9 860.7 290.2L854.5 316.1L848.1 342L841.6 367.8L834.9 393.6L835.2 391.6C835.3 419.6 835.3 447.7 835 475.7C834.8 503.7 834.5 531.8 833.9 559.8L833.2 601.8C833.1 608.8 833.1 615.7 832.9 622.9C832.8 626.5 832.6 630 832.4 633.6L831.6 644.2C830.5 658.3 828.5 672.3 826.3 686.2C824 700.1 821.4 713.9 818 727.6C819.2 713.6 820.2 699.6 821 685.6C821.9 671.6 822.3 657.7 822.5 643.7V633.3C822.4 629.8 822.4 626.4 822.2 622.9L821.2 601.9C820.6 587.8 820.2 573.8 819.9 559.8C819.3 531.7 819 503.7 819 475.6C819 447.5 819.3 419.5 819.7 391.4V390.3L820 389.4L827.4 363.8L834.9 338.2L842.6 312.7L850.4 287.2C855.8 270.2 861 253.3 866.6 236.4L870.7 223.7L875 211.1C877.6 202.7 880.6 194.3 883.6 185.9Z" fill="#646464"/>
<path d="M773.899 289.6L782.999 267.5L787.499 256.5L792.099 245.6L810.499 201.9L798.799 247.6L795.899 259L794.199 270.8L790.799 294.2L773.899 289.6Z" fill="#646464"/>
<path d="M457.6 483.2C459.8 503.6 462.2 523.6 466.4 542.8C466.9 545.2 467.5 547.6 468.1 550C468.6 552.4 469.3 554.7 470 557C470.6 559.4 471.5 561.6 472.1 563.9C472.8 566.1 473.7 568.6 474.5 570.9L479.4 585.2L484.3 599.5L489 613.9C490.5 618.7 492.1 623.6 493.5 628.4C496.4 638.1 499.2 647.9 501.5 658.1C501.8 659.4 502.1 660.6 502.3 661.9C502.5 663.2 502.8 664.5 503 665.9C503.5 668.7 503.8 671.5 503.7 674.3C503.6 679.4 503.5 684.5 503.3 689.6C502.9 699.8 502.3 710 501.1 720.3C498.5 710.3 496.6 700.3 494.8 690.3C493.9 685.3 493.1 680.3 492.4 675.3L492.1 673.4L492 672.9L491.9 672.5L491.7 671.8C491.5 670.9 491.1 669.7 490.8 668.6C490.5 667.5 490 666.3 489.6 665.2C489.2 664.1 488.8 662.9 488.4 661.7L477.9 633.5L472.7 619.2L467.7 604.8C466.1 600 464.5 595.1 463 590.3C461.5 585.4 460 580.6 458.7 575.6C458 573.1 457.3 570.7 456.7 568.1C456.1 565.5 455.4 562.9 455 560.3C454 555.1 453.3 549.9 452.8 544.6C451.9 534.2 451.9 523.8 452.6 513.5C453 508.3 453.5 503.2 454.3 498.1C455.3 493.2 456.3 488.2 457.6 483.2Z" fill="#646464"/>
<path d="M704.2 521.8C706.7 534.6 708.4 547.5 709.3 560.5C710.3 573.4 710.7 586.3 710.7 599.2L710.6 608.9L710.4 618.5C710.3 624.8 710.3 631.1 710.4 637.4C710.7 650.1 711.3 662.9 711.6 676.1C706 664.1 702.6 651.4 700.2 638.4C699.1 631.9 698.3 625.3 698 618.7C697.8 615.3 697.8 612.2 697.7 608.9L697.6 599.2C697.6 586.3 698.1 573.4 699 560.5C700 547.5 701.7 534.6 704.2 521.8Z" fill="#646464"/>
<path d="M464 725.7C470 732.3 475.6 739.4 480.5 746.9C485.4 754.1 489.8 761.4 494.1 768.7C498.4 776 502.5 783.4 506.4 791C510.4 798.6 514.4 806.1 518 814.9C513.7 813.1 509.6 810.8 505.8 808.1C502.1 805.4 498.6 802.4 495.4 799.1C489.1 792.6 483.6 785.3 479.1 777.4C474.6 769.6 471 761.3 468.3 752.7C466.9 748.4 465.9 744 465.1 739.5C464.2 734.9 463.9 730.3 464 725.7Z" fill="#646464"/>
<path d="M689.5 813.3L703.8 787.9L705.5 784.8C706.1 783.8 706.7 782.8 707.2 781.7C708.3 779.6 709.4 777.6 710.5 775.6C711.5 773.5 712.6 771.5 713.8 769.5C714.8 767.4 715.9 765.4 716.9 763.3C721 755 725.1 746.8 728.9 738.2C731 734 732.8 729.6 734.9 725.2C736.1 723 736.9 720.8 738 718.5C739 716.3 740.2 714 741.6 711.7C742.1 714.2 742.5 716.7 742.8 719.3C743.1 721.8 743.3 724.4 743.3 726.9C743.3 732 742.9 737.1 742 742.1C738.5 762.4 729 781.1 714.7 795.9C711.1 799.6 707.3 802.9 703.1 805.9C698.9 809.1 694.3 811.5 689.5 813.3Z" fill="#646464"/>
<path d="M389.8 116.1C392.2 123.1 394.3 130.1 396.1 137.1C398 144.1 399.6 151.2 401.3 158.2C402.8 165.3 404.3 172.3 405.6 179.4C406.9 186.5 408.1 193.6 409.3 200.7L408 197.2C410 199.7 411.8 202.3 413.4 205C415 207.7 416.5 210.6 417.7 213.5C419 216.5 420 219.7 420.7 222.9C421.5 226.4 421.9 229.9 421.8 233.5C418.5 232.2 415.4 230.4 412.5 228.2C409.9 226.3 407.4 224.1 405.1 221.7C402.9 219.4 400.8 217 399 214.4C397.1 211.8 395.5 209.2 394 206.4L392.8 204.2L392.7 202.9C392 195.7 391.3 188.5 390.8 181.3C390.2 174.1 389.9 166.9 389.5 159.7C389.2 152.5 389 145.2 389.1 137.9C389.1 130.7 389.2 123.4 389.8 116.1Z" fill="#646464"/>
<path d="M746.3 215.9L755.5 190.9C758.6 182.6 761.7 174.3 764.9 166C765.7 163.9 766.5 161.8 767.4 159.8C767.8 158.8 768.3 157.7 768.8 156.6L769.3 155.5L769.8 154.7C769.9 154.6 769.9 154.5 770 154.4C770.1 154.2 770.2 154 770.3 153.8C771.1 152 771.8 149.9 772.5 147.8C773.2 145.7 773.9 143.6 774.6 141.5C777.3 133.1 779.8 124.6 782.3 116.1C781.3 124.9 780.1 133.7 778.9 142.5C778.6 144.7 778.2 146.9 777.9 149.1C777.5 151.3 777.2 153.5 776.5 155.9C776.4 156.2 776.4 156.5 776.2 156.8C776.1 157.2 775.9 157.6 775.7 158L775.6 158.3V158.4L775.5 158.6C775.5 158.8 775.4 158.9 775.4 159.1C775.1 160.1 774.9 161.1 774.6 162.2C774.1 164.3 773.6 166.4 773.2 168.6C771.4 177.2 769.7 185.9 768 194.5L763.1 220.5L746.3 215.9Z" fill="#646464"/>
<path d="M362.7 233.5C364.2 235.6 372.8 303.5 372.8 303.5L380.4 283.1L362.7 231.8V233.5V233.5Z" fill="#646464"/>
<path d="M798.5 328.4C796.4 307.5 790.2 287.8 784 268.8C780.9 259.3 777.6 249.9 775.3 240.8L773.6 233.5C772.9 230.9 772.2 228.4 771.3 225.7C770.3 222.8 769.1 220 767.6 217.4C767.4 217 767.2 216.6 766.9 216.2C766.7 215.8 766.4 215.4 766.1 215C765.4 214 764.6 213.1 763.7 212.3C762.3 211 760.6 210.1 758.7 209.6C757.3 209.2 755.8 209.2 754.4 209.4C753.1 209.6 751.9 210 750.8 210.6C750.6 210.7 750.4 210.8 750.2 211L749.8 211.3C749.7 211.4 749.6 211.5 749.2 211.8L748.6 212.3L748 213.1C747.5 213.7 746.8 214.6 746.2 215.4L744.2 217.8C742.9 219.4 741.5 221 740.1 222.6C737.3 225.7 734.4 228.8 731.4 231.9C725.4 238 719.2 243.7 712.8 249.2C706.3 254.7 699.6 259.9 692.7 264.9C685.8 269.9 678.7 274.5 671.5 278.8C657 287.5 641.6 294.6 625.6 300.3C610.4 305.6 594.6 309.4 578.6 311.4L545.6 297L510.4 281.7L441.8 251.9C434.3 240.5 426.9 229 419.8 217.4C416.1 211.3 412.4 205.1 409.4 198.9C408.8 197.7 408.3 196.5 407.8 195.4C407.8 195.1 407.8 194.9 407.8 194.6C407.8 193.9 407.8 193.1 407.7 192.4C407.7 192.1 407.6 191.7 407.5 191.4L407.4 191C407.4 190.9 407.3 190.8 407.2 190.5C407.1 190.3 407 190.1 406.9 189.9C406.7 189.6 406.5 189.2 406.3 188.9C405.9 188.4 405.5 188 405.1 187.6C404.4 187 403.5 186.6 402.6 186.4C401.7 186.2 400.7 186.2 399.7 186.4C399.1 186.5 398.6 186.8 398 187.1C397.7 187.3 397.4 187.5 397.1 187.7C396.9 187.9 396.6 188.1 396.4 188.3C396.2 188.5 396 188.7 395.8 189C394.9 190.2 394.4 191.6 394.4 193.1C394.4 193.7 394.4 194.3 394.5 194.8C394.6 195.8 394.9 196.7 395.1 197.6C395.1 197.7 395.1 197.8 395.1 197.8C394.9 199.5 394.7 201.2 394.5 203C392.5 217 389.5 231.1 386.2 245.1C382.8 259.1 379 272.9 374.4 286.5C372.2 293.3 369.7 300.1 367.1 306.7C365.8 310 364.4 313.3 362.9 316.5C362.1 318.1 361.4 319.7 360.6 321.4C359.7 323.1 359 324.9 358.3 326.7C355.7 333.8 354 341.1 353.4 348.7C352.7 356.1 352.7 363.5 353.6 370.9C355.2 385.6 359.5 400.1 367.3 412.6C371.2 418.9 376 424.5 381.6 429.2C387.2 433.9 393.7 437.5 400.6 439.7C400.6 439.7 471.9 416.9 486.6 414.1C516 408.7 545.9 406.4 575.4 410.2L586.5 411.6C590.2 412.1 593.9 412.7 597.6 413.2C605 414.2 612.4 415.5 619.7 416.7C634.4 419.3 649.1 422 663.8 425.1C678.4 428.2 693 431.5 707.6 435C722.1 438.5 736.7 442.1 751 446L755.3 447.2L757.9 443.6C761 439.3 763.7 435.1 766.5 430.8C769.2 426.5 771.8 422.1 774.3 417.7C779.4 408.8 783.9 399.6 787.9 390.2C792 380.6 795.2 370.6 797.2 360.3C798.2 355 798.7 349.7 798.9 344.3C799.2 338.9 799 333.6 798.5 328.4Z" fill="#F39469"/>
<path d="M400.8 439.7C414.3 433.1 428.3 427.4 442.5 422.5C456.7 417.5 471.2 413.3 485.9 410C500.6 406.6 515.6 404.1 530.7 402.8C538.3 402.2 545.8 401.7 553.5 401.7C557.3 401.6 561.1 401.8 564.9 401.9C568.7 402.1 572.5 402.3 576.3 402.7C591.4 403.9 606.4 405.6 621.3 407.7C636.2 409.8 651.1 412.2 666 414.8C680.8 417.5 695.6 420.3 710.4 423.4C725.2 426.6 739.8 429.9 754.5 433.6L747.6 436.1C750.2 432.3 752.9 428 755.4 423.9C757.9 419.7 760.3 415.5 762.6 411.2C767.2 402.7 771.3 393.9 774.9 384.9C778.4 376.1 781.1 367 782.8 357.7C784.3 348.6 784.5 339.2 783.3 330C781.2 311.2 775.2 292.6 768.8 273.9C765.6 264.5 762.2 255.1 759.4 245L758.4 241.2C758.1 240.1 757.8 238.9 757.5 237.8C756.9 235.6 756.2 233.4 755.4 231.3C754.8 229.5 754 227.7 753 226C752.9 225.9 752.8 225.7 752.7 225.6C752.6 225.5 752.6 225.4 752.5 225.3C752.4 225.1 752.3 225.1 752.4 225.2C752.9 225.6 753.5 225.9 754.2 226.1C755 226.3 755.9 226.4 756.7 226.2C757.2 226.1 757.7 226 758.2 225.8C758.5 225.7 758.7 225.6 759 225.4L759.4 225.1L759.7 224.9C759.8 224.8 759.9 224.8 760.2 224.5L761.3 223.2C760.5 224.3 759.8 225.1 759.1 226.1L756.9 228.8C755.4 230.6 754 232.3 752.5 234C749.5 237.4 746.4 240.7 743.3 243.9C737 250.3 730.5 256.5 723.7 262.4C716.9 268.3 709.9 273.8 702.6 279.1C695.3 284.3 687.7 289.2 680 293.8C664.4 303 648 310.5 630.9 316.4C613.8 322.3 596.1 326.3 578.1 328.3L575.8 328.6L573.8 327.7L538.8 312L503.8 296.2L433.8 264.6L431.7 263.7L430.6 261.9C422.9 249.5 415.4 237 408.2 224.2C404.6 217.8 401.1 211.4 397.9 204.4C397.1 202.6 396.3 200.9 395.6 198.8C395.1 197.5 394.8 196.2 394.6 194.9C394.5 194.3 394.5 193.7 394.5 193.2C394.5 191.7 395 190.3 395.9 189.1C396.1 188.9 396.3 188.6 396.5 188.4C396.7 188.2 396.9 188 397.2 187.8C397.5 187.6 397.8 187.4 398.1 187.2C398.6 186.9 399.2 186.7 399.8 186.5C400.7 186.3 401.7 186.3 402.7 186.5C403.6 186.7 404.5 187.1 405.2 187.7C405.7 188.1 406.1 188.5 406.4 189C406.6 189.3 406.8 189.6 407 190C407.1 190.2 407.2 190.4 407.3 190.6C407.4 190.8 407.4 191 407.5 191.1L407.6 191.5C407.7 191.8 407.7 192.2 407.8 192.5C407.9 193.2 407.9 194 407.9 194.7C407.9 195.3 407.8 195.8 407.8 196.3C407.7 197.3 407.6 198.3 407.5 199.3C407.3 201.2 407 203.1 406.6 204.9C404 219.5 400.4 233.6 396.5 247.8C392.5 261.9 388.1 275.8 382.9 289.5C380.3 296.3 377.5 303.1 374.4 309.8C372.9 313.1 371.2 316.4 369.5 319.7C368.7 321.3 367.7 323 366.9 324.5C366.1 326 365.4 327.5 364.7 329.1C362 335.6 360.2 342.3 359.3 349.3C358.3 356.3 358.1 363.4 358.5 370.5C359.4 384.6 362.8 398.8 369.7 411.3C373.1 417.6 377.5 423.3 382.7 428.2C388 433.1 394.1 437 400.8 439.7ZM400.8 439.7C393.9 437.4 387.4 433.8 381.8 429.1C376.2 424.4 371.3 418.7 367.5 412.5C359.7 399.9 355.4 385.4 353.8 370.8C353 363.4 352.9 356 353.6 348.6C354.3 341.1 355.9 333.7 358.5 326.6C359.2 324.8 359.9 323.1 360.8 321.3C361.6 319.6 362.4 318.1 363.1 316.4C364.6 313.2 366 309.9 367.3 306.6C370 300 372.4 293.2 374.6 286.4C379.1 272.8 383 258.9 386.4 245C389.7 231 392.7 216.9 394.7 202.9C394.9 201.2 395.2 199.4 395.3 197.7C395.4 196.9 395.5 196 395.5 195.3C395.5 194.9 395.5 194.5 395.5 194.2C395.5 194 395.5 193.9 395.5 193.7C395.5 193.8 395.5 193.9 395.6 194L395.7 194.2L395.8 194.5C395.9 194.7 395.9 194.8 396 195C396.1 195.3 396.3 195.6 396.5 195.8C397.3 197 398.6 197.8 400 198.1C400.9 198.3 401.8 198.3 402.7 198.1C403.2 198 403.7 197.8 404.2 197.5C404.5 197.4 404.7 197.2 404.9 197C405.1 196.8 405.3 196.7 405.4 196.5C405.7 196.2 406 195.8 406.2 195.5C406.6 194.8 406.8 194.1 406.9 193.3C406.9 193 406.9 192.9 406.9 192.9L407 193.4C407.1 193.7 407.2 194 407.3 194.3C407.8 195.6 408.5 197.2 409.3 198.7C412.4 204.8 416 211 419.7 217.2C427.1 229.5 435 241.6 442.9 253.6L439.7 250.9L510.1 281.5L545.3 296.8L580.5 312.2L576.2 311.5C593 309.5 609.4 305.7 625.4 300.1C641.4 294.5 656.7 287.3 671.3 278.6C678.6 274.3 685.7 269.6 692.5 264.7C699.4 259.8 706.1 254.5 712.6 249C719.1 243.5 725.3 237.7 731.2 231.7C734.2 228.7 737.1 225.6 739.9 222.4C741.3 220.8 742.7 219.2 744 217.6L746 215.2C746.6 214.4 747.3 213.5 747.8 212.9L748.4 212.1L749 211.6C749.4 211.3 749.5 211.2 749.6 211.1L750 210.8C750.2 210.6 750.5 210.5 750.6 210.4C751.7 209.8 752.9 209.3 754.2 209.2C755.6 209 757.1 209.1 758.5 209.4C760.4 209.9 762.1 210.8 763.5 212.1C764.4 212.9 765.2 213.8 765.9 214.7C766.2 215.1 766.5 215.5 766.7 215.9C767 216.3 767.2 216.7 767.4 217C768.9 219.6 770.1 222.4 771.1 225.3C772 227.9 772.8 230.5 773.4 233.1L775.1 240.4C777.5 249.5 780.7 258.9 783.8 268.4C790 287.4 796.1 307.1 798.3 328C798.8 333.3 799 338.6 798.9 343.9C798.8 349.3 798.2 354.6 797.2 359.9C795.2 370.2 792 380.2 787.9 389.8C783.9 399.2 779.4 408.4 774.3 417.3C771.8 421.7 769.2 426.1 766.5 430.4C763.8 434.7 761 438.9 757.9 443.2L755.3 446.8L751 445.6C736.7 441.7 722.1 438 707.6 434.6C693.1 431.1 678.5 427.8 663.8 424.7C649.2 421.6 634.5 418.9 619.7 416.3C612.3 415.1 604.9 413.9 597.6 412.8C593.9 412.3 590.2 411.7 586.5 411.2L575.4 409.8C546 406.1 516 408.4 486.6 413.7C471.9 416.5 457.3 420 443 424.3C428.8 428.9 414.7 434 400.8 439.7Z" fill="#646464"/>
<path d="M822.9 750C815.7 756.6 808 762.6 799.9 768.1C791.9 773.7 783.5 778.7 775 783.5C766.4 788.2 757.7 792.6 748.8 796.7C739.9 800.7 730.7 804.3 721.5 807.6C712.3 810.9 702.9 813.7 693.4 816.4L686.3 818.2L682.7 819.1L679.1 819.9L671.9 821.5L664.7 822.9C645.4 826.5 625.8 828.8 606.1 829.6L598.7 829.8L595 829.9L591.3 829.8L576.5 829.6C574 829.5 571.6 829.6 569.1 829.4L561.7 828.9L546.899 827.8L532.2 825.9L524.9 824.9L517.6 823.5C512.7 822.6 507.9 821.8 503 820.7L488.6 817.2C469.4 812.1 450.7 805.5 432.5 797.5L425.7 794.4C423.4 793.4 421.2 792.2 419 791.1C416.8 790 414.5 788.9 412.3 787.7L405.7 784.1C403.5 782.9 401.4 781.6 399.2 780.3C397.1 779 394.9 777.8 392.8 776.4C390.7 775 388.6 773.7 386.5 772.2C385.5 771.5 384.4 770.8 383.4 770C382.3 769.2 381.4 768.5 380.2 767.5L393.7 762.2C392.6 770.4 391.6 778.6 390.6 786.8C389.6 795 388.7 803.3 387.9 811.5C387.1 819.7 386.4 827.9 385.8 836.1C385.3 844.3 384.8 852.5 384.9 860.3L376.2 851.8C377.7 851.8 379 851.8 380.3 851.8L384.2 851.9C386.8 852 389.4 852.1 392 852.3C397.2 852.7 402.3 853.1 407.4 853.7C417.6 854.9 427.8 856.5 437.9 858.4C458.1 862.3 478 867.8 497.4 874.7C507.1 878.2 516.6 882.1 526 886.4C530.7 888.6 535.4 890.7 539.9 893.2C542.2 894.4 544.5 895.5 546.8 896.8L553.6 900.6C571.6 910.9 588.5 922.8 604.3 936.2L596.7 934.9L626.2 923.7L655.8 912.8C675.6 905.6 695.4 898.5 715.3 891.6C725.3 888.1 735.3 884.8 745.3 881.6C755.3 878.4 765.5 875.3 775.9 872.7C796.4 867.6 817 863.1 838.1 860.2L835.1 863.4C835.9 854 836.1 844.3 836.1 834.8C836.1 825.2 835.7 815.6 834.9 806.1C834 796.5 832.7 787 830.9 777.6C829.8 772.9 828.9 768.2 827.4 763.6C826.4 758.9 824.7 754.7 822.9 750ZM822.9 750.6C823.8 752.7 824.9 754.9 825.9 757.1C827 759.3 827.7 761.6 828.6 763.9C830.4 768.4 831.7 773.1 833.1 777.7C835.6 787.1 837.6 796.5 839 806.1C840.4 815.7 841.3 825.3 841.9 835C842.4 844.7 842.6 854.3 842.3 864.2L842.2 866.9L839.3 867.4C829.2 869.3 818.9 871.7 808.8 874.2C798.7 876.8 788.6 879.5 778.5 882.4C768.6 885.3 758.7 888.7 748.9 892.2C739.1 895.7 729.3 899.5 719.4 903.1C699.8 910.5 680.2 918.1 660.7 925.8L602.2 949.1L598.1 950.7L594.6 947.8C579.3 935.3 563 924.3 545.7 914.9C537.1 910.1 528.2 905.9 519.2 901.8C510.2 897.8 501 894.2 491.7 890.9C473 884.4 453.9 879.3 434.5 875.6C424.8 873.8 415 872.3 405.2 871.2C400.3 870.6 395.4 870.2 390.5 869.8C388.1 869.6 385.6 869.5 383.2 869.4L379.6 869.3C378.4 869.3 377.1 869.2 376.1 869.2H367.5L367.4 860.8C367.3 852 367.8 843.6 368.4 835.2C369 826.8 369.8 818.5 370.7 810.2C371.6 801.9 372.5 793.6 373.5 785.3C374.5 777 375.6 768.8 376.7 760.5L378.7 745.9L390.2 755.2C390.9 755.8 391.9 756.5 392.8 757.2C393.7 757.9 394.7 758.5 395.6 759.2C397.5 760.6 399.5 761.8 401.4 763.1C403.3 764.4 405.4 765.6 407.3 766.9C409.3 768.1 411.3 769.4 413.4 770.5L419.6 774C421.7 775.1 423.8 776.2 425.9 777.3C428 778.4 430.1 779.5 432.2 780.5L438.6 783.5C455.9 791.4 473.8 798 492.1 803.2C510.5 808.3 529.2 812.1 548.1 814.7L562.399 816.1L569.5 816.8C571.9 817 574.3 817 576.7 817.2L591.1 817.8L594.7 818H598.3H605.5C624.7 817.9 643.9 816.5 662.9 813.7C672.4 812.4 681.8 810.5 691.3 808.5C700.7 806.4 710 804.1 719.3 801.3C737.8 795.8 755.8 788.8 773.3 780.5C782 776.3 790.6 771.7 798.9 766.8C807.2 762 815.3 756.6 822.9 750.6Z" fill="#646464"/>
</svg>
