<svg width="1000" height="1000" viewBox="0 0 1000 1000" fill="none" xmlns="http://www.w3.org/2000/svg">
<path d="M500 1000C776.179 1000 1000 776.179 1000 500C1000 223.821 776.179 0 500 0C223.821 0 0 223.821 0 499.9C0 775.979 223.821 1000 500 1000Z" fill="#EEEEEF"/>
<path d="M550.189 26.2388L551.189 30.3255C551.538 31.7144 551.738 33.1033 552.188 34.4122L553.367 38.409L553.647 39.4082C553.728 39.7513 553.842 40.0859 553.986 40.4074L554.686 42.3459L555.375 44.2843L555.725 45.2835L556.145 46.2827L557.803 50.0197C558.083 50.6492 558.423 51.2687 558.703 51.8283L559.702 53.6269L560.701 55.4254L561.81 57.164L562.919 58.8926L563.479 59.732L564.098 60.5613L566.446 63.6988L569.084 66.7464C569.293 67.018 569.524 67.272 569.774 67.5057L570.473 68.2052L571.922 69.5941C575.828 73.2724 580.077 76.5681 584.612 79.4362C589.188 82.3439 593.964 84.9118 598.821 87.4298L602.568 89.2384C603.187 89.5181 603.807 89.8579 604.436 90.1376L606.305 90.967L609.982 92.6357L613.719 94.0845L615.597 94.8539C616.228 95.1237 616.876 95.3539 617.536 95.5433L621.402 96.8723L623.341 97.5617L625.279 98.1912L629.226 99.4402L637.22 101.728L645.263 103.877C650.669 105.326 656.075 106.714 661.55 108.243L665.647 109.352L669.734 110.531C672.432 111.291 675.209 112.19 677.977 113.089L680.056 113.719L682.144 114.408L686.231 115.867C686.92 116.077 687.62 116.347 688.309 116.626L690.307 117.456L694.404 119.124C699.939 121.481 705.284 124.26 710.391 127.438C711.64 128.267 713.029 129.037 714.208 129.866L717.805 132.434C720.163 134.232 722.522 135.971 724.8 137.839C729.362 141.567 733.734 145.523 737.899 149.69C742.041 153.865 745.954 158.261 749.62 162.859C753.284 167.436 756.748 172.149 760.012 176.998C763.269 181.854 766.257 186.85 769.094 191.986C771.932 197.122 774.57 202.318 776.928 207.584C779.286 212.849 781.504 218.255 783.443 223.731C785.381 229.206 787.26 234.722 788.779 240.228C790.297 245.733 791.776 251.389 793.005 257.004C794.234 262.62 795.293 268.305 796.133 273.991C796.333 275.439 796.542 276.828 796.682 278.287L797.242 282.584C797.372 284.043 797.582 285.421 797.791 286.88L798.211 291.177C798.761 296.862 799.04 302.548 799.39 308.303C800.169 330.959 799.241 353.642 796.612 376.159C795.363 387.39 793.914 398.551 792.176 409.642C790.437 420.733 788.499 431.824 786.421 442.845C786.63 431.614 786.98 420.383 787.42 409.162C787.859 397.941 788.049 386.77 788.189 375.609C788.624 353.447 787.836 331.278 785.831 309.202C785.201 303.727 784.652 298.211 783.833 292.845L783.273 288.749C783.063 287.37 782.863 286.051 782.584 284.752L781.884 280.755C781.684 279.436 781.404 278.047 781.195 276.758C780.195 271.423 778.976 266.087 777.657 260.821C776.339 255.555 774.89 250.28 773.221 245.154C771.552 240.028 769.824 234.892 767.885 229.836C765.947 224.78 763.799 219.844 761.51 214.928C759.222 210.012 756.794 205.226 754.166 200.509C751.538 195.793 748.751 191.227 745.773 186.79C742.795 182.354 739.678 177.987 736.351 173.801C733.023 169.614 729.486 165.627 725.809 161.81C722.14 157.954 718.278 154.285 714.238 150.819C712.24 149.09 710.141 147.422 708.063 145.823L704.876 143.495C703.876 142.736 702.727 142.046 701.688 141.347C697.339 138.496 692.799 135.949 688.099 133.723C686.92 133.173 685.671 132.614 684.432 132.134C683.193 131.654 682.004 131.025 680.755 130.535L677.008 129.007L675.14 128.247L673.201 127.558C670.633 126.559 668.065 125.679 665.507 124.78L661.62 123.461L657.673 122.152C652.408 120.413 647.062 118.685 641.686 116.946L633.643 114.248C630.945 113.349 628.307 112.37 625.649 111.331C620.313 109.332 614.898 107.174 609.662 104.676L605.715 102.808L601.828 100.729L599.89 99.73C599.27 99.3802 598.641 99.0305 598.021 98.6209L594.344 96.4026C589.488 93.3551 584.642 90.1676 580.066 86.6304C575.441 83.0212 571.19 78.9575 567.376 74.5002L565.927 72.6916L565.227 71.8623C565.018 71.5825 564.818 71.2428 564.608 70.963L562.11 67.3559L559.892 63.5489C559.682 63.1992 559.542 62.9194 559.342 62.5497L558.853 61.5505L557.953 59.5521L557.054 57.6137L556.285 55.6153C555.805 54.2264 555.285 52.9074 554.836 51.5185L553.657 47.3619L553.377 46.3627L553.167 45.3635L552.757 43.2851C551.165 37.7385 550.302 32.0083 550.189 26.2388Z" fill="#646464"/>
<path d="M417.096 26.2388C418.361 28.8184 419.317 31.5384 419.944 34.3423C420.523 37.2211 420.824 40.1489 420.843 43.0853C420.781 46.044 420.446 48.9908 419.844 51.8882C419.704 52.6476 419.494 53.3371 419.354 54.0365C419.207 54.7683 419 55.4868 418.735 56.1848L418.036 58.3331L417.276 60.4114C416.195 63.1855 414.874 65.8601 413.329 68.405L412.77 69.4042L412.15 70.4034L410.901 72.2719C410.002 73.451 409.163 74.7 408.193 75.8091C407.224 76.9182 406.255 78.0973 405.286 79.2064C404.316 80.3155 403.207 81.3547 402.098 82.3938C400.989 83.433 399.88 84.3922 398.771 85.4414C397.662 86.4906 396.483 87.3799 395.304 88.2891C390.628 91.8946 385.714 95.1795 380.595 98.1213C375.54 101.119 370.404 103.737 365.208 106.295C360.012 108.853 354.746 111.291 349.47 113.579C344.195 115.867 338.939 118.155 333.603 120.304L301.988 133.093C291.527 137.39 281.265 141.756 271.353 146.672C266.427 149.17 261.511 151.668 256.725 154.366C251.938 157.064 247.372 159.982 242.866 163.039C224.976 175.139 209.933 190.987 198.781 209.482C193.106 218.765 188.258 228.528 184.293 238.659C180.306 248.886 177.04 259.38 174.52 270.064C173.821 272.692 173.341 275.469 172.782 278.167C172.222 280.865 171.783 283.583 171.253 286.351C170.723 289.118 170.354 291.826 170.014 294.534C169.804 295.913 169.594 297.302 169.454 298.621L169.045 302.777C166.617 324.89 166.617 347.422 167.586 370.084C168.066 381.385 168.835 392.756 169.664 404.056C170.494 415.357 171.393 426.788 172.162 438.159C169.498 427.068 167.07 415.907 164.878 404.676C162.66 393.445 160.721 382.214 159.123 370.853C155.935 348.111 154.346 325.03 155.526 301.738L155.735 297.372C155.795 295.913 155.935 294.464 156.075 293.005C156.355 290.098 156.565 287.18 156.974 284.272C157.384 281.365 157.674 278.447 158.153 275.539C158.633 272.632 159.063 269.714 159.682 266.876C161.87 255.292 165.001 243.907 169.045 232.833C173.106 221.637 178.201 210.842 184.263 200.589C190.416 190.273 197.665 180.651 205.885 171.892C214.182 163.181 223.437 155.434 233.473 148.801C243.337 142.319 253.694 136.619 264.448 131.754C275.06 126.898 285.871 122.672 296.683 118.765C302.088 116.816 307.494 114.878 312.9 113.079L329.057 107.534C334.392 105.655 339.728 103.857 344.994 101.918C350.26 99.9798 355.536 97.9214 360.731 95.923C365.927 93.9246 371.063 91.6264 376.119 89.2683C381.118 86.9737 385.952 84.3362 390.587 81.3747C399.74 75.4894 407.984 68.0653 413.119 58.393C414.407 55.9816 415.519 53.4804 416.447 50.909C417.323 48.3015 417.991 45.6286 418.445 42.9154C418.865 40.1655 419.005 37.3803 418.865 34.6021C418.725 33.2132 418.585 31.8243 418.305 30.4354C417.866 28.9366 417.446 27.6277 417.096 26.2388Z" fill="#646464"/>
<path d="M504.996 174.02C507.624 172.562 510.332 171.253 512.99 170.074C515.648 168.895 518.405 167.715 521.173 166.676C526.649 164.598 532.164 162.68 537.67 160.991C548.72 157.632 559.944 154.877 571.293 152.737C582.632 150.547 594.089 149.022 605.606 148.171C611.361 147.751 617.176 147.472 623.072 147.472C625.979 147.472 628.967 147.542 631.945 147.682C634.922 147.821 637.94 148.031 640.887 148.441C638.249 149.9 635.552 151.219 632.894 152.438C630.236 153.657 627.488 154.796 624.71 155.835C619.235 157.983 613.719 159.832 608.214 161.51C597.151 164.869 585.9 167.575 574.52 169.614C563.17 171.733 551.717 173.261 540.208 174.19C534.453 174.61 528.627 174.88 522.742 174.88C519.824 174.88 516.847 174.81 513.939 174.67C510.948 174.629 507.962 174.412 504.996 174.02Z" fill="#646464"/>
<path d="M457.374 174.09C454.691 174.16 452.006 174.09 449.33 173.881C446.692 173.741 444.064 173.471 441.497 173.191C436.301 172.562 431.235 171.732 426.179 170.693C416.057 168.695 406.285 165.847 396.792 162.999C387.3 160.152 377.937 157.174 368.435 154.406C363.719 153.017 358.943 151.698 354.086 150.409C351.658 149.79 349.17 149.1 346.672 148.471C344.174 147.841 341.606 147.292 338.979 146.472C341.416 145.324 343.942 144.375 346.532 143.635C347.152 143.425 347.851 143.285 348.471 143.075C349.111 142.88 349.762 142.72 350.419 142.596C351.728 142.316 353.047 142.106 354.366 141.826C359.684 141.008 365.068 140.706 370.443 140.927C375.775 141.111 381.083 141.712 386.321 142.725C391.491 143.692 396.605 144.943 401.638 146.472C406.634 148.001 411.55 149.73 416.337 151.598C421.123 153.467 425.829 155.595 430.405 157.843C434.982 160.092 439.628 162.56 444.064 165.188C446.283 166.506 448.501 167.895 450.719 169.414C453.053 170.801 455.278 172.365 457.374 174.09Z" fill="#646464"/>
<path d="M481.215 190.797C482.235 192.942 483.139 195.14 483.923 197.382C484.752 199.6 485.442 201.819 486.071 204.037C487.39 208.473 488.429 212.91 489.329 217.346C492.677 235.045 493.585 253.118 492.027 271.063C491.617 275.57 491.027 280.056 490.158 284.652C489.748 286.94 489.259 289.159 488.639 291.447C488.056 293.772 487.345 296.064 486.511 298.311C485.475 296.166 484.551 293.968 483.743 291.727C482.914 289.508 482.214 287.29 481.595 285.072C480.276 280.635 479.237 276.199 478.337 271.763C476.657 262.928 475.592 253.987 475.15 245.004C474.673 236.01 474.857 226.993 475.7 218.026C476.119 213.519 476.699 209.033 477.578 204.446C477.988 202.158 478.477 199.94 479.097 197.652C479.647 195.322 480.354 193.031 481.215 190.797Z" fill="#646464"/>
<path d="M258.573 255.086C259.403 257.034 260.232 258.903 261.061 260.841L263.489 266.597C265.088 270.474 266.607 274.291 268.136 278.167C269.664 282.044 271.183 285.931 272.712 289.748L277.148 301.389C282.974 316.916 288.519 332.584 293.925 348.251C296.623 356.085 299.191 363.989 301.819 371.823L305.656 383.603C306.905 387.6 308.224 391.507 309.473 395.454C311.961 403.357 314.469 411.261 316.887 419.165L320.494 431.015C321.113 433.014 321.673 435.012 322.292 437.01L324.021 443.006C325.2 447.002 326.309 450.999 327.348 455.136C328.387 459.273 329.437 463.249 330.406 467.336C331.375 471.423 332.344 475.45 333.243 479.536C334.143 483.623 334.982 487.72 335.811 491.807C339.139 508.163 341.807 524.67 344.055 541.237C346.303 557.804 347.732 574.44 348.421 591.137C348.771 599.46 338.639 620.843 337.88 629.107C333.883 596.033 337.82 575.689 331.025 543.465C324.231 511.241 316.537 479.277 307.454 447.872L303.927 436.091L300.39 424.161C298.032 416.267 295.744 408.223 293.455 400.32C292.276 396.373 291.237 392.326 290.128 388.329L286.801 376.339C284.652 368.295 282.504 360.352 280.426 352.278C276.269 336.291 272.312 320.124 268.575 303.967L265.867 291.837C264.968 287.75 264.139 283.723 263.23 279.636C262.32 275.55 261.571 271.463 260.741 267.436L259.562 261.271C259.333 259.143 258.913 257.164 258.573 255.086Z" fill="#646464"/>
<path d="M690.018 262.69L689.349 268.935C688.839 273.002 688.41 277.138 687.84 281.295C687.27 285.452 686.761 289.518 686.191 293.665L684.473 305.975C682.045 322.372 679.397 338.789 676.539 355.086C675.11 363.269 673.611 371.383 672.113 379.566L669.764 391.787C668.985 395.883 668.266 399.98 667.406 404.007C665.768 412.07 664.129 420.274 662.41 428.337L659.842 440.508L657.264 452.498C650.74 484.522 645.634 516.996 641.447 549.67C637.26 582.344 642.856 602.298 641.497 635.602C640.078 627.438 628.268 606.945 627.938 598.631C627.272 581.925 627.388 565.225 628.288 548.531C629.167 531.845 630.536 515.178 632.534 498.571C633.034 494.425 633.533 490.278 634.103 486.131C634.673 481.985 635.322 477.898 635.961 473.741C636.601 469.584 637.31 465.498 638.02 461.341C638.729 457.184 639.509 453.078 640.358 448.981L641.607 442.826C642.067 440.777 642.456 438.829 642.916 436.741L645.564 424.64C647.342 416.567 649.201 408.493 651.049 400.41C651.979 396.413 652.968 392.326 653.897 388.289L656.755 376.239C658.753 368.246 660.672 360.132 662.75 352.108C666.887 336.061 671.153 320.004 675.74 304.057L679.227 292.066C680.436 288.14 681.645 284.153 682.854 280.156C684.063 276.159 685.282 272.242 686.561 268.246L688.559 262.31C689.239 260.312 689.918 258.383 690.558 256.375C690.348 258.543 690.058 260.542 690.018 262.69Z" fill="#646464"/>
<path d="M323.521 342.476C326.569 342.476 329.617 342.616 332.604 342.826C335.592 343.036 338.599 343.315 341.477 343.585C347.292 344.215 353.118 344.904 358.733 345.584C369.745 347.078 380.829 347.979 391.937 348.281C402.666 348.409 413.371 347.245 423.821 344.814C429.152 343.535 434.368 341.82 439.419 339.688L443.236 337.95C444.475 337.33 445.724 336.641 447.043 336.011C448.362 335.382 449.541 334.552 450.86 333.863C452.179 333.174 453.348 332.274 454.737 331.505C454.187 332.894 453.488 334.283 452.798 335.662C452.059 337.05 451.224 338.386 450.3 339.658C449.409 340.944 448.438 342.172 447.392 343.335C446.393 344.514 445.244 345.624 444.135 346.733C439.531 351.097 434.275 354.717 428.557 357.464C422.846 360.268 416.803 362.339 410.572 363.629C404.374 364.94 398.051 365.566 391.717 365.498C379.39 365.268 367.188 362.978 355.616 358.723C349.946 356.7 344.412 354.313 339.049 351.579L335.052 349.5C333.743 348.741 332.424 348.042 331.175 347.282C328.528 345.839 325.971 344.234 323.521 342.476Z" fill="#646464"/>
<path d="M500.21 331.165C501.739 331.655 503.118 332.274 504.507 332.834C505.895 333.393 507.354 333.833 508.733 334.422C510.112 335.012 511.511 335.422 512.9 335.951L517.056 337.4C522.602 339.279 528.048 340.937 533.553 342.326C544.367 345.136 555.397 347.038 566.527 348.012C577.667 348.981 588.87 348.981 600.01 348.012C605.626 347.522 611.311 346.902 617.056 345.933C618.515 345.723 619.904 345.444 621.423 345.234L625.789 344.404C627.248 344.055 628.707 343.785 630.226 343.505C631.745 343.225 633.223 342.876 634.802 342.606C633.693 343.715 632.584 344.754 631.405 345.863C630.226 346.972 628.987 347.862 627.808 348.771C626.629 349.68 625.24 350.57 623.991 351.479C622.742 352.388 621.353 353.068 619.994 353.897C614.517 357.024 608.701 359.515 602.658 361.321C578.069 368.696 551.593 366.416 528.627 354.946C523.01 352.099 517.714 348.659 512.83 344.684C511.651 343.685 510.472 342.686 509.293 341.567C508.114 340.448 507.074 339.418 505.965 338.239C504.856 337.06 503.887 335.881 502.918 334.702C501.909 333.608 501.003 332.424 500.21 331.165Z" fill="#646464"/>
<path d="M462.64 407.304C462.757 409.268 462.733 411.239 462.57 413.199C462.29 415.068 461.951 417.006 461.571 418.885C461.191 420.763 460.392 422.552 459.772 424.361C459.003 426.089 458.174 427.888 457.274 429.556C453.468 436.341 448.272 442.245 442.027 446.883C435.81 451.573 428.652 454.863 421.043 456.525C419.095 456.865 417.226 457.144 415.288 457.424C413.35 457.571 411.406 457.617 409.463 457.564C407.524 457.424 405.586 457.214 403.707 456.934C401.787 456.562 399.906 456.006 398.092 455.276C399.76 454.097 401.349 453.058 402.878 452.148C404.407 451.239 405.926 450.21 407.384 449.311C408.843 448.411 410.292 447.442 411.751 446.543C413.21 445.644 414.529 444.664 415.908 443.835C421.383 440.228 426.589 436.691 431.575 432.954C436.561 429.217 441.567 425.26 446.563 421.103C447.742 419.994 449.051 418.945 450.37 417.836C451.689 416.727 452.868 415.618 454.257 414.448C455.646 413.279 456.815 412.09 458.254 410.911C459.692 409.732 461.041 408.483 462.64 407.304Z" fill="#646464"/>
<path d="M496.883 411.641C498.552 412.556 500.173 413.557 501.739 414.638C503.328 415.637 504.737 416.637 506.245 417.696C507.754 418.755 509.153 419.634 510.542 420.693C511.931 421.753 513.38 422.632 514.699 423.601C520.174 427.488 525.44 431.165 530.686 434.832C535.932 438.499 541.367 442.116 546.913 445.823C548.302 446.723 549.681 447.702 551.139 448.671C552.598 449.64 553.977 450.54 555.436 451.669C556.895 452.798 558.344 453.667 559.872 454.786C561.461 455.856 562.989 457.013 564.449 458.253C562.563 458.809 560.64 459.226 558.693 459.502C556.825 459.712 554.886 459.782 552.938 459.852C550.99 459.922 549.131 459.642 547.262 459.502C545.394 459.362 543.535 458.883 541.647 458.503C526.69 454.869 513.604 445.833 504.906 433.133C503.907 431.535 502.908 429.876 501.989 428.207C501.106 426.522 500.322 424.787 499.641 423.012C498.946 421.225 498.365 419.396 497.902 417.536C497.368 415.609 497.027 413.635 496.883 411.641Z" fill="#646464"/>
<path d="M594.764 319.035C595.763 319.175 596.762 319.245 597.532 319.315C598.301 319.385 598.971 319.315 599.68 319.245C600.695 319.117 601.697 318.907 602.678 318.615C604.206 318.136 604.826 317.616 605.176 317.616C605.985 317.986 606.773 318.403 607.534 318.865C608.459 319.316 609.435 319.651 610.441 319.864C611.149 320.03 611.866 320.147 612.59 320.214C613.512 320.312 614.441 320.336 615.368 320.284C615.627 320.732 615.857 321.196 616.057 321.673C616.209 322.123 616.325 322.584 616.407 323.052C616.477 323.541 616.477 323.961 616.547 324.441C616.558 324.905 616.535 325.369 616.477 325.83C616.218 327.625 615.448 329.307 614.258 330.676C613.005 332.087 611.447 333.195 609.702 333.916C607.957 334.637 606.071 334.952 604.187 334.838C602.303 334.723 600.469 334.182 598.825 333.255C597.18 332.328 595.768 331.04 594.694 329.487C593.689 327.954 593.113 326.181 593.025 324.351C593.014 323.887 593.037 323.422 593.095 322.962C593.154 322.496 593.247 322.035 593.375 321.583C593.517 321.127 593.701 320.686 593.925 320.264C594.181 319.839 594.461 319.428 594.764 319.035Z" fill="#646464"/>
<path d="M350 319.035C350.999 319.175 351.998 319.245 352.768 319.315C353.537 319.385 354.207 319.315 354.916 319.245C355.93 319.116 356.933 318.905 357.914 318.615C359.432 318.136 360.062 317.616 360.402 317.616C361.212 317.984 362 318.401 362.76 318.865C363.687 319.317 364.667 319.653 365.677 319.864C366.384 320.031 367.102 320.148 367.826 320.214C368.745 320.312 369.67 320.336 370.593 320.284C370.852 320.734 371.086 321.197 371.293 321.673C371.437 322.125 371.55 322.585 371.633 323.052C371.703 323.541 371.703 323.961 371.773 324.441C371.784 324.905 371.761 325.369 371.703 325.83C371.444 327.625 370.674 329.307 369.484 330.676C368.394 331.899 367.073 332.895 365.597 333.607C364.121 334.319 362.519 334.734 360.883 334.826C359.247 334.919 357.609 334.689 356.062 334.148C354.515 333.607 353.09 332.767 351.868 331.675C351.145 331.024 350.498 330.293 349.94 329.497C348.94 327.962 348.364 326.19 348.271 324.361C348.249 323.426 348.367 322.493 348.621 321.593C348.762 321.135 348.949 320.693 349.181 320.274C349.399 319.828 349.675 319.411 350 319.035Z" fill="#646464"/>
<path d="M405.335 675.95C432.86 677.615 460.388 678.541 487.919 678.727C515.45 678.914 542.978 678.248 570.503 676.729C584.232 675.97 598.031 675.07 611.76 673.731C625.489 672.392 639.228 670.824 652.967 668.605C646.093 667.706 639.228 667.077 632.303 666.457C625.379 665.838 618.505 665.348 611.64 664.858C597.851 663.859 584.112 663.2 570.383 662.57C542.855 661.391 515.427 660.842 487.919 660.702C460.411 660.562 432.963 660.892 405.455 661.811C391.726 662.301 377.927 662.81 364.198 663.679C357.334 664.099 350.399 664.519 343.535 665.068C336.67 665.618 329.746 666.177 322.871 667.007C336.55 669.365 350.279 671.004 364.078 672.622C377.807 673.941 391.586 675.05 405.335 675.95Z" stroke="#646464" stroke-miterlimit="10"/>
<path d="M647.991 750.4C640.177 756.115 632.44 761.917 624.78 767.806C609.459 779.636 594.401 791.873 579.606 804.517C572.262 810.881 564.917 817.316 557.753 824.021C554.146 827.398 550.599 830.786 547.052 834.243C545.313 835.931 543.565 837.76 541.826 839.529C540.087 841.297 538.399 843.046 536.66 844.944C534.921 846.843 533.243 848.671 531.554 850.63L529.196 853.338C528.507 854.087 527.827 854.766 527.078 855.506C524.045 858.404 520.693 860.948 517.086 863.09C513.479 865.255 509.663 867.05 505.695 868.445C501.84 869.831 497.83 870.74 493.754 871.153C489.788 871.542 485.787 871.384 481.864 870.684C477.968 869.997 474.207 868.691 470.723 866.817C467.123 864.872 463.797 862.46 460.831 859.643C460.438 859.3 460.064 858.937 459.712 858.553C459.332 858.154 458.962 857.814 458.593 857.404L457.533 856.255L456.414 854.966C454.726 852.968 453.117 851.109 451.368 849.281C437.805 834.88 423.136 821.563 407.493 809.453C392.186 797.402 376.438 786.161 360.531 775.39L348.541 767.396C344.494 764.758 340.547 762.051 336.47 759.473L324.33 751.689L318.235 747.822L315.177 745.824L312.18 743.925C315.727 747.312 319.344 750.63 322.821 753.987C326.298 757.344 330.045 760.482 333.712 763.669L344.704 773.212L355.695 782.694C370.383 795.294 385.191 807.674 399.45 820.664C413.708 833.653 427.557 846.803 440.077 861.161C441.636 862.92 443.125 864.748 444.684 866.577L445.993 868.076C446.411 868.624 446.869 869.142 447.362 869.625C447.851 870.104 448.291 870.624 448.79 871.123C449.23 871.653 449.708 872.151 450.219 872.612C454.178 876.505 458.657 879.83 463.529 882.494C468.38 885.133 473.611 887.004 479.036 888.04C484.351 889.021 489.78 889.226 495.153 888.649C505.709 887.409 515.852 883.821 524.84 878.148C529.472 875.293 533.754 871.906 537.599 868.056C538.599 867.057 539.598 865.957 540.517 864.878L542.885 861.961C544.314 860.132 545.813 858.304 547.431 856.545C549.05 854.786 550.539 852.958 552.218 851.189C553.896 849.421 555.455 847.672 557.134 845.914C560.431 842.386 563.798 838.919 567.126 835.482C573.91 828.577 580.695 821.733 587.659 814.958C615.357 787.74 643.734 761.191 671.592 733.763C663.685 739.146 655.818 744.691 647.991 750.4Z" stroke="#646464" stroke-miterlimit="10"/>
<path d="M485.262 616.617C486.261 616.756 487.091 616.826 487.78 616.896C488.447 616.91 489.114 616.886 489.779 616.826C490.698 616.696 491.604 616.486 492.486 616.197C493.865 615.717 494.485 615.198 494.745 615.198C495.004 615.198 495.564 615.757 496.883 616.447C497.716 616.892 498.602 617.228 499.521 617.446C500.161 617.612 500.812 617.729 501.469 617.796C502.305 617.889 503.147 617.912 503.987 617.866C504.214 618.312 504.424 618.772 504.617 619.245C504.75 619.7 504.853 620.164 504.927 620.633C504.996 621.123 504.996 621.533 505.056 622.022C505.066 622.486 505.046 622.95 504.996 623.411C504.773 625.176 504.084 626.849 502.998 628.257C502.078 629.468 500.909 630.465 499.569 631.183C498.229 631.901 496.75 632.321 495.233 632.416C493.716 632.511 492.196 632.278 490.778 631.732C489.359 631.187 488.074 630.343 487.011 629.257C486.348 628.599 485.761 627.868 485.262 627.078C484.345 625.52 483.827 623.759 483.753 621.952C483.744 621.489 483.764 621.025 483.813 620.563C483.872 620.096 483.955 619.633 484.063 619.175C484.193 618.724 484.364 618.286 484.573 617.866C484.733 617.414 484.966 616.992 485.262 616.617Z" fill="#646464"/>
<path d="M671.643 402.718C676.998 415.558 681.455 428.527 685.791 441.517C690.128 454.506 694.155 467.496 698.081 480.615C702.008 493.735 705.755 506.804 709.312 520.024C712.87 533.243 716.237 546.553 718.805 560.222C711.943 548.204 705.933 535.72 700.819 522.862C695.657 510.072 691.11 497.082 687.18 483.893C683.25 470.703 679.919 457.344 677.188 443.815C674.389 430.261 672.536 416.529 671.643 402.718Z" fill="#666665"/>
<path d="M701.339 523.511C698.576 534.072 695.005 544.404 690.657 554.416C686.431 564.409 681.665 574.091 676.958 583.623L662.9 612.33C658.103 621.942 653.257 631.615 647.332 640.927C648.866 630.103 651.309 619.427 654.636 609.013C657.892 598.575 661.961 588.409 666.806 578.607C671.673 568.825 677.098 559.502 682.794 550.33C688.448 541.037 694.64 532.082 701.339 523.511Z" fill="#666665"/>
<path d="M790.328 553.078C787.021 562.44 783.124 571.593 778.947 580.576C774.771 589.558 770.284 598.391 765.688 607.144C756.455 624.62 746.703 641.747 736.711 658.733L706.735 709.482C704.197 713.689 701.799 717.966 699.321 722.202C696.843 726.439 694.465 730.726 692.037 734.992L690.218 738.16C689.609 739.219 689.069 740.318 688.47 741.397C687.301 743.555 686.151 745.723 684.942 747.872C683.733 750.02 682.654 752.238 681.535 754.437C680.416 756.635 679.287 758.843 678.088 761.031C679.307 756.235 680.476 751.369 682.085 746.663C682.844 744.295 683.663 741.947 684.463 739.588C684.862 738.409 685.262 737.22 685.702 736.061L687.051 732.594C688.889 727.978 690.678 723.321 692.726 718.805C694.775 714.289 696.723 709.712 698.921 705.266C707.494 687.37 717.017 670.014 726.999 652.968C736.981 635.921 747.392 619.255 758.024 602.668C768.655 586.081 779.487 569.694 790.328 553.078Z" fill="#666665"/>
<path d="M795.724 425.969C797.764 437.637 799.079 449.42 799.661 461.251C800.327 473.002 800.567 484.742 800.38 496.473C800.194 508.203 799.621 519.937 798.662 531.675C797.734 543.482 796.066 555.219 793.666 566.817C791.601 555.154 790.266 543.374 789.669 531.545C789.003 519.794 788.77 508.05 788.97 496.313C789.169 484.576 789.746 472.845 790.698 461.121C791.646 449.311 793.324 437.571 795.724 425.969Z" fill="#666665"/>
<path d="M293.755 411.97C292.854 425.772 290.994 439.494 288.19 453.037C285.485 466.553 282.154 479.913 278.198 493.115C274.241 506.318 269.694 519.308 264.558 532.084C259.466 544.942 253.476 557.426 246.633 569.444C249.201 555.775 252.628 542.466 256.115 529.246C259.602 516.027 263.429 502.907 267.356 489.838C271.283 476.768 275.35 463.739 279.636 450.739C283.923 437.74 288.399 424.81 293.755 411.97Z" fill="#666665"/>
<path d="M264.119 532.774C270.815 541.346 277.01 550.297 282.674 559.582C288.35 568.755 293.775 578.078 298.662 587.86C303.5 597.66 307.566 607.823 310.822 618.256C314.15 628.69 316.593 639.386 318.126 650.23C312.201 640.907 307.345 631.245 302.548 621.633L288.49 592.926C283.763 583.393 279.017 573.691 274.791 563.709C270.45 553.684 266.883 543.343 264.119 532.774Z" fill="#666665"/>
<path d="M175.07 562.3C185.912 578.917 196.733 595.274 207.384 611.891C218.036 628.507 228.458 645.234 238.45 662.22C248.442 679.207 257.954 696.633 266.517 714.528C268.705 718.965 270.704 723.521 272.712 728.068C274.721 732.614 276.559 737.23 278.388 741.847L279.737 745.324C280.176 746.483 280.576 747.662 280.976 748.841C281.775 751.199 282.594 753.547 283.354 755.915C284.922 760.632 286.091 765.498 287.35 770.284C286.151 768.096 285.052 765.877 283.903 763.689C282.754 761.501 281.745 759.273 280.496 757.134C279.247 754.996 278.138 752.808 276.969 750.65C276.369 749.57 275.83 748.481 275.22 747.412L273.392 744.215C270.954 739.938 268.625 735.642 266.097 731.415C263.57 727.188 261.231 722.912 258.693 718.705L228.717 667.946C218.775 650.959 208.993 633.843 199.741 616.357C195.144 607.604 190.668 598.781 186.481 589.788C182.295 580.796 178.378 571.693 175.07 562.3Z" fill="#666665"/>
<path d="M169.674 435.232C172.065 446.831 173.733 458.568 174.67 470.374C175.67 482.104 176.219 493.835 176.399 505.566C176.579 517.296 176.399 529.047 175.689 540.797C175.119 552.626 173.801 564.407 171.743 576.069C169.343 564.472 167.674 552.734 166.747 540.927C165.747 529.197 165.175 517.466 165.028 505.736C164.881 494.005 165.121 482.261 165.747 470.504C166.326 458.677 167.637 446.897 169.674 435.232Z" fill="#666665"/>
<path d="M322.871 666.936H525.17L579.936 669.674L630.535 668.305L652.967 668.535L668.075 733.743L637.709 764.008L549.72 841.966L515.357 872.771L487.919 877.298L461.351 869.374L400.17 816.117L337.1 764.008L306.135 738.699L322.871 666.936Z" fill="#F39469"/>
<path d="M322.871 666.936C329.746 666.107 336.67 665.558 343.535 664.998C350.399 664.439 357.334 663.999 364.198 663.609C377.927 662.78 391.726 662.23 405.455 661.741C432.926 660.821 460.414 660.452 487.919 660.632C515.387 660.771 542.875 661.321 570.383 662.5C584.112 663.13 597.851 663.819 611.64 664.788C618.505 665.278 625.379 665.787 632.303 666.387C639.228 666.986 646.092 667.636 652.967 668.535C639.228 670.753 625.499 672.272 611.76 673.661C598.021 675.05 584.232 675.949 570.503 676.659C542.978 678.184 515.45 678.85 487.919 678.657C460.388 678.464 432.86 677.538 405.335 675.879C391.606 674.98 377.807 673.881 364.078 672.482C350.279 670.963 336.55 669.295 322.871 666.936Z" fill="#646464"/>
<path d="M312.06 743.965L315.057 745.864L318.115 747.862L324.21 751.729L336.35 759.513C340.347 762.091 344.344 764.798 348.42 767.436L360.411 775.43C376.338 786.201 392.086 797.412 407.373 809.493C423.015 821.603 437.685 834.92 451.248 849.321C452.997 851.149 454.606 853.038 456.294 855.006L457.413 856.295L458.472 857.444C458.842 857.854 459.212 858.194 459.592 858.593C459.944 858.977 460.318 859.34 460.711 859.682C463.677 862.5 467.003 864.912 470.603 866.857C474.087 868.731 477.848 870.037 481.744 870.724C485.667 871.424 489.668 871.582 493.634 871.193C497.71 870.78 501.72 869.871 505.575 868.485C509.543 867.09 513.359 865.295 516.966 863.13C520.572 860.988 523.925 858.444 526.958 855.546C527.707 854.806 528.386 854.127 529.076 853.378L531.434 850.67C533.123 848.671 534.801 846.883 536.54 844.984C538.279 843.086 539.967 841.327 541.706 839.569C543.444 837.81 545.193 835.971 546.932 834.283C550.479 830.826 554.026 827.438 557.633 824.061C564.797 817.356 572.141 810.922 579.486 804.557C594.294 791.9 609.352 779.663 624.659 767.846C632.313 761.951 640.05 756.149 647.871 750.44C655.691 744.731 663.575 739.179 671.522 733.783C643.644 761.211 615.267 787.74 587.589 814.978C580.595 821.753 573.84 828.597 567.056 835.502C563.698 838.959 560.331 842.406 557.064 845.933C555.385 847.692 553.826 849.451 552.147 851.209C550.469 852.968 548.98 854.806 547.361 856.565C545.743 858.324 544.244 860.152 542.815 861.981L540.447 864.898C539.518 865.977 538.518 867.067 537.529 868.076C529.888 875.644 520.678 881.443 510.551 885.062C505.559 886.834 500.384 888.037 495.123 888.649C489.75 889.226 484.321 889.021 479.006 888.04C473.591 887.001 468.37 885.131 463.528 882.494C458.654 879.831 454.171 876.505 450.209 872.612C449.698 872.151 449.22 871.653 448.78 871.123C448.281 870.644 447.841 870.124 447.351 869.625C446.859 869.142 446.401 868.624 445.982 868.076L444.673 866.577C443.115 864.748 441.676 862.92 440.067 861.161C427.557 846.803 413.618 833.603 399.37 820.664C385.121 807.724 370.303 795.334 355.615 782.694L344.624 773.212L333.632 763.669C329.965 760.482 326.358 757.234 322.741 753.987C319.124 750.74 315.647 747.352 312.06 743.965Z" fill="#646464"/>
<path d="M489.789 992.955C490.678 987.59 491.447 982.184 492.177 976.768C493.149 969.274 493.932 961.76 494.525 954.226C494.925 961.607 495.444 968.985 496.084 976.359C496.553 981.764 497.083 987.15 497.772 992.546C502.435 992.279 507.075 991.946 511.691 991.547C510.632 985.831 509.603 980.106 508.693 974.36C503.538 943.795 499.451 912.81 494.615 881.754L491.337 904.906C490.268 912.67 489.139 920.433 487.95 928.127C485.562 943.585 482.954 958.833 479.707 973.951C478.408 980.445 476.919 986.94 475.37 993.355C480.146 993.275 484.972 993.115 489.789 992.955Z" fill="#646464"/>
<path d="M357.314 974.97L359.312 975.689C357.72 965.458 356.588 955.156 355.915 944.784C354.847 927.787 355.034 910.734 356.474 893.765C357.174 885.172 358.173 876.649 359.472 868.045C359.792 865.897 360.102 863.749 360.471 861.601C360.841 859.452 361.231 857.234 361.6 855.086C361.97 852.938 362.36 850.719 362.799 848.571C363.239 846.423 363.679 844.205 364.058 841.986C362.799 843.855 361.67 845.733 360.471 847.502L357.264 853.317C356.265 855.266 355.265 857.204 354.376 859.312C353.487 861.421 352.618 863.399 351.728 865.478C348.349 873.851 345.659 882.486 343.685 891.297C337.989 917.133 337.574 943.854 342.466 969.854C347.452 971.413 352.408 973.101 357.314 974.97Z" fill="#646464"/>
<path d="M630.395 855.176C630.775 857.394 631.215 859.543 631.524 861.691C631.834 863.839 632.224 865.988 632.524 868.136C633.783 876.729 634.852 885.322 635.521 893.855C637.664 918.904 637.047 944.112 633.683 969.025C639.298 967.426 644.844 965.968 650.439 964.699C651.432 958.523 652.118 952.295 652.498 946.014C653.723 927.678 652.337 909.262 648.381 891.317C646.355 882.511 643.666 873.869 640.337 865.468C639.458 863.39 638.639 861.311 637.699 859.293C636.76 857.274 635.871 855.296 634.802 853.298C633.733 851.299 632.733 849.301 631.594 847.472C630.455 845.644 629.276 843.725 628.077 841.927C628.457 844.215 628.897 846.393 629.276 848.611C629.656 850.83 630.046 852.958 630.395 855.176Z" fill="#646464"/>
<path d="M290.098 950.1C294.141 952.509 298.307 954.707 302.578 956.685C304.343 957.351 306.118 958.017 307.904 958.683C307.824 958.254 307.764 957.814 307.684 957.374C306.615 951.139 305.426 945.034 304.286 939.009C301.898 926.949 299.58 915.158 298.571 903.587C298.041 897.872 297.851 892.129 298.001 886.391L298.381 877.248L298.761 868.026C299.26 855.756 299.95 843.555 300.709 831.285C301.469 819.015 302.408 806.885 303.537 794.685C304.107 788.589 304.796 782.484 305.425 776.459C306.055 770.434 306.804 764.329 307.624 758.294C310.778 734.14 315.204 710.169 320.883 686.481C323.721 674.631 326.988 662.91 330.565 651.269C334.143 639.629 338.109 628.078 342.456 616.647C336.482 627.25 331.169 638.212 326.549 649.471C321.643 660.692 317.306 672.203 313.409 683.913C305.627 707.485 299.513 731.575 295.114 756.005C293.985 762.111 292.916 768.206 291.966 774.381C291.467 777.378 291.027 780.546 290.587 783.593C290.148 786.641 289.708 789.699 289.328 792.816C287.69 805.156 286.441 817.566 285.332 829.896C284.222 842.226 283.423 854.617 282.674 867.057L281.794 885.632C281.534 892.222 281.724 898.822 282.364 905.386C283.863 921.013 287.15 935.752 290.098 950.1Z" fill="#646464"/>
<path d="M637.93 625.42C638.929 628.328 639.998 631.175 640.928 634.013C641.857 636.851 642.926 639.698 643.695 642.606C644.465 645.514 645.454 648.362 646.273 651.269C649.604 662.92 652.475 674.637 654.887 686.421C655.516 689.329 656.086 692.306 656.645 695.294C657.205 698.282 657.714 701.289 658.224 704.237C658.733 707.184 659.223 710.232 659.663 713.17C660.102 716.107 660.482 719.165 660.922 722.163L662.051 731.155C662.371 734.153 662.75 737.151 663.05 740.148C663.35 743.146 663.62 746.143 663.929 749.141C664.239 752.139 664.499 755.136 664.749 758.134C664.998 761.131 665.248 764.129 665.438 767.216L665.758 771.723L666.008 776.219C666.387 782.215 666.697 788.35 667.007 794.385L667.826 812.62C668.076 818.615 668.266 824.75 668.456 830.846L669.585 867.446L669.904 876.599C670.024 879.597 670.154 882.834 670.214 885.542C670.266 891.26 669.973 896.976 669.335 902.658C667.337 922.063 662.87 949.151 659.982 970.224C664.709 969.325 669.485 968.545 674.411 967.956C675.02 967.876 675.64 967.826 676.249 967.766C679.417 949.92 683.324 924.331 685.492 904.736C685.812 901.549 686.062 898.292 686.251 895.034C686.441 891.777 686.501 888.45 686.441 885.192C686.381 881.935 686.181 878.817 686.062 875.76L685.682 866.617C685.122 854.347 684.553 842.146 683.923 829.876C683.544 823.771 683.164 817.676 682.794 811.511L682.165 802.288C681.915 799.241 681.655 796.113 681.405 793.066C680.906 786.901 680.336 780.796 679.707 774.631C679.337 771.513 678.957 768.525 678.638 765.408C678.318 762.29 677.888 759.243 677.508 756.195C676.759 750.09 675.81 743.995 674.811 737.89C674.301 734.892 673.811 731.795 673.232 728.737C672.652 725.68 672.043 722.742 671.473 719.665C670.904 716.587 670.214 713.559 669.475 710.582L668.476 706.075C668.166 704.547 667.786 703.078 667.406 701.569C666.657 698.571 665.898 695.574 665.088 692.626C664.279 689.679 663.45 686.631 662.57 683.753L661.251 679.317L659.863 674.95C659.423 673.491 658.983 672.043 658.484 670.584L656.975 666.217C655.976 663.31 654.837 660.462 653.827 657.624C652.818 654.786 651.629 652.009 650.5 649.161C649.93 647.712 649.371 646.323 648.741 644.934L646.913 640.778C645.664 638 644.335 635.232 643.086 632.524C641.837 629.816 640.378 627.119 638.999 624.531C637.62 621.943 636.162 619.255 634.723 616.627L636.351 621.203L637.93 625.42Z" fill="#646464"/>
</svg>
