<svg width="191" height="191" viewBox="0 0 191 191" fill="none" xmlns="http://www.w3.org/2000/svg">
<g filter="url(#filter0_d_1117_2936)">
<path d="M125.894 156.165L64.1055 156.059C45.2701 156.026 30.0263 140.73 30.0587 121.894L30.1651 60.1063C30.1975 41.2701 45.4939 26.0263 64.3293 26.0587L126.117 26.1651C144.954 26.1975 160.197 41.4939 160.165 60.3301L160.059 122.117C160.026 140.954 144.731 156.197 125.894 156.165Z" fill="#FFCA42"/>
<path d="M71.6589 77.9199C71.6502 82.9525 69.2221 87.0286 66.2368 87.0235C63.2506 87.0183 60.8366 82.9339 60.8453 77.9013C60.8539 72.868 63.282 68.7919 66.2682 68.797C69.2535 68.8022 71.6675 72.8866 71.6589 77.9199Z" fill="black"/>
<path d="M116.386 73.3218C115.607 73.6058 114.862 73.9517 114.203 74.4444C110.813 76.9779 114.486 80.0213 116.857 81.5201C119.431 83.1453 123.605 86.0352 126.818 85.4145C127.323 85.3174 127.85 85.1043 128.107 84.6596C129.323 82.5494 125.939 81.5427 124.57 80.9486C123.554 80.508 121.559 79.5155 121.682 78.1441C121.718 77.7405 121.967 77.3843 122.258 77.1019C124.272 75.1428 128.588 75.7271 129.385 72.464C129.492 72.0261 129.426 71.5275 129.131 71.1877C128.841 70.8556 128.387 70.7224 127.953 70.6487C125.271 70.1895 122.628 71.109 120.169 72.0923C118.968 72.5731 117.635 72.8671 116.386 73.3218Z" fill="black"/>
<path d="M83.7626 116.196C92.1808 116.806 101.131 115.256 108.405 110.818C110.418 109.591 112.299 108.144 113.979 106.487C114.74 105.736 115.489 104.941 116.148 104.102C116.651 103.464 117.946 101.068 118.927 102.41C119.823 103.634 117.771 106.441 117.126 107.458C113.131 113.773 106.154 117.881 98.9371 119.398C95.0506 120.215 91.0498 120.435 87.0907 120.154C85.2162 120.021 83.3505 119.774 81.4919 119.497C79.9169 119.261 78.1999 119.137 76.8739 118.16C76.2148 117.673 76.2327 116.829 76.8073 116.286C77.4927 115.639 78.6668 115.627 79.5437 115.713C80.955 115.85 82.3458 116.094 83.7626 116.196Z" fill="black"/>
</g>
<defs>
<filter id="filter0_d_1117_2936" x="0.0585938" y="0.0586548" width="190.106" height="190.106" filterUnits="userSpaceOnUse" color-interpolation-filters="sRGB">
<feFlood flood-opacity="0" result="BackgroundImageFix"/>
<feColorMatrix in="SourceAlpha" type="matrix" values="0 0 0 0 0 0 0 0 0 0 0 0 0 0 0 0 0 0 127 0" result="hardAlpha"/>
<feOffset dy="4"/>
<feGaussianBlur stdDeviation="15"/>
<feColorMatrix type="matrix" values="0 0 0 0 0 0 0 0 0 0 0 0 0 0 0 0 0 0 0.25 0"/>
<feBlend mode="normal" in2="BackgroundImageFix" result="effect1_dropShadow_1117_2936"/>
<feBlend mode="normal" in="SourceGraphic" in2="effect1_dropShadow_1117_2936" result="shape"/>
</filter>
</defs>
</svg>
