<svg width="1159" height="1159" viewBox="0 0 1159 1159" fill="none" xmlns="http://www.w3.org/2000/svg">
<path d="M579.289 1079.58C855.592 1079.58 1079.58 855.592 1079.58 579.289C1079.58 302.987 855.592 79 579.289 79C302.987 79 79 302.987 79 579.289C79 855.592 302.987 1079.58 579.289 1079.58Z" fill="#EEEEEF"/>
<path d="M464.993 632.166C464.993 632.166 579.248 660.907 652.022 632.166C724.797 603.426 762.766 516.763 762.766 516.763C762.766 516.763 672.12 477.563 605.117 516.763C538.115 555.964 464.993 632.166 464.993 632.166Z" fill="#F2956A"/>
<path d="M473.778 231.643C475.493 239.721 477.56 247.722 480.012 255.586C481.242 259.515 482.583 263.407 484.106 267.214C485.575 271.013 487.345 274.688 489.4 278.205C490.401 279.91 491.572 281.51 492.896 282.979C494.122 284.305 495.918 285.612 497.409 287.133C498.915 288.628 500.335 290.206 501.664 291.86C502.989 293.485 504.228 295.16 505.516 296.611C506.596 297.996 508.041 299.051 509.688 299.659C511.384 300.082 513.16 300.063 514.846 299.602C515.782 299.388 516.706 299.123 517.613 298.807C518.001 298.694 518.376 298.542 518.732 298.353C519.029 298.197 519.301 297.998 519.538 297.761C520.572 296.57 521.16 295.058 521.204 293.482C521.362 289.61 520.911 285.738 519.867 282.006C518.912 278.117 517.688 274.243 516.351 270.399C513.663 262.703 510.511 255.122 507.345 247.497C505.765 243.676 504.163 239.864 502.675 235.897C501.243 231.903 500.025 227.836 499.028 223.712C498.093 219.833 496.941 216.009 495.579 212.258C494.213 208.717 492.362 205.555 490.009 203.876C487.698 202.228 484.672 201.915 481.214 202.576C480.362 202.722 479.493 202.967 478.623 203.208C477.87 203.433 477.14 203.73 476.444 204.095C474.896 204.911 473.445 205.899 472.12 207.042C466.466 211.858 461.658 218.443 457.244 225.112C448.454 238.629 441.065 253.299 434.037 268.085C427.065 282.924 420.491 297.994 414.072 313.161L411.673 318.855C410.822 320.791 410.012 322.768 409.106 324.689C407.361 328.57 405.424 332.357 403.449 336.12C399.426 343.571 395.024 350.812 390.261 357.813C380.809 371.784 370.408 384.805 360.173 397.765C349.908 410.708 339.679 423.54 329.906 436.7C325.013 443.272 320.215 449.908 315.511 456.608C310.968 463.162 306.765 470.003 302.714 477.042C294.675 491.15 287.286 505.785 280.154 520.549C265.961 550.135 252.615 580.246 239.829 610.599C227.043 640.954 214.701 671.505 202.803 702.252L198.347 713.765L197.256 716.6C197.161 716.838 196.987 717.359 196.846 717.775L196.405 719.129C195.826 720.961 195.28 722.839 194.775 724.729C192.739 732.301 191.302 740.022 190.48 747.82C189.633 755.484 189.591 763.216 190.355 770.889C191.063 778.293 192.951 785.536 195.948 792.343C198.877 798.91 203.175 804.776 208.554 809.548C214.093 814.339 220.481 818.048 227.388 820.482C230.937 821.788 234.573 822.846 238.268 823.651C240.136 824.057 242.019 824.432 243.924 824.734L246.787 825.175L249.763 825.529L255.729 826.227L261.743 826.726C265.74 827.135 269.793 827.252 273.82 827.514C289.984 828.244 306.294 827.913 322.592 827.028C338.896 826.124 355.204 824.608 371.474 822.657C404.008 818.674 436.384 813.295 468.601 806.518C484.68 803.141 500.681 799.417 516.605 795.345C532.511 791.247 548.359 786.913 564.016 782.02C579.693 777.131 595.058 771.653 610.179 765.232C625.315 758.871 640.305 752.07 655.143 744.958C669.975 737.83 684.612 730.312 699.054 722.405C713.457 714.458 727.657 706.124 741.31 696.998C748.121 692.418 754.784 687.621 761.104 682.43C767.42 677.192 773.633 671.759 779.706 666.199C791.946 655.132 803.53 643.359 814.397 630.941C804.13 643.916 793.113 656.281 781.404 667.972C775.535 673.819 769.545 679.52 763.354 685.067C757.094 690.578 750.507 695.67 743.776 700.539C730.305 710.271 716.234 719.086 701.945 727.487C687.646 735.878 673.123 743.864 658.376 751.445C643.648 759.052 628.733 766.304 613.549 773.046C598.396 779.84 582.779 785.908 567.074 791.318C535.612 801.986 503.618 811.02 471.223 818.384C438.875 825.848 406.222 832.128 373.221 836.466C356.724 838.653 340.148 840.404 323.485 841.537C306.821 842.649 290.071 843.205 273.225 842.656C269.01 842.437 264.8 842.364 260.575 841.99L254.243 841.489L247.905 840.776C239.089 839.898 230.412 837.955 222.064 834.991C213.347 831.926 205.282 827.256 198.285 821.222C191.239 815.021 185.593 807.393 181.721 798.844C177.999 790.528 175.634 781.669 174.714 772.605C173.797 763.834 173.803 754.991 174.732 746.221C175.608 737.584 177.165 729.029 179.388 720.636C179.941 718.536 180.539 716.445 181.196 714.338L181.708 712.746C181.897 712.185 182.042 711.724 182.315 710.997L183.436 708.048L187.915 696.456C200.001 665.629 212.516 634.979 225.462 604.507C231.952 589.273 238.596 574.095 245.392 558.975C252.204 543.86 259.198 528.812 266.604 513.926C274.008 499.036 281.677 484.25 290.156 469.752C294.424 462.525 298.947 455.332 303.895 448.369C308.747 441.598 313.701 434.907 318.758 428.296C328.852 415.067 339.292 402.128 349.793 389.389C360.268 376.63 370.731 364 380.041 350.772C384.695 344.202 389.009 337.399 392.966 330.388C394.893 326.875 396.787 323.343 398.496 319.722C399.386 317.925 400.174 316.093 401.021 314.265L403.537 308.591C410.266 293.46 417.175 278.368 424.683 263.518C432.22 248.683 440.095 233.959 449.683 220.008C452.094 216.527 454.642 213.11 457.414 209.805C460.223 206.388 463.361 203.256 466.783 200.454C468.633 198.952 470.649 197.667 472.791 196.622C473.943 196.065 475.144 195.617 476.379 195.283C477.514 194.977 478.664 194.729 479.824 194.539C482.298 194.105 484.826 194.08 487.308 194.465C489.984 194.911 492.511 195.999 494.674 197.637C496.673 199.231 498.355 201.187 499.632 203.402C500.791 205.4 501.751 207.507 502.499 209.693C503.832 213.749 504.934 217.877 505.8 222.058C506.611 225.993 507.632 229.882 508.86 233.707C510.146 237.518 511.615 241.373 513.064 245.233C515.976 252.961 518.916 260.74 521.414 268.729C522.699 272.743 523.777 276.821 524.643 280.946C525.65 285.229 525.961 289.645 525.566 294.027C525.403 295.237 525.088 296.421 524.628 297.552C524.123 298.808 523.335 299.931 522.325 300.833C521.804 301.299 521.221 301.688 520.591 301.991C520.024 302.264 519.433 302.483 518.824 302.644C517.767 302.964 516.693 303.225 515.607 303.426C513.26 303.941 510.82 303.836 508.526 303.121C506.298 302.236 504.36 300.748 502.929 298.824C501.545 297.126 500.398 295.425 499.176 293.801C497.982 292.185 496.698 290.638 495.331 289.167C494.643 288.442 493.94 287.731 493.203 287.057C492.389 286.341 491.623 285.57 490.912 284.751C489.528 283.1 488.325 281.304 487.324 279.396C485.384 275.681 483.745 271.817 482.424 267.84C481.067 263.907 479.906 259.923 478.862 255.916C476.781 247.899 475.086 239.809 473.778 231.643Z" fill="#646464"/>
<path d="M496.278 198.205C499.21 192.77 502.94 187.805 507.344 183.475C509.632 181.2 512.188 179.211 514.956 177.552C517.945 175.732 521.281 174.555 524.751 174.096C525.675 173.981 526.605 173.931 527.536 173.946C528.542 173.97 529.545 174.077 530.533 174.267C532.664 174.749 534.659 175.706 536.37 177.066C537.887 178.279 539.232 179.693 540.368 181.269C541.381 182.706 542.306 184.205 543.136 185.755C544.643 188.674 545.923 191.704 546.966 194.818C547.489 196.327 547.998 197.838 548.432 199.336C548.908 200.841 549.325 202.344 549.71 203.839C551.311 209.831 552.635 215.768 553.916 221.613C555.247 227.437 556.475 233.209 558.05 238.61C558.416 239.987 558.899 241.235 559.285 242.56C559.747 243.841 560.148 244.974 560.688 246.309C561.795 248.998 562.945 251.678 564.151 254.374C566.509 259.818 569.055 265.164 571.409 271.318C572.77 274.772 573.677 278.388 574.109 282.075C574.23 283.25 574.241 284.434 574.14 285.611C574.081 286.253 574.046 286.867 573.933 287.527C573.777 288.217 573.601 288.907 573.404 289.589C573.303 289.93 573.208 290.268 573.089 290.605L572.617 291.62C572.29 292.292 571.939 292.954 571.568 293.598C571.146 294.183 570.695 294.752 570.23 295.31L569.521 296.131C569.365 296.305 569.196 296.466 569.015 296.613L568.385 297.135C567.969 297.473 567.532 297.783 567.076 298.065C566.657 298.297 566.229 298.516 565.794 298.719C565.013 299.084 564.197 299.366 563.359 299.562C562.031 299.883 560.669 300.042 559.304 300.034C557.204 300.023 555.113 299.766 553.072 299.271C549.658 298.451 546.336 297.281 543.162 295.78C537.202 293.018 531.582 289.576 526.413 285.523C523.773 283.473 521.285 281.235 518.969 278.826C516.368 276.172 514.196 273.129 512.531 269.807C511.827 268.169 511.243 266.482 510.785 264.759L509.55 260.328C508.756 257.389 507.97 254.463 507.251 251.522C505.775 245.654 504.403 239.77 503.079 233.875C501.79 227.971 500.518 222.066 499.4 216.116L497.733 207.191C497.248 204.195 496.7 201.219 496.278 198.205ZM496.278 198.205C497.59 200.95 498.787 203.729 500.048 206.487L503.641 214.819C506.041 220.371 508.309 225.96 510.586 231.542L517.261 248.308L520.561 256.651L522.231 260.76C522.675 261.905 523.181 263.025 523.747 264.115C525.039 266.036 526.597 267.764 528.376 269.246C530.384 271.018 532.509 272.652 534.737 274.137C539.282 277.192 544.124 279.779 549.191 281.856C551.506 282.817 553.903 283.571 556.351 284.108C557.24 284.306 558.148 284.397 559.058 284.38C559.374 284.377 559.537 284.316 559.467 284.323C559.375 284.324 559.419 284.355 559.153 284.423C559.055 284.46 558.964 284.512 558.882 284.578C558.739 284.652 558.602 284.737 558.473 284.833C558.406 284.885 558.343 284.943 558.285 285.004C558.221 285.074 558.168 285.143 558.185 285.1C558.182 285.083 558.182 285.064 558.187 285.047C558.195 285.02 558.225 285.01 558.267 285.006C558.235 284.978 558.222 284.97 558.233 284.971L558.269 284.978C558.262 284.955 558.256 284.932 558.252 284.908C558.25 284.886 558.253 284.864 558.262 284.843C558.27 284.823 558.283 284.804 558.3 284.79C558.309 284.711 558.285 284.568 558.299 284.463C558.328 284.142 558.317 283.819 558.267 283.5C557.906 281.223 557.282 278.995 556.408 276.861C554.541 271.748 551.961 266.2 549.643 260.564C548.481 257.732 547.349 254.848 546.258 251.94C545.714 250.471 545.15 248.753 544.652 247.187C544.221 245.619 543.751 244.011 543.413 242.463C541.957 236.223 540.954 230.165 540.089 224.168C539.181 218.186 538.422 212.275 537.464 206.514C536.667 200.949 535.382 195.464 533.624 190.124C533.184 188.948 532.681 187.797 532.117 186.675C531.611 185.725 531.003 184.833 530.302 184.016C529.752 183.376 529.071 182.861 528.305 182.505C527.834 182.331 527.349 182.197 526.855 182.106C526.286 182.009 525.712 181.943 525.135 181.908C520.376 181.607 514.962 183.899 510.081 186.931C507.589 188.501 505.208 190.241 502.955 192.138C500.622 194.038 498.392 196.064 496.278 198.205V198.205Z" fill="#646464"/>
<path d="M540.576 182.424C541.234 179.24 542.399 176.182 544.026 173.367C545.749 170.308 548.151 167.686 551.048 165.704C554.331 163.548 558.224 162.514 562.143 162.759C565.941 163.066 569.63 164.18 572.964 166.026L573.905 166.524L574.726 167.905L575.199 168.7L575.574 169.363C575.822 169.799 576.032 170.219 576.249 170.65C576.668 171.501 577.051 172.347 577.421 173.196C578.148 174.892 578.775 176.597 579.365 178.314C580.451 181.736 581.314 185.223 581.949 188.756C582.565 192.254 582.986 195.784 583.209 199.329C583.311 201.094 583.373 202.858 583.396 204.62L583.404 207.262L583.388 208.581C583.371 209.052 583.391 209.28 583.389 209.641C583.42 212.406 583.736 215.161 584.331 217.861C584.914 220.782 585.678 223.664 586.618 226.491C588.456 232.336 590.895 238.238 593.319 244.36C594.564 247.411 595.78 250.534 596.951 253.775C598.227 257.153 599.269 260.615 600.069 264.137C600.545 266.149 600.825 268.203 600.906 270.269C601.05 272.895 600.621 275.52 599.649 277.963C599.018 279.452 598.116 280.812 596.991 281.974C595.687 283.298 594.071 284.271 592.29 284.803C591.453 285.038 590.594 285.185 589.726 285.242C588.973 285.259 588.22 285.22 587.472 285.128C586.222 284.946 584.999 284.617 583.827 284.145C581.929 283.361 580.134 282.345 578.484 281.121C576.993 280.056 575.572 278.895 574.232 277.646C571.684 275.285 569.29 272.762 567.065 270.093C562.745 264.881 558.802 259.368 555.266 253.595C560.876 257.395 566.189 261.461 571.565 265.176C574.25 267.023 576.945 268.815 579.635 270.354C580.986 271.126 582.322 271.82 583.626 272.413C584.78 272.959 585.996 273.362 587.247 273.615C588.258 273.83 589.002 273.602 588.524 273.507C588.41 273.51 588.297 273.524 588.186 273.548C588.072 273.624 587.978 273.604 587.919 273.64C587.828 273.676 587.842 273.523 587.823 273.438C587.813 272.734 587.738 272.033 587.6 271.343C587.523 270.85 587.343 270.225 587.219 269.646C587.016 269.006 586.873 268.403 586.622 267.727C585.714 265.087 584.474 262.251 583.179 259.352L579.073 250.472C576.118 244.255 573.553 237.859 571.394 231.323C570.3 227.846 569.424 224.304 568.771 220.718C568.12 216.911 567.872 213.046 568.031 209.186C568.054 208.72 568.071 208.12 568.104 207.765L568.208 206.604L568.381 204.281C568.479 202.734 568.544 201.187 568.576 199.641C568.647 196.551 568.64 193.466 568.434 190.407C568.279 187.362 567.952 184.328 567.456 181.32C567.21 179.834 566.935 178.352 566.589 176.914C566.412 176.2 566.227 175.492 566.025 174.808L565.722 173.813L565.574 173.35C565.538 173.22 565.453 173.017 565.489 173.036L567.25 174.914C565.369 173.329 563.215 172.1 560.894 171.287C558.61 170.579 556.164 170.593 553.89 171.329C551.243 172.24 548.811 173.685 546.743 175.573C544.428 177.608 542.358 179.907 540.576 182.424V182.424Z" fill="#646464"/>
<path d="M578.545 195.08C579.139 192.192 580.296 189.449 581.951 187.008C583.776 184.178 586.42 181.971 589.53 180.679C590.425 180.357 591.344 180.106 592.278 179.928C593.249 179.813 594.226 179.752 595.204 179.745C596.173 179.824 597.136 179.96 598.089 180.152C599 180.386 599.896 180.675 600.772 181.019C601.793 181.39 602.758 181.902 603.638 182.54C604.525 183.206 605.339 183.964 606.066 184.802C607.365 186.291 608.42 187.977 609.19 189.797C610.483 192.841 611.362 196.045 611.803 199.322C612.237 202.257 612.492 205.216 612.569 208.182C612.685 211.065 612.602 213.89 612.557 216.682C612.459 219.469 612.282 222.212 612.138 224.933L610.931 240.847C610.726 243.43 610.641 245.974 610.547 248.456C610.509 249.716 610.531 250.872 610.548 252.152L610.613 256.363C610.604 259.196 610.55 262.021 610.281 264.949C610.07 268.054 609.497 271.125 608.573 274.097C607.981 275.956 606.963 277.651 605.6 279.046C604.237 280.285 602.543 281.103 600.725 281.4C599.857 281.611 598.965 281.7 598.072 281.665C597.121 281.609 596.2 281.308 595.398 280.792C594.743 280.318 594.212 279.694 593.848 278.972C593.485 278.251 593.301 277.452 593.311 276.644C593.639 277.171 594.081 277.618 594.606 277.95C595.13 278.282 595.723 278.492 596.339 278.563C597.323 278.476 598.242 278.034 598.925 277.321C599.759 276.809 600.394 276.03 600.728 275.11C600.892 274.281 600.936 273.433 600.857 272.591C600.658 270.184 600.297 267.792 599.778 265.433C599.28 262.911 598.668 260.309 598.108 257.719L597.224 253.806C596.934 252.378 596.672 250.822 596.472 249.36C596.086 246.46 595.849 243.542 595.76 240.619C595.649 237.746 595.721 234.928 595.762 232.134C595.871 229.344 596.024 226.586 596.183 223.863L597.435 207.946C597.637 205.379 597.734 202.858 597.787 200.46C597.834 198.285 597.693 196.109 597.366 193.958C597.3 193.462 597.167 193.124 597.1 192.687C597.013 192.354 596.91 192.026 596.789 191.704C596.696 191.447 596.59 191.195 596.47 190.95C596.307 190.784 596.346 190.556 595.9 190.284C594.678 189.083 593.058 188.372 591.347 188.286C589.107 188.345 586.925 189.006 585.029 190.2C582.688 191.572 580.512 193.21 578.545 195.08V195.08Z" fill="#646464"/>
<path d="M788.846 658.954C789.851 674.082 790.769 689.056 792.327 703.94C793.798 718.825 795.697 733.608 797.84 748.398C802.099 777.949 806.981 807.743 809.687 837.977C812.478 868.205 813.17 898.591 811.758 928.916C811.03 944.004 810.022 959.098 808.357 974.168C807.51 981.7 806.528 989.231 805.213 996.726C804.556 1000.47 803.813 1004.21 802.894 1007.92C802.426 1009.77 801.902 1011.62 801.3 1013.44C800.997 1014.35 800.668 1015.25 800.278 1016.13C800.081 1016.58 799.858 1017.01 799.61 1017.42C799.347 1017.81 799.097 1018.3 798.626 1018.45C798.969 1018.14 799.2 1017.73 799.284 1017.27C799.416 1016.83 799.52 1016.38 799.596 1015.92C799.767 1015.01 799.889 1014.08 799.978 1013.15C800.157 1011.29 800.256 1009.43 800.301 1007.56C800.438 1003.82 800.421 1000.07 800.403 996.324C800.312 988.827 800.128 981.332 799.852 973.837L798.138 928.862C797.025 898.962 795.13 869.253 792.434 839.545C791.78 832.112 791.069 824.678 790.302 817.243L788.069 794.872C786.605 779.928 785.166 764.889 784.326 749.742C782.568 719.467 783.339 688.759 788.846 658.954Z" fill="#646464"/>
<path d="M655.186 589.539C663.232 583.397 671.303 577.574 679.164 571.452C687.041 565.369 694.892 559.326 702.601 553.1C710.317 546.89 718.026 540.696 725.62 534.365C729.414 531.199 733.23 528.063 736.968 524.843C740.74 521.696 744.524 518.429 748.109 515.257L752.25 527.815C750.652 527.675 748.689 527.566 746.87 527.496C745.015 527.423 743.15 527.377 741.275 527.359C737.53 527.31 733.769 527.394 730.006 527.494C722.477 527.699 714.947 528.293 707.435 529.075C692.389 530.689 677.487 533.437 662.856 537.297C648.152 541.165 633.807 546.287 619.979 552.608C613.025 555.759 606.242 559.309 599.545 563.09C596.21 565 592.903 566.983 589.658 569.075C586.358 571.097 583.187 573.311 579.951 575.476C590.897 564.249 603.241 554.476 616.679 546.397C630.22 538.239 644.602 531.567 659.576 526.498C674.588 521.409 690.045 517.74 705.744 515.541C713.59 514.401 721.498 513.708 729.433 513.284C733.402 513.072 737.381 513.009 741.374 513.015C743.372 513.022 745.375 513.056 747.384 513.118C749.433 513.187 751.336 513.267 753.593 513.448L770.467 514.8L757.735 526.006C753.832 529.441 749.996 532.63 746.07 535.844C742.119 538.994 738.146 542.107 734.113 545.141C726.019 551.171 717.743 556.957 709.215 562.364C700.717 567.809 691.94 572.843 682.966 577.476L676.18 580.844C673.896 581.924 671.593 582.965 669.271 583.967C664.683 586.06 659.923 587.822 655.186 589.539Z" fill="#E2815A"/>
<path d="M885.337 357.165C884.008 368.475 882.517 379.756 881.077 391.046L876.514 424.873C873.321 447.396 870.139 469.921 866.813 492.42C863.481 514.918 860.049 537.398 856.518 559.859L851.191 593.546L845.725 627.207L840.473 616.87L891.96 640.614C909.076 648.624 926.218 656.579 943.279 664.705L968.897 676.835L994.453 689.095C1011.51 697.235 1028.5 705.505 1045.49 713.772L1053.37 717.605L1051.86 725.666L1051.11 729.676C1050.86 730.913 1050.6 732.132 1050.31 733.333C1049.74 735.742 1049.11 738.111 1048.43 740.459C1047.07 745.151 1045.51 749.766 1043.74 754.301C1040.21 763.418 1035.85 772.186 1030.7 780.493C1020.3 797.454 1006.11 811.77 989.246 822.313C980.784 827.488 971.725 831.617 962.268 834.609C952.937 837.529 943.328 839.477 933.596 840.421C928.777 840.924 923.956 841.094 919.155 841.171C914.298 841.212 909.441 841.005 904.605 840.553C894.69 839.703 884.955 837.388 875.719 833.684C873.376 832.802 871.133 831.653 868.865 830.591C866.665 829.38 864.415 828.262 862.319 826.876C858.054 824.25 854.034 821.248 850.307 817.904C846.596 814.615 843.176 811.011 840.087 807.132C837.011 803.333 834.221 799.311 831.739 795.099C826.872 786.846 822.954 778.069 820.062 768.934C817.178 760.009 815.012 750.867 813.585 741.596C812.167 732.448 811.244 723.23 810.821 713.982C810.614 709.38 810.485 704.783 810.476 700.191C810.507 695.597 810.623 691.013 810.825 686.436C811.58 668.19 813.85 650.037 817.611 632.166C816.843 641.224 816.415 650.281 816.328 659.336C816.208 668.384 816.319 677.418 816.796 686.416C817.308 695.412 818.082 704.367 819.204 713.245C820.331 722.083 821.934 730.853 824.007 739.519C826.061 748.064 828.713 756.454 831.941 764.628C833.545 768.644 835.355 772.574 837.364 776.404C839.315 780.194 841.496 783.861 843.895 787.385C846.233 790.866 848.827 794.168 851.657 797.262C854.421 800.322 857.43 803.151 860.655 805.72C863.82 808.286 867.211 810.559 870.787 812.511C872.527 813.554 874.408 814.345 876.221 815.243C878.11 815.996 879.948 816.847 881.896 817.455C889.681 820.126 897.808 821.671 906.03 822.042C910.174 822.296 914.37 822.214 918.68 822.067C922.946 821.845 927.192 821.501 931.388 820.953C939.709 819.902 947.899 817.994 955.829 815.262C963.611 812.521 971.049 808.886 977.994 804.431C991.829 795.321 1003.39 783.154 1011.77 768.869C1016.1 761.684 1019.75 754.112 1022.67 746.252C1024.15 742.317 1025.44 738.305 1026.57 734.272C1027.12 732.255 1027.63 730.229 1028.08 728.216L1028.7 725.22L1028.98 723.763L1029.1 723.066C1029.11 722.863 1029.21 722.575 1029.14 722.53L1035.52 734.424C1018.48 726.256 1001.43 718.091 984.456 709.796L958.964 697.403L933.535 684.881C916.564 676.571 899.675 668.091 882.759 659.666L832.15 634.105L825.482 630.737L826.898 623.767L833.688 590.348L840.618 556.954C845.278 534.699 850.018 512.458 854.836 490.232C859.681 468.01 864.67 445.815 869.648 423.618L877.341 390.364C879.987 379.294 882.581 368.214 885.337 357.165Z" fill="#646464"/>
<path d="M570.888 649.77C516.477 649.77 466.946 637.547 463.836 636.766L455.918 634.774L461.571 628.883C462.307 628.116 535.923 551.753 602.723 512.671C671.012 472.715 760.857 510.771 764.648 512.411L769.021 514.302L767.109 518.667C765.527 522.278 727.509 607.453 653.764 636.577C628.698 646.476 599.135 649.77 570.888 649.77ZM474.359 629.417C501.644 635.206 590.879 651.214 650.281 627.755C711.001 603.775 747.422 537.194 756.296 519.318C737.294 512.236 663.234 488.258 607.512 520.857C552.734 552.905 493.07 610.688 474.359 629.417Z" fill="#E2815A"/>
<path d="M989.571 302.424C987.496 309.766 983.417 316.441 978.73 322.505C973.933 328.565 968.37 333.977 962.18 338.605C955.987 343.267 949.356 347.314 942.379 350.69C935.408 354.135 928.146 356.955 920.677 359.119C913.029 361.363 905.091 362.463 897.121 362.382C889.118 362.275 881.498 361.077 874.113 360.429C859.405 359.13 844.593 359.679 830.022 362.064C822.79 363.074 815.644 364.623 808.643 366.698C801.895 368.669 795.442 371.538 789.459 375.229C786.549 377.035 783.807 379.099 781.266 381.396C778.69 383.694 776.294 386.187 774.1 388.852C769.587 394.511 765.459 400.467 761.743 406.679C757.804 413.046 753.842 419.647 749.525 426.147C745.203 432.724 740.525 439.059 735.512 445.126C725.434 457.217 714.178 468.276 701.911 478.14C689.722 487.932 676.777 496.744 663.198 504.495C649.741 512.287 635.907 519.216 622.005 525.696L611.565 530.473L606.351 532.819C604.805 533.584 603.251 534.243 601.707 535.082C595.376 538.427 589.26 542.164 583.395 546.271C571.304 554.819 559.649 563.969 548.477 573.687C537.13 583.421 526.037 593.567 514.991 603.87L498.346 619.398C495.54 621.993 492.727 624.59 489.823 627.19C488.382 628.491 486.902 629.794 485.383 631.1C484.601 631.758 483.878 632.402 483.046 633.071C482.212 633.742 481.487 634.373 480.457 635.115C476.878 637.728 473.076 640.022 469.096 641.97C465.359 643.842 461.643 645.49 457.929 646.981C450.502 649.98 443.077 652.503 435.628 654.827C428.178 657.133 420.701 659.188 413.185 661.087C409.425 662.036 405.658 662.942 401.853 663.798L396.093 665.044L393.102 665.63L391.482 665.917C390.447 666.104 389.399 666.212 388.347 666.238L370.27 667.009L379.007 650.612C380.307 648.171 381.692 645.407 383.009 642.763C384.327 640.077 385.641 637.383 386.917 634.661C389.494 629.234 391.959 623.736 394.388 618.224C399.212 607.181 403.809 596.022 408.044 584.73C412.282 573.44 416.261 562.054 419.89 550.565L430.447 515.51C437.649 491.962 445.167 468.475 454.077 445.252C458.49 433.455 463.537 421.905 469.196 410.653C472.216 404.62 475.837 398.906 480.004 393.599C481.242 392.087 482.585 390.664 484.024 389.341C485.793 387.695 487.798 386.324 489.973 385.272C493.622 383.709 497.49 382.72 501.441 382.341C508.48 381.581 514.695 381.822 520.728 381.771C526.478 381.851 532.226 381.539 537.933 380.835C543.174 380.183 548.273 378.678 553.029 376.381C557.596 374.089 561.636 370.871 564.891 366.931L570.756 359.834C572.765 357.434 574.819 355.073 576.921 352.75C581.118 348.102 585.413 343.537 589.901 339.15C598.848 330.275 608.484 322.123 618.721 314.772C620.021 313.864 621.324 312.96 622.648 312.079L626.537 309.546C629.016 307.929 631.442 306.263 633.743 304.527C635.977 302.879 638.089 301.07 640.06 299.114C640.904 298.268 641.676 297.353 642.368 296.378C642.752 295.846 643.051 295.257 643.253 294.633C643.264 294.576 643.277 294.708 643.34 294.79C643.405 294.878 643.447 294.852 643.304 294.699C643.457 294.671 642.612 294.158 641.536 293.837C638.985 293.129 636.359 292.727 633.713 292.64C627.931 292.389 622.14 292.755 616.436 293.731C610.754 294.611 605.215 296.242 599.964 298.582C598.719 299.164 597.508 299.819 596.34 300.543C595.747 300.914 595.26 301.246 594.635 301.693L592.735 303.046C590.199 304.841 587.646 306.579 585.084 308.298C574.821 315.143 564.373 321.569 553.845 327.924L552.663 328.637L551.484 328.074C548.757 326.806 545.931 325.764 543.034 324.96C540.088 324.117 537.088 323.474 534.055 323.037C527.957 322.159 521.765 322.168 515.669 323.064C509.529 324.027 503.586 325.981 498.072 328.85C492.534 331.825 487.434 335.553 482.919 339.926C487.129 335.162 492.006 331.031 497.398 327.661C502.897 324.32 508.903 321.895 515.181 320.481C521.516 319.094 528.025 318.679 534.484 319.251C537.721 319.531 540.936 320.03 544.106 320.744C547.338 321.446 550.505 322.419 553.574 323.653L551.213 323.803C561.276 316.897 571.243 309.781 581.011 302.532C583.447 300.713 585.869 298.88 588.241 297.015L590.016 295.612C590.612 295.136 591.36 294.564 592.044 294.09C593.432 293.128 594.875 292.248 596.366 291.456C602.171 288.49 608.348 286.316 614.73 284.99C621.049 283.58 627.501 282.85 633.976 282.815C637.46 282.765 640.937 283.14 644.331 283.932C645.345 284.19 646.337 284.531 647.296 284.952C647.868 285.206 648.421 285.5 648.952 285.831C650.836 287.042 652.319 288.784 653.215 290.837C653.815 292.311 654.067 293.905 653.952 295.493C653.71 297.899 652.895 300.212 651.576 302.239C650.575 303.817 649.437 305.304 648.175 306.682C645.901 309.142 643.448 311.43 640.835 313.527C638.326 315.58 635.771 317.483 633.192 319.315L629.484 321.945C628.292 322.807 627.112 323.696 625.937 324.588C616.55 331.914 607.758 339.972 599.644 348.686C595.54 353.027 591.613 357.546 587.781 362.142C585.862 364.439 583.993 366.779 582.127 369.121L576.493 376.347C572.067 381.998 566.521 386.674 560.202 390.08C554.01 393.328 547.328 395.539 540.421 396.626C533.996 397.622 527.51 398.174 521.009 398.277C514.808 398.48 508.739 398.501 503.609 399.233C501.459 399.481 499.357 400.043 497.37 400.902C496.823 401.254 496.317 401.665 495.858 402.126C495.073 402.908 494.34 403.741 493.665 404.62C490.432 409.081 487.628 413.837 485.291 418.826C480.168 429.572 475.626 440.584 471.683 451.817C463.549 474.525 456.42 497.815 449.632 521.205L444.634 538.792C443.829 541.71 442.981 544.684 442.104 547.687C441.221 550.671 440.381 553.67 439.459 556.641C435.814 568.541 431.813 580.318 427.544 591.996C423.268 603.67 418.665 615.22 413.737 626.644C411.246 632.346 408.716 638.031 406.055 643.674C404.74 646.5 403.379 649.314 402.008 652.128C400.602 654.969 399.257 657.687 397.687 660.655L388.347 645.029C387.042 645.068 387.836 645.048 388.032 644.987L389.212 644.773L391.802 644.257L397.16 643.082C400.754 642.262 404.36 641.384 407.953 640.467C415.143 638.638 422.285 636.618 429.335 634.46C436.374 632.288 443.33 629.937 449.979 627.272C453.309 625.949 456.534 624.519 459.583 623.003C462.427 621.63 465.149 620.019 467.72 618.185C468.241 617.834 468.954 617.225 469.599 616.709C470.249 616.194 470.944 615.578 471.615 615.018C472.973 613.855 474.343 612.655 475.725 611.42C478.479 608.968 481.248 606.428 484.018 603.88L500.744 588.458C511.975 578.161 523.365 567.919 535.135 557.996C546.936 547.883 559.285 538.427 572.125 529.67C578.759 525.171 585.669 521.093 592.814 517.46C594.62 516.519 596.567 515.703 598.438 514.825L603.634 512.576L613.955 508.032C627.659 501.931 641.123 495.543 654.072 488.376C660.554 484.806 666.887 481.027 673.073 477.039C679.253 473.049 685.306 468.887 691.116 464.424C702.773 455.584 713.522 445.607 723.204 434.64C728.015 429.141 732.522 423.383 736.704 417.391C740.955 411.368 744.986 405.069 749.211 398.649C751.338 395.44 753.52 392.207 755.845 388.998C758.207 385.803 760.72 382.64 763.452 379.595C768.968 373.369 775.449 368.071 782.646 363.903C789.752 359.882 797.366 356.833 805.284 354.84C812.919 352.893 820.689 351.519 828.528 350.729C836.27 349.823 844.057 349.366 851.851 349.359C859.667 349.4 867.47 349.99 875.203 351.122C882.884 352.199 890.241 353.712 897.418 354.154C904.637 354.586 911.88 353.943 918.91 352.246C926.114 350.506 933.183 348.249 940.062 345.492C946.985 342.761 953.626 339.363 959.89 335.345C966.19 331.321 971.981 326.551 977.136 321.139C979.707 318.399 982.064 315.467 984.187 312.367C986.358 309.271 988.165 305.935 989.571 302.424V302.424Z" fill="#646464"/>
</svg>
