<svg width="1001" height="1001" viewBox="0 0 1001 1001" fill="none" xmlns="http://www.w3.org/2000/svg">
<path d="M500.1 1000.25C776.279 1000.25 1000.1 776.429 1000.1 500.25C1000.1 224.071 776.279 0.25 500.1 0.25C223.921 0.25 0.100098 224.071 0.100098 500.25C0.100098 776.429 223.921 1000.25 500.1 1000.25Z" fill="#EEEEEF"/>
<path d="M946.643 309.503C942.777 309.604 938.908 309.504 935.052 309.203C931.255 309.003 927.458 308.603 923.761 308.204C916.267 307.304 908.973 306.105 901.679 304.606C887.09 301.709 873.002 297.612 859.313 293.515C845.624 289.419 832.134 285.122 818.445 281.125C811.651 279.127 804.756 277.228 797.762 275.33C794.265 274.431 790.668 273.431 787.07 272.532C783.473 271.633 779.776 270.833 775.979 269.634C779.493 267.976 783.135 266.606 786.871 265.538C787.77 265.238 788.769 265.038 789.668 264.738C790.589 264.458 791.522 264.225 792.466 264.039C794.365 263.639 796.263 263.339 798.162 262.94C805.829 261.761 813.592 261.326 821.343 261.641C829.027 261.903 836.678 262.771 844.225 264.239C851.68 265.624 859.053 267.426 866.307 269.634C873.501 271.833 880.596 274.331 887.49 277.029C894.385 279.726 901.179 282.824 907.774 286.021C914.369 289.219 921.063 292.816 927.458 296.613C930.656 298.511 933.853 300.51 937.05 302.708C940.389 304.767 943.593 307.036 946.643 309.503Z" fill="#646464"/>
<path d="M659.972 426.209C664.269 436.101 668.365 445.993 672.362 455.985C676.359 465.977 680.256 475.969 684.053 485.961C691.647 506.045 698.974 526.196 706.035 546.413C720.124 586.88 733.38 627.581 745.803 668.515L750.5 683.903L751.599 687.8L752.698 691.796C753.497 694.394 754.197 697.092 754.896 699.69C757.794 710.282 760.192 720.973 762.29 731.764C763.389 737.16 764.189 742.556 764.988 747.952C765.388 750.649 765.787 753.347 766.087 756.045L767.086 764.239C768.185 775.13 769.085 786.021 769.385 796.912C770.184 818.695 769.484 840.278 768.185 861.761C767.886 867.156 767.386 872.452 767.086 877.848C766.787 883.243 766.187 888.539 765.687 893.935C764.688 904.626 763.689 915.318 762.29 926.009C760.691 915.318 759.393 904.626 758.293 893.935C757.694 888.539 757.294 883.243 756.695 877.848L755.296 861.86C753.397 840.577 751.699 819.294 749.101 798.411C747.802 787.92 746.403 777.528 744.604 767.236L743.305 759.542C742.806 756.944 742.406 754.446 741.807 751.848C740.807 746.753 739.708 741.657 738.609 736.561C736.311 726.369 733.713 716.277 730.915 706.185C730.216 703.687 729.516 701.189 728.717 698.691L726.419 691.097L721.823 675.709C709.632 634.642 698.241 593.375 687.65 551.908C682.454 531.125 677.358 510.342 672.662 489.358C670.264 478.867 668.066 468.375 665.867 457.884C663.969 447.392 661.871 436.801 659.972 426.209Z" fill="#646464"/>
<path d="M753.597 552.109C757.994 552.109 762.39 552.308 766.687 552.608C770.983 552.908 775.28 553.308 779.476 553.707C787.87 554.607 796.263 555.606 804.357 556.605C820.743 558.603 836.531 560.302 852.218 560.502C867.684 560.686 883.116 559.008 898.182 555.506C905.865 553.661 913.385 551.188 920.664 548.112L926.159 545.614C927.958 544.715 929.756 543.715 931.655 542.816C933.553 541.917 935.252 540.718 937.15 539.719C939.049 538.719 940.747 537.42 942.746 536.321C941.946 538.32 940.947 540.318 939.948 542.316C938.949 544.315 937.65 546.113 936.351 548.012C935.052 549.91 933.653 551.609 932.154 553.308C930.656 555.006 929.057 556.605 927.458 558.204C920.824 564.542 913.238 569.801 904.976 573.791C896.759 577.834 888.063 580.822 879.097 582.684C870.163 584.575 861.049 585.48 851.918 585.382C834.141 585.046 816.545 581.736 799.86 575.59C791.687 572.675 783.711 569.237 775.979 565.298L770.284 562.301C768.385 561.201 766.487 560.202 764.688 559.103C760.853 556.998 757.15 554.662 753.597 552.109Z" fill="#646464"/>
<path d="M954.237 659.522C954.403 662.352 954.369 665.19 954.137 668.016C953.737 670.714 953.238 673.511 952.638 676.209C951.839 678.907 950.939 681.505 950.04 684.103C948.941 686.601 947.742 689.199 946.443 691.597C940.95 701.374 933.46 709.886 924.461 716.577C915.52 723.327 905.227 728.065 894.285 730.466C891.487 730.965 888.789 731.365 885.991 731.765C883.199 731.981 880.397 732.048 877.598 731.965C874.8 731.765 872.003 731.465 869.305 731.065C866.537 730.525 863.827 729.722 861.211 728.667C863.609 726.969 865.907 725.47 868.106 724.171C870.304 722.672 872.502 721.373 874.6 720.074C876.699 718.775 878.797 717.376 880.895 716.077C882.994 714.778 884.892 713.379 886.891 712.18C894.784 706.985 902.278 701.889 909.473 696.493C916.667 691.097 923.861 685.402 931.055 679.407C932.754 677.808 934.652 676.309 936.551 674.71C938.449 673.112 940.148 671.513 942.146 669.814C943.945 668.116 945.843 666.417 947.942 664.718C949.84 663.12 951.839 661.321 954.237 659.522Z" fill="#646464"/>
<path d="M791.767 518.335C793.265 518.535 794.664 518.635 795.763 518.735C796.797 518.757 797.831 518.723 798.861 518.635C800.316 518.455 801.753 518.155 803.158 517.736C805.356 517.036 806.255 516.337 806.755 516.337C807.254 516.337 808.054 517.136 810.152 518.135C811.488 518.785 812.897 519.271 814.349 519.584C815.368 519.823 816.403 519.99 817.446 520.084C818.774 520.223 820.11 520.256 821.443 520.184C821.816 520.829 822.149 521.497 822.442 522.182C822.655 522.836 822.822 523.504 822.942 524.181C823.042 524.88 823.042 525.48 823.142 526.179C823.241 526.878 823.042 527.478 823.042 528.177C822.667 530.767 821.557 533.194 819.844 535.172C818.035 537.198 815.791 538.789 813.28 539.824C810.768 540.859 808.055 541.312 805.344 541.148C802.633 540.985 799.994 540.209 797.625 538.88C795.256 537.551 793.219 535.702 791.667 533.473C790.221 531.267 789.392 528.714 789.269 526.079C789.252 525.411 789.285 524.743 789.369 524.081C789.454 523.406 789.587 522.738 789.768 522.082C789.974 521.426 790.241 520.79 790.568 520.184C790.931 519.545 791.331 518.927 791.767 518.335Z" fill="#646464"/>
<path d="M318.645 496.253C318.645 496.253 430.456 538.119 505.096 507.344C579.736 476.569 623.801 372.952 623.801 372.952C623.801 372.952 545.264 339.728 475.719 383.693C406.075 427.408 318.645 496.253 318.645 496.253Z" fill="#F2956A"/>
<path d="M342.526 123.152C344.225 131.245 346.323 139.239 348.721 147.033C349.92 150.93 351.319 154.826 352.818 158.623C354.278 162.426 356.049 166.103 358.114 169.615C359.132 171.316 360.302 172.921 361.611 174.411C362.81 175.71 364.608 177.009 366.107 178.607C367.606 180.206 369.005 181.705 370.404 183.304C371.803 184.902 373.002 186.601 374.301 188C375.38 189.384 376.838 190.426 378.497 190.997C380.209 191.414 381.999 191.38 383.693 190.898C384.592 190.698 385.592 190.398 386.491 190.098C386.882 189.993 387.253 189.824 387.59 189.599C387.874 189.423 388.142 189.223 388.389 188.999C389.398 187.784 389.993 186.279 390.088 184.703C390.255 180.828 389.817 176.951 388.789 173.212C387.79 169.315 386.591 165.418 385.292 161.621C382.594 153.927 379.496 146.333 376.299 138.739C374.7 134.942 373.102 131.145 371.603 127.149C370.104 123.152 369.005 119.055 368.006 114.958C367.085 111.101 365.951 107.299 364.608 103.567C363.21 100.07 361.411 96.8728 359.013 95.1741C356.615 93.4755 353.717 93.1757 350.22 93.8752C349.344 94.0274 348.476 94.2276 347.622 94.4747C346.851 94.6699 346.111 94.9726 345.424 95.374C343.895 96.1879 342.455 97.1591 341.127 98.2717C335.432 103.068 330.636 109.663 326.239 116.357C317.446 129.846 310.052 144.535 303.058 159.223C296.063 173.911 289.568 189.099 283.074 204.187L280.676 209.882C279.776 211.781 278.977 213.779 278.078 215.678C276.379 219.575 274.381 223.372 272.382 227.069C268.371 234.54 263.968 241.794 259.193 248.801C249.8 262.79 239.409 275.78 229.117 288.669C218.825 301.559 208.633 314.449 198.941 327.538C194.045 334.133 189.249 340.728 184.552 347.422C180.056 354.017 175.859 360.812 171.763 367.806C163.769 381.895 156.375 396.483 149.281 411.271C135.092 440.848 121.803 470.923 109.013 501.199C96.2231 531.475 83.933 562.051 72.0425 592.726L67.5461 604.217L66.4469 607.015C66.2835 607.404 66.1499 607.804 66.0473 608.214L65.6476 609.612C65.0481 611.411 64.5485 613.31 64.0489 615.208C62.0214 622.779 60.5849 630.496 59.7523 638.29C58.9197 645.959 58.8862 653.695 59.6524 661.371C60.3567 668.753 62.2461 675.973 65.2479 682.754C68.1538 689.325 72.4489 695.188 77.8378 699.94C83.3457 704.738 89.7225 708.435 96.6228 710.832C100.173 712.153 103.813 713.221 107.514 714.029C109.413 714.429 111.211 714.828 113.21 715.128L116.107 715.528L119.105 715.927L125.1 716.627L131.095 717.127C135.092 717.526 139.089 717.626 143.186 717.926C159.373 718.625 175.66 718.326 191.847 717.426C208.034 716.527 224.421 715.028 240.708 713.03C273.182 709.033 305.522 703.671 337.73 696.943C353.817 693.545 369.804 689.848 385.692 685.752C401.579 681.655 417.366 677.358 433.054 672.462C448.741 667.566 464.029 662.071 479.117 655.676C494.205 649.281 509.193 642.486 523.981 635.392C538.769 628.298 553.457 620.804 567.846 612.91C582.234 605.016 596.423 596.623 610.012 587.53C616.807 582.934 623.501 578.138 629.796 572.942C636.091 567.746 642.286 562.25 648.381 556.755C660.584 545.685 672.159 533.943 683.054 521.583C672.784 534.531 661.774 546.875 650.08 558.553C644.185 564.349 638.19 570.044 632.094 575.64C625.799 581.135 619.305 586.231 612.51 591.127C599.021 600.82 585.032 609.613 570.744 618.006C556.455 626.399 541.967 634.393 527.278 641.887C512.59 649.381 497.702 656.775 482.514 663.469C467.326 670.164 451.739 676.359 436.151 681.755C404.746 692.445 372.793 701.451 340.428 708.733C308.154 716.227 275.48 722.422 242.606 726.819C226.119 729.017 209.532 730.716 192.946 731.915C176.255 733.131 159.514 733.498 142.786 733.014C138.589 732.814 134.393 732.714 130.196 732.314L123.901 731.815L117.606 731.115C108.809 730.243 100.151 728.297 91.8266 725.32C83.1056 722.254 75.0386 717.577 68.0457 711.531C61.0049 705.319 55.3531 697.693 51.4589 689.149C47.7494 680.85 45.3882 672.013 44.4645 662.97C43.5652 654.2 43.5652 645.361 44.4645 636.591C45.333 627.951 46.9036 619.396 49.1608 611.011L50.9593 604.716L51.4589 603.118C51.6298 602.542 51.8299 601.975 52.0585 601.419L53.1576 598.521L57.654 586.931C69.7443 556.155 82.2343 525.546 95.124 495.104C101.619 479.916 108.247 464.762 115.008 449.641C121.803 434.553 128.797 419.565 136.191 404.677C143.585 389.788 151.279 375 159.672 360.612C163.969 353.418 168.465 346.223 173.361 339.229C178.158 332.434 183.154 325.74 188.249 319.145C198.341 305.955 208.733 292.966 219.225 280.276C229.716 267.586 240.108 254.896 249.401 241.707C254.07 235.155 258.373 228.35 262.29 221.323C264.189 217.826 266.087 214.329 267.786 210.632C268.685 208.833 269.484 207.035 270.284 205.136L272.782 199.441C279.477 184.353 286.371 169.265 293.865 154.477C301.359 139.689 309.253 125 318.845 111.011C321.243 107.514 323.841 104.117 326.539 100.82C329.338 97.4042 332.486 94.2898 335.931 91.5271C337.767 90.0206 339.78 88.7453 341.927 87.7301C343.074 87.1658 344.28 86.7301 345.524 86.4311C346.634 86.1025 347.771 85.8686 348.921 85.7317C351.398 85.2989 353.928 85.2652 356.415 85.6318C359.114 86.0416 361.662 87.1431 363.809 88.8292C365.832 90.4212 367.529 92.389 368.805 94.6246C369.971 96.6247 370.942 98.7329 371.703 100.92C373.002 105.016 374.101 109.113 375 113.31C375.786 117.235 376.821 121.106 378.098 124.9C379.397 128.697 380.895 132.594 382.294 136.391C385.192 144.085 388.09 151.879 390.588 159.872C391.898 163.868 392.966 167.938 393.785 172.063C394.783 176.35 395.086 180.769 394.684 185.152C394.491 186.343 394.19 187.513 393.785 188.649C393.292 189.915 392.504 191.046 391.487 191.947C390.988 192.434 390.415 192.839 389.788 193.146C389.206 193.422 388.605 193.656 387.99 193.845C386.891 194.145 385.891 194.445 384.792 194.645C382.44 195.145 380 195.042 377.698 194.345C375.478 193.446 373.544 191.961 372.102 190.048C370.704 188.35 369.604 186.651 368.305 185.052C367.119 183.456 365.852 181.922 364.508 180.456L362.41 178.358C361.595 177.642 360.827 176.875 360.112 176.059C358.709 174.405 357.502 172.595 356.515 170.664C354.595 166.962 352.959 163.121 351.619 159.173C350.22 155.276 349.121 151.279 348.022 147.282C345.588 139.388 343.751 131.322 342.526 123.152Z" fill="#646464"/>
<path d="M365.008 89.7784C367.942 84.3504 371.682 79.3982 376.099 75.0901C378.356 72.7946 380.91 70.8119 383.693 69.1948C386.69 67.3856 390.02 66.1964 393.485 65.6976C394.412 65.5646 395.35 65.5311 396.283 65.5977C397.29 65.5984 398.294 65.6988 399.281 65.8975C401.401 66.3749 403.383 67.332 405.076 68.6952C406.606 69.8917 407.952 71.3056 409.073 72.8919C410.086 74.3393 411.02 75.8402 411.871 77.3883C413.4 80.3023 414.67 83.3448 415.668 86.481L417.166 90.9774C417.666 92.4762 418.066 93.975 418.465 95.4738C420.064 101.469 421.363 107.364 422.662 113.26C423.961 119.155 425.26 124.85 426.759 130.246C427.158 131.645 427.558 132.844 427.958 134.143C428.357 135.442 428.857 136.541 429.357 137.84C430.456 140.538 431.655 143.236 432.854 145.933C435.252 151.329 437.75 156.725 440.148 162.82C441.537 166.277 442.445 169.908 442.846 173.611C442.946 174.775 442.946 175.945 442.846 177.108C442.746 177.708 442.746 178.407 442.646 179.007C442.546 179.606 442.346 180.406 442.146 181.105C442.046 181.405 441.947 181.805 441.847 182.104L441.347 183.104C441.047 183.803 440.648 184.403 440.348 185.102C440.048 185.802 439.449 186.301 439.049 186.801L438.349 187.6L437.85 188.1L437.25 188.599C436.851 188.899 436.351 189.199 435.951 189.499C435.552 189.798 435.152 189.998 434.652 190.198C433.885 190.554 433.081 190.822 432.254 190.997C430.912 191.317 429.538 191.485 428.158 191.497C426.068 191.484 423.987 191.215 421.962 190.698C418.553 189.877 415.238 188.705 412.07 187.2C406.138 184.451 400.539 181.031 395.384 177.009C392.756 174.965 390.284 172.727 387.99 170.314C385.398 167.672 383.24 164.637 381.595 161.321C380.88 159.71 380.312 158.038 379.896 156.325L378.697 151.929C377.898 149.031 377.098 146.033 376.399 143.136C374.9 137.24 373.601 131.445 372.202 125.55C370.803 119.654 369.604 113.759 368.505 107.864L366.807 98.971C366.034 95.9432 365.433 92.8741 365.008 89.7784ZM365.008 89.7784C366.307 92.4762 367.506 95.2739 368.805 98.0717L372.402 106.365C374.8 111.861 377.098 117.456 379.297 123.052L385.991 139.838L389.289 148.132L390.987 152.228C391.403 153.396 391.903 154.532 392.486 155.626C393.774 157.53 395.321 159.245 397.082 160.722C399.083 162.518 401.221 164.155 403.477 165.618C407.998 168.668 412.819 171.246 417.866 173.312C420.179 174.299 422.59 175.035 425.06 175.51C425.946 175.708 426.85 175.809 427.758 175.81C428.058 175.81 428.257 175.71 428.158 175.71C428.058 175.71 428.158 175.71 427.858 175.81C427.758 175.81 427.658 175.909 427.558 176.009C427.458 176.109 427.258 176.209 427.158 176.309L426.958 176.509L426.859 176.609V176.509H426.958V174.91C426.585 172.645 425.948 170.432 425.06 168.316C423.162 163.22 420.664 157.624 418.265 152.029C417.066 149.231 415.967 146.333 414.868 143.435C414.369 141.937 413.769 140.238 413.269 138.639C412.77 137.041 412.37 135.442 412.07 133.943C410.651 127.91 409.55 121.806 408.773 115.658C407.874 109.662 407.074 103.767 406.175 98.0717C405.36 92.5147 404.09 87.0339 402.378 81.6848C401.982 80.5097 401.48 79.3726 400.879 78.2875C400.374 77.3291 399.771 76.4251 399.081 75.5897C398.53 74.9519 397.849 74.4407 397.082 74.0909C396.626 73.9247 396.159 73.7912 395.684 73.6912C395.124 73.5754 394.556 73.5086 393.985 73.4914C389.189 73.1916 383.793 75.4898 378.997 78.4874C376.511 80.0481 374.141 81.7845 371.903 83.6832C369.446 85.5284 367.14 87.5666 365.008 89.7784Z" fill="#646464"/>
<path d="M409.273 73.9906C409.96 70.8273 411.104 67.7811 412.67 64.9478C414.367 61.8714 416.763 59.2362 419.664 57.2539C422.932 55.0728 426.838 54.0524 430.755 54.3563C434.553 54.6407 438.239 55.7671 441.547 57.6536L442.446 58.1532L443.245 59.5521L443.745 60.3515L444.145 61.0509C444.345 61.4506 444.644 61.9502 444.844 62.3499C445.244 63.2491 445.644 64.0485 446.043 64.8479C446.763 66.5127 447.397 68.2136 447.942 69.9438C449.007 73.3549 449.874 76.8245 450.54 80.3355C451.139 83.8327 451.539 87.3299 451.839 90.927C451.938 92.7256 452.038 94.4242 452.038 96.2228V101.219C452.036 103.975 452.337 106.722 452.938 109.412C453.504 112.326 454.272 115.198 455.236 118.005C457.034 123.801 459.532 129.696 461.93 135.891C463.129 138.989 464.428 142.086 465.528 145.284C466.815 148.666 467.851 152.14 468.625 155.675C469.136 157.667 469.405 159.714 469.424 161.77C469.539 164.398 469.096 167.02 468.125 169.464C467.511 170.968 466.593 172.329 465.428 173.461C464.13 174.783 462.512 175.747 460.731 176.259C459.885 176.497 459.012 176.631 458.133 176.658C457.366 176.675 456.598 176.642 455.835 176.558C454.599 176.379 453.39 176.043 452.238 175.559C450.357 174.78 448.579 173.773 446.942 172.562C445.456 171.506 444.052 170.337 442.746 169.064C440.248 166.666 437.85 164.168 435.552 161.57C431.22 156.373 427.28 150.862 423.761 145.084C429.357 148.881 434.652 152.977 440.048 156.674C442.746 158.473 445.444 160.272 448.141 161.87C449.431 162.647 450.766 163.348 452.138 163.969C453.306 164.458 454.508 164.858 455.735 165.168C456.735 165.367 457.534 165.168 457.034 165.068H456.735C456.695 165.105 456.648 165.134 456.596 165.151C456.544 165.169 456.489 165.174 456.435 165.168C456.335 165.168 456.335 165.068 456.335 164.968C456.318 164.264 456.251 163.563 456.135 162.869C456.035 162.37 455.835 161.77 455.735 161.171C455.635 160.571 455.436 159.972 455.136 159.272C454.237 156.674 453.038 153.777 451.739 150.879L447.642 141.986C444.684 135.79 442.114 129.416 439.948 122.901C438.836 119.436 437.968 115.897 437.35 112.31C436.719 108.514 436.485 104.663 436.651 100.819C436.626 100.35 436.66 99.8806 436.751 99.4202L436.851 98.2212L437.05 95.923C437.15 94.4242 437.25 92.8255 437.25 91.3267C437.35 88.2292 437.35 85.1316 437.15 82.134C436.95 79.1364 436.651 76.0389 436.151 73.0413C435.957 71.5561 435.657 70.0868 435.252 68.6448L434.652 66.5465L434.353 65.5473L434.253 65.0477C434.235 64.9431 434.202 64.8419 434.153 64.7479L435.951 66.6464C434.07 65.0482 431.899 63.8269 429.556 63.0493C427.277 62.3499 424.841 62.3499 422.562 63.0493C419.945 63.9702 417.535 65.396 415.468 67.246C413.126 69.2235 411.045 71.4898 409.273 73.9906Z" fill="#646464"/>
<path d="M447.142 86.6811C447.769 83.7979 448.921 81.0544 450.54 78.5876C452.381 75.7737 455.027 73.5799 458.134 72.2927C459.019 71.9805 459.919 71.7137 460.831 71.4933C461.793 71.377 462.76 71.3103 463.729 71.2935C464.701 71.3776 465.668 71.511 466.627 71.6931C467.554 71.9022 468.458 72.2034 469.325 72.5924C470.339 72.9914 471.31 73.4937 472.222 74.0912C473.116 74.7522 473.922 75.5244 474.62 76.3894C475.929 77.8667 476.977 79.5562 477.718 81.3854C479.036 84.4081 479.911 87.6052 480.316 90.8778C480.735 93.8263 481.002 96.7946 481.115 99.7707C481.215 102.668 481.115 105.466 481.115 108.264C481.115 111.062 480.815 113.759 480.715 116.457L479.516 132.345C479.317 134.943 479.217 137.441 479.117 139.939V143.636L479.217 147.832C479.217 150.63 479.117 153.528 478.917 156.425C478.709 159.512 478.138 162.564 477.218 165.518C476.66 167.382 475.627 169.069 474.221 170.414C472.835 171.64 471.143 172.469 469.325 172.812C468.439 173.011 467.534 173.111 466.627 173.112C465.67 173.026 464.746 172.718 463.929 172.213C463.272 171.764 462.753 171.141 462.43 170.414C462.065 169.705 461.893 168.913 461.93 168.116C462.257 168.644 462.701 169.089 463.229 169.415C463.754 169.718 464.33 169.921 464.928 170.014C465.908 169.931 466.827 169.507 467.526 168.815C468.356 168.306 468.99 167.531 469.325 166.617C469.508 165.797 469.541 164.951 469.424 164.119C469.205 161.701 468.838 159.298 468.325 156.925C467.826 154.427 467.226 151.829 466.627 149.231L465.727 145.334C465.428 143.935 465.128 142.337 464.928 140.938C464.546 138.054 464.313 135.152 464.229 132.245C464.129 129.347 464.229 126.549 464.229 123.751C464.229 120.954 464.528 118.256 464.628 115.458L465.927 99.5708C466.127 96.9729 466.227 94.4749 466.327 92.0768C466.343 89.9053 466.21 87.7352 465.927 85.582C465.827 85.0824 465.727 84.7827 465.628 84.2831C465.528 83.9833 465.428 83.5836 465.328 83.2839C465.228 82.9841 465.128 82.7843 465.028 82.4845C464.928 82.1847 464.928 82.0848 464.428 81.7851C463.196 80.574 461.559 79.8621 459.832 79.7867C457.605 79.8638 455.436 80.5179 453.537 81.6851C451.251 83.143 449.11 84.8159 447.142 86.6811Z" fill="#646464"/>
<path d="M501.099 463.879C509.592 456.884 517.986 450.19 526.279 443.195C534.572 436.201 542.866 429.307 550.959 422.112C559.053 414.918 567.246 407.824 575.24 400.63C579.237 397.032 583.234 393.335 587.23 389.638C591.227 385.941 595.224 382.244 599.021 378.547L602.218 394.135C600.62 393.835 598.721 393.635 596.923 393.435C595.124 393.235 593.226 393.036 591.327 392.936C587.63 392.636 583.833 392.536 580.036 392.436C572.542 392.236 564.948 392.536 557.454 393.036C542.244 394.166 527.164 396.64 512.39 400.43C497.273 404.396 482.581 409.834 468.525 416.667C461.299 420.157 454.261 424.026 447.442 428.257C443.945 430.356 440.548 432.654 437.15 434.952C433.753 437.25 430.356 439.748 427.058 442.246C438.435 429.48 451.435 418.26 465.728 408.873C479.503 399.834 494.336 392.519 509.892 387.09C525.071 381.81 540.788 378.225 556.755 376.399C564.653 375.535 572.59 375.068 580.536 375C584.532 375 588.429 375.1 592.426 375.4C594.425 375.5 596.423 375.699 598.421 375.899C600.42 376.099 602.318 376.299 604.616 376.699L621.303 379.297L607.814 392.186C603.717 396.183 599.62 399.78 595.424 403.477C591.227 407.174 587.03 410.671 582.834 414.169C574.341 421.063 565.648 427.658 556.755 433.753C547.97 439.865 538.864 445.501 529.477 450.639L522.482 454.337C520.084 455.536 517.786 456.635 515.388 457.734C510.773 460.11 505.998 462.163 501.099 463.879Z" fill="#E2815A"/>
<path d="M426.059 523.931C371.803 520.734 323.341 502.848 320.244 501.749L312.45 498.851L318.545 491.957C319.345 491.057 408.174 423.811 477.518 379.946C548.461 335.182 625.4 365.358 629.097 367.556L633.293 370.154L631.095 375.35C629.297 379.646 585.232 481.465 509.592 512.64C483.913 523.232 454.237 525.58 426.059 523.931ZM331.335 493.356C358.114 502.049 445.943 526.829 506.795 501.749C569.045 476.069 610.212 396.833 620.304 375.55C601.918 365.758 536.771 346.973 478.817 383.443C421.863 419.315 351.319 471.623 331.335 493.356Z" fill="#E2815A"/>
<path d="M296.363 482.964C300.66 471.273 304.656 459.582 308.253 447.692C309.153 444.694 310.052 441.697 310.851 438.799C311.651 435.901 312.55 432.804 313.349 429.906L318.345 412.32C325.14 388.939 332.234 365.658 340.328 343.076C344.271 331.852 348.808 320.845 353.917 310.102C356.228 305.101 359.04 300.347 362.31 295.913C362.989 295.035 363.724 294.201 364.508 293.415C364.957 292.956 365.461 292.553 366.007 292.216C367.982 291.361 370.068 290.789 372.202 290.518C377.298 289.818 383.393 289.718 389.588 289.518C396.077 289.387 402.551 288.853 408.973 287.92C415.871 286.819 422.549 284.627 428.757 281.425C435.059 278.036 440.601 273.395 445.044 267.786L450.64 260.592C452.538 258.293 454.337 255.895 456.335 253.597C460.132 249.001 464.129 244.504 468.225 240.208C476.326 231.49 485.114 223.437 494.505 216.127C495.704 215.228 496.903 214.329 498.002 213.529L501.699 210.931C504.297 209.133 506.795 207.234 509.293 205.136C511.888 203.054 514.326 200.783 516.587 198.341C517.835 196.97 518.972 195.499 519.984 193.945C521.279 191.923 522.099 189.634 522.382 187.25C522.501 185.652 522.262 184.048 521.683 182.554C520.795 180.488 519.296 178.745 517.386 177.558C516.887 177.258 516.287 176.959 515.688 176.659C514.72 176.236 513.717 175.902 512.69 175.66C509.321 174.85 505.862 174.481 502.398 174.56C495.942 174.589 489.509 175.326 483.213 176.759C476.814 178.064 470.627 180.25 464.828 183.253C463.329 184.053 461.931 184.952 460.532 185.851C459.832 186.351 459.133 186.851 458.533 187.35L456.735 188.749C454.337 190.648 451.939 192.446 449.54 194.245C440.148 201.239 430.456 208.134 420.763 214.828C418.132 213.819 415.426 213.017 412.67 212.43C409.506 211.736 406.303 211.235 403.078 210.931C396.626 210.327 390.12 210.732 383.793 212.13C377.503 213.514 371.49 215.946 366.007 219.325C360.607 222.697 355.727 226.837 351.519 231.615C356.015 227.243 361.092 223.511 366.607 220.524C372.119 217.659 378.057 215.702 384.193 214.728C390.288 213.829 396.483 213.829 402.578 214.728C405.613 215.169 408.617 215.803 411.571 216.627C414.456 217.405 417.265 218.442 419.964 219.724L421.163 220.324L422.362 219.624C432.854 213.329 443.345 206.835 453.537 200.04C456.135 198.341 458.633 196.543 461.131 194.844L463.03 193.445C463.573 193.044 464.14 192.677 464.728 192.346C465.927 191.647 467.126 190.947 468.325 190.348C473.574 187.999 479.122 186.385 484.812 185.552C490.521 184.586 496.314 184.218 502.098 184.453C504.734 184.551 507.349 184.953 509.892 185.652C510.991 185.951 511.791 186.451 511.691 186.551C511.791 186.751 511.791 186.751 511.691 186.651C511.634 186.599 511.598 186.528 511.591 186.451C511.392 187.065 511.088 187.64 510.691 188.15C510.005 189.114 509.236 190.017 508.393 190.847C506.439 192.808 504.335 194.612 502.098 196.243C499.8 197.942 497.402 199.64 494.904 201.239L491.007 203.737L487.11 206.435C476.869 213.762 467.244 221.917 458.333 230.815C453.837 235.212 449.54 239.708 445.344 244.405C443.245 246.703 441.147 249.101 439.149 251.499L433.253 258.593C429.997 262.528 425.945 265.729 421.363 267.986C416.605 270.277 411.512 271.795 406.275 272.482C400.574 273.183 394.832 273.483 389.089 273.381C383.094 273.481 376.899 273.182 369.804 273.981C365.857 274.402 361.988 275.377 358.313 276.879C356.139 277.916 354.148 279.3 352.418 280.975C350.96 282.285 349.623 283.723 348.421 285.272C344.248 290.547 340.632 296.239 337.63 302.258C331.949 313.487 326.912 325.03 322.542 336.831C313.649 360.012 306.155 383.493 298.961 406.974L288.369 441.947C284.772 453.437 280.775 464.828 276.579 476.019C272.382 487.21 271.683 551.459 271.683 551.459C271.683 551.459 292.166 494.654 296.363 482.964Z" fill="#646464"/>
<path d="M842.026 134.243C847.622 149.331 852.618 164.918 854.217 181.605C855.127 190.068 854.79 198.619 853.218 206.984C851.455 215.762 847.732 224.028 842.326 231.165C839.543 234.781 836.321 238.037 832.734 240.857C829.186 243.657 825.37 246.1 821.343 248.152C817.409 250.191 813.294 251.864 809.053 253.148C804.885 254.447 800.649 255.515 796.363 256.345C792.102 257.156 787.799 257.723 783.473 258.044C779.277 258.343 774.98 258.543 770.883 258.643C762.59 258.843 754.497 258.743 746.603 258.743C738.986 258.693 731.375 259.16 723.821 260.142C716.442 261.145 709.157 262.749 702.038 264.938C694.939 267.122 688.024 269.861 681.355 273.132C674.739 276.448 668.362 280.221 662.27 284.423C656.307 288.739 650.664 293.481 645.384 298.611C642.786 301.109 640.288 303.907 637.89 306.605C635.492 309.303 633.094 312.5 630.596 315.598C628.098 318.695 625.5 322.092 622.602 325.39C621.203 327.088 619.704 328.687 618.106 330.386C617.306 331.185 616.507 331.984 615.708 332.884L613.21 335.282C606.509 341.366 599.133 346.663 591.227 351.069C583.656 355.227 575.811 358.866 567.746 361.96C559.852 365.058 552.058 367.756 544.365 370.254L532.974 374.051C529.277 375.35 525.48 376.649 521.783 377.948C518.086 379.247 514.389 380.646 510.692 382.044L505.196 384.143L499.7 386.341C470.278 398.004 441.699 411.693 414.169 427.308C410.772 429.307 407.274 431.205 403.877 433.203C400.48 435.202 397.082 437.2 393.685 439.299C390.288 441.397 386.991 443.495 383.593 445.594L373.601 452.088C370.304 454.287 367.007 456.485 363.809 458.783C360.612 461.081 357.314 463.379 354.117 465.677L349.321 469.175C347.722 470.374 346.223 471.573 344.624 472.772C343.026 473.971 341.527 475.17 339.928 476.469L335.332 480.266C310.851 500.35 288.969 523.831 271.783 551.209C273.381 547.512 274.88 543.715 276.679 540.118L279.377 534.622C279.876 533.723 280.276 532.824 280.776 531.924L282.274 529.227L285.272 523.931C286.271 522.132 287.37 520.434 288.469 518.735C289.568 517.036 290.568 515.238 291.767 513.539L295.264 508.443L296.963 505.945C297.562 505.146 298.162 504.347 298.761 503.447L302.458 498.551C303.657 496.853 305.056 495.354 306.255 493.755L310.152 488.959L314.149 484.363C315.548 482.864 316.847 481.265 318.246 479.766C321.043 476.769 323.841 473.771 326.739 470.873L331.135 466.477L335.632 462.28L340.128 458.084L344.724 453.987C350.819 448.491 357.214 443.395 363.609 438.299C366.807 435.801 370.104 433.303 373.401 430.805C376.699 428.307 379.996 425.909 383.393 423.611C386.791 421.313 390.088 418.915 393.485 416.617C396.883 414.319 400.28 412.12 403.677 409.822C407.074 407.524 410.572 405.426 414.069 403.227C417.566 401.029 421.063 398.931 424.56 396.833C428.058 394.734 431.655 392.736 435.252 390.737L440.648 387.74L446.043 384.842C460.532 377.048 475.32 370.054 490.408 363.559L496.103 361.161L501.799 358.863C505.596 357.264 509.393 355.865 513.29 354.367C517.186 352.868 520.983 351.469 524.88 350.07L536.371 345.973C551.459 340.777 566.047 335.582 578.737 328.387C584.939 324.986 590.738 320.897 596.023 316.197C601.119 311.701 605.716 306.005 610.811 299.71C613.309 296.613 616.007 293.315 618.905 290.018C621.803 286.721 624.8 283.523 628.098 280.526C634.419 274.459 641.275 268.975 648.581 264.139C655.862 259.341 663.513 255.131 671.463 251.549C679.394 247.956 687.617 245.048 696.043 242.856C704.458 240.64 713.051 239.169 721.723 238.459C730.203 237.827 738.717 237.794 747.202 238.359C755.496 238.759 763.389 239.458 771.183 239.858C775.08 240.058 778.877 240.158 782.774 240.058C786.671 239.958 790.268 239.858 793.965 239.458C801.255 238.779 808.417 237.097 815.248 234.462C821.849 231.915 827.817 227.96 832.734 222.872C837.691 217.573 841.38 211.218 843.525 204.287C845.844 196.981 847.057 189.369 847.122 181.705C847.269 173.793 846.868 165.88 845.923 158.024C844.924 150.13 843.525 142.236 842.026 134.243Z" fill="#646464"/>
</svg>
