<svg width="200" height="200" viewBox="0 0 146 146" fill="none" xmlns="http://www.w3.org/2000/svg">
<g filter="url(#filter0_d_2265_5347)">
<path d="M92.6996 111.108L52.2997 111.038C39.9843 111.017 30.0172 101.016 30.0384 88.6996L30.1079 48.3003C30.1291 35.9843 40.1306 26.0172 52.4461 26.0384L92.8459 26.108C105.162 26.1292 115.129 36.1306 115.108 48.4466L115.038 88.846C115.017 101.162 105.016 111.129 92.6996 111.108Z" fill="#E5E5E5"/>
<path d="M57.2388 59.9476C57.2331 63.2382 55.6455 65.9034 53.6935 65.9C51.741 65.8966 50.1626 63.226 50.1683 59.9354C50.1739 56.6444 51.7615 53.9792 53.7141 53.9825C55.666 53.9859 57.2445 56.6565 57.2388 59.9476Z" fill="black"/>
<path d="M86.4834 56.941C85.9742 57.1267 85.4869 57.3529 85.0559 57.675C82.8392 59.3316 85.2408 61.3215 86.7914 62.3015C88.474 63.3642 91.2038 65.2538 93.3046 64.8479C93.6342 64.7844 93.9794 64.6451 94.1469 64.3543C94.9421 62.9746 92.7294 62.3163 91.8342 61.9279C91.1701 61.6397 89.8659 60.9908 89.9464 60.0941C89.9699 59.8302 90.1327 59.5973 90.3227 59.4126C91.6394 58.1317 94.4614 58.5137 94.9827 56.3802C95.0529 56.0938 95.0099 55.7678 94.8165 55.5456C94.6273 55.3285 94.3302 55.2414 94.0464 55.1932C92.2927 54.893 90.5646 55.4942 88.9569 56.1371C88.1718 56.4515 87.2998 56.6437 86.4834 56.941Z" fill="black"/>
<path d="M65.1525 84.974C70.6568 85.373 76.5089 84.3596 81.265 81.458C82.5814 80.6552 83.8114 79.7093 84.9095 78.6257C85.4074 78.1346 85.8967 77.6153 86.3281 77.0667C86.6568 76.649 87.5036 75.0829 88.1452 75.9603C88.7306 76.7608 87.3889 78.5957 86.9675 79.2606C84.355 83.3897 79.7935 86.0759 75.0745 87.0676C72.5332 87.6019 69.9173 87.746 67.3286 87.5622C66.1029 87.4755 64.883 87.314 63.6678 87.1326C62.638 86.9786 61.5153 86.8972 60.6482 86.2582C60.2173 85.9403 60.229 85.3883 60.6047 85.0328C61.0529 84.6098 61.8206 84.6019 62.3939 84.6582C63.3167 84.7479 64.2261 84.9074 65.1525 84.974" fill="black"/>
</g>
<defs>
<filter id="filter0_d_2265_5347" x="0.0383377" y="0.0383301" width="145.069" height="145.07" filterUnits="userSpaceOnUse" color-interpolation-filters="sRGB">
<feFlood flood-opacity="0" result="BackgroundImageFix"/>
<feColorMatrix in="SourceAlpha" type="matrix" values="0 0 0 0 0 0 0 0 0 0 0 0 0 0 0 0 0 0 127 0" result="hardAlpha"/>
<feOffset dy="4"/>
<feGaussianBlur stdDeviation="15"/>
<feColorMatrix type="matrix" values="0 0 0 0 0 0 0 0 0 0 0 0 0 0 0 0 0 0 0.25 0"/>
<feBlend mode="normal" in2="BackgroundImageFix" result="effect1_dropShadow_2265_5347"/>
<feBlend mode="normal" in="SourceGraphic" in2="effect1_dropShadow_2265_5347" result="shape"/>
</filter>
</defs>
</svg>
