<svg width="40" height="40" viewBox="0 0 40 40" fill="none" xmlns="http://www.w3.org/2000/svg">
<path d="M29.5058 40H10.494C4.69849 40 0 35.3015 0 29.5058V10.4942C0 4.69849 4.69849 1.07199e-06 10.494 1.07199e-06H29.5058C35.3018 1.07199e-06 40 4.69849 40 10.4942V29.5058C40 35.3015 35.3018 40 29.5058 40Z" fill="#E9EBED"/>
<path d="M12.7768 15.9534C12.7768 17.5019 12.0319 18.7573 11.1133 18.7573C10.1945 18.7573 9.44958 17.5019 9.44958 15.9534C9.44958 14.4047 10.1945 13.1492 11.1133 13.1492C12.0319 13.1492 12.7768 14.4047 12.7768 15.9534Z" fill="black"/>
<path d="M26.5366 14.5148C26.2972 14.6026 26.0681 14.7095 25.8655 14.8614C24.8237 15.6427 25.9554 16.5772 26.6859 17.0371C27.4786 17.5358 28.7647 18.4228 29.753 18.2301C29.908 18.2 30.0703 18.1342 30.1489 17.9972C30.522 17.3473 29.4802 17.0393 29.0587 16.8572C28.7459 16.7222 28.1317 16.4178 28.1688 15.9958C28.1796 15.8716 28.2561 15.7619 28.3453 15.6748C28.9639 15.071 30.2922 15.2485 30.5358 14.244C30.5686 14.1092 30.5481 13.9558 30.4569 13.8514C30.3677 13.7494 30.2278 13.7087 30.0942 13.6862C29.2687 13.5464 28.456 13.8307 27.7 14.1345C27.3308 14.2831 26.9206 14.3743 26.5366 14.5148Z" fill="black"/>
<path d="M16.5212 27.7242C19.1118 27.9074 21.8648 27.4258 24.1006 26.0565C24.7194 25.6777 25.2975 25.2315 25.8133 24.7208C26.0472 24.4893 26.2771 24.2445 26.4796 23.986C26.634 23.7892 27.0312 23.0515 27.3338 23.4639C27.6099 23.8401 26.98 24.7046 26.7823 25.0179C25.5562 26.9631 23.4119 28.2308 21.192 28.7013C19.9966 28.9548 18.7657 29.0247 17.5474 28.9403C16.9705 28.9005 16.3963 28.8255 15.8243 28.7411C15.3396 28.6695 14.8112 28.6321 14.4027 28.3321C14.1996 28.1828 14.2047 27.9231 14.3812 27.7555C14.5917 27.5561 14.953 27.5517 15.2228 27.5778C15.6572 27.6193 16.0852 27.6935 16.5212 27.7242" fill="black"/>
</svg>
