<svg width="41" height="40" viewBox="0 0 41 40" fill="none" xmlns="http://www.w3.org/2000/svg">
<path d="M29.4038 40H10.6143C4.75214 40 0 35.2469 0 29.3845V10.6146C0 4.75216 4.75214 0 10.6143 0H29.3917C35.2517 0 40.0024 4.7483 40.0048 10.6078L40.0169 29.3772C40.0217 35.242 35.2686 40 29.4038 40Z" fill="#B0E0D1"/>
<path d="M8.89624 15.8982C8.89624 14.6572 9.90209 13.6516 11.1428 13.6516C12.3838 13.6516 13.3899 14.6572 13.3899 15.8982C13.3899 17.1389 12.3838 18.1443 11.1428 18.1443C9.90209 18.1443 8.89624 17.1389 8.89624 15.8982Z" fill="black"/>
<path d="M24.6273 15.8982C24.6273 14.6572 25.6329 13.6516 26.8749 13.6516C28.1144 13.6516 29.1224 14.6572 29.1224 15.8982C29.1224 17.1389 28.1144 18.1443 26.8749 18.1443C25.6329 18.1443 24.6273 17.1389 24.6273 15.8982Z" fill="black"/>
<path d="M18.4176 24.6916C18.1041 24.8026 17.9546 25.1595 18.0993 25.461L18.5623 26.4328C18.7287 26.7776 18.8999 27.1345 19.1845 27.3925C19.4715 27.6506 19.8983 27.7856 20.248 27.6241C20.5422 27.4867 20.7134 27.1634 20.7592 26.8427C20.7737 26.7511 20.7785 26.6595 20.7761 26.5654C20.7713 26.3123 21.0317 26.1458 21.256 26.2664C21.4875 26.3918 21.7383 26.4714 22.0204 26.452C22.2375 26.4376 22.4497 26.3435 22.5848 26.1724C22.9272 25.7431 22.6402 25.2198 22.3026 24.8702C21.9481 24.4987 21.5237 24.1997 21.0558 23.9875C20.8846 23.9103 20.6917 23.9007 20.5132 23.9634L18.4176 24.6916Z" fill="black"/>
</svg>
