<svg width="1159" height="1159" viewBox="0 0 1159 1159" fill="none" xmlns="http://www.w3.org/2000/svg">
<path d="M580 1079C856.179 1079 1080 855.179 1080 579C1080 302.821 856.179 79 580 79C303.821 79 80 302.821 80 579C79.9001 855.079 303.821 1079 580 1079Z" fill="#EEEEEF"/>
<path d="M583.5 262.4L596.8 245.4H614.6L621.4 234.9H635.8L642.2 255.6L663 246.9L677 217.5L684.6 210.2L694.8 229.9L706.5 229.5L716.3 210.2L729.5 212.8L734 230.2L748.4 236.2L755.6 253.2L740.9 269.5V284.2L723.5 294.8L713.2 306.9L739 316L758.3 356.4V385.9C758.3 385.9 739 428.6 739 431.3C739 434 709.1 478.4 709.1 478.4L687.6 486.9L659.3 494.4C659.3 494.4 624.5 472.9 624.5 471.4C624.5 469.9 590.5 437 590.5 437L570.5 392.8V352.8L581.5 330.1L604.9 306.7L609.1 280.6L606.8 267.7L583.5 262.4Z" fill="#F39469"/>
<path d="M723.8 301.5C730 306 736.2 309.8 741.7 314.5C760.1 330.1 767.2 350.2 764.9 374.1C762 403.4 749.3 428.4 731.6 451.2C722.7 462.6 713.2 473.7 703.7 484.6C699.8 489 695.3 493 690.6 496.6C680.4 504.5 669.1 505.8 657.3 500.7C642 494.1 628.4 484.7 616.2 473.5C595.3 454.3 578.4 432.2 567.7 405.7C564 396.6 561.6 387.1 560.8 377.4C559.5 363.1 563.4 350.1 570.2 337.8C576.6 326.2 584.6 315.9 593.4 306.2C599.5 299.5 602.4 291.6 604.2 283C604.6 281.2 604.1 280.3 602.4 279.5C595.8 276.3 589.2 273 582.7 269.7C577.9 267.3 576.7 263.8 579.1 259C582.3 252.6 585.5 246.2 588.7 239.8C591.1 234.9 594.4 233.8 599.4 236.2C601.9 237.4 604.4 238.7 607.2 240C607.4 238.7 607.6 237.8 607.7 236.8C608 234 609.6 232.3 612.2 231.7C620.7 229.9 629.1 228.1 637.7 226.6C641.1 226 644.3 228.6 644.8 232.1C645.6 236.9 646 241.7 646.6 246.5C646.8 247.8 646.8 249.1 647 250.9C648 250.1 648.7 249.6 649.3 249.1C654 245.1 658.6 241 663.3 237.1C664.8 235.9 665.4 234.7 665.3 232.8C665.1 226.6 665.2 220.3 665.2 214.1C665.2 208.6 667.6 206.1 673 206.1C679.4 206.1 685.7 206.2 692.1 206.3C696.7 206.4 699.2 208.9 699.3 213.5C699.3 216.5 699.3 219.5 699.3 222.5C704.7 222 704.7 222 706 217.3C706.9 214 707.7 210.7 708.7 207.4C710 203.1 713.3 201.1 717.5 202.4C723.7 204.4 729.9 206.5 736.1 208.7C739.7 210 741.2 212.9 740.4 216.6C739.9 219.1 739.2 221.5 738.7 223.3C743 225.9 747.2 228.2 751 230.9C755.2 234 758.5 238 760.1 243.1C762.4 250.3 759.6 258.2 753.2 262.8C752.4 263.4 751.6 263.9 751.4 264C752.4 268.4 754 272.4 754.1 276.5C754.4 283 751.6 288.4 745.8 291.5C740.3 294.5 734.5 296.8 728.9 299.4C727.2 300.2 725.4 300.9 723.8 301.5ZM627.2 391.3C627 391.5 626.7 391.6 626.5 391.8C628 394.5 629.6 397.1 631.1 399.8C637.7 411.6 641.9 424.1 641.3 437.8C640.8 448.1 643.6 457.3 648.9 465.9C649.4 466.8 649.9 467.7 650.4 468.6C645.6 467 643.9 463 642 459.1C640.1 455.2 638.1 451.3 636 447.1C632.9 452.7 629.9 457.7 627.2 462.9C626.8 463.6 627.1 465.2 627.7 466C633.6 473.2 640.7 478.9 649.2 482.8C666.7 490.8 683.6 487.3 696.2 472.8C702.8 465.2 709.3 457.4 715.7 449.7C717.4 447.7 718.9 445.6 720.4 443.6C713.8 437.1 709.4 429.6 706.7 421.1C704 412.6 703.7 403.9 704.8 395C693.8 412.7 689.7 432.7 684.5 452.5C683.6 450.6 682.7 448.6 682.8 446.7C683.3 439.7 683.5 432.6 685 425.8C688.5 409.9 695.7 395.3 703 380.8C704.9 377 706.9 373.3 709.1 369C699 371.2 690.1 374.1 684.4 382.8C680.8 388.3 677.1 393.7 673.1 398.9C670.3 402.5 667.5 403.3 663.2 402.7C668.1 400 669.9 395.4 672.1 391.2C673.3 389 674.6 386.8 675.6 384.5C681.1 372.3 691.1 366.2 703.6 363.2C705.7 362.7 707.8 362.3 710.3 361.7C709.9 359.6 709.8 357.8 709.2 356.1C705.6 346.6 698.6 339.6 691.8 332.3C695.6 333.6 699.4 334.8 702.8 336.8C711.4 342 719.9 353.2 717.3 366.7C715.6 375.2 714.2 383.7 712.6 392.2C710.9 401.1 710.1 410 713 418.8C715.3 426 718.8 432.4 724.2 437.9C724.6 437.6 724.9 437.4 725.1 437.2C738.3 418.7 748.2 398.7 751 375.8C752.3 365.4 752.3 355.1 748 345.2C741.9 331.2 731.2 321.8 718.1 314.7C715.2 313.1 713.5 313.8 713.2 317.2C712.9 320 713.1 322.8 713.4 325.6C713.7 328.2 714.3 330.7 714.9 334.2C708.6 328.9 704.9 323.1 703.3 316C700.6 304.3 704.8 296.1 715.9 291.8C721.5 289.6 727.2 287.5 732.7 285C735.4 283.8 737.8 281.8 739.9 279.7C740.8 278.7 741 276.4 740.6 275C740.2 274 738.2 273 737 273.1C732.8 273.5 728.5 273.8 724.6 275.3C699.3 285.3 684.3 304.2 678.1 330.4C677.3 333.9 676.7 337.4 676.1 340.9C672 340.3 668.8 336.8 669.1 333.2C669.9 322.9 671.6 312.8 675.9 303.3C681.8 290.1 692.1 280.9 703.9 273.2C716.6 265 730.4 258.7 744.2 252.6C747.6 251.1 748.1 250 746.9 246.6C745.2 241.5 737.4 236.9 732.1 238C725.3 239.3 721.6 235.3 723.4 228.6C724.2 225.6 724.9 222.6 725.7 219.5C723.7 218.9 722 218.3 720.1 217.7C719 221.7 717.9 225.4 717 229.2C716.2 232.6 714 234.2 710.7 234.8C705.6 235.8 700.4 236.7 695.3 237.9C689.9 239.2 686.1 236.4 686 230.8C686 227.2 686 223.6 686 219.9C683.4 219.9 681.3 219.9 678.9 219.9C678.9 225.9 678.8 231.7 678.9 237.5C679 240.8 677.7 243.1 675.1 245.2C667.6 251.5 660.4 258 653 264.4C648.9 267.9 647.1 272.1 647 277.8C646.9 289.2 644.3 300.2 637.6 309.8C634.8 313.8 629.4 318.2 625.9 319.1C638.9 294.1 636.8 268 632.4 241.4C628.8 242.1 625.4 242.8 621.7 243.6C621.9 245.9 622.1 248 622.3 250.1C622.8 257.3 617.8 260.6 611.4 257.4C607.1 255.3 602.8 253.1 598.3 250.9C596.7 254.1 595.3 257 593.8 260C601.2 264 608.2 267.9 615.3 271.8C618 273.3 619.1 275.3 618.7 278.5C617 292.5 612.6 305.2 603 316C596.1 323.8 589.9 332.3 584 341C574.2 355.5 571.7 371.3 576.2 388.3C580.1 403 586.8 416.3 595.2 428.8C602.6 439.9 611.2 450 621.1 459.6C624.4 454 627.4 448.6 630.6 443.2C634.6 436.6 635.2 429.6 633.4 422.2C630 408.7 622.8 397.3 614.8 386.2C614.7 386.1 614.5 386.2 614.3 386.2C610.4 401.4 605.3 405.9 599.3 406.3C599.5 405.8 599.6 405.3 599.8 404.9C604.5 399.4 605.9 392.6 607.5 385.8C609.5 377.2 611.3 368.5 613.8 360C615.9 352.8 620.3 346.8 626.7 342.6C628.4 341.5 630.3 340.8 632.4 339.8C632.3 340.6 632.3 340.7 632.3 340.8C631.7 341.5 631.1 342.2 630.6 342.9C625.1 349.6 620.8 356.9 618.5 365.3C617 370.8 618.1 375.8 622.3 379.7C625.4 382.6 628.9 385 632.3 387.4C649.8 399.7 660.2 416.4 663.3 437.6C663.6 439.6 663 441.7 662.7 443.8C656.6 422.1 645.8 404.1 627.2 391.3Z" fill="#E2815A"/>
<path d="M595.4 445.6C598.5 471.1 600.3 496.7 601.7 522.2C603 547.7 603.8 573.3 604.1 598.9C604.4 624.5 604.3 650 603.6 675.6C602.9 701.2 601.7 726.8 599.2 752.4C596 726.9 594.2 701.3 592.9 675.8C591.6 650.3 590.8 624.7 590.5 599.1C590.2 573.5 590.4 548 591 522.4C591.7 496.8 592.9 471.2 595.4 445.6Z" fill="#646464"/>
<path d="M401.8 439.7C401.7 441.2 401.6 442.8 401.7 444.3C401.7 445.8 401.7 447.4 401.8 448.9C401.9 452 402.1 455 402.2 458.1C402.5 464.2 403 470.3 403.5 476.4C404.6 488.6 406 500.6 407.9 512.6C408.8 518.6 409.9 524.5 411.1 530.5C412.3 536.4 413.6 542.3 415.2 548C416.7 553.8 418.4 559.5 420.4 565C421.4 567.8 422.5 570.4 423.6 573.2L425.4 577.6L427 582.1C431.3 594.3 434 607 434.8 619.9C435.5 632.9 434.4 645.9 431.5 658.5C430.1 664.7 428.4 670.8 426.8 676.7C426 679.7 425.3 682.3 424.3 685.8C423.3 689.1 422.2 692.2 420.9 695.2C418.4 701.2 415.7 706.8 413.1 712.3C410.5 717.8 408 723.2 405.7 728.7C401.1 739.6 397.3 750.7 394.4 762.2C393 767.9 391.7 773.7 390.7 779.5L390 783.9L389.4 788.3C389 791.3 388.5 794.2 388.2 797.2C385.4 821.2 383.9 845.4 383.6 869.6C383.1 893.9 383.7 918.2 385.1 942.5C386.5 966.8 389.1 991.1 393 1015.3C385.5 991.9 380.6 967.7 376.8 943.3C373.2 918.9 370.9 894.3 370.1 869.6C369.1 844.8 369.8 820 372 795.3C372.2 792.2 372.6 789.1 373 786L373.6 781.3L374.3 776.6C375.3 770.4 376.5 764.1 377.9 757.9C380.8 745.5 384.8 733.4 389.7 721.7C394.5 710 400.4 699 405 688.3C406.1 685.6 407.1 683 407.9 680.4C408.7 678 409.5 674.7 410.4 671.8C412.1 665.9 413.8 660.2 415.2 654.5C418.1 643.3 419.4 631.8 419.1 620.3C418.7 608.7 416.8 597.2 413.5 586.1L412.2 581.9L410.8 577.7C409.8 574.8 408.7 571.7 407.9 568.6C406.1 562.5 404.7 556.3 403.5 550.2C401.2 538 399.7 525.6 399 513.1C398.3 500.7 398.1 488.4 398.4 476.1C398.6 469.9 398.9 463.8 399.4 457.6C399.6 454.5 399.9 451.5 400.3 448.4C400.6 445.8 401.1 442.7 401.8 439.7Z" fill="#646464"/>
<path d="M823.9 750.6C816.7 757.2 809 763.2 800.9 768.6C792.9 774.1 784.5 779.2 775.9 783.9C767.3 788.6 758.6 793 749.6 797C740.6 801 731.5 804.5 722.3 807.8C713.1 811.1 703.6 813.9 694.2 816.5L687.1 818.3L683.5 819.2L679.9 820L672.7 821.6L665.5 823C646.1 826.6 626.5 828.8 606.9 829.7L599.5 829.9L595.8 830.2L592.1 830.1L577.3 829.9C574.8 829.8 572.4 829.9 569.9 829.7L562.5 829.2L547.7 828.1L533 826.2L525.6 825.2L518.3 823.9C513.4 823 508.5 822.2 503.7 821.1L489.3 817.6C470.1 812.5 451.3 806 433.1 798L426.3 794.9C424 793.9 421.8 792.7 419.6 791.6C417.4 790.5 415.1 789.4 412.9 788.2L406.3 784.6C404.1 783.4 401.9 782.1 399.8 780.8C397.6 779.5 395.5 778.3 393.4 776.9C391.3 775.5 389.2 774.2 387.1 772.7C386.1 772 385 771.3 384 770.5C382.9 769.7 382 769 380.8 768.1L394.3 762.8C393.2 770.9 392.2 779.2 391.2 787.3C390.2 795.5 389.3 803.7 388.5 811.9C387.7 820.1 387 828.3 386.4 836.4C385.9 844.5 385.4 852.7 385.5 860.5L376.8 852.1C378.3 852.1 379.6 852.1 380.9 852.1L384.8 852.2C387.4 852.3 390 852.4 392.6 852.6C397.8 853 402.9 853.4 408 854C418.3 855.2 428.4 856.8 438.6 858.7C458.9 862.6 478.8 868 498.2 875C507.9 878.5 517.5 882.4 526.9 886.6C531.6 888.8 536.3 890.9 540.8 893.4C543.1 894.6 545.4 895.7 547.7 897L554.5 900.8C572.5 911 589.5 922.9 605.3 936.2L597.7 935L627.2 923.8L656.8 912.9C676.6 905.7 696.4 898.7 716.3 891.7C726.3 888.2 736.3 885 746.4 881.7C756.4 878.5 766.7 875.4 777 872.8C797.6 867.8 818.1 863.2 839.3 860.3L836.3 863.5C837.1 854.1 837.3 844.5 837.3 835C837.3 825.5 836.9 815.9 836.1 806.4C835.2 796.9 833.9 787.4 832.1 778C831 773.4 830.1 768.6 828.6 764.1C827.3 759.6 825.7 755.3 823.9 750.6ZM823.9 750.6C824.8 752.7 825.9 754.9 826.9 757.1C828 759.3 828.7 761.6 829.6 763.9C831.4 768.4 832.7 773.1 834.1 777.7C836.6 787.1 838.6 796.5 840 806.1C841.4 815.7 842.3 825.3 842.9 835C843.4 844.7 843.6 854.3 843.3 864.2L843.2 866.9L840.3 867.4C830.2 869.3 819.9 871.7 809.8 874.2C799.7 876.8 789.6 879.5 779.5 882.4C769.6 885.3 759.7 888.7 749.9 892.2C740.1 895.7 730.3 899.5 720.4 903.1C700.8 910.5 681.2 918.1 661.7 925.8L603.2 949.1L599.1 950.7L595.6 947.8C580.3 935.3 564 924.3 546.7 914.9C538.1 910.1 529.2 905.9 520.2 901.8C511.2 897.8 502 894.2 492.7 890.9C474 884.4 454.9 879.3 435.5 875.6C425.8 873.8 416 872.3 406.2 871.2C401.3 870.6 396.4 870.2 391.5 869.8C389.1 869.6 386.6 869.5 384.2 869.4L380.6 869.3C379.4 869.3 378.1 869.2 377.1 869.2H368.5L368.4 860.8C368.3 852 368.8 843.6 369.4 835.2C370 826.8 370.8 818.5 371.7 810.2C372.6 801.9 373.5 793.6 374.5 785.3C375.5 777 376.6 768.8 377.7 760.5L379.7 745.9L391.2 755.2C391.9 755.8 392.9 756.5 393.8 757.2C394.7 757.9 395.7 758.5 396.6 759.2C398.5 760.6 400.5 761.8 402.4 763.1C404.3 764.4 406.4 765.6 408.3 766.9C410.3 768.1 412.3 769.4 414.4 770.5L420.6 774C422.7 775.1 424.8 776.2 426.9 777.3C429 778.4 431.1 779.5 433.2 780.5L439.6 783.5C456.9 791.4 474.8 798 493.1 803.2C511.5 808.3 530.2 812.1 549.1 814.7L563.4 816.1L570.5 816.8C572.9 817 575.3 817 577.7 817.2L592.1 817.8L595.7 818H599.3H606.5C625.7 817.9 644.9 816.5 663.9 813.7C673.4 812.4 682.8 810.5 692.3 808.5C701.7 806.4 711 804.1 720.3 801.3C738.8 795.8 756.8 788.8 774.3 780.5C783 776.3 791.6 771.7 799.9 766.8C808.2 762 816.3 756.6 823.9 750.6Z" fill="#646464"/>
<path d="M753.9 439.7C752.3 445.7 750.9 451.6 749.5 457.6C748.1 463.6 746.9 469.6 745.7 475.6C743.3 487.5 741.6 499.6 740.6 511.7C740.1 517.7 739.9 523.7 740 529.6C740 535.4 740.7 541.2 741.8 546.9C742.4 549.6 743.2 552.2 744.2 554.7C745.3 557.2 746.6 559.6 748.1 561.9C751.3 567.2 754.5 572.5 757.5 577.9C769.8 599.3 781.4 621.2 792.3 643.4C797.8 654.5 803 665.7 808.1 677.1C813.1 688.5 817.9 699.9 822.3 711.6C826.8 723.4 830.7 735.4 833.9 747.5C835.5 753.6 836.8 760.1 837.8 766.3C838.8 772.5 839.6 778.8 840.3 785C842.8 809.8 843.8 834.7 843.2 859.6C842.7 884.4 840.6 909.2 837 933.7C833.2 958.2 827.9 982.6 819.1 1005.7C824.1 981.7 827.2 957.3 828.6 932.8C830.1 908.4 830.4 884 829.7 859.6C828.9 835.2 827.3 810.9 824.1 786.9C823.3 780.9 822.4 775 821.4 769.1C820.4 763.1 819.1 757.6 817.6 751.8C814.5 740.4 810.6 728.9 806.3 717.6C802.1 706.3 797.4 695 792.6 683.8C787.8 672.6 782.8 661.5 777.7 650.4C767.5 628.2 756.7 606.2 745.6 584.4C742.8 579 740 573.5 737.2 568.1L736.1 566.1L735.5 565L734.9 563.8C734.1 562.2 733.4 560.5 732.9 558.8C731.8 555.5 731 552.2 730.6 548.8C728.8 535.5 730.2 522.9 732.2 510.5C734.4 498.2 737.4 486.1 741.2 474.3C743.1 468.4 745.1 462.5 747.2 456.7C749.2 451.2 751.4 445.4 753.9 439.7Z" fill="#646464"/>
<path d="M600.5 942.1C603.7 947 606 952.4 607.3 958.1C608.5 963.3 609.2 968.7 609.2 974.1C609.2 979.5 608.6 984.8 607.4 990.1C606.1 995.8 603.8 1001.2 600.6 1006.1C597.4 1001.2 595.1 995.8 593.8 990.1C592.6 984.9 591.9 979.5 592 974.1C592 968.7 592.6 963.4 593.9 958.1C595 952.4 597.3 946.9 600.5 942.1Z" fill="#646464"/>
<path d="M401.8 439.7C415.3 433.1 429.3 427.4 443.5 422.5C457.7 417.5 472.2 413.3 486.9 410C501.6 406.6 516.6 404.1 531.7 402.8C539.3 402.2 546.8 401.7 554.5 401.7C558.3 401.6 562.1 401.8 565.9 401.9C569.7 402.1 573.5 402.3 577.3 402.7C592.4 403.9 607.4 405.6 622.3 407.7C637.2 409.8 652.1 412.2 667 414.8C681.8 417.5 696.6 420.3 711.4 423.4C726.2 426.6 740.8 429.9 755.5 433.6L748.6 436.1C751.2 432.3 753.9 428 756.4 423.9C758.9 419.7 761.3 415.5 763.6 411.2C768.2 402.7 772.3 393.9 775.9 384.9C779.4 376.1 782.1 367 783.8 357.7C785.3 348.6 785.5 339.2 784.3 330C782.2 311.2 776.2 292.6 769.8 273.9C766.6 264.5 763.2 255.1 760.4 245L759.4 241.2C759.1 240.1 758.8 238.9 758.5 237.8C757.9 235.6 757.2 233.4 756.4 231.3C755.8 229.5 755 227.7 754 226C753.9 225.9 753.8 225.7 753.7 225.6C753.6 225.5 753.6 225.4 753.5 225.3C753.4 225.1 753.3 225.1 753.4 225.2C753.9 225.6 754.5 225.9 755.2 226.1C756 226.3 756.9 226.4 757.7 226.2C758.2 226.1 758.7 226 759.2 225.8C759.5 225.7 759.7 225.6 760 225.4L760.4 225.1L760.7 224.9C760.8 224.8 760.9 224.8 761.2 224.5L762.3 223.2C761.5 224.3 760.8 225.1 760.1 226.1L757.9 228.8C756.4 230.6 755 232.3 753.5 234C750.5 237.4 747.4 240.7 744.3 243.9C738 250.3 731.5 256.5 724.7 262.4C717.9 268.3 710.9 273.8 703.6 279.1C696.3 284.3 688.7 289.2 681 293.8C665.4 303 649 310.5 631.9 316.4C614.8 322.3 597.1 326.3 579.1 328.3L576.8 328.6L574.8 327.7L539.8 312L504.8 296.2L434.8 264.6L432.7 263.7L431.6 261.9C423.9 249.5 416.4 237 409.2 224.2C405.6 217.8 402.1 211.4 398.9 204.4C398.1 202.6 397.3 200.9 396.6 198.8C396.1 197.5 395.8 196.2 395.6 194.9C395.5 194.3 395.5 193.7 395.5 193.2C395.5 191.7 396 190.3 396.9 189.1C397.1 188.9 397.3 188.6 397.5 188.4C397.7 188.2 397.9 188 398.2 187.8C398.5 187.6 398.8 187.4 399.1 187.2C399.6 186.9 400.2 186.7 400.8 186.5C401.7 186.3 402.7 186.3 403.7 186.5C404.6 186.7 405.5 187.1 406.2 187.7C406.7 188.1 407.1 188.5 407.4 189C407.6 189.3 407.8 189.6 408 190C408.1 190.2 408.2 190.4 408.3 190.6C408.4 190.8 408.4 191 408.5 191.1L408.6 191.5C408.7 191.8 408.7 192.2 408.8 192.5C408.9 193.2 408.9 194 408.9 194.7C408.9 195.3 408.8 195.8 408.8 196.3C408.7 197.3 408.6 198.3 408.5 199.3C408.3 201.2 408 203.1 407.6 204.9C405 219.5 401.4 233.6 397.5 247.8C393.5 261.9 389.1 275.8 383.9 289.5C381.3 296.3 378.5 303.1 375.4 309.8C373.9 313.1 372.2 316.4 370.5 319.7C369.7 321.3 368.7 323 367.9 324.5C367.1 326 366.4 327.5 365.7 329.1C363 335.6 361.2 342.3 360.3 349.3C359.3 356.3 359.1 363.4 359.5 370.5C360.4 384.6 363.8 398.8 370.7 411.3C374.1 417.6 378.5 423.3 383.7 428.2C389 433.1 395.1 437 401.8 439.7ZM401.8 439.7C394.9 437.4 388.4 433.8 382.8 429.1C377.2 424.4 372.3 418.7 368.5 412.5C360.7 399.9 356.4 385.4 354.8 370.8C354 363.4 353.9 356 354.6 348.6C355.3 341.1 356.9 333.7 359.5 326.6C360.2 324.8 360.9 323.1 361.8 321.3C362.6 319.6 363.4 318.1 364.1 316.4C365.6 313.2 367 309.9 368.3 306.6C371 300 373.4 293.2 375.6 286.4C380.1 272.8 384 258.9 387.4 245C390.7 231 393.7 216.9 395.7 202.9C395.9 201.2 396.2 199.4 396.3 197.7C396.4 196.9 396.5 196 396.5 195.3C396.5 194.9 396.5 194.5 396.5 194.2C396.5 194 396.5 193.9 396.5 193.7C396.5 193.8 396.5 193.9 396.6 194L396.7 194.2L396.8 194.5C396.9 194.7 396.9 194.8 397 195C397.1 195.3 397.3 195.6 397.5 195.8C398.3 197 399.6 197.8 401 198.1C401.9 198.3 402.8 198.3 403.7 198.1C404.2 198 404.7 197.8 405.2 197.5C405.5 197.4 405.7 197.2 405.9 197C406.1 196.8 406.3 196.7 406.4 196.5C406.7 196.2 407 195.8 407.2 195.5C407.6 194.8 407.8 194.1 407.9 193.3C407.9 193 407.9 192.9 407.9 192.9L408 193.4C408.1 193.7 408.2 194 408.3 194.3C408.8 195.6 409.5 197.2 410.3 198.7C413.4 204.8 417 211 420.7 217.2C428.1 229.5 436 241.6 443.9 253.6L440.7 250.9L511.1 281.5L546.3 296.8L581.5 312.2L577.2 311.5C594 309.5 610.4 305.7 626.4 300.1C642.4 294.5 657.7 287.3 672.3 278.6C679.6 274.3 686.7 269.6 693.5 264.7C700.4 259.8 707.1 254.5 713.6 249C720.1 243.5 726.3 237.7 732.2 231.7C735.2 228.7 738.1 225.6 740.9 222.4C742.3 220.8 743.7 219.2 745 217.6L747 215.2C747.6 214.4 748.3 213.5 748.8 212.9L749.4 212.1L750 211.6C750.4 211.3 750.5 211.2 750.6 211.1L751 210.8C751.2 210.6 751.5 210.5 751.6 210.4C752.7 209.8 753.9 209.3 755.2 209.2C756.6 209 758.1 209.1 759.5 209.4C761.4 209.9 763.1 210.8 764.5 212.1C765.4 212.9 766.2 213.8 766.9 214.7C767.2 215.1 767.5 215.5 767.7 215.9C768 216.3 768.2 216.7 768.4 217C769.9 219.6 771.1 222.4 772.1 225.3C773 227.9 773.8 230.5 774.4 233.1L776.1 240.4C778.5 249.5 781.7 258.9 784.8 268.4C791 287.4 797.1 307.1 799.3 328C799.8 333.3 800 338.6 799.9 343.9C799.8 349.3 799.2 354.6 798.2 359.9C796.2 370.2 793 380.2 788.9 389.8C784.9 399.2 780.4 408.4 775.3 417.3C772.8 421.7 770.2 426.1 767.5 430.4C764.8 434.7 762 438.9 758.9 443.2L756.3 446.8L752 445.6C737.7 441.7 723.1 438 708.6 434.6C694.1 431.1 679.5 427.8 664.8 424.7C650.2 421.6 635.5 418.9 620.7 416.3C613.3 415.1 605.9 413.9 598.6 412.8C594.9 412.3 591.2 411.7 587.5 411.2L576.4 409.8C547 406.1 517 408.4 487.6 413.7C472.9 416.5 458.3 420 444 424.3C429.8 428.9 415.7 434 401.8 439.7Z" fill="#646464"/>
<path d="M279 179.8C278.8 183.3 279 186.8 279 190.3C279.1 193.8 279.2 197.3 279.4 200.8L280.3 221.8C281.1 235.8 281.8 249.8 282.8 263.8C283.8 277.8 284.8 291.8 286 305.7C287.2 319.6 288.7 333.5 290.2 347.4C291.8 361.3 293.7 375.1 296.1 388.7C297.3 395.6 298.7 402.2 300.2 409C301.8 416.1 303 423.2 303.9 430.4C305.6 444.8 306.2 459.2 305.7 473.7C305.2 488.1 303.8 502.3 302.3 516.2C300.8 530.2 299.3 544 298.7 557.6C298 571 298.7 584.5 300.9 597.7C302.1 604.4 303.4 611.4 304.8 618.2L308.9 638.8L317.3 680L334.3 762.5L351.1 845L351.5 846.7L351 848.2C348.6 854.8 346.4 861.8 344.4 868.8C342.4 875.8 340.6 882.8 338.9 889.9C335.6 904 333.2 918.3 331.6 932.8C330.1 947.2 329.9 961.8 331.1 976.3C331.6 983.5 332.7 990.7 334.4 997.8C335.2 1001.3 336.5 1004.7 338 1008C338.8 1009.6 339.8 1011.1 340.9 1012.5C342 1014 343.6 1015 345.3 1015.5C343.4 1015.2 341.7 1014.3 340.5 1012.9C339.2 1011.6 338 1010.1 337 1008.5C335.1 1005.3 333.5 1001.9 332.3 998.4C329.9 991.3 328.2 984.1 327.1 976.7C325.9 969.4 325.1 962 324.6 954.6C324.2 947.2 324.2 939.7 324.4 932.3C324.7 924.9 325.3 917.4 326.1 910.1C326.9 902.7 328.1 895.4 329.4 888C330.7 880.7 332.2 873.4 333.9 866.2C335.6 858.9 337.4 851.8 339.7 844.5L339.5 847.7C332.9 820.4 326.2 793.1 319.8 765.8C313.4 738.5 307.2 711.1 301.1 683.6L292.2 642.4L288 621.7C286.6 614.8 285.3 607.9 284 600.8C281.4 586.2 281 571.4 281.6 557C282.2 542.6 283.9 528.4 285.6 514.5C287.2 500.6 288.7 486.8 289.5 473.1C290.3 459.5 290 445.8 288.7 432.3C288 425.5 287.1 418.8 285.8 412.2C285.2 408.8 284.5 405.2 283.9 401.7C283.3 398.2 282.8 394.6 282.3 391.1C280.4 377 279 362.9 278 348.8C276.9 334.7 276.4 320.6 275.9 306.5C275.5 292.4 275.3 278.3 275.4 264.3C275.5 250.2 275.7 236.2 276.2 222.1C276.5 215.1 276.7 208 277.2 201C277.4 197.5 277.7 194 277.9 190.5C278.1 186.8 278.4 183.3 279 179.8Z" fill="#646464"/>
<path d="M884.6 185.9C882.9 194.7 881.1 203.4 879.3 212.1L876.5 225.2L873.6 238.2C869.8 255.6 865.7 272.9 861.7 290.2L855.5 316.1L849.1 342L842.6 367.8L835.9 393.6L836.2 391.6C836.3 419.6 836.3 447.7 836 475.7C835.8 503.7 835.5 531.8 834.9 559.8L834.2 601.8C834.1 608.8 834.1 615.7 833.9 622.9C833.8 626.5 833.6 630 833.4 633.6L832.6 644.2C831.5 658.3 829.5 672.3 827.3 686.2C825 700.1 822.4 713.9 819 727.6C820.2 713.6 821.2 699.6 822 685.6C822.9 671.6 823.3 657.7 823.5 643.7V633.3C823.4 629.8 823.4 626.4 823.2 622.9L822.2 601.9C821.6 587.8 821.2 573.8 820.9 559.8C820.3 531.7 820 503.7 820 475.6C820 447.5 820.3 419.5 820.7 391.4V390.3L821 389.4L828.4 363.8L835.9 338.2L843.6 312.7L851.4 287.2C856.8 270.2 862 253.3 867.6 236.4L871.7 223.7L876 211.1C878.6 202.7 881.6 194.3 884.6 185.9Z" fill="#646464"/>
<path d="M774.9 289.6L784 267.5L788.5 256.5L793.1 245.6L811.5 201.9L799.8 247.6L796.9 259L795.2 270.8L791.8 294.2L774.9 289.6Z" fill="#646464"/>
<path d="M458.6 483.2C460.8 503.6 463.2 523.6 467.4 542.8C467.9 545.2 468.5 547.6 469.1 550C469.6 552.4 470.3 554.7 471 557C471.6 559.4 472.5 561.6 473.1 563.9C473.8 566.1 474.7 568.6 475.5 570.9L480.4 585.2L485.3 599.5L490 613.9C491.5 618.7 493.1 623.6 494.5 628.4C497.4 638.1 500.2 647.9 502.5 658.1C502.8 659.4 503.1 660.6 503.3 661.9C503.5 663.2 503.8 664.5 504 665.9C504.5 668.7 504.8 671.5 504.7 674.3C504.6 679.4 504.5 684.5 504.3 689.6C503.9 699.8 503.3 710 502.1 720.3C499.5 710.3 497.6 700.3 495.8 690.3C494.9 685.3 494.1 680.3 493.4 675.3L493.1 673.4L493 672.9L492.9 672.5L492.7 671.8C492.5 670.9 492.1 669.7 491.8 668.6C491.5 667.5 491 666.3 490.6 665.2C490.2 664.1 489.8 662.9 489.4 661.7L478.9 633.5L473.7 619.2L468.7 604.8C467.1 600 465.5 595.1 464 590.3C462.5 585.4 461 580.6 459.7 575.6C459 573.1 458.3 570.7 457.7 568.1C457.1 565.5 456.4 562.9 456 560.3C455 555.1 454.3 549.9 453.8 544.6C452.9 534.2 452.9 523.8 453.6 513.5C454 508.3 454.5 503.2 455.3 498.1C456.3 493.2 457.3 488.2 458.6 483.2Z" fill="#646464"/>
<path d="M705.2 521.8C707.7 534.6 709.4 547.5 710.3 560.5C711.3 573.4 711.7 586.3 711.7 599.2L711.6 608.9L711.4 618.5C711.3 624.8 711.3 631.1 711.4 637.4C711.7 650.1 712.3 662.9 712.6 676.1C707 664.1 703.6 651.4 701.2 638.4C700.1 631.9 699.3 625.3 699 618.7C698.8 615.3 698.8 612.2 698.7 608.9L698.6 599.2C698.6 586.3 699.1 573.4 700 560.5C701 547.5 702.7 534.6 705.2 521.8Z" fill="#646464"/>
<path d="M465 725.7C471 732.3 476.6 739.4 481.5 746.9C486.4 754.1 490.8 761.4 495.1 768.7C499.4 776 503.5 783.4 507.4 791C511.4 798.6 515.4 806.1 519 814.9C514.7 813.1 510.6 810.8 506.8 808.1C503.1 805.4 499.6 802.4 496.4 799.1C490.1 792.6 484.6 785.3 480.1 777.4C475.6 769.6 472 761.3 469.3 752.7C467.9 748.4 466.9 744 466.1 739.5C465.2 734.9 464.9 730.3 465 725.7Z" fill="#646464"/>
<path d="M690.5 813.3L704.8 787.9L706.5 784.8C707.1 783.8 707.7 782.8 708.2 781.7C709.3 779.6 710.4 777.6 711.5 775.6C712.5 773.5 713.6 771.5 714.8 769.5C715.8 767.4 716.9 765.4 717.9 763.3C722 755 726.1 746.8 729.9 738.2C732 734 733.8 729.6 735.9 725.2C737.1 723 737.9 720.8 739 718.5C740 716.3 741.2 714 742.6 711.7C743.1 714.2 743.5 716.7 743.8 719.3C744.1 721.8 744.3 724.4 744.3 726.9C744.3 732 743.9 737.1 743 742.1C739.5 762.4 730 781.1 715.7 795.9C712.1 799.6 708.3 802.9 704.1 805.9C699.9 809.1 695.3 811.5 690.5 813.3Z" fill="#646464"/>
<path d="M390.8 116.1C393.2 123.1 395.3 130.1 397.1 137.1C399 144.1 400.6 151.2 402.3 158.2C403.8 165.3 405.3 172.3 406.6 179.4C407.9 186.5 409.1 193.6 410.3 200.7L409 197.2C411 199.7 412.8 202.3 414.4 205C416 207.7 417.5 210.6 418.7 213.5C420 216.5 421 219.7 421.7 222.9C422.5 226.4 422.9 229.9 422.8 233.5C419.5 232.2 416.4 230.4 413.5 228.2C410.9 226.3 408.4 224.1 406.1 221.7C403.9 219.4 401.8 217 400 214.4C398.1 211.8 396.5 209.2 395 206.4L393.8 204.2L393.7 202.9C393 195.7 392.3 188.5 391.8 181.3C391.2 174.1 390.9 166.9 390.5 159.7C390.2 152.5 390 145.2 390.1 137.9C390.1 130.7 390.2 123.4 390.8 116.1Z" fill="#646464"/>
<path d="M747.3 215.9L756.5 190.9C759.6 182.6 762.7 174.3 765.9 166C766.7 163.9 767.5 161.8 768.4 159.8C768.8 158.8 769.3 157.7 769.8 156.6L770.3 155.5L770.8 154.7C770.9 154.6 770.9 154.5 771 154.4C771.1 154.2 771.2 154 771.3 153.8C772.1 152 772.8 149.9 773.5 147.8C774.2 145.7 774.9 143.6 775.6 141.5C778.3 133.1 780.8 124.6 783.3 116.1C782.3 124.9 781.1 133.7 779.9 142.5C779.6 144.7 779.2 146.9 778.9 149.1C778.5 151.3 778.2 153.5 777.5 155.9C777.4 156.2 777.4 156.5 777.2 156.8C777.1 157.2 776.9 157.6 776.7 158L776.6 158.3V158.4L776.5 158.6C776.5 158.8 776.4 158.9 776.4 159.1C776.1 160.1 775.9 161.1 775.6 162.2C775.1 164.3 774.6 166.4 774.2 168.6C772.4 177.2 770.7 185.9 769 194.5L764.1 220.5L747.3 215.9Z" fill="#646464"/>
<path d="M363.7 233.5C365.2 235.6 373.8 303.5 373.8 303.5L381.4 283.1L363.7 231.8V233.5V233.5Z" fill="#646464"/>
</svg>
