<svg width="1001" height="1001" viewBox="0 0 1001 1001" fill="none" xmlns="http://www.w3.org/2000/svg">
<path d="M500.1 1000.25C776.251 1000.25 1000.05 776.429 1000.05 500.25C1000.05 224.071 776.301 0.25 500.1 0.25C223.899 0.25 0.0500031 224.071 0.0500031 500.15C0.0500031 776.229 223.949 1000.25 500.1 1000.25Z" fill="#EEEEEF"/>
<path d="M540.264 400.13L553.552 383.144H571.336L578.13 372.652H592.517L598.911 393.335L619.692 384.642L633.68 355.266L641.273 347.972L651.464 367.656L663.153 367.256L672.944 347.972L686.133 350.57L690.629 367.956L705.016 373.951L712.209 390.937L697.522 407.224V421.913L680.138 432.504L669.847 444.644L695.624 453.737L714.907 494.105V523.581C714.907 523.581 695.624 566.247 695.624 568.945C695.624 571.643 665.751 616.007 665.751 616.007L644.27 624.5L615.996 631.994C615.996 631.994 581.227 610.512 581.227 609.013C581.227 607.514 547.258 574.64 547.258 574.64L527.276 530.476V490.508L538.266 467.826L561.645 444.444L565.841 418.365L563.543 405.476L540.264 400.13Z" fill="#F39469"/>
<path d="M680.538 439.199C686.732 443.696 692.926 447.493 698.422 452.189C716.805 467.776 723.899 487.86 721.601 511.741C718.703 541.018 706.015 565.998 688.331 588.779C679.439 600.17 669.947 611.262 660.456 622.153C656.484 626.557 652.102 630.572 647.367 634.143C637.177 642.037 625.887 643.336 614.097 638.24C598.978 631.556 585.095 622.368 573.034 611.062C552.153 591.877 535.268 569.795 524.578 543.316C520.857 534.295 518.532 524.76 517.684 515.038C516.385 500.75 520.282 487.76 527.076 475.47C533.47 463.879 541.463 453.588 550.255 443.895C556.349 437.201 559.247 429.307 561.045 420.714C561.445 418.915 560.945 418.016 559.247 417.217C552.653 414.019 546.059 410.722 539.564 407.425C534.769 405.027 533.57 401.529 535.968 396.733L545.559 377.549C547.957 372.652 551.254 371.553 556.249 373.951C558.747 375.15 561.245 376.449 564.042 377.748C564.242 376.449 564.442 375.55 564.542 374.551C564.601 373.317 565.078 372.14 565.896 371.214C566.713 370.287 567.821 369.667 569.038 369.455C577.53 367.656 585.923 365.858 594.515 364.359C595.343 364.247 596.184 364.301 596.991 364.518C597.797 364.734 598.553 365.109 599.213 365.621C599.873 366.132 600.425 366.77 600.836 367.497C601.248 368.224 601.51 369.025 601.609 369.855C602.408 374.651 602.808 379.447 603.407 384.243C603.607 385.542 603.607 386.841 603.807 388.64C604.806 387.84 605.505 387.341 606.105 386.841C610.8 382.844 615.396 378.748 620.092 374.851C620.782 374.382 621.333 373.735 621.684 372.978C622.036 372.222 622.177 371.384 622.09 370.554C621.89 364.359 621.99 358.064 621.99 351.869C621.99 346.373 624.388 343.875 629.783 343.875C636.178 343.875 642.472 343.975 648.866 344.075C653.462 344.175 655.96 346.673 656.06 351.27V360.262C661.455 359.763 661.455 359.763 662.754 355.066C663.653 351.769 664.452 348.472 665.451 345.174C666.75 340.878 670.047 338.879 674.243 340.178C680.438 342.177 686.632 344.275 692.827 346.473C696.423 347.772 697.922 350.67 697.123 354.367C696.623 356.865 695.924 359.263 695.424 361.062C699.72 363.66 703.917 365.958 707.713 368.656C711.978 371.633 715.167 375.909 716.805 380.846C717.889 384.434 717.805 388.274 716.566 391.812C715.327 395.349 712.997 398.402 709.911 400.53C709.337 400.967 708.737 401.367 708.113 401.729C709.112 406.126 710.71 410.122 710.81 414.219C711.11 420.714 708.313 426.11 702.518 429.207C697.023 432.205 691.228 434.503 685.633 437.101C683.935 437.9 682.136 438.65 680.538 439.199ZM583.925 528.927C583.725 529.127 583.425 529.227 583.225 529.427C584.724 532.125 586.322 534.723 587.821 537.421C594.415 549.211 598.611 561.701 598.012 575.39C597.512 585.682 600.31 594.875 605.605 603.468L607.104 606.166C602.308 604.567 600.61 600.57 598.711 596.673C596.813 592.776 594.815 588.879 592.717 584.683C589.619 590.278 586.622 595.274 583.925 600.47C583.765 600.99 583.727 601.54 583.813 602.077C583.9 602.614 584.109 603.124 584.424 603.568C590.197 610.742 597.548 616.487 605.905 620.354C623.389 628.348 640.274 624.851 652.863 610.362C659.457 602.768 665.951 594.975 672.345 587.281C674.043 585.282 675.542 583.184 677.041 581.186C670.684 574.944 665.98 567.217 663.353 558.704C660.656 550.21 660.356 541.517 661.455 532.624C650.465 550.31 646.368 570.294 641.173 590.078C640.274 588.18 639.375 586.182 639.475 584.283C639.974 577.289 640.174 570.194 641.673 563.4C645.169 547.512 652.363 532.924 659.656 518.436C661.555 514.639 663.553 510.942 665.751 506.645C655.66 508.843 646.768 511.741 641.073 520.434C637.476 525.93 633.78 531.325 629.783 536.521C626.986 540.118 624.188 540.918 619.892 540.318C624.788 537.62 626.586 533.024 628.784 528.827C629.983 526.629 631.282 524.431 632.281 522.133C637.776 509.943 647.767 503.847 660.256 500.85C662.354 500.35 664.452 499.951 666.95 499.351C666.718 497.462 666.351 495.592 665.851 493.756C662.254 484.263 655.26 477.269 648.466 469.975C652.272 471.1 655.954 472.606 659.457 474.471C668.049 479.667 676.541 490.858 673.944 504.347C672.245 512.84 670.846 521.333 669.248 529.827C667.549 538.72 666.75 547.612 669.647 556.405C671.801 563.569 675.638 570.113 680.837 575.49C681.151 575.275 681.451 575.041 681.737 574.791C694.925 556.305 704.816 536.321 707.613 513.44C708.912 503.048 708.912 492.756 704.616 482.864C698.521 468.875 687.831 459.483 674.743 452.389C671.845 450.79 670.147 451.489 669.847 454.887C669.614 457.683 669.681 460.497 670.047 463.28C670.347 465.878 670.946 468.376 671.546 471.873C665.251 466.577 661.555 460.782 659.956 453.688C657.259 441.997 661.455 433.803 672.545 429.507C678.14 427.309 683.835 425.21 689.33 422.712C692.028 421.396 694.465 419.602 696.523 417.417C697.422 416.417 697.622 414.119 697.223 412.72C696.823 411.721 694.825 410.722 693.626 410.822C689.43 411.222 685.133 411.521 681.237 413.02C655.96 423.012 640.973 441.897 634.779 468.076C633.979 471.573 633.38 475.07 632.781 478.568C628.684 477.968 625.487 474.471 625.787 470.874C626.586 460.582 628.285 450.49 632.581 440.998C638.475 427.808 648.766 418.616 660.556 410.922C673.244 402.728 687.032 396.433 700.819 390.338C704.216 388.839 704.716 387.74 703.517 384.343C701.818 379.247 694.025 374.651 688.73 375.75C681.936 377.049 678.24 373.052 680.038 366.357C680.837 363.36 681.537 360.362 682.336 357.265C680.338 356.665 678.639 356.066 676.741 355.466C675.642 359.463 674.543 363.16 673.644 366.957C672.845 370.354 670.647 371.953 667.349 372.552C662.254 373.552 657.059 374.451 651.963 375.65C646.568 376.949 642.772 374.151 642.672 368.556V357.714H635.578C635.578 363.71 635.478 369.505 635.578 375.3C635.678 378.598 634.379 380.896 631.781 382.994C624.288 389.289 617.095 395.784 609.701 402.179C605.605 405.676 603.807 409.873 603.707 415.568C603.607 426.959 601.009 437.95 594.315 447.542C591.518 451.539 586.123 455.936 582.626 456.835C595.614 431.855 593.516 405.776 589.12 379.197C585.523 379.897 582.126 380.596 578.43 381.395C578.629 383.694 578.829 385.792 579.029 387.89C579.528 395.084 574.533 398.382 568.139 395.184C563.843 393.086 559.546 390.888 555.051 388.69C553.452 391.887 552.053 394.785 550.555 397.782C557.948 401.779 564.942 405.676 572.035 409.573C573.279 410.135 574.294 411.105 574.911 412.323C575.529 413.54 575.713 414.932 575.432 416.268C573.734 430.256 569.338 442.946 559.746 453.738C552.892 461.65 546.551 469.994 540.763 478.718C530.972 493.206 528.474 508.993 532.97 525.98C536.867 540.668 543.561 553.957 551.953 566.447C559.453 577.602 568.128 587.92 577.83 597.223C581.127 591.627 584.124 586.232 587.321 580.836C591.318 574.241 591.917 567.247 590.119 559.853C586.722 546.363 579.528 534.973 571.536 523.881C571.436 523.781 571.236 523.881 571.036 523.881C567.14 539.069 562.044 543.566 556.05 543.965C556.249 543.466 556.349 542.966 556.549 542.566C561.245 537.071 562.644 530.276 564.242 523.482C566.24 514.889 568.039 506.196 570.537 497.702C572.588 490.538 577.167 484.361 583.425 480.316C585.263 479.265 587.165 478.331 589.12 477.519C589.066 477.849 589.033 478.183 589.02 478.518C588.421 479.217 587.821 479.917 587.321 480.616C581.745 487.131 577.624 494.762 575.232 502.998C573.734 508.494 574.833 513.49 579.029 517.387C582.179 520.177 585.517 522.748 589.02 525.08C606.504 537.371 616.895 554.057 619.992 575.24C620.292 577.239 619.692 579.337 619.393 581.435C613.298 559.703 602.608 541.717 583.925 528.927Z" fill="#E2815A"/>
<path d="M605.505 42.8159L606.904 48.7112C607.403 50.7096 607.703 52.708 608.303 54.6065L610.001 60.4018L610.401 61.8007C610.523 62.2818 610.69 62.7502 610.9 63.1996L611.899 65.9974L612.898 68.7951L613.398 70.194L613.997 71.5929L616.395 76.9886C616.795 77.8879 617.294 78.7871 617.694 79.5865L619.093 82.1844L620.492 84.7823L622.09 87.2803L623.689 89.7784L624.488 90.9774L625.387 92.1764L628.884 96.8727L632.681 101.269C632.986 101.66 633.32 102.027 633.68 102.368L634.679 103.367L636.777 105.366C642.404 110.669 648.526 115.421 655.061 119.555C661.655 123.751 668.548 127.448 675.542 131.045L680.937 133.643C681.836 134.043 682.736 134.543 683.635 134.942L686.332 136.141L691.628 138.539L697.023 140.638L699.72 141.737C700.63 142.13 701.565 142.463 702.518 142.736L708.113 144.634L710.91 145.634L713.708 146.533L719.403 148.331C723.199 149.431 726.996 150.53 730.892 151.629L742.482 154.726C750.275 156.825 758.068 158.823 765.961 161.021L771.855 162.62L777.75 164.319C781.647 165.418 785.643 166.717 789.639 168.016L792.637 168.915L795.634 169.914L801.529 172.013C802.528 172.312 803.527 172.712 804.526 173.112L807.423 174.311C809.422 175.11 811.32 175.909 813.318 176.709C821.275 180.107 828.958 184.116 836.297 188.699C838.096 189.898 840.094 190.997 841.792 192.196L846.988 195.893C850.385 198.491 853.782 200.989 857.079 203.687C863.673 209.083 869.967 214.778 875.962 220.774C881.93 226.791 887.566 233.129 892.846 239.758C898.175 246.353 903.171 253.148 907.833 260.142C912.529 267.136 916.825 274.331 920.921 281.725C925.018 289.119 928.814 296.613 932.211 304.207C935.608 311.801 938.805 319.594 941.603 327.488C944.4 335.382 947.098 343.275 949.296 351.269C951.494 359.263 953.592 367.356 955.39 375.45C957.189 383.543 958.687 391.737 959.886 399.93C960.186 402.029 960.486 404.027 960.685 406.125L961.485 412.32C961.684 414.419 961.984 416.417 962.284 418.515L962.883 424.71C963.683 432.904 964.082 441.097 964.582 449.391C965.708 482.052 964.372 514.752 960.585 547.212C958.787 563.399 956.689 579.487 954.191 595.474C951.694 611.461 948.896 627.448 945.899 643.335C946.198 627.148 946.698 610.961 947.297 594.774C947.897 578.587 948.197 562.5 948.396 546.413C948.796 514.239 948.097 482.264 945 450.69C944.1 442.796 943.301 434.902 942.102 427.108L941.303 421.213C941.003 419.215 940.703 417.316 940.304 415.418L939.305 409.622C939.005 407.724 938.605 405.726 938.306 403.827C936.807 396.133 935.108 388.439 933.21 380.845C931.312 373.252 929.214 365.658 926.816 358.264C924.418 350.869 921.92 343.475 919.123 336.181C916.325 328.887 913.228 321.793 909.931 314.698C906.634 307.604 903.137 300.71 899.341 293.915C895.544 287.12 891.548 280.526 887.251 274.131C882.955 267.736 878.459 261.441 873.664 255.446C868.868 249.451 863.773 243.655 858.477 238.16C853.187 232.618 847.618 227.348 841.792 222.372C838.895 219.874 835.898 217.476 832.9 215.178L828.305 211.781C826.806 210.682 825.207 209.682 823.709 208.683C817.443 204.571 810.9 200.898 804.126 197.692C802.428 196.893 800.629 196.093 798.831 195.394C797.033 194.694 795.334 193.795 793.536 193.096L788.141 190.897L785.443 189.798L782.646 188.799C778.949 187.4 775.252 186.101 771.556 184.802L765.961 182.904L760.266 181.005C752.673 178.507 744.98 176.009 737.286 173.511C733.39 172.212 729.593 170.913 725.697 169.614C721.8 168.316 718.004 166.917 714.107 165.418C706.414 162.52 698.621 159.423 691.128 155.825L685.433 153.128L679.838 150.13L677.041 148.631C676.142 148.132 675.242 147.632 674.343 147.033L669.048 143.835C662.054 139.439 655.06 134.842 648.466 129.746C641.8 124.546 635.675 118.688 630.183 112.26L628.185 109.762L627.186 108.563C626.886 108.164 626.586 107.664 626.286 107.264L622.69 102.069L619.492 96.5729C619.193 96.0733 618.993 95.6736 618.693 95.174L617.994 93.7752L616.695 90.8775L615.396 88.0797L614.297 85.182C613.598 83.1836 612.799 81.2851 612.199 79.2867L610.501 73.2915L610.101 71.7927L609.801 70.2939L609.202 67.2963C606.504 59.003 605.805 50.9594 605.505 42.8159Z" fill="#646464"/>
<path d="M413.628 42.8159C415.451 46.5368 416.826 50.4612 417.724 54.5066C418.562 58.6516 418.997 62.8678 419.023 67.0965C418.953 71.3608 418.484 75.6091 417.624 79.7863C417.424 80.8855 417.125 81.8847 416.925 82.8839C416.725 83.8831 416.425 84.9822 416.026 85.9814L415.027 89.0789L413.928 92.0765C412.374 96.1001 410.468 99.9787 408.233 103.667L407.433 105.066L406.534 106.465L404.736 109.163C403.437 110.861 402.238 112.66 400.839 114.259C399.441 115.857 398.042 117.556 396.643 119.155C395.244 120.754 393.646 122.252 392.047 123.751C390.449 125.25 388.85 126.649 387.252 128.148C385.653 129.646 383.955 130.945 382.256 132.244C375.528 137.452 368.451 142.192 361.075 146.433C353.782 150.73 346.388 154.527 338.895 158.224C331.402 161.921 323.809 165.418 316.215 168.715C308.622 172.013 301.029 175.31 293.336 178.407L247.777 196.843C232.691 203.038 217.904 209.333 203.617 216.427C196.523 220.024 189.43 223.621 182.536 227.518C175.642 231.415 169.048 235.612 162.554 240.008C136.773 257.455 115.091 280.298 99.0109 306.955C90.8432 320.344 83.8564 334.419 78.1297 349.021C72.3841 363.762 67.6768 378.887 64.0424 394.285C63.0433 398.082 62.3439 402.078 61.5447 405.975C60.7454 409.872 60.1459 413.769 59.3466 417.766C58.5473 421.763 58.0478 425.66 57.5483 429.556C57.2485 431.555 56.9488 433.553 56.749 435.452L56.1495 441.447C52.6527 473.321 52.6527 505.796 54.0514 538.469C54.7508 554.756 55.8498 571.143 57.0487 587.43C58.2476 603.717 59.5464 620.204 60.6455 636.591C56.8489 620.604 53.352 604.517 50.1549 588.329C46.9578 572.142 44.1603 555.955 41.8624 539.568C37.2665 506.795 34.9686 473.521 36.667 439.948L36.9668 433.653C37.0667 431.555 37.2665 429.457 37.4663 427.358C37.866 423.162 38.1657 418.965 38.7652 414.768C39.3646 410.572 39.7643 406.375 40.4636 402.178C41.163 397.982 41.7625 393.785 42.6616 389.688C45.8195 372.996 50.3304 356.588 56.1495 340.628C61.9888 324.496 69.3137 308.941 78.0298 294.165C86.9063 279.297 97.3572 265.428 109.202 252.798C121.158 240.241 134.498 229.079 148.966 219.525C163.186 210.174 178.118 201.955 193.626 194.944C208.912 187.95 224.498 181.855 240.084 176.259C247.877 173.461 255.67 170.664 263.463 168.066L286.742 160.072C294.435 157.374 302.128 154.776 309.721 151.979C317.314 149.181 324.908 146.283 332.401 143.286C339.894 140.288 347.287 137.09 354.581 133.693C361.78 130.352 368.755 126.547 375.462 122.302C388.65 113.809 400.54 103.118 407.933 89.2288C409.794 85.7539 411.396 82.1471 412.729 78.4374C413.998 74.6903 414.967 70.8478 415.626 66.9466C416.226 62.9799 416.427 58.963 416.225 54.9562C416.026 52.9578 415.826 50.9594 415.426 48.961C414.777 46.7128 414.077 44.8143 413.628 42.8159Z" fill="#646464"/>
<path d="M540.264 255.846C544.06 253.747 547.957 251.849 551.853 250.15C555.75 248.451 559.646 246.753 563.643 245.254C571.536 242.157 579.429 239.459 587.421 237.061C603.345 232.217 619.521 228.248 635.878 225.17C652.221 222.015 668.734 219.813 685.333 218.575C693.626 217.976 702.018 217.576 710.511 217.576C714.707 217.576 719.003 217.676 723.299 217.876C727.595 218.076 731.891 218.376 736.187 218.975C732.391 221.073 728.494 222.972 724.598 224.671C720.701 226.369 716.805 228.068 712.809 229.567C704.916 232.664 697.023 235.362 689.03 237.76C673.087 242.629 656.874 246.566 640.474 249.551C624.113 252.601 607.606 254.803 591.018 256.145C582.726 256.745 574.333 257.145 565.841 257.145C561.645 257.145 557.348 257.045 553.152 256.845C548.841 256.753 544.538 256.419 540.264 255.846Z" fill="#646464"/>
<path d="M471.725 255.945C467.86 256.047 463.991 255.947 460.136 255.646C456.339 255.446 452.543 255.046 448.846 254.646C441.353 253.747 434.059 252.548 426.766 251.049C412.179 248.152 398.092 244.055 384.404 239.958C370.716 235.861 357.229 231.565 343.541 227.568C336.747 225.57 329.853 223.671 322.859 221.773C319.363 220.873 315.766 219.874 312.169 218.975C308.572 218.076 304.876 217.276 301.079 216.077C304.592 214.418 308.234 213.048 311.969 211.981C312.868 211.681 313.868 211.481 314.767 211.181C315.687 210.901 316.621 210.668 317.564 210.482C319.462 210.082 321.361 209.782 323.259 209.383C330.926 208.204 338.688 207.769 346.438 208.084C354.121 208.345 361.772 209.214 369.318 210.682C376.772 212.067 384.144 213.868 391.398 216.077C398.591 218.276 405.685 220.774 412.579 223.471C419.472 226.169 426.266 229.267 432.86 232.464C439.454 235.662 446.148 239.259 452.543 243.056C455.74 244.954 458.937 246.953 462.134 249.151C465.488 251.185 468.693 253.456 471.725 255.945Z" fill="#646464"/>
<path d="M505.995 280.026C507.464 283.118 508.764 286.287 509.891 289.519C511.09 292.716 512.089 295.914 512.988 299.111C514.887 305.506 516.385 311.901 517.684 318.296C522.508 343.81 523.819 369.864 521.581 395.734C520.981 402.229 520.082 408.723 518.883 415.318C518.284 418.615 517.584 421.813 516.685 425.11C515.87 428.461 514.869 431.763 513.688 435.002C512.187 431.912 510.853 428.743 509.691 425.51C508.492 422.313 507.493 419.115 506.594 415.918C504.696 409.523 503.197 403.128 501.898 396.733C499.476 383.998 497.94 371.111 497.302 358.164C496.621 345.205 496.888 332.214 498.102 319.295C498.701 312.8 499.6 306.305 500.799 299.711C501.399 296.413 502.098 293.216 502.997 289.918C503.897 286.621 504.796 283.324 505.995 280.026Z" fill="#646464"/>
<path d="M185.183 372.702C186.382 375.5 187.581 378.198 188.78 380.996L192.277 389.289C194.575 394.884 196.773 400.38 198.971 405.976C201.169 411.571 203.367 417.167 205.565 422.662L211.959 439.449C220.352 461.831 228.345 484.413 236.138 506.995C240.034 518.286 243.731 529.677 247.527 540.968L253.022 557.954C254.821 563.649 256.719 569.345 258.517 575.04C262.114 586.431 265.711 597.822 269.208 609.213L274.403 626.299C275.302 629.197 276.102 631.995 277.001 634.892L279.499 643.585C281.197 649.381 282.796 655.176 284.294 661.071C285.793 666.967 287.292 672.762 288.69 678.657C290.089 684.553 291.488 690.348 292.787 696.243C294.085 702.139 295.284 708.034 296.483 713.929C301.279 737.51 305.175 761.291 308.373 785.172C311.57 809.053 313.668 833.034 314.667 857.115C315.166 869.105 315.466 881.195 315.266 893.186C315.066 905.176 314.567 917.266 313.468 929.157C307.673 881.495 299.381 834.832 289.589 788.37C279.798 741.907 268.708 695.844 255.62 650.58L250.525 633.593L245.429 616.407C242.032 605.016 238.735 593.426 235.438 582.035C233.74 576.339 232.241 570.544 230.643 564.749L225.847 547.462C222.75 535.872 219.652 524.381 216.655 512.79C210.66 489.709 204.966 466.427 199.57 443.146L195.674 425.66C194.375 419.764 193.176 413.969 191.877 408.074C190.579 402.179 189.48 396.283 188.281 390.488L186.582 381.595C186.183 378.547 185.683 375.7 185.183 372.702Z" fill="#646464"/>
<path d="M817.914 373.352C815.416 384.543 812.619 395.634 809.821 406.625C808.422 412.121 806.924 417.616 805.425 423.112L800.829 439.599C794.635 461.481 788.041 483.264 781.647 504.846C778.549 515.738 775.352 526.529 772.455 537.32C770.956 542.716 769.557 548.112 768.159 553.507L766.161 561.601L764.262 569.794C761.765 580.686 759.467 591.577 757.368 602.568C755.27 613.559 753.372 624.551 751.574 635.642C744.48 679.906 739.784 724.571 736.687 769.535C736.287 775.13 735.888 780.826 735.588 786.421L734.589 803.308C734.089 814.599 733.49 825.889 733.09 837.18C732.691 848.471 732.391 859.862 732.091 871.153L731.492 905.326C726.692 882.965 723.189 860.346 721.001 837.58C719.902 826.189 719.003 814.798 718.404 803.308L718.004 794.714C717.904 791.817 717.804 789.019 717.704 786.121C717.504 780.426 717.404 774.631 717.305 768.935C716.738 722.983 719.979 677.062 726.996 631.645C730.547 608.84 735.249 586.229 741.083 563.899C743.98 552.708 747.377 541.617 750.974 530.726C754.571 519.834 758.467 509.043 762.664 498.352C770.856 476.969 779.748 455.985 788.94 435.202L795.934 419.615C798.332 414.419 800.629 409.223 803.127 404.127C807.723 393.835 812.719 383.543 817.914 373.352Z" fill="#646464"/>
<path d="M770.756 513.339C772.382 516.256 773.849 519.258 775.152 522.332C776.451 525.33 777.55 528.427 778.649 531.425C780.747 537.52 782.646 543.615 784.144 549.71C787.341 561.901 789.539 573.991 791.538 586.081C793.536 598.171 795.035 610.162 796.533 622.152C796.733 623.651 796.833 625.15 797.033 626.649C797.233 628.148 797.432 629.646 797.532 631.245C797.632 632.044 797.632 632.744 797.732 633.543C797.832 634.343 797.932 635.042 798.032 635.841L798.531 640.438C798.631 642.036 798.931 643.535 799.131 645.134C799.331 646.733 799.53 648.231 799.63 649.93C800.03 653.128 800.53 656.325 800.729 659.822C799.431 658.823 798.132 657.624 796.933 656.525C795.734 655.426 794.435 654.227 793.336 652.928C791.101 650.434 789.032 647.798 787.142 645.034L784.444 640.837C783.537 639.45 782.704 638.015 781.946 636.541C781.147 635.042 780.448 633.643 779.648 632.144C778.849 630.646 778.15 629.147 777.55 627.648C772.398 615.667 768.805 603.074 766.86 590.178C764.881 577.524 764.145 564.706 764.662 551.908C764.962 545.514 765.561 539.119 766.46 532.724C766.96 529.526 767.459 526.329 768.159 523.132C768.858 519.934 769.757 516.637 770.756 513.339Z" fill="#646464"/>
<path d="M236.437 534.323C237.804 537.046 239.005 539.848 240.034 542.716C241.033 545.514 241.932 548.312 242.732 551.109C244.332 556.713 245.534 562.423 246.328 568.196C247.928 579.649 248.229 591.247 247.228 602.768C246.26 614.575 243.497 626.166 239.035 637.141C236.744 642.817 233.757 648.187 230.143 653.128C229.144 654.327 228.245 655.626 227.246 656.725L225.647 658.423C225.13 659.007 224.562 659.542 223.948 660.022C221.697 662.185 219.138 664.003 216.355 665.418C216.955 662.32 217.454 659.523 217.854 656.725L218.154 654.627L218.354 652.528C218.553 651.129 218.653 649.83 218.753 648.431C219.253 643.036 219.652 637.64 219.952 632.344C220.651 621.653 221.351 611.061 222.35 600.27C223.349 589.479 224.648 578.687 226.746 567.696C227.745 562.2 229.044 556.705 230.543 551.109C231.342 548.312 232.141 545.514 233.14 542.716C234.139 539.918 235.138 537.22 236.437 534.323Z" fill="#646464"/>
<path d="M278.799 498.601C283.195 498.601 287.591 498.801 291.887 499.101C296.183 499.401 300.48 499.8 304.676 500.2C313.068 501.099 321.461 502.099 329.553 503.098C345.939 505.096 361.725 506.795 377.41 506.995C392.875 507.179 408.305 505.501 423.369 501.999C431.052 500.154 438.571 497.681 445.849 494.605L451.344 492.107C453.142 491.207 454.941 490.208 456.839 489.309C458.737 488.409 460.436 487.21 462.334 486.211C464.232 485.212 465.931 483.913 467.929 482.814C467.13 484.812 466.131 486.811 465.131 488.809C464.132 490.808 462.834 492.606 461.535 494.505C460.236 496.403 458.837 498.102 457.338 499.8C455.84 501.499 454.241 503.098 452.643 504.696C446.009 511.034 438.424 516.294 430.163 520.284C421.947 524.327 413.252 527.315 404.286 529.177C395.354 531.068 386.241 531.972 377.111 531.875C359.335 531.538 341.741 528.229 325.058 522.083C316.886 519.168 308.91 515.73 301.179 511.791L295.484 508.793C293.586 507.694 291.688 506.695 289.889 505.596C286.041 503.513 282.336 501.177 278.799 498.601Z" fill="#646464"/>
<path d="M533.37 482.364C535.468 483.064 537.566 483.963 539.564 484.762C541.563 485.562 543.661 486.261 545.659 487.061C547.657 487.86 549.655 488.559 551.654 489.259L557.648 491.357C565.641 494.055 573.534 496.453 581.427 498.451C597.023 502.504 612.931 505.245 628.984 506.645C645.039 508.044 661.185 508.044 677.241 506.645C685.333 505.945 693.526 505.046 701.818 503.647C703.917 503.347 705.915 502.948 708.113 502.648L714.407 501.449C716.505 500.949 718.603 500.55 720.801 500.15C722.999 499.75 725.097 499.251 727.395 498.851C725.797 500.45 724.198 501.949 722.5 503.547C720.801 504.946 719.003 506.445 717.304 507.744C715.606 509.043 713.608 510.342 711.809 511.641C710.011 512.94 708.013 513.939 706.015 515.138C698.121 519.637 689.741 523.224 681.037 525.829C645.597 536.469 607.432 533.181 574.333 516.637C566.234 512.535 558.597 507.577 551.554 501.849C549.855 500.35 548.157 498.951 546.458 497.352C544.76 495.754 543.261 494.255 541.663 492.556C540.064 490.857 538.665 489.159 537.267 487.46C535.879 485.831 534.579 484.13 533.37 482.364Z" fill="#646464"/>
<path d="M479.319 606.065C479.485 608.895 479.451 611.733 479.219 614.558C478.819 617.256 478.32 620.054 477.72 622.752C476.921 625.449 476.022 628.047 475.122 630.645C474.023 633.143 472.825 635.741 471.526 638.139C466.064 647.939 458.57 656.456 449.546 663.119C440.606 669.869 430.314 674.607 419.373 677.008C416.575 677.508 413.878 677.907 411.08 678.307C408.288 678.523 405.487 678.59 402.688 678.507C399.89 678.307 397.093 678.007 394.395 677.608C391.628 677.067 388.918 676.264 386.302 675.21C388.7 673.511 390.998 672.012 393.196 670.713C395.394 669.214 397.592 667.915 399.69 666.617C401.788 665.318 403.887 663.919 405.985 662.62C408.083 661.321 409.981 659.922 411.979 658.723C419.872 653.527 427.365 648.431 434.559 643.035C441.753 637.64 448.946 631.944 456.14 625.949C457.838 624.35 459.736 622.852 461.635 621.253C463.533 619.654 465.231 618.055 467.23 616.357C469.028 614.658 470.926 612.959 473.024 611.261C474.923 609.562 477.021 607.764 479.319 606.065Z" fill="#646464"/>
<path d="M528.674 598.372C531.083 599.71 533.418 601.178 535.668 602.768C537.966 604.167 540.064 605.666 542.162 607.165C544.26 608.663 546.358 609.962 548.356 611.461C550.355 612.96 552.453 614.259 554.351 615.658C562.244 621.253 569.837 626.549 577.43 631.845C585.024 637.141 592.816 642.336 600.809 647.732C602.807 649.031 604.806 650.43 606.904 651.829C609.002 653.228 611 654.527 613.098 656.125C615.196 657.524 617.294 659.023 619.492 660.622C621.785 662.159 623.987 663.827 626.087 665.618C623.37 666.418 620.598 667.019 617.794 667.416C615.096 667.716 612.299 667.816 609.501 667.916C606.804 667.816 604.006 667.616 601.309 667.416C598.611 667.017 595.914 666.517 593.216 665.918C571.656 660.684 552.795 647.657 540.264 629.347C538.765 627.049 537.366 624.651 536.068 622.253C534.769 619.854 533.67 617.256 532.671 614.758C531.672 612.26 530.872 609.563 530.173 606.865C529.392 604.091 528.89 601.245 528.674 598.372Z" fill="#646464"/>
<path d="M489.909 851.369C491.408 851.569 492.806 851.669 493.906 851.769C494.939 851.79 495.973 851.757 497.003 851.669C498.457 851.489 499.894 851.188 501.299 850.77C503.497 850.07 504.396 849.371 504.896 849.371C505.395 849.371 506.194 850.17 508.293 851.169C509.631 851.801 511.039 852.271 512.489 852.568C513.508 852.807 514.543 852.974 515.586 853.068C516.913 853.206 518.25 853.24 519.582 853.168C519.955 853.813 520.289 854.48 520.582 855.166C520.795 855.82 520.962 856.487 521.081 857.164C521.181 857.864 521.181 858.463 521.281 859.163C521.381 859.862 521.181 860.462 521.181 861.161C520.807 863.751 519.697 866.178 517.984 868.156C516.175 870.182 513.931 871.772 511.42 872.807C508.909 873.843 506.196 874.295 503.485 874.132C500.774 873.968 498.135 873.193 495.767 871.864C493.398 870.535 491.361 868.686 489.809 866.457C488.363 864.251 487.535 861.698 487.411 859.063C487.395 858.395 487.428 857.727 487.511 857.064C487.596 856.39 487.73 855.722 487.911 855.066C488.116 854.409 488.384 853.774 488.71 853.168C489.075 852.545 489.475 851.945 489.909 851.369Z" fill="#646464"/>
<path d="M669.747 464.878C671.246 465.078 672.645 465.178 673.744 465.278C674.777 465.3 675.811 465.266 676.841 465.178C678.295 464.998 679.732 464.698 681.137 464.279C683.335 463.579 684.234 462.88 684.734 462.88C685.233 462.88 686.033 463.679 688.131 464.678C689.469 465.31 690.877 465.78 692.327 466.077C693.346 466.316 694.381 466.483 695.424 466.577C696.752 466.716 698.088 466.749 699.421 466.677C699.793 467.322 700.127 467.99 700.42 468.675C700.633 469.329 700.8 469.997 700.919 470.674C701.019 471.373 701.019 471.973 701.119 472.672C701.219 473.371 701.019 473.971 701.019 474.67C700.645 477.26 699.535 479.687 697.822 481.665C696.013 483.691 693.769 485.282 691.258 486.317C688.747 487.352 686.034 487.805 683.323 487.641C680.612 487.478 677.973 486.702 675.605 485.373C673.236 484.044 671.199 482.195 669.647 479.966C668.201 477.76 667.373 475.207 667.249 472.572C667.233 471.904 667.266 471.236 667.349 470.574C667.434 469.899 667.568 469.231 667.749 468.575C667.955 467.919 668.222 467.283 668.548 466.677C668.913 466.055 669.313 465.454 669.747 464.878Z" fill="#646464"/>
<path d="M316.865 464.878C318.364 465.078 319.762 465.178 320.861 465.278C321.895 465.3 322.929 465.266 323.958 465.178C325.413 464.998 326.85 464.698 328.255 464.279C330.453 463.579 331.352 462.88 331.851 462.88C332.351 462.88 333.15 463.679 335.248 464.678C336.586 465.31 337.995 465.78 339.445 466.077C340.464 466.316 341.499 466.483 342.542 466.577C343.869 466.716 345.205 466.749 346.538 466.677C346.911 467.322 347.244 467.99 347.537 468.675C347.751 469.329 347.918 469.997 348.037 470.674C348.137 471.373 348.137 471.973 348.237 472.672C348.337 473.371 348.137 473.971 348.137 474.67C347.762 477.26 346.653 479.687 344.94 481.665C343.131 483.691 340.887 485.282 338.376 486.317C335.865 487.352 333.152 487.805 330.441 487.641C327.73 487.478 325.091 486.702 322.722 485.373C320.354 484.044 318.317 482.195 316.765 479.966C315.319 477.76 314.491 475.207 314.367 472.572C314.351 471.904 314.384 471.236 314.467 470.574C314.552 469.899 314.686 469.231 314.867 468.575C315.072 467.919 315.34 467.283 315.666 466.677C316.031 466.055 316.431 465.454 316.865 464.878Z" fill="#646464"/>
</svg>
