<svg width="1001" height="1001" viewBox="0 0 1001 1001" fill="none" xmlns="http://www.w3.org/2000/svg">
<path d="M500.1 1000.3C776.279 1000.3 1000.1 776.479 1000.1 500.3C1000.1 224.121 776.279 0.299805 500.1 0.299805C223.921 0.299805 0.100098 224.121 0.100098 500.3C0.100098 776.479 223.921 1000.3 500.1 1000.3Z" fill="#EEEEEF"/>
<path d="M231.914 410.572C231.914 410.572 216.427 463.829 218.225 484.013C219.924 503.298 227.018 578.038 272.882 684.053C277.378 694.345 290.168 698.541 301.259 700.54C418.565 721.323 497.202 572.442 500.5 561.951C503.997 550.96 506.095 448.741 506.095 448.741L502.198 301.459L444.644 275.58L400.879 264.988C400.979 264.988 274.78 324.541 231.914 410.572Z" fill="#F2956A" stroke="#E2815A" stroke-width="9" stroke-miterlimit="10"/>
<path d="M227.019 550.26C230.316 545.863 233.813 541.767 237.41 537.67C241.007 533.573 244.704 529.577 248.501 525.78C256.095 517.986 263.989 510.592 272.182 503.497C288.676 489.178 306.473 476.433 325.34 465.428L332.534 461.331L339.928 457.634C342.426 456.435 344.824 455.136 347.322 454.037C349.82 452.938 352.418 451.839 355.016 450.84L358.813 449.241L360.712 448.441L362.71 447.742C365.308 446.843 368.006 445.943 370.604 445.144L374.6 443.845C375.899 443.445 377.198 443.146 378.497 442.746L386.291 440.648C407.074 435.152 428.058 430.056 449.441 426.459C429.956 436.151 410.072 444.345 389.988 452.138L382.494 455.036L378.697 456.435L375.1 457.934L367.906 460.931L366.107 461.631L364.309 462.43L360.812 464.129C358.513 465.228 356.115 466.327 353.717 467.426C351.319 468.525 349.121 469.924 346.723 471.123L339.728 474.72L332.934 478.717C314.748 489.209 296.963 500.899 279.477 512.99C270.784 519.085 261.991 525.28 253.298 531.475L227.019 550.26Z" fill="#E2815A"/>
<path d="M220.324 531.875C222.222 526.779 224.321 521.783 226.619 516.787C228.917 511.791 231.215 506.995 233.713 502.199C238.709 492.506 244.205 483.214 250 473.921C261.677 455.453 275.022 438.095 289.868 422.063L295.564 416.067L301.559 410.372C303.557 408.474 305.556 406.575 307.654 404.777C309.752 402.978 311.85 401.179 314.049 399.481L317.246 396.883L318.845 395.584L320.544 394.385C322.842 392.786 325.14 391.187 327.338 389.589L330.735 387.191C331.835 386.391 333.034 385.692 334.133 384.992L341.027 380.696C359.313 369.405 377.898 358.514 397.382 348.821C381.595 363.709 364.808 377.298 347.922 390.588L341.527 395.484L338.329 397.882L335.332 400.38C333.333 401.979 331.335 403.677 329.337 405.276L327.838 406.475L326.439 407.774L323.541 410.372C321.643 412.171 319.644 413.869 317.746 415.568C315.847 417.267 314.049 419.265 312.15 421.063L306.555 426.559L301.159 432.354C286.771 447.642 273.181 463.929 259.892 480.616C253.297 489.009 246.703 497.402 240.208 505.896L220.324 531.875Z" fill="#E2815A"/>
<path d="M605.516 73.5415L606.915 79.4368C607.414 81.4352 607.714 83.4336 608.313 85.3321L610.012 91.1274L610.412 92.5263C610.534 93.0074 610.701 93.4758 610.911 93.9252L611.911 96.723L612.91 99.5207L613.409 100.92L614.009 102.318L616.407 107.714C616.807 108.613 617.306 109.513 617.706 110.312L619.105 112.91L620.504 115.508L622.102 118.006L623.701 120.504L624.5 121.703L625.4 122.902L628.897 127.598L632.694 131.995C632.999 132.385 633.333 132.753 633.693 133.094L634.692 134.093L636.791 136.091C642.418 141.395 648.541 146.146 655.076 150.28C661.671 154.477 668.565 158.174 675.56 161.771L680.955 164.369C681.855 164.769 682.754 165.268 683.653 165.668L686.351 166.867L691.647 169.265L697.042 171.363L699.74 172.462C700.65 172.855 701.585 173.189 702.538 173.462L708.134 175.36L710.931 176.359L713.729 177.259L719.424 179.057C723.221 180.156 727.018 181.255 730.915 182.354L742.506 185.452C750.3 187.55 758.094 189.549 765.987 191.747L771.883 193.346L777.778 195.044C781.675 196.143 785.671 197.442 789.668 198.741L792.666 199.641L795.663 200.64L801.559 202.738C802.558 203.038 803.557 203.438 804.556 203.837L807.454 205.036C809.452 205.836 811.351 206.635 813.349 207.434C821.307 210.833 828.991 214.842 836.331 219.425C838.13 220.624 840.128 221.723 841.827 222.922L847.022 226.619C850.42 229.217 853.817 231.715 857.114 234.413C863.709 239.808 870.004 245.504 875.999 251.499C881.968 257.517 887.605 263.854 892.886 270.484C898.181 277.079 903.177 283.873 907.874 290.868C912.57 297.862 916.867 305.056 920.963 312.45C925.06 319.844 928.857 327.338 932.254 334.932C935.651 342.526 938.849 350.32 941.647 358.214C944.444 366.107 947.142 374.001 949.341 381.995C951.539 389.988 953.637 398.082 955.436 406.175C957.234 414.269 958.733 422.462 959.932 430.656C960.232 432.754 960.532 434.753 960.731 436.851L961.531 443.046C961.731 445.144 962.03 447.143 962.33 449.241L962.93 455.436C963.729 463.629 964.129 471.823 964.628 480.116C965.754 512.778 964.418 545.477 960.632 577.938C958.833 594.125 956.735 610.212 954.237 626.199C951.739 642.187 948.941 658.174 945.943 674.061C946.243 657.874 946.743 641.687 947.342 625.5C947.942 609.313 948.241 593.226 948.441 577.139C948.841 544.964 948.142 512.99 945.044 481.415C944.145 473.521 943.345 465.628 942.146 457.834L941.347 451.939C941.047 449.94 940.747 448.042 940.348 446.143L939.349 440.348C939.049 438.45 938.649 436.451 938.349 434.553C936.851 426.859 935.152 419.165 933.253 411.571C931.355 403.977 929.257 396.383 926.859 388.989C924.46 381.595 921.962 374.201 919.165 366.907C916.367 359.613 913.269 352.518 909.972 345.424C906.675 338.33 903.177 331.435 899.38 324.641C895.584 317.846 891.587 311.251 887.29 304.856C882.994 298.462 878.497 292.167 873.701 286.171C868.905 280.176 863.809 274.381 858.513 268.885C853.222 263.343 847.653 258.074 841.827 253.098C838.929 250.6 835.931 248.202 832.934 245.904L828.337 242.506C826.839 241.407 825.24 240.408 823.741 239.409C817.475 235.296 810.931 231.624 804.157 228.418C802.458 227.618 800.66 226.819 798.861 226.119C797.062 225.42 795.364 224.521 793.565 223.821L788.169 221.623L785.472 220.524L782.674 219.525C778.977 218.126 775.28 216.827 771.583 215.528L765.987 213.629L760.292 211.731C752.698 209.233 745.004 206.735 737.31 204.237C733.413 202.938 729.616 201.639 725.719 200.34C721.823 199.041 718.026 197.642 714.129 196.143C706.435 193.246 698.641 190.148 691.147 186.551L685.452 183.853L679.856 180.856L677.058 179.357C676.159 178.857 675.26 178.358 674.361 177.758L669.065 174.561C662.07 170.164 655.076 165.568 648.481 160.472C641.814 155.272 635.688 149.414 630.196 142.986L628.197 140.488L627.198 139.289C626.899 138.889 626.599 138.39 626.299 137.99L622.702 132.794L619.504 127.298C619.205 126.799 619.005 126.399 618.705 125.9L618.006 124.501L616.707 121.603L615.408 118.805L614.309 115.908C613.609 113.909 612.81 112.011 612.21 110.012L610.512 104.017L610.112 102.518L609.812 101.02L609.213 98.0219C606.615 89.8285 605.915 81.635 605.516 73.5415Z" fill="#646464"/>
<path d="M413.669 73.5415C415.493 77.2624 416.868 81.1868 417.766 85.2321C418.604 89.3771 419.039 93.5934 419.065 97.8221C418.994 102.086 418.526 106.335 417.666 110.512C417.466 111.611 417.166 112.61 416.967 113.609C416.767 114.609 416.467 115.708 416.067 116.707L415.068 119.804L413.969 122.802C412.415 126.826 410.509 130.704 408.273 134.393L407.474 135.792L406.575 137.191L404.776 139.888C403.477 141.587 402.278 143.386 400.879 144.984C399.481 146.583 398.082 148.282 396.683 149.88C395.284 151.479 393.685 152.978 392.086 154.477C390.488 155.976 388.889 157.374 387.29 158.873C385.692 160.372 383.993 161.671 382.294 162.97C375.565 168.177 368.488 172.918 361.111 177.159C353.817 181.455 346.423 185.252 338.929 188.949C331.435 192.646 323.841 196.143 316.247 199.441C308.653 202.738 301.059 206.035 293.365 209.133L247.802 227.518C232.714 233.713 217.926 240.008 203.637 247.103C196.543 250.7 189.449 254.297 182.554 258.194C175.66 262.091 169.065 266.287 162.57 270.684C136.786 288.131 115.103 310.974 99.0209 337.63C90.8523 351.02 83.8649 365.095 78.1376 379.697C72.3914 394.437 67.6836 409.562 64.0489 424.96C63.0497 428.757 62.3502 432.754 61.5509 436.651C60.7515 440.548 60.152 444.445 59.3526 448.442C58.5533 452.438 58.0537 456.335 57.5541 460.232C57.2543 462.23 56.9546 464.229 56.7547 466.127L56.1552 472.123C52.658 503.997 52.658 536.471 54.0569 569.145C54.7563 585.432 55.8554 601.819 57.0545 618.106C58.2535 634.393 59.5525 650.88 60.6516 667.266C56.8546 651.279 53.3574 635.192 50.16 619.005C46.9625 602.818 44.1648 586.631 41.8666 570.244C37.2703 537.47 34.9721 504.197 36.6708 470.624L36.9705 464.329C37.0705 462.23 37.2703 460.132 37.4701 458.034C37.8698 453.837 38.1696 449.641 38.7691 445.444C39.3686 441.247 39.7683 437.051 40.4677 432.854C41.1672 428.657 41.7667 424.461 42.666 420.364C45.8242 403.672 50.3355 387.264 56.1552 371.303C61.9951 355.172 69.3207 339.617 78.0377 324.84C86.9151 309.973 97.367 296.104 109.213 283.474C121.17 270.917 134.511 259.755 148.981 250.2C163.202 240.85 178.136 232.631 193.645 225.62C208.933 218.625 224.52 212.53 240.108 206.935C247.902 204.137 255.696 201.339 263.489 198.741L286.771 190.748C294.465 188.05 302.158 185.452 309.752 182.654C317.346 179.856 324.94 176.959 332.434 173.961C339.928 170.964 347.322 167.766 354.616 164.369C361.795 161.048 368.739 157.243 375.4 152.978C388.589 144.485 400.48 133.793 407.874 119.904C409.735 116.43 411.338 112.823 412.67 109.113C413.94 105.366 414.909 101.523 415.568 97.6222C416.168 93.6556 416.369 89.6386 416.167 85.6318C415.967 83.6334 415.768 81.635 415.368 79.6366C414.768 77.5383 414.169 75.5399 413.669 73.5415Z" fill="#646464"/>
<path d="M540.368 286.571C544.165 284.473 548.062 282.574 551.958 280.876C555.855 279.177 559.752 277.478 563.749 275.98C571.643 272.882 579.536 270.184 587.53 267.786C603.455 262.943 619.633 258.973 635.991 255.896C652.336 252.74 668.851 250.538 685.452 249.301C693.745 248.701 702.138 248.302 710.631 248.302C714.828 248.302 719.125 248.402 723.421 248.602C727.718 248.801 732.014 249.101 736.311 249.701C732.514 251.799 728.617 253.697 724.72 255.396C720.823 257.095 716.926 258.793 712.93 260.292C705.036 263.39 697.142 266.088 689.149 268.486C673.204 273.355 656.99 277.291 640.587 280.276C624.226 283.327 607.717 285.528 591.127 286.871C582.834 287.47 574.44 287.87 565.947 287.87C561.751 287.87 557.454 287.77 553.257 287.57C548.945 287.486 544.641 287.152 540.368 286.571Z" fill="#646464"/>
<path d="M471.723 286.771C467.856 286.872 463.988 286.772 460.132 286.471C456.335 286.271 452.538 285.871 448.841 285.472C441.347 284.572 434.053 283.373 426.759 281.875C412.17 278.977 398.081 274.88 384.392 270.783C370.703 266.687 357.214 262.39 343.525 258.393C336.731 256.395 329.836 254.496 322.842 252.598C319.344 251.699 315.747 250.699 312.15 249.8C308.553 248.901 304.856 248.102 301.059 246.903C304.572 245.244 308.215 243.874 311.95 242.806C312.85 242.506 313.849 242.306 314.748 242.006C315.668 241.726 316.602 241.493 317.546 241.307C319.444 240.907 321.343 240.608 323.241 240.208C330.909 239.029 338.672 238.594 346.423 238.909C354.107 239.171 361.758 240.039 369.304 241.507C376.76 242.892 384.132 244.694 391.387 246.903C398.581 249.101 405.675 251.599 412.57 254.297C419.464 256.994 426.259 260.092 432.854 263.289C439.448 266.487 446.143 270.084 452.538 273.881C455.735 275.779 458.933 277.778 462.13 279.976C465.5 281.986 468.708 284.258 471.723 286.771Z" fill="#646464"/>
<path d="M506.095 310.751C507.564 313.843 508.865 317.012 509.992 320.244C511.191 323.441 512.19 326.639 513.09 329.836C514.988 336.231 516.487 342.626 517.786 349.021C522.61 374.535 523.921 400.589 521.683 426.459C521.083 432.954 520.184 439.448 518.985 446.043C518.385 449.341 517.686 452.538 516.787 455.835C515.971 459.186 514.97 462.488 513.789 465.727C512.288 462.637 510.954 459.468 509.792 456.235C508.593 453.038 507.594 449.84 506.695 446.643C504.796 440.248 503.297 433.853 501.998 427.458C499.576 414.724 498.04 401.836 497.402 388.889C496.72 375.931 496.988 362.94 498.201 350.02C498.801 343.525 499.7 337.03 500.899 330.436C501.499 327.138 502.198 323.941 503.098 320.644C503.867 317.281 504.868 313.976 506.095 310.751Z" fill="#646464"/>
<path d="M185.152 403.477C186.351 406.275 187.55 408.973 188.749 411.77L192.246 420.064C194.544 425.659 196.743 431.155 198.941 436.75C201.139 442.346 203.337 447.941 205.536 453.437L211.93 470.224C220.324 492.606 228.317 515.188 236.111 537.77C240.008 549.061 243.705 560.451 247.502 571.742L252.998 588.729C254.796 594.424 256.695 600.12 258.493 605.815C262.09 617.206 265.687 628.597 269.185 639.988L274.38 657.074C275.28 659.972 276.079 662.77 276.978 665.667L279.476 674.36C281.175 680.156 282.774 685.951 284.273 691.846C285.771 697.742 287.27 703.537 288.669 709.432C290.068 715.328 291.467 721.123 292.766 727.018C294.065 732.913 295.264 738.809 296.463 744.704C301.259 768.285 305.156 792.066 308.353 815.947C311.551 839.828 313.649 863.809 314.648 887.889C315.148 899.88 315.448 911.97 315.248 923.961C315.048 935.951 314.548 948.041 313.449 959.932C307.654 912.27 299.36 865.607 289.568 819.145C279.776 772.682 268.685 726.619 255.595 681.355L250.5 664.368L245.404 647.182C242.006 635.791 238.709 624.2 235.412 612.81C233.713 607.114 232.214 601.319 230.615 595.523L225.819 578.237C222.722 566.647 219.624 555.156 216.627 543.565C210.631 520.483 204.936 497.202 199.54 473.921L195.643 456.435C194.345 450.539 193.145 444.744 191.847 438.849C190.548 432.953 189.448 427.058 188.249 421.263L186.551 412.37C186.251 409.372 185.651 406.375 185.152 403.477Z" fill="#646464"/>
<path d="M817.946 404.177C815.448 415.368 812.65 426.459 809.852 437.45C808.453 442.946 806.954 448.441 805.456 453.937L800.859 470.424C794.664 492.306 788.07 514.089 781.675 535.672C778.577 546.563 775.38 557.354 772.482 568.146C770.983 573.541 769.584 578.937 768.186 584.333L766.187 592.426L764.289 600.62C761.791 611.511 759.492 622.402 757.394 633.393C755.296 644.385 753.397 655.376 751.599 666.467C744.504 710.732 739.808 755.396 736.711 800.36C736.311 805.955 735.911 811.651 735.612 817.246L734.612 834.133C734.113 845.424 733.513 856.715 733.114 868.006C732.714 879.297 732.414 890.688 732.114 901.978L731.515 936.151C726.714 913.79 723.211 891.171 721.023 868.405C719.924 857.014 719.025 845.624 718.425 834.133L718.026 825.54C717.926 822.642 717.826 819.844 717.726 816.947C717.526 811.251 717.426 805.456 717.326 799.76C716.759 753.808 720.001 707.887 727.018 662.47C730.57 639.665 735.273 617.054 741.107 594.724C744.005 583.533 747.402 572.442 750.999 561.551C754.596 550.66 758.493 539.868 762.69 529.177C770.883 507.794 779.776 486.811 788.969 466.027L795.963 450.44C798.361 445.244 800.66 440.048 803.158 434.952C807.854 424.66 812.75 414.369 817.946 404.177Z" fill="#646464"/>
<path d="M770.883 544.165C772.509 547.082 773.977 550.084 775.28 553.158C776.579 556.155 777.678 559.253 778.777 562.251C780.875 568.346 782.774 574.441 784.273 580.536C787.47 592.726 789.668 604.817 791.667 616.907C793.665 628.997 795.164 640.988 796.663 652.978C796.863 654.477 796.963 655.976 797.162 657.474C797.362 658.973 797.562 660.472 797.662 662.071C797.762 662.87 797.762 663.57 797.862 664.369C797.962 665.168 798.062 665.868 798.162 666.667L798.661 671.263C798.761 672.862 799.061 674.361 799.261 675.96C799.461 677.558 799.66 679.057 799.76 680.756C800.16 683.953 800.66 687.151 800.859 690.648C799.561 689.649 798.262 688.45 797.063 687.351C795.863 686.251 794.564 685.052 793.465 683.753C791.23 681.26 789.161 678.623 787.27 675.86L784.573 671.663C783.644 670.289 782.81 668.853 782.075 667.367C781.275 665.868 780.576 664.469 779.776 662.97C778.977 661.471 778.278 659.972 777.678 658.474C772.525 646.493 768.932 633.9 766.987 621.004C765.008 608.349 764.272 595.532 764.788 582.734C765.088 576.339 765.688 569.944 766.587 563.55C767.087 560.352 767.586 557.155 768.286 553.957C768.964 550.646 769.831 547.377 770.883 544.165Z" fill="#646464"/>
<path d="M236.411 565.148C237.778 567.871 238.979 570.674 240.008 573.542C241.007 576.34 241.907 579.137 242.706 581.935C244.306 587.539 245.508 593.248 246.303 599.021C247.903 610.475 248.204 622.072 247.202 633.594C246.234 645.401 243.471 656.992 239.009 667.966C236.718 673.643 233.731 679.013 230.116 683.953C229.117 685.152 228.218 686.451 227.218 687.55L225.62 689.249C225.103 689.832 224.535 690.368 223.921 690.848C221.669 693.011 219.11 694.829 216.327 696.244C216.927 693.146 217.426 690.348 217.826 687.55L218.126 685.452L218.326 683.354C218.525 681.955 218.625 680.656 218.725 679.257C219.225 673.861 219.625 668.466 219.924 663.17C220.624 652.479 221.323 641.887 222.322 631.096C223.322 620.304 224.621 609.513 226.719 598.522C227.718 593.026 229.017 587.531 230.516 581.935C231.315 579.137 232.115 576.34 233.114 573.542C234.113 570.744 235.112 567.946 236.411 565.148Z" fill="#646464"/>
<path d="M278.777 529.377C283.173 529.377 287.57 529.577 291.866 529.876C296.163 530.176 300.46 530.576 304.656 530.975C313.049 531.875 321.443 532.874 329.536 533.873C345.923 535.872 361.711 537.57 377.398 537.77C392.864 537.954 408.296 536.277 423.361 532.774C431.045 530.929 438.564 528.456 445.843 525.38L451.339 522.882C453.137 521.983 454.936 520.983 456.834 520.084C458.733 519.185 460.432 517.986 462.33 516.987C464.229 515.987 465.927 514.688 467.926 513.589C467.126 515.588 466.127 517.586 465.128 519.585C464.129 521.583 462.83 523.382 461.531 525.28C460.232 527.178 458.833 528.877 457.334 530.576C455.835 532.274 454.236 533.873 452.638 535.472C446.004 541.81 438.418 547.069 430.156 551.059C421.939 555.102 413.243 558.09 404.276 559.952C395.343 561.843 386.229 562.748 377.098 562.65C359.321 562.314 341.725 559.004 325.04 552.858C316.867 549.943 308.89 546.505 301.159 542.566L295.464 539.569C293.565 538.469 291.667 537.47 289.868 536.371C286.033 534.266 282.329 531.93 278.777 529.377Z" fill="#646464"/>
<path d="M533.473 513.19C535.671 513.889 537.67 514.789 539.668 515.588C541.667 516.387 543.765 517.087 545.763 517.886C547.762 518.686 549.76 519.385 551.759 520.084L557.754 522.183C565.747 524.881 573.641 527.279 581.535 529.277C597.132 533.33 613.042 536.071 629.097 537.471C645.153 538.869 661.301 538.869 677.358 537.471C685.452 536.771 693.645 535.872 701.938 534.473C704.037 534.173 706.035 533.774 708.233 533.474L714.528 532.275C716.627 531.775 718.725 531.375 720.923 530.976C723.121 530.576 725.22 530.076 727.518 529.677C725.919 531.275 724.32 532.774 722.622 534.373C720.923 535.772 719.125 537.271 717.426 538.57C715.727 539.869 713.729 541.168 711.93 542.467C710.132 543.766 708.133 544.765 706.135 545.964C698.24 550.463 689.86 554.049 681.155 556.655C645.711 567.295 607.543 564.007 574.44 547.463C566.34 543.361 558.703 538.403 551.659 532.674C549.96 531.176 548.261 529.777 546.563 528.178C544.864 526.579 543.365 525.08 541.766 523.382C540.168 521.683 538.769 519.985 537.37 518.286C535.968 516.668 534.667 514.966 533.473 513.19Z" fill="#646464"/>
<path d="M479.317 636.791C479.483 639.62 479.449 642.459 479.217 645.284C478.817 647.982 478.317 650.779 477.718 653.477C476.918 656.175 476.019 658.773 475.12 661.371C474.021 663.869 472.822 666.467 471.523 668.865C466.03 678.642 458.54 687.154 449.54 693.845C440.6 700.595 430.307 705.333 419.365 707.734C416.567 708.233 413.869 708.633 411.071 709.033C408.279 709.249 405.477 709.316 402.678 709.233C399.88 709.033 397.082 708.733 394.385 708.333C391.617 707.793 388.907 706.99 386.291 705.935C388.689 704.237 390.987 702.738 393.185 701.439C395.384 699.94 397.582 698.641 399.68 697.342C401.779 696.043 403.877 694.644 405.975 693.345C408.074 692.046 409.972 690.647 411.97 689.448C419.864 684.253 427.358 679.157 434.552 673.761C441.747 668.365 448.941 662.67 456.135 656.675C457.834 655.076 459.732 653.577 461.631 651.978C463.529 650.38 465.228 648.781 467.226 647.082C469.025 645.384 470.923 643.685 473.022 641.986C475.12 640.288 477.018 638.589 479.317 636.791Z" fill="#646464"/>
<path d="M528.677 629.097C531.086 630.436 533.421 631.903 535.672 633.494C537.97 634.893 540.068 636.391 542.166 637.89C544.265 639.389 546.363 640.688 548.362 642.187C550.36 643.686 552.458 644.985 554.357 646.383C562.25 651.979 569.844 657.275 577.438 662.57C585.032 667.866 592.826 673.062 600.82 678.458C602.818 679.757 604.816 681.156 606.915 682.554C609.013 683.953 611.011 685.252 613.11 686.851C615.208 688.25 617.306 689.749 619.505 691.347C621.797 692.884 623.999 694.552 626.099 696.343C623.382 697.143 620.61 697.744 617.806 698.142C615.108 698.442 612.31 698.542 609.513 698.642C606.815 698.542 604.017 698.342 601.319 698.142C598.655 697.742 595.957 697.243 593.226 696.643C571.663 691.409 552.8 678.383 540.268 660.072C538.769 657.774 537.37 655.376 536.071 652.978C534.772 650.58 533.673 647.982 532.674 645.484C531.675 642.986 530.875 640.288 530.176 637.59C529.387 634.818 528.885 631.972 528.677 629.097Z" fill="#646464"/>
<path d="M490.008 882.194C491.507 882.394 492.906 882.494 494.005 882.594C495.039 882.616 496.073 882.582 497.103 882.494C498.557 882.314 499.994 882.013 501.399 881.595C503.597 880.895 504.497 880.196 504.996 880.196C505.496 880.196 506.295 880.995 508.393 881.994C509.732 882.626 511.14 883.096 512.59 883.393C513.61 883.632 514.645 883.799 515.688 883.893C517.015 884.031 518.352 884.065 519.684 883.993C520.057 884.638 520.391 885.306 520.684 885.991C520.897 886.645 521.064 887.312 521.183 887.99C521.283 888.689 521.283 889.289 521.383 889.988C521.483 890.687 521.283 891.287 521.283 891.986C520.909 894.576 519.799 897.003 518.086 898.981C516.277 901.007 514.033 902.598 511.521 903.633C509.01 904.668 506.297 905.121 503.586 904.957C500.874 904.794 498.235 904.018 495.866 902.689C493.497 901.36 491.461 899.511 489.908 897.282C488.462 895.076 487.634 892.523 487.51 889.888C487.494 889.22 487.527 888.552 487.61 887.89C487.695 887.215 487.829 886.547 488.01 885.891C488.215 885.234 488.483 884.599 488.809 883.993C489.138 883.349 489.541 882.746 490.008 882.194Z" fill="#646464"/>
<path d="M669.764 495.604C671.263 495.804 672.662 495.904 673.761 496.004C674.795 496.025 675.829 495.992 676.859 495.904C678.313 495.724 679.751 495.423 681.155 495.004C683.353 494.305 684.253 493.605 684.752 493.605C685.252 493.605 686.051 494.405 688.15 495.404C689.488 496.036 690.897 496.506 692.346 496.803C693.366 497.042 694.401 497.209 695.444 497.303C696.771 497.441 698.108 497.475 699.441 497.402C699.813 498.048 700.147 498.715 700.44 499.401C700.653 500.054 700.82 500.722 700.939 501.399C701.039 502.099 701.039 502.698 701.139 503.398C701.239 504.097 701.039 504.697 701.039 505.396C700.665 507.985 699.555 510.413 697.842 512.39C696.033 514.417 693.789 516.007 691.278 517.042C688.766 518.077 686.053 518.53 683.342 518.367C680.63 518.203 677.991 517.428 675.622 516.099C673.254 514.769 671.217 512.921 669.664 510.692C668.218 508.486 667.39 505.933 667.266 503.298C667.25 502.63 667.283 501.962 667.366 501.299C667.451 500.624 667.585 499.957 667.766 499.301C667.971 498.644 668.239 498.008 668.565 497.402C668.93 496.78 669.33 496.18 669.764 495.604Z" fill="#646464"/>
<path d="M316.946 495.604C318.445 495.804 319.844 495.904 320.943 496.004C321.977 496.025 323.011 495.992 324.041 495.904C325.495 495.724 326.933 495.423 328.337 495.004C330.536 494.305 331.435 493.605 331.934 493.605C332.434 493.605 333.233 494.405 335.332 495.404C336.67 496.036 338.079 496.506 339.528 496.803C340.548 497.042 341.583 497.209 342.626 497.303C343.953 497.441 345.29 497.475 346.623 497.402C346.995 498.048 347.329 498.715 347.622 499.401C347.835 500.054 348.002 500.722 348.122 501.399C348.221 502.099 348.221 502.698 348.321 503.398C348.421 504.097 348.221 504.697 348.221 505.396C347.847 507.985 346.737 510.413 345.024 512.39C343.215 514.417 340.971 516.007 338.46 517.042C335.948 518.077 333.235 518.53 330.524 518.367C327.812 518.203 325.173 517.428 322.805 516.099C320.436 514.769 318.399 512.921 316.847 510.692C315.4 508.486 314.572 505.933 314.448 503.298C314.432 502.63 314.465 501.962 314.548 501.299C314.633 500.624 314.767 499.957 314.948 499.301C315.154 498.644 315.421 498.008 315.747 497.402C316.076 496.759 316.479 496.155 316.946 495.604Z" fill="#646464"/>
</svg>
