<svg width="1159" height="1159" viewBox="0 0 1159 1159" fill="none" xmlns="http://www.w3.org/2000/svg">
<path d="M579 1079C855.142 1079 1079 855.142 1079 579C1079 302.858 855.142 79 579 79C302.858 79 79 302.858 79 579C79 855.142 302.858 1079 579 1079Z" fill="#EEEEEF"/>
<path d="M350.923 571.736C350.923 571.736 366.241 607.308 367.5 631.33C368.76 655.351 293.997 815.54 412.923 864.691C531.85 913.841 597.782 769.07 601.292 756.104C604.803 743.138 633.06 638.07 633.06 638.07L587.376 406.652L576.271 378.164L535.192 364.766C535.192 364.766 393.417 470.407 350.923 571.736Z" fill="#F2956A"/>
<path d="M471.03 97.0829C474.169 117.24 476.04 137.558 476.63 157.927C476.995 168.135 476.914 178.367 476.482 188.614C476.04 198.861 475.212 209.127 473.786 219.388C472.384 229.754 470.143 239.997 467.085 250.026C463.915 260.14 459.639 270.207 452.991 279.473C449.62 284.199 445.595 288.46 441.025 292.141C436.479 295.747 431.527 298.854 426.262 301.404C415.871 306.42 405.008 309.51 394.297 311.786C372.826 316.259 351.734 318.22 331.375 321.647C311.069 325.053 291.368 329.796 274.02 338.346C265.427 342.555 257.41 347.768 250.151 353.866C242.935 359.993 236.563 366.979 231.189 374.656C225.709 382.474 221.01 390.773 217.157 399.441C213.282 408.269 210.113 417.368 207.675 426.659C202.73 445.377 200.127 464.898 199.047 484.609C198.492 494.47 198.344 504.387 198.425 514.334C198.484 524.28 198.855 534.258 199.4 544.249C200.542 564.237 202.393 584.278 204.43 604.426C206.449 624.598 208.777 644.786 209.662 665.653C209.856 670.883 209.932 676.169 209.715 681.591C209.683 682.935 209.561 684.325 209.479 685.688L209.089 689.741C208.839 692.156 208.546 694.552 208.375 697.018C207.556 706.822 207.264 716.843 207.006 726.878C206.585 746.968 206.75 767.199 207.04 787.438C207.367 807.679 207.69 827.962 208.262 848.244L209.611 909.18C202.779 869.009 197.749 828.627 193.846 788.073C191.967 767.785 190.444 747.456 189.696 726.967C189.304 716.714 189.196 706.437 189.516 695.981C189.568 693.379 189.753 690.722 189.899 688.08L190.104 684.546C190.125 683.376 190.198 682.235 190.194 681.043C190.254 676.324 190.059 671.46 189.741 666.558C189.091 656.741 187.984 646.766 186.798 636.76L183.129 606.579C180.658 586.375 178.389 566.012 177.033 545.484C175.498 524.839 175.205 504.128 176.154 483.454C177.233 462.667 179.806 441.709 185.401 421.118C190.951 400.591 199.43 380.225 212.542 362.289C219.091 353.198 226.82 344.947 235.543 337.733C244.281 330.555 253.952 324.496 264.315 319.706C274.466 315.035 285.066 311.319 295.966 308.61C306.577 306.003 317.335 303.981 328.188 302.555C338.884 301.085 349.49 299.959 359.951 298.88C370.403 297.774 380.724 296.645 390.703 294.894C400.672 293.147 410.351 290.838 419.043 287.083C423.312 285.249 427.354 282.966 431.096 280.275C434.781 277.61 438.071 274.478 440.879 270.964C446.698 263.812 451.026 255.079 454.549 246.001C458.011 236.729 460.759 227.225 462.77 217.564C467.041 198.076 469.066 177.978 470.327 157.836C470.946 147.755 471.259 137.641 471.356 127.513C471.521 117.381 471.385 107.239 471.03 97.0829Z" fill="#646464"/>
<path d="M649.001 731.642C667.912 722.519 686.186 713.811 704.048 704.535C706.284 703.393 708.517 702.253 710.712 701.04C712.914 699.846 715.161 698.756 717.337 697.524C721.723 695.13 726.089 692.74 730.422 690.302C732.552 689.019 734.717 687.809 736.874 686.586C739.035 685.368 741.125 684.04 743.253 682.775C745.39 681.524 747.503 680.242 749.592 678.928C751.688 677.622 753.811 676.355 755.844 674.962L762.067 670.969L768.159 666.8C770.239 665.472 772.183 663.977 774.204 662.574L777.212 660.436L780.16 658.229C782.121 656.752 784.138 655.33 786.063 653.807C787.959 652.252 789.91 650.754 791.858 649.243C793.831 647.758 795.62 646.085 797.536 644.531L800.405 642.187C801.356 641.399 802.245 640.552 803.17 639.736C810.717 633.329 817.718 626.324 824.756 619.121C831.83 611.911 838.242 604.068 845.214 596.09C844.607 598.648 843.877 601.172 843.142 603.718C842.755 604.98 842.392 606.262 841.962 607.511C841.512 608.749 841.019 609.968 840.545 611.203C839.584 613.665 838.621 616.151 837.523 618.565C836.383 620.953 835.183 623.318 834.001 625.713C829.003 635.157 823.063 644.072 816.272 652.322C809.502 660.614 802.02 668.299 793.913 675.29C792.913 676.177 791.923 677.08 790.888 677.924L787.758 680.416C785.654 682.055 783.613 683.793 781.451 685.349L774.944 689.995C772.743 691.493 770.519 692.951 768.297 694.415C766.071 695.878 763.768 697.202 761.489 698.566C759.205 699.922 756.941 701.312 754.588 702.538C749.922 705.066 745.212 707.484 740.425 709.741L733.184 712.972C730.783 714.071 728.294 714.969 725.852 715.964C720.95 717.912 715.987 719.68 710.962 721.267C700.95 724.48 690.736 727.029 680.389 728.898C675.208 729.781 670.02 730.562 664.779 731.033C659.539 731.583 654.268 731.786 649.001 731.642Z" fill="#646464"/>
<path d="M470.263 343.59C479.648 344.78 488.821 346.622 497.947 348.61C507.063 350.624 516.092 352.91 525.057 355.389C534.017 357.883 542.937 360.502 551.775 363.369C560.628 366.193 569.422 369.198 578.156 372.386L581.045 373.444L581.934 375.957C583.686 380.91 585.35 385.898 586.967 390.904C588.577 395.912 590.134 400.941 591.591 406.01C593.075 411.068 594.439 416.172 595.733 421.304C597.021 426.438 598.195 431.616 599.158 436.877C596.306 432.353 593.665 427.746 591.139 423.094C588.618 418.441 586.169 413.76 583.837 409.032C581.48 404.315 579.223 399.558 577.019 394.782C574.821 390.002 572.671 385.204 570.609 380.372L574.387 383.942C565.45 381.376 556.575 378.619 547.763 375.672C538.933 372.777 530.185 369.634 521.477 366.364C512.774 363.081 504.134 359.605 495.583 355.856C487.041 352.082 478.545 348.162 470.263 343.59Z" fill="#646464"/>
<path d="M628.482 427.148C628.101 421.837 628.006 416.51 628.198 411.189C628.351 405.916 628.707 400.68 629.176 395.466C629.635 390.249 630.288 385.069 631.003 379.9C631.365 377.317 631.793 374.745 632.185 372.167L633.545 364.468L634.076 361.461L636.776 359.979C641.264 357.516 645.783 355.108 650.372 352.827C654.96 350.544 659.6 348.353 664.312 346.293C669.028 344.241 673.799 342.286 678.667 340.507C683.568 338.677 688.563 337.112 693.632 335.819C689.857 339.44 685.89 342.855 681.747 346.05C677.664 349.243 673.485 352.261 669.251 355.182C665.012 358.095 660.702 360.878 656.339 363.567C651.979 366.259 647.547 368.824 643.085 371.334L646.315 366.845L644.813 374.518C644.251 377.065 643.725 379.618 643.133 382.159C641.94 387.238 640.685 392.306 639.236 397.339C637.797 402.373 636.244 407.385 634.49 412.361C632.754 417.394 630.748 422.33 628.482 427.148V427.148Z" fill="#646464"/>
<path d="M666.229 97.7771C665.28 129.585 666.12 161.463 670.606 192.498C671.76 200.241 673.289 207.892 675.119 215.39C676.896 222.795 679.258 230.047 682.185 237.077C685.112 243.923 688.694 250.384 693.227 255.477C694.334 256.725 695.519 257.901 696.773 259C697.375 259.541 698.005 260.051 698.659 260.527L699.64 261.264L700.839 262.11C704.023 264.384 707.224 266.625 710.46 268.805C723.28 277.536 736.662 285.412 750.519 292.381C764.228 299.219 778.517 304.824 793.22 309.13C800.534 311.261 807.958 312.953 815.428 314.341C822.9 315.742 830.439 316.762 838.015 317.396L843.851 317.855C845.923 318.018 847.995 318.177 850.07 318.409C854.218 318.806 858.373 319.371 862.524 320.024C870.906 321.36 879.179 323.306 887.277 325.845C903.971 330.902 919.487 339.237 932.918 350.362C946.207 361.69 957.128 375.528 965.056 391.083C968.948 398.657 972.277 406.508 975.015 414.571C975.703 416.567 976.315 418.578 976.967 420.581C977.294 421.563 977.599 422.614 977.897 423.682C978.2 424.74 978.504 425.799 978.756 426.849C979.851 431.065 980.7 435.239 981.422 439.392C984.248 456.005 985.12 472.313 985.536 488.54C985.915 504.758 985.47 520.874 984.758 536.929C984.044 552.985 982.83 568.975 981.409 584.923C980.009 600.874 978.217 616.771 976.265 632.637C974.326 648.526 972.053 664.285 969.538 680.181L969.611 678.828L969.701 728.884L969.644 753.915L969.439 778.951L969.234 803.987L968.856 829.028C968.614 845.722 968.239 862.419 967.73 879.121C966.194 862.482 964.797 845.839 963.538 829.191L961.627 804.22L959.89 779.243L958.152 754.267L956.563 729.286L953.587 679.318L953.562 678.885L953.661 677.965C957.034 646.616 959.596 614.954 961.462 583.446C963.226 551.924 964.333 520.352 963.242 489.181C962.666 473.638 961.51 458.115 958.873 443.378C958.219 439.702 957.462 436.081 956.539 432.606C956.325 431.723 956.074 430.873 955.825 430.022C955.587 429.175 955.336 428.317 955.029 427.415C954.44 425.641 953.89 423.849 953.274 422.089C950.869 415.097 947.951 408.291 944.545 401.727C938.119 388.76 929.117 377.238 918.087 367.864C907.058 358.491 894.232 351.463 880.395 347.21C873.336 344.896 866.119 343.098 858.799 341.832C855.108 341.169 851.388 340.575 847.626 340.132C845.753 339.879 843.863 339.693 841.973 339.503L835.927 338.888C819.392 337.135 803.085 333.669 787.268 328.545C779.379 325.987 771.64 323.063 764.049 319.774C756.489 316.451 749.108 312.781 741.905 308.842C727.619 300.944 713.926 292.017 700.934 282.135C697.69 279.703 694.487 277.228 691.326 274.707L690.14 273.762L688.8 272.626C687.878 271.868 687.033 271.051 686.2 270.226C684.561 268.596 683.027 266.865 681.605 265.043C676.359 258.044 672.283 250.24 669.539 241.936C664.093 225.943 661.866 209.686 660.79 193.557C659.778 177.509 659.804 161.412 660.869 145.367C661.794 129.418 663.583 113.532 666.229 97.7771V97.7771Z" fill="#646464"/>
<path d="M834.26 844.091C832.26 857.609 829.634 870.56 827.288 883.463C824.906 896.321 822.607 909.078 821.355 921.596C820.687 927.668 820.468 933.79 820.698 939.899C820.811 942.764 821.159 945.61 821.738 948.401L823.682 958.032C824.974 964.458 826.235 970.912 827.465 977.394C828.721 983.895 829.92 990.39 831.364 997.063C829.221 994.588 827.28 991.902 825.567 989.036C824.676 987.631 823.878 986.18 823.041 984.739C822.267 983.274 821.449 981.817 820.712 980.327C817.734 974.401 815.082 968.275 812.769 961.985C811.568 958.87 810.538 955.696 809.464 952.533C809.33 952.164 809.195 951.705 809.065 951.227C808.937 950.761 808.793 950.291 808.681 949.826C808.452 948.893 808.222 947.956 808.04 947.026C807.654 945.187 807.354 943.326 807.142 941.451C806.406 934.274 806.452 927.02 807.28 919.848C808.909 906.148 812.104 892.733 816.785 879.933C819.062 873.614 821.639 867.436 824.506 861.425C827.348 855.372 830.609 849.576 834.26 844.091Z" fill="#646464"/>
<path d="M360.808 622.632C362.667 617.798 364.813 613.098 367.025 608.432C369.236 603.763 371.574 599.16 374.038 594.622C376.464 590.062 379.057 585.6 381.671 581.141C382.963 578.902 384.364 576.734 385.723 574.535C387.11 572.356 388.412 570.115 389.882 567.988C401.205 550.533 414.164 534.194 428.582 519.193C432.139 515.369 436.121 511.893 439.936 508.287C441.831 506.476 443.908 504.827 445.966 503.163C448.023 501.501 450.062 499.816 452.14 498.187C454.251 496.586 456.518 495.143 458.697 493.62L462.002 491.377C463.111 490.625 464.215 489.901 465.308 489.264C469.682 486.591 474.085 483.964 478.518 481.383C487.384 476.219 496.34 471.191 505.463 466.428C510.039 464.069 514.614 461.713 519.292 459.524C523.959 457.328 528.641 455.125 533.516 453.347C525.404 459.734 517.412 466.153 509.286 472.407C501.173 478.668 492.994 484.824 484.749 490.875C480.623 493.896 476.498 496.919 472.334 499.882C471.269 500.621 470.291 501.381 469.34 502.146L466.43 504.402C464.5 505.922 462.511 507.334 460.634 508.932C453.149 515.376 445.822 522.067 438.902 529.288C424.949 543.595 411.855 558.963 399.019 574.663L389.442 586.517L379.94 598.497L360.808 622.632Z" fill="#E2815A"/>
<path d="M367.5 631.33C370.653 627.265 374.049 623.417 377.501 619.622C380.953 615.826 384.509 612.13 388.169 608.536C395.439 601.294 403.111 594.475 410.979 587.864C426.835 574.636 443.888 562.912 461.918 552.846L468.759 549.135L475.794 545.738C478.163 544.65 480.484 543.484 482.888 542.464C485.318 541.489 487.735 540.487 490.176 539.548L493.828 538.122L495.657 537.417L497.539 536.82C500.044 536.013 502.564 535.255 505.076 534.492L508.843 533.35C510.085 533.004 511.303 532.692 512.539 532.377L519.94 530.526C539.701 525.677 559.592 521.253 579.905 518.219C561.344 527.011 542.359 534.413 523.245 541.389L516.067 543.973L512.481 545.239L509.048 546.59C506.761 547.488 504.481 548.392 502.186 549.247L500.468 549.896L498.783 550.661L495.418 552.202C493.18 553.241 490.919 554.216 488.67 555.219C486.433 556.258 484.251 557.453 482.039 558.561L475.392 561.869L468.876 565.494C451.458 575.083 434.521 585.8 417.743 596.935C409.378 602.54 401.003 608.191 392.676 613.971L367.5 631.33Z" fill="#E2815A"/>
<path d="M367.662 622.762C388.781 631.156 408.767 640.881 428.628 650.71C448.435 660.604 467.959 670.781 487.424 680.868C506.903 690.918 526.273 701.002 545.952 710.144C555.789 714.724 565.712 719.042 575.869 722.655C586.064 726.184 596.378 729.336 607.745 729.06C602.521 731.656 596.852 733.234 591.039 733.713C585.222 734.266 579.367 734.285 573.547 733.77C562.057 732.682 550.7 730.474 539.638 727.179C517.647 720.786 496.79 711.732 476.791 701.373C456.857 690.979 437.654 679.24 419.315 666.236C410.175 659.72 401.227 652.933 392.569 645.746C388.25 642.137 383.975 638.472 379.813 634.653C375.646 630.844 371.545 626.943 367.662 622.762Z" fill="#646464"/>
<path d="M620.925 826.393C627.39 843.765 632.113 861.737 635.024 880.044C636.547 889.236 637.597 898.5 638.171 907.8C638.479 912.473 638.545 917.176 638.56 921.9C638.481 926.632 638.3 931.375 637.827 936.166C637.361 941.023 636.572 945.844 635.465 950.596C635.2 951.8 634.858 953.009 634.484 954.219L633.456 957.664C632.832 959.737 632.233 961.816 631.569 963.883C629.317 972.409 627.599 981.066 626.427 989.806C625.19 998.634 624.403 1007.61 623.872 1016.66C623.58 1021.19 623.421 1025.74 623.244 1030.31C623.157 1032.6 623.103 1034.9 623.08 1037.19C622.993 1039.5 623.007 1041.8 622.968 1044.12C622.178 1041.94 621.554 1039.7 620.913 1037.46C620.314 1035.22 619.78 1032.96 619.259 1030.69C618.222 1026.16 617.432 1021.57 616.782 1016.95C615.489 1007.67 614.928 998.3 615.106 988.93C615.269 979.416 616.327 969.939 618.266 960.624C618.823 958.28 619.451 955.95 620.051 953.612L620.864 950.444C621.132 949.457 621.378 948.455 621.562 947.413C622.463 943.232 623.098 938.998 623.462 934.737C624.273 925.929 624.624 917.084 624.515 908.24C624.503 899.29 624.149 890.275 623.77 881.224C622.951 863.11 621.692 844.906 620.925 826.393Z" fill="#646464"/>
<path d="M841.188 328.327C840.932 333.387 840.623 338.441 840.301 343.494C839.971 348.545 839.706 353.604 839.324 358.649L837.145 388.93L834.682 419.176L833.447 434.298L832.105 449.406L831.877 450.465C831.931 450.311 831.865 450.611 831.852 450.705L831.773 451.216C831.715 451.558 831.669 451.959 831.621 452.352C831.513 453.116 831.459 453.98 831.374 454.789C831.246 456.468 831.159 458.18 831.103 459.913C831.009 463.388 830.974 466.901 831.073 470.446C831.242 477.53 831.675 484.667 832.291 491.813C832.877 498.96 833.604 506.112 834.472 513.269C834.941 516.814 835.28 520.51 835.905 523.867L836.72 529.005C836.862 529.862 836.972 530.716 837.14 531.573L837.695 534.147C840.651 548.026 844.429 561.718 849.008 575.15C850.069 578.557 851.332 581.944 852.483 585.34C853.637 588.737 854.864 592.125 856.114 595.511C858.519 602.299 861.083 609.076 863.621 615.856L871.429 636.22L879.184 656.743C884.321 670.499 889.388 684.364 893.595 698.893L895.118 704.391L895.878 707.14C896.122 708.074 896.338 709.067 896.568 710.028C897.047 711.963 897.446 713.904 897.804 715.848C898.206 717.789 898.505 719.739 898.798 721.689C899.959 729.483 900.505 737.355 900.43 745.234C900.378 753.15 899.691 761.048 898.378 768.854C897.076 776.769 894.97 784.53 892.093 792.018C889.198 799.622 885.475 806.885 880.991 813.676C879.812 815.35 878.689 817.061 877.45 818.692L873.589 823.481C870.888 826.57 868.001 829.49 864.943 832.225C858.889 837.69 852.184 842.388 844.98 846.214C843.226 847.205 841.422 848.108 839.576 848.918L836.842 850.188C835.943 850.629 835.02 851.02 834.078 851.359L828.474 853.462C826.613 854.186 824.69 854.641 822.801 855.237C819.023 856.466 815.179 857.238 811.353 858.104C809.444 858.585 807.515 858.812 805.594 859.138L799.83 860.045C795.985 860.391 792.139 860.889 788.303 861.077L782.555 861.286C780.64 861.355 778.724 861.449 776.823 861.378L771.112 861.283C769.212 861.257 767.316 861.24 765.361 861.042L759.551 860.58L756.65 860.344C755.683 860.26 754.718 860.058 753.753 859.919L747.974 858.964C747.014 858.792 746.049 858.667 745.094 858.455L742.238 857.739L736.542 856.295C735.587 856.068 734.647 855.781 733.728 855.437L730.94 854.475C729.088 853.813 727.216 853.227 725.393 852.497L720.002 850.09L717.319 848.873C716.444 848.425 715.596 847.92 714.735 847.445L709.602 844.549C702.948 840.427 696.763 835.592 691.157 830.129C688.269 827.515 685.839 824.481 683.244 821.625C682.027 820.13 680.881 818.581 679.702 817.062L677.951 814.776L676.353 812.387C675.303 810.787 674.201 809.223 673.203 807.598L670.365 802.643C669.381 801.014 668.587 799.29 667.73 797.603C666.906 795.899 665.986 794.244 665.273 792.496C662.194 785.656 659.569 778.621 657.414 771.436C655.293 764.316 653.61 757.072 652.376 749.746C649.775 735.252 648.807 720.512 649.491 705.803C650.184 713.054 651.246 720.264 652.673 727.407C654.105 734.524 655.733 741.579 657.784 748.494C661.701 762.241 667.184 775.492 674.124 787.988C677.588 794.074 681.537 799.869 685.933 805.319L687.539 807.363L689.277 809.288C690.442 810.562 691.569 811.868 692.754 813.113C695.271 815.453 697.603 817.978 700.32 820.05C705.491 824.428 711.118 828.238 717.104 831.412L721.667 833.58C722.428 833.935 723.173 834.322 723.945 834.653L726.312 835.536L731.022 837.327C732.616 837.859 734.262 838.256 735.874 838.732L738.3 839.42C739.103 839.676 739.923 839.875 740.754 840.015L745.73 840.965L748.212 841.445C749.045 841.581 749.899 841.634 750.74 841.733L755.797 842.272C756.641 842.353 757.472 842.498 758.325 842.527L760.884 842.604L765.994 842.766C767.678 842.868 769.429 842.797 771.175 842.735L776.402 842.573C778.149 842.56 779.872 842.387 781.597 842.24L786.769 841.806C790.203 841.459 793.582 840.9 796.986 840.476L801.995 839.486C803.657 839.138 805.351 838.889 806.963 838.404C810.218 837.527 813.51 836.758 816.631 835.593C829.288 831.384 840.898 824.978 850.136 816.132C859.473 807.237 866.573 796.258 870.853 784.093C875.272 771.576 877.49 758.387 877.409 745.113C877.413 738.402 876.933 731.7 875.974 725.059C875.735 723.402 875.495 721.745 875.16 720.114C874.869 718.47 874.544 716.838 874.152 715.231C873.961 714.418 873.799 713.626 873.586 712.796L872.899 710.271L871.529 705.22C870.607 701.85 869.484 698.453 868.473 695.071C867.432 691.683 866.234 688.287 865.14 684.889C862.869 678.082 860.512 671.266 858.069 664.439L850.685 643.91L843.367 623.219C840.976 616.273 838.56 609.341 836.282 602.316C835.135 598.815 834.008 595.301 832.946 591.75C831.886 588.198 830.73 584.701 829.752 581.106C825.426 566.749 822.069 552.118 819.705 537.311L819.243 534.511C819.105 533.571 819.022 532.61 818.909 531.662L818.28 525.957C817.81 522.101 817.699 518.511 817.424 514.802C816.964 507.431 816.642 500.038 816.457 492.622C816.302 485.204 816.368 477.753 816.694 470.253C816.85 466.507 817.123 462.732 817.512 458.93C817.723 457.026 817.97 455.107 818.274 453.165C818.454 452.171 818.591 451.22 818.815 450.19C818.918 449.684 819.017 449.185 819.153 448.636L819.356 447.81C819.453 447.461 819.481 447.316 819.663 446.724L819.435 447.782L821.948 432.824L824.568 417.879L829.813 387.991L835.344 358.138C836.247 353.161 837.266 348.198 838.221 343.227C839.183 338.257 840.16 333.288 841.188 328.327Z" fill="#646464"/>
<path d="M388.851 883.669C389.618 896.302 388.936 908.717 387.891 921.076C386.776 933.424 385.117 945.691 382.991 957.887C380.869 970.083 378.242 982.203 375.11 994.247C371.894 1006.28 368.302 1018.25 363.252 1030C362.469 1017.37 363.144 1004.95 364.194 992.595C365.31 980.246 366.949 967.977 369.112 955.787C371.253 943.593 373.861 931.47 377.012 919.43C380.233 907.4 383.818 895.425 388.851 883.669Z" fill="#646464"/>
<path d="M458.896 879.566C443.281 879.27 427.354 875.773 411.112 869.073C311.458 827.888 342.229 712.963 357.017 657.732C360.212 645.802 362.97 635.498 362.765 631.578C361.563 608.669 346.718 573.96 346.568 573.611L345.771 571.761L346.551 569.902C389.056 468.544 526.528 365.309 532.359 360.963L534.328 359.496L579.875 374.352L591.947 405.322L592.029 405.734L637.927 638.235L637.64 639.302C637.357 640.353 609.342 744.522 605.87 757.344C603.378 766.545 571.27 838.364 512.324 867.366C495.761 875.687 477.429 879.873 458.896 879.566V879.566ZM356.073 571.748C359.303 579.566 371.101 609.423 372.237 631.081C372.52 636.501 369.997 645.923 366.179 660.186C358.928 687.269 347.969 728.196 350.595 767.085C353.713 813.266 374.693 843.759 414.735 860.308C447.354 873.788 478.779 873.299 508.137 858.856C564 831.371 594.363 763.55 596.715 754.864C599.995 742.751 625.207 649.01 628.194 637.906L582.805 407.983L572.667 381.977L536.083 370.045C519.068 383.079 395.75 479.734 356.073 571.748Z" fill="#E2815A"/>
<path d="M300.705 339.903C304.464 351.676 308.095 363.475 311.598 375.299L316.881 393.031L322.029 410.79C328.831 434.481 335.36 458.228 341.802 481.992C348.163 505.774 354.394 529.581 360.496 553.415C366.588 577.25 372.532 601.116 378.33 625.012L379.019 627.843L377.828 631.075L377.354 632.364L376.836 633.854C376.483 634.845 376.16 635.9 375.824 636.93C375.168 639.007 374.531 641.122 373.936 643.254C373.343 645.391 372.743 647.525 372.213 649.695C371.654 651.852 371.118 654.018 370.631 656.205C368.611 664.923 366.789 673.734 365.354 682.633C362.406 700.41 360.312 718.396 359.021 736.465L358.156 750.032L357.958 756.388L358.106 762.746C358.598 771.333 359.859 779.867 361.877 788.257C363.918 796.824 366.536 805.261 369.715 813.518C372.883 821.861 376.45 830.134 380.416 838.336C384.373 846.524 388.6 854.661 393.001 862.773C397.404 870.885 401.991 878.957 406.553 887.107C411.12 895.259 415.777 903.424 420.152 911.815C424.699 920.252 428.74 928.921 432.255 937.782C432.679 938.918 433.138 940.028 433.531 941.181L434.672 944.662C435.489 946.944 436.009 949.401 436.653 951.768C436.969 952.956 437.132 954.224 437.363 955.448C437.556 956.675 437.844 957.931 437.903 959.111L438.53 966.272C439.025 975.762 438.533 985.273 437.059 994.669C434.137 1013.17 427.607 1031 417.798 1047.26C421.311 1038.71 424.053 1029.89 425.994 1020.91C427.998 1012.04 429.182 1003.03 429.531 993.969C429.905 985.038 429.423 976.092 428.092 967.239L426.86 960.702C426.657 959.648 426.395 958.606 426.075 957.578C425.765 956.557 425.574 955.539 425.195 954.518C424.431 952.478 423.837 950.439 422.9 948.415L421.607 945.38C421.163 944.37 420.641 943.368 420.163 942.363C416.236 934.34 411.61 926.433 406.727 918.597C401.818 910.768 396.797 902.924 391.664 895.064C386.538 887.205 381.498 879.239 376.543 871.164C371.587 863.095 366.773 854.883 362.306 846.441C353.313 829.601 345.48 811.857 340.462 792.963C337.902 783.435 336.263 773.71 335.566 763.908L335.257 756.467L335.353 749.022L336.091 735.022C337.229 716.3 339.392 697.649 342.573 679.142C344.15 669.859 346.049 660.596 348.341 651.371C348.899 649.064 349.513 646.76 350.153 644.458C350.761 642.155 351.45 639.852 352.134 637.55C352.823 635.245 353.559 632.945 354.338 630.627C354.739 629.465 355.115 628.316 355.557 627.132L356.212 625.356L356.981 623.4L356.479 629.463C351.177 605.466 346.005 581.443 340.963 557.393C335.911 533.346 331.026 509.264 326.308 485.148C321.633 461.024 317.046 436.882 312.731 412.684L309.541 394.526L306.487 376.341C304.429 364.222 302.501 352.076 300.705 339.903Z" fill="#646464"/>
<path d="M610.651 705.068C611.4 713.328 611.464 721.636 610.841 729.907C610.267 738.24 609.178 746.529 607.581 754.727C605.943 763.002 603.764 771.159 601.058 779.148C598.35 787.252 595.017 795.134 591.089 802.722C583.154 818.325 572.471 832.37 559.553 844.182C557.882 845.627 556.186 847.051 554.467 848.451L551.893 850.555C551.015 851.231 550.091 851.847 549.19 852.495L543.742 856.328C541.885 857.543 539.948 858.634 538.048 859.788C534.222 862.046 530.275 864.093 526.225 865.919C524.251 866.952 522.147 867.653 520.096 868.492L513.903 870.906L507.554 872.789L504.377 873.719L502.788 874.179L501.178 874.526L494.736 875.903L491.515 876.584C490.44 876.803 489.356 876.913 488.273 877.062L481.777 877.882L478.532 878.286L475.358 878.51C471.121 878.756 466.924 879.225 462.646 879.193L456.259 879.294C454.134 879.345 451.98 879.203 449.844 879.165C447.702 879.076 445.571 879.095 443.426 878.913L436.991 878.342C434.852 878.192 432.705 877.886 430.56 877.57C428.417 877.241 426.275 877.019 424.139 876.595L417.746 875.252C415.618 874.839 413.508 874.149 411.396 873.607L408.236 872.732L405.112 871.648C403.037 870.901 400.954 870.239 398.929 869.31C394.821 867.641 390.837 865.681 387.007 863.444C379.276 858.979 372.375 853.21 366.61 846.393L365.542 845.123L364.556 843.781L362.604 841.106L360.839 838.31C360.55 837.843 360.249 837.386 359.973 836.912L359.203 835.455C357.12 831.642 355.443 827.621 354.197 823.458C351.642 815.383 350.882 806.847 351.97 798.447C354.643 814.033 362.695 828.189 374.726 838.452C380.47 843.225 386.917 847.081 393.84 849.882C397.309 851.281 400.854 852.482 404.459 853.48C406.229 854.058 408.108 854.395 409.941 854.814L412.691 855.436L415.498 855.909C430.424 858.51 446.01 858.451 461.55 857.306C465.431 857.086 469.343 856.577 473.237 856.204L476.158 855.902L478.969 855.444L484.587 854.542C485.517 854.372 486.47 854.298 487.389 854.088L490.144 853.463L495.655 852.226L497.033 851.92L498.375 851.507L501.058 850.681L506.429 849.051L511.652 847.067C513.411 846.457 515.138 845.758 516.824 844.97C520.17 843.36 523.603 841.907 526.782 839.986C528.396 839.072 530.056 838.228 531.644 837.265L536.305 834.206C537.078 833.69 537.876 833.207 538.631 832.665L540.846 830.962L545.315 827.592L549.565 823.922C550.268 823.302 551.004 822.718 551.683 822.07L553.688 820.086C555.013 818.75 556.396 817.468 557.708 816.109L561.541 811.915C566.603 806.16 571.245 800.049 575.433 793.629L577.037 791.211L578.548 788.723C579.544 787.055 580.614 785.425 581.558 783.718L584.389 778.582C585.324 776.862 586.187 775.097 587.095 773.351C590.6 766.309 593.856 759.061 596.724 751.604C602.559 736.474 607.216 720.916 610.651 705.068V705.068Z" fill="#646464"/>
</svg>
