<svg width="40" height="40" viewBox="0 0 40 40" fill="none" xmlns="http://www.w3.org/2000/svg">
<path d="M29.505 40H10.4939C4.69826 40 0 35.3016 0 29.506V10.495C0 4.70007 4.69826 0 10.4939 0H29.505C35.3007 0 39.9988 4.70007 39.9988 10.495V29.506C39.9988 35.3016 35.3007 40 29.505 40Z" fill="#FFA309"/>
<path d="M13.059 15.8413C13.059 17.457 12.2823 18.7665 11.324 18.7665C10.3658 18.7665 9.58882 17.457 9.58882 15.8413C9.58882 14.228 10.3658 12.9186 11.324 12.9186C12.2823 12.9186 13.059 14.228 13.059 15.8413Z" fill="black"/>
<path d="M30.4098 15.8413C30.4098 17.457 29.6331 18.7665 28.6747 18.7665C27.7166 18.7665 26.9396 17.457 26.9396 15.8413C26.9396 14.228 27.7166 12.9186 28.6747 12.9186C29.6331 12.9186 30.4098 14.228 30.4098 15.8413Z" fill="black"/>
<path d="M25.9555 22.4759C27.5264 22.4759 28.5448 24.1283 27.8454 25.5349C26.5268 28.1869 23.5461 30.037 20.0803 30.037C16.6146 30.037 13.6338 28.1869 12.3153 25.5349C11.6158 24.1283 12.6343 22.4759 14.2051 22.4759H25.9555Z" fill="black"/>
</svg>
