<svg width="55" height="55" viewBox="0 0 55 55" fill="none" xmlns="http://www.w3.org/2000/svg">
<path d="M2.6191 27.5C2.6191 13.7586 13.7587 2.61902 27.5001 2.61902C41.2414 2.61902 52.381 13.7586 52.381 27.5C52.381 41.2413 41.2414 52.3809 27.5001 52.3809C13.7587 52.3809 2.6191 41.2413 2.6191 27.5Z" fill="#1B5DEC"/>
<path d="M37.7614 26.6304H28.3697V17.2386C28.3697 16.7583 27.9803 16.369 27.5001 16.369C27.0198 16.369 26.6304 16.7583 26.6304 17.2386V26.6304H17.2387C16.7584 26.6304 16.3691 27.0197 16.3691 27.5C16.3691 27.9803 16.7584 28.3696 17.2387 28.3696H26.6304V37.7613C26.6304 38.2416 27.0198 38.6309 27.5001 38.6309C27.9803 38.6309 28.3697 38.2416 28.3697 37.7613V28.3696H37.7614C38.2417 28.3696 38.631 27.9803 38.631 27.5C38.631 27.0197 38.2417 26.6304 37.7614 26.6304Z" fill="white"/>
</svg>
