<svg width="1000" height="1000" viewBox="0 0 1000 1000" fill="none" xmlns="http://www.w3.org/2000/svg">
<path d="M500.005 1000C776.15 1000 1000 776.19 1000 500.005C1000 223.82 776.15 0 500.005 0C223.86 0 0 223.86 0 500.005C0 776.15 223.86 1000 500.005 1000Z" fill="#EEEEEF"/>
<path d="M104.692 234.781C104.692 234.781 158.696 246.361 176.78 248.629C226.378 254.874 258.711 256.962 258.711 256.962L219.144 355.628L203.448 397.223L190.199 444.642L186.922 485.608L185.223 517.071L182.885 554.599L179.598 616.716L142.809 621.172L64.1661 625.169C64.1661 625.169 46.8908 607.474 40.2165 521.897C33.6621 438.048 43.2639 390.568 104.692 234.781Z" fill="#F39469"/>
<path d="M258.71 259.569C254.124 274.257 248.369 288.545 242.624 302.833C239.726 309.977 236.729 317.04 233.871 324.144L225.259 345.466C222.421 352.58 219.703 359.734 217.046 366.898C214.388 374.062 211.79 381.246 209.382 388.48C204.586 402.957 200.31 417.575 196.863 432.372L195.624 437.928C195.404 438.927 195.294 439.676 195.124 440.566C194.954 441.455 194.854 442.374 194.725 443.273C194.255 446.96 193.845 450.717 193.546 454.514C192.906 462.087 192.407 469.731 191.937 477.374L189.209 523.335L187.711 546.316C187.144 553.989 186.535 561.649 185.882 569.296C185.203 576.96 184.443 584.623 183.534 592.277C183.044 596.093 182.535 599.92 181.945 603.727C181.384 607.543 180.6 611.323 179.597 615.047C180.125 611.247 180.458 607.421 180.597 603.587C180.826 599.76 180.936 595.923 181.046 592.087C181.286 584.423 181.396 576.75 181.516 569.106L181.875 546.126L182.305 523.085C182.425 515.402 182.705 507.728 182.915 500.045C183.124 492.361 183.364 484.668 183.744 476.975C184.124 469.281 184.503 461.588 185.143 453.854C185.442 449.997 185.812 446.111 186.332 442.184C186.492 441.185 186.601 440.186 186.791 439.187C186.981 438.188 187.161 437.088 187.381 436.189L188.67 430.504C192.271 415.397 196.735 400.509 202.038 385.912C204.663 378.638 207.424 371.421 210.321 364.26C213.229 357.116 216.316 350.042 219.424 342.998C222.531 335.954 225.748 328.95 229.065 322.016C232.383 315.082 235.66 308.128 239.057 301.234C245.721 287.416 252.495 273.647 258.71 259.569Z" fill="#646464"/>
<path d="M494.51 633.541C492.527 633.219 490.511 633.168 488.515 633.391C481.771 633.961 475.046 635.2 468.312 635.22C455.033 635.27 442.234 632.222 429.965 627.227C413.349 620.337 396.097 615.093 378.458 611.57C364.41 608.832 284.118 607.433 280.232 606.284C289.154 594.614 311.695 565.019 320.568 553.689C326.836 545.699 334.305 538.728 342.709 533.027C343.708 532.317 344.837 531.678 346.126 530.869C345.696 539.991 344.777 548.414 341.53 556.627C338.664 563.836 337.774 571.679 338.952 579.347C339.951 585.742 343.558 591.987 351.581 592.336C352.221 592.469 352.794 592.823 353.2 593.335C354.004 594.259 355.072 594.914 356.26 595.212C357.448 595.511 358.699 595.438 359.844 595.004C362.362 594.215 363.121 592.206 363.591 589.848C364.44 585.502 365.01 581.026 366.498 576.859C370.735 565.059 375.121 553.309 379.907 541.729C386.621 525.493 391.327 508.877 391.108 491.142C390.898 474.077 389.109 457.231 383.914 440.875C380.956 431.513 379.641 421.71 380.027 411.9C380.297 404.456 380.567 397.002 380.497 389.559C380.357 374.072 379.717 358.585 379.797 343.098C379.867 329.879 384.843 287.016 385.332 273.797C385.482 269.8 385.492 269.8 389.209 268.801C399.131 266.054 408.553 267.552 418.964 267.372C431.523 267.143 459.989 271.259 464.125 270.37C467.702 269.601 475.536 271.009 476.395 267.113C477.134 263.716 437.328 259.579 427.846 260.578C418.035 261.577 391.877 261.158 386.292 262.816C386.631 258.33 386.621 242.833 388.42 224.849C389.269 216.436 390.318 208.043 391.187 199.63C391.257 199.001 390.648 198.291 390.358 197.632C389.899 198.191 389.159 198.711 389.039 199.34C388.29 203.027 387.74 206.754 387.041 210.451C379.657 249.418 373.223 288.594 370.985 328.281C370.225 341.729 369.985 355.258 369.726 368.686C369.476 380.406 369.486 392.126 369.376 403.846C369.286 413.378 368.757 422.94 370.975 432.342C374.112 445.691 377.459 458.99 380.397 472.378C385.063 493.67 383.474 514.093 372.893 533.736C364.252 549.544 357.824 566.465 353.789 584.023C353.649 584.457 353.465 584.876 353.24 585.272C349.503 585.092 347.375 583.684 346.306 580.386C345.751 578.636 345.449 576.816 345.406 574.981C345.227 568.187 346.855 561.682 349.183 555.378C352.454 546.986 353.211 537.824 351.361 529.01C351.184 528.407 351.192 527.764 351.385 527.166C351.577 526.567 351.945 526.04 352.44 525.653C356.145 521.961 359.571 518 362.692 513.803C363.991 511.935 363.881 508.897 363.871 506.389C363.756 505.765 363.485 505.181 363.083 504.69C362.681 504.199 362.162 503.818 361.573 503.582C360.693 503.392 359.345 504.581 358.485 505.47C357.807 506.32 357.292 507.289 356.967 508.328C355.463 512.167 353.008 515.56 349.833 518.189C346.662 520.787 343.435 523.312 340.151 525.763C336.154 528.76 331.988 531.348 328.161 534.475C317.47 543.308 309.337 554.379 301.184 565.449C291.392 578.838 281.541 592.166 271.349 605.245C268.642 608.712 264.865 611.53 261.148 613.988C256.872 616.815 252.096 614.827 250.427 609.921C251.196 609.343 251.908 608.694 252.555 607.983C257.961 600.989 263.386 593.925 268.652 586.781C280.022 571.354 290.633 555.348 303.332 540.92C305.654 538.068 307.548 534.894 308.957 531.498C309.717 529.943 310.083 528.225 310.023 526.495C309.964 524.765 309.481 523.076 308.618 521.576C308.158 520.767 306.989 519.808 306.22 519.878C305.129 520.136 304.168 520.778 303.512 521.686C303.044 522.479 302.76 523.367 302.683 524.284C301.506 529.967 298.852 535.24 294.989 539.571C291.123 543.967 287.126 548.314 283.719 553.06C273.298 567.627 263.136 582.385 252.845 597.022C249.678 601.548 246.56 606.174 241.505 608.882C237.508 611.01 235.24 609.701 234.92 605.225C234.892 604.64 234.929 604.054 235.03 603.477C235.81 598.751 237.028 594.484 240.715 590.768C247.2 584.193 250.707 575.63 254.843 567.477C262.117 552.99 268.612 538.072 278.273 524.874C280.112 522.356 281.221 519.278 282.5 516.381C283.129 514.982 283.389 513.383 281.651 512.384C279.912 511.385 278.903 512.384 277.984 513.603C275.116 517.3 271.989 520.837 269.511 524.774C260.459 539.191 253.265 554.588 246.191 570.035C243.193 576.52 240.036 583.024 234.631 587.8C232.442 589.798 229.325 590.798 226.507 591.867C225.808 592.146 224.509 591.357 223.75 590.758C223.54 590.588 224.149 589.239 224.529 588.51C225.758 586.132 227.267 583.883 228.276 581.436C229.965 577.339 231.383 573.133 232.872 568.956C237.788 555.098 242.104 540.98 250.857 528.78C252.995 525.783 254.853 522.615 256.852 519.518C259.629 515.212 262.127 510.766 262.847 505.53C263.136 503.462 263.116 501.434 261.128 500.135C259.14 498.836 257.181 499.545 255.623 500.954C250.347 505.71 245.022 510.416 239.986 515.422C232.103 523.265 224.09 531.018 217.915 540.4C216.465 542.456 214.694 544.264 212.669 545.756C211.342 546.741 209.753 547.311 208.103 547.394C207.004 547.394 205.695 546.395 204.826 545.546C204.556 545.266 205.295 543.817 205.765 543.008C211.7 532.827 217.865 522.765 223.55 512.454C226.777 506.609 228.915 500.175 232.103 494.31C240.206 479.422 251.576 467.123 264.016 455.812C273.557 447.14 283.199 438.557 293.091 430.304C304.301 420.942 308.018 409.152 305.84 395.074C305.081 390.198 304.171 385.332 303.672 380.426C302.503 368.686 301.534 356.926 300.485 345.166C298.866 326.992 297.057 308.837 295.689 290.643C294.49 274.656 293.9 258.67 292.811 242.763C291.722 226.857 290.383 211.06 289.044 195.074C288.974 194.195 288.145 193.375 287.665 192.516C287.316 193.315 286.666 194.115 286.666 194.914C286.746 211.82 286.666 228.735 287.126 245.641C287.436 257.121 288.025 268.621 288.585 280.062L287.536 279.872C287.626 280.631 287.695 281.391 287.755 282.15C289.634 284.088 290.643 291.672 289.254 294.989C289.254 295.579 289.334 296.178 289.364 296.767C289.502 300.475 289.167 304.185 288.365 307.808C288.924 307.498 289.474 307.189 290.033 306.809C291.103 323.655 292.132 340.271 293.241 356.876C294.11 369.865 294.32 382.854 297.237 395.544C299.765 406.624 296.908 415.886 288.315 423.35C286.926 424.559 285.567 425.808 284.118 426.957C271.265 437.03 259.067 447.913 247.6 459.539C235.879 471.509 226.328 484.828 219.743 500.165C215.447 510.156 211.39 520.268 205.186 529.31C202.348 533.446 199.48 537.573 196.733 541.779C194.485 545.226 196.393 548.833 200.46 549.093C201.091 549.101 201.707 549.296 202.228 549.653C206.055 552.83 209.842 553.18 214.218 550.652C218.284 548.254 221.692 544.886 224.139 540.85C229.875 531.708 238.757 525.963 247.03 519.338C234.601 535.644 229.045 555.018 222.611 574.052C217.875 583.044 215.107 592.126 217.455 595.244C221.442 600.729 227.037 599.73 232.732 597.732C231.283 601.868 230.204 605.725 231.333 609.811C232.552 614.228 235.15 616.146 239.666 615.467C242.302 614.897 244.896 614.15 247.43 613.229C248.509 618.224 251.906 621.102 257.231 621.132C259.735 621.241 262.22 620.661 264.415 619.453C268.571 616.831 272.421 613.755 275.895 610.281C280.182 605.845 271.13 612.389 272.578 613.109C278.174 615.916 343.738 614.417 362.602 618.714C377.509 622.111 376.66 621.821 391.447 625.708C395.574 626.787 399.5 628.585 404.017 630.224C346.715 628.296 331.139 651.206 311.365 658.2C298.296 662.836 285.387 667.982 272.648 673.437C265.911 676.167 260.141 680.842 256.072 686.866C255.243 688.145 254.594 690.553 255.233 691.572C256.432 693.47 258.65 692.571 260.429 691.692C262.207 690.813 264.135 689.693 266.044 688.884C275.766 684.618 285.297 679.792 295.279 676.265C315.372 669.161 335.695 662.706 355.957 656.082C373.552 650.337 424.409 648.339 432.083 643.892C432.927 643.44 433.905 643.305 434.84 643.513C452.146 648.658 469.631 648.958 487.256 645.511C490.723 644.842 494.12 643.892 496.698 641.225C499.445 638.357 498.346 634.301 494.51 633.541Z" fill="#646464"/>
<path d="M774.522 496.428C772.462 495.13 770.156 494.273 767.748 493.911C765.34 493.55 762.884 493.693 760.534 494.33C757.943 494.979 755.431 495.907 753.04 497.098C743.648 502.053 734.323 507.116 725.064 512.285C722.934 513.471 720.926 514.863 719.069 516.441C707.019 526.652 708.018 534.326 713.554 545.646C713.813 546.186 714.643 546.446 715.202 546.835C715.499 546.281 715.699 545.679 715.792 545.057C715.722 543.138 715.502 541.22 715.342 539.302C715.282 531.169 717.34 526.313 724.264 522.246C735.385 515.782 746.855 509.937 758.236 503.862C759.275 503.325 760.362 502.887 761.483 502.553C763.31 501.914 765.278 501.79 767.171 502.195C769.064 502.601 770.808 503.519 772.214 504.851C774.276 506.571 775.967 508.692 777.183 511.086C778.399 513.481 779.116 516.097 779.288 518.777C779.461 521.457 779.087 524.144 778.189 526.674C777.29 529.205 775.886 531.526 774.062 533.497C772.653 535.045 771.065 536.414 769.736 538.033C768.595 539.36 767.681 540.865 767.028 542.489C765.849 545.776 767.568 547.545 771.025 546.715C772.169 546.488 773.259 546.04 774.232 545.396C780.517 540.837 785.091 534.3 787.221 526.832C789.989 516.801 783.524 501.734 774.522 496.428Z" fill="#646464"/>
<path d="M766.898 509.807C766.658 511.325 766.518 512.714 766.218 514.063C765.929 515.454 765.521 516.818 764.999 518.14C763.111 522.636 760.493 525.254 754.868 523.245C750.002 521.517 743.488 523.425 741.879 527.472C740 532.108 736.883 533.037 732.617 532.947C732.198 532.932 731.78 532.962 731.368 533.037C729.3 533.407 728.091 535.145 728.88 537.033C729.388 538.353 730.248 539.507 731.368 540.371C733.351 541.858 735.707 542.769 738.175 543.004C740.643 543.238 743.128 542.787 745.356 541.7C746.832 540.951 748.019 539.736 748.733 538.242C749.766 535.972 750.457 533.561 750.781 531.089C751.081 528.85 752.06 528.461 753.939 528.9C755.547 529.28 757.186 530.009 758.774 529.9C766.208 529.5 772.263 520.837 770.195 513.713C769.715 512.175 769.186 510.446 766.898 509.807Z" fill="#646464"/>
<path d="M665.904 532.388L647.49 539.312C649.898 535.115 652.386 531.578 654.044 527.682C656.151 522.518 657.969 517.241 659.49 511.875C659.909 510.466 660.419 508.228 658.191 507.569C655.963 506.909 655.623 509.058 654.874 510.326C653.974 511.825 653.375 513.504 652.616 515.082C649.618 521.397 646.85 527.901 643.343 533.956C639.9 539.991 634.998 545.065 629.086 548.714C615.217 557.366 604.736 569.256 601.589 585.752C599.341 597.562 598.392 609.632 597.392 621.632C596.613 631.054 596.803 640.556 596.273 649.998C595.87 659.511 593.124 668.777 588.28 676.975C578.918 692.571 566.049 704.641 550.462 713.983C544.67 717.37 538.663 720.374 532.478 722.976C529.121 724.275 525.763 725.583 522.396 726.862C502.523 734.416 482.53 741.72 462.577 749.213C452.586 752.93 442.594 756.777 432.663 760.634C422.731 764.49 412.779 768.537 402.908 772.713C393.036 776.89 383.185 781.206 373.463 785.852C367.421 788.71 361.426 791.684 355.478 794.775C349.578 797.865 342.956 799.314 336.304 798.971H335.935L323.026 798.402L310.107 797.882L297.198 797.482C279.992 796.953 262.787 796.683 245.582 796.483C228.376 796.283 211.171 796.343 193.955 796.483L181.046 796.613C176.74 796.613 172.444 796.723 168.127 796.823C161.623 796.933 155.138 797.053 148.594 797.242C148.455 797.252 148.325 797.312 148.227 797.411C148.13 797.51 148.072 797.642 148.064 797.78C148.057 797.919 148.101 798.056 148.187 798.165C148.274 798.274 148.397 798.347 148.534 798.372L155.088 799.301L167.918 800.939C176.47 802.018 185.043 802.938 193.616 803.817C210.761 805.565 227.917 807.044 245.072 808.383C262.227 809.722 279.373 810.891 296.518 811.97C305.091 812.536 313.66 813.076 322.226 813.589C328.681 813.978 335.076 814.388 341.53 814.957C353.57 816.017 363.561 808.063 373.962 802.918C385.503 797.203 397.203 791.797 408.933 786.532C418.604 782.195 428.316 777.916 438.068 773.693C456.282 765.819 474.437 756.857 492.891 749.143C511.346 741.43 531.039 736.754 548.704 727.392C549.423 727.002 550.133 726.623 550.842 726.223C564.831 718.526 577.301 708.345 587.641 696.178C598.781 682.87 605.715 667.872 606.375 650.357C606.755 639.956 606.924 629.545 607.734 619.184C607.474 616.946 616.786 574.802 617.216 574.092C620.876 568.152 625.65 562.975 631.274 558.845C642.264 550.692 653.255 542.689 664.246 534.616C664.925 534.116 665.555 533.547 666.244 533.007L665.904 532.388Z" fill="#646464"/>
<path d="M553.169 517.261C551.021 502.983 546.535 489.584 540.79 476.366C533.226 458.97 526.552 441.195 519.628 423.53C516.38 415.227 516.3 406.795 520.117 398.622C523.364 391.628 526.382 384.504 530.379 377.979C547.884 349.443 565.708 321.107 583.433 292.702C583.833 292.042 584.343 291.453 584.862 290.703C591.407 299.586 598.301 307.959 601.098 318.57C603.339 326.442 605.061 334.452 606.254 342.549C608.192 357.916 609.201 373.383 610.96 388.77C611.689 395.145 612.549 401.509 613.678 407.824C619.856 409.817 625.665 412.811 630.873 416.686L631.043 416.416C629.045 407.804 627.506 399.061 626.047 390.339C623.23 373.763 621.281 357.037 618.314 340.491C615.816 326.503 611.24 313.054 603.257 301.134C599.19 295.07 594.204 289.604 589.388 283.549C589.558 283.28 590.058 282.42 590.637 281.621C602.437 265.045 614.317 248.529 626.037 231.903C631.143 224.649 636.029 217.216 640.785 209.762C641.384 208.833 641.604 206.915 641.044 206.165C640.565 205.693 639.996 205.32 639.372 205.068C638.748 204.816 638.081 204.69 637.408 204.696C636.27 204.822 635.221 205.371 634.47 206.235C632.302 208.573 630.234 211.001 628.305 213.529C609.002 238.728 590.228 264.336 573.232 291.143C556.516 317.491 540.69 344.418 524.563 371.145C519.485 379.316 515.336 388.03 512.194 397.123C510.196 403.178 509.196 409.303 510.405 415.647C510.825 417.765 511.405 419.854 512.014 422.571C506.709 417.406 503.112 411.581 497.546 407.584C497.205 410.39 497.98 413.218 499.705 415.457C502.455 419.247 505.425 422.873 508.597 426.318C513.173 431.194 517.14 436.379 519.488 442.714C521.576 448.359 523.794 453.955 525.932 459.58C531.567 474.417 534.845 490.124 542.488 504.212C543.014 505.26 543.378 506.382 543.567 507.539C544.686 513.204 545.456 518.949 546.855 524.525C549.782 536.295 553.349 547.865 559.484 558.845C558.026 559.01 556.549 558.839 555.167 558.346C553.475 557.449 551.863 556.406 550.352 555.229C549.981 554.926 549.704 554.524 549.552 554.069C544.556 540.501 539.621 526.923 534.565 513.354C534.345 512.765 533.706 512.355 533.266 511.815C532.996 512.425 532.457 513.044 532.487 513.634C532.637 516.721 532.906 519.809 533.176 522.896C533.876 530.759 536.813 537.983 539.611 545.237C541.759 550.822 543.308 556.547 542.858 562.612C542.268 570.715 541.549 578.808 540.969 586.912C540.63 591.707 540.44 596.523 540.18 601.419C536.703 601.329 534.185 599.261 531.767 597.283C531.411 596.969 531.12 596.588 530.913 596.16C530.705 595.733 530.585 595.269 530.558 594.795C530.718 586.802 530.249 578.619 531.458 570.725C533.524 557.99 531.384 544.928 525.363 533.517C523.364 529.58 521.446 525.524 519.588 521.527C516.561 515.354 514.604 508.712 513.803 501.884C513.723 501.045 512.883 499.656 512.314 499.616C510.625 499.486 510.845 500.995 510.825 502.154C510.744 510.062 512.352 517.897 515.541 525.134C517.659 530.05 519.937 534.896 522.046 539.812C525.343 547.495 526.542 555.388 523.924 563.551C520.357 574.672 520.327 586.122 520.617 597.622C520.747 602.548 520.617 607.474 520.617 612.67H514.072C515.861 609.033 515.072 605.676 514.072 602.398C510.565 591.038 508.647 579.418 509.336 567.508C509.938 557.924 507.752 548.37 503.042 540.001C498.186 531.219 493.05 522.576 487.975 513.924C484.647 508.278 481.55 502.563 480.201 496.059C480.071 495.449 479.452 494.94 479.062 494.38C478.463 494.85 477.943 495.414 477.523 496.049C477.261 496.842 477.127 497.671 477.124 498.507C476.584 504.641 478.273 510.277 480.971 515.672C485.966 525.664 490.962 535.535 495.898 545.527C498.995 551.841 500.894 558.406 500.154 565.63C498.765 579.378 501.253 592.607 505.959 605.506C506.129 606.093 506.262 606.69 506.359 607.294L505.61 607.824C503.182 606.255 500.434 605.016 498.426 603.028C491.262 595.944 488.434 586.752 486.736 577.16C485.736 571.165 485.617 564.97 484.408 559.005C482.669 550.443 477.284 543.628 472.678 536.444C469.621 531.774 466.926 526.877 464.614 521.797C458.04 506.97 451.795 492.002 445.411 477.085C445.142 476.389 444.807 475.72 444.412 475.087C444.172 474.737 443.652 474.577 443.263 474.337C442.942 474.755 442.69 475.22 442.513 475.716C442.506 476.217 442.591 476.715 442.763 477.185C444.748 487.714 447.804 498.012 451.885 507.919C454.77 514.69 456.023 522.046 455.542 529.39C455.122 536.135 454.253 542.819 451.006 548.794C448.775 552.595 446.245 556.213 443.442 559.615C442.034 561.443 440.685 560.614 439.955 558.755C439.468 557.689 439.148 556.553 439.006 555.388C438.796 550.802 438.287 546.166 438.716 541.63C439.799 531.195 439.256 520.655 437.108 510.387C434.59 498.966 431.433 487.676 428.675 476.306C425.358 462.587 424.948 448.949 430.403 435.61C434.65 425.239 438.666 414.758 443.392 404.636C454.993 379.498 467.372 354.729 478.583 329.41C493.82 294.92 508.407 260.129 522.845 225.289C528.34 212.03 532.667 198.312 537.403 184.713C537.712 183.804 536.953 182.515 536.693 181.406C535.814 181.946 534.565 182.266 534.095 183.055C531.098 188.001 527.951 192.877 525.583 198.112C516.98 217.096 508.447 236.08 500.324 255.243C486.086 288.815 471.988 322.426 456.152 355.298C445.081 378.279 434.63 401.549 424.229 424.829C419.473 435.49 416.375 446.701 416.335 458.571C416.444 468.386 418.096 478.124 421.231 487.426C427.226 506.23 430.024 525.394 428.555 545.097C428.389 548.612 428.553 552.134 429.045 555.618C429.342 558.016 429.943 560.366 430.833 562.612C434.34 571.605 443.602 573.603 450.656 566.919C454.759 562.943 457.977 558.145 460.098 552.841C461.787 548.844 463.096 544.618 464.674 540.371C471.808 549.663 477.034 559.595 477.254 571.655C477.495 580.659 479.634 589.511 483.528 597.632C487.755 606.725 493.959 613.759 504.081 616.486C504.471 616.581 504.821 616.798 505.08 617.106C507.388 620.773 511.075 621.372 514.932 621.532C518.359 621.682 521.806 621.532 525.233 621.532C529.09 621.532 530.758 619.973 530.858 616.107C530.938 613.109 530.858 610.112 530.858 607.734C536.014 608.513 540.989 609.462 546.015 609.962C549.732 610.332 551.441 607.554 550.551 603.897C549.718 600.76 549.242 597.539 549.133 594.295C549.063 588.101 549.412 581.906 549.652 575.711C549.812 571.904 550.092 568.098 550.332 564.071C551.151 564.391 551.68 564.581 552.19 564.8C557.515 567.138 560.813 566.589 565.019 562.642C568.206 559.645 568.316 559.205 566.398 555.328C560.453 543.149 555.197 530.709 553.169 517.261Z" fill="#646464"/>
<path d="M285.488 677.804C281.012 678.694 276.495 679.393 272.039 680.033C267.583 680.672 263.047 681.222 258.591 681.741C249.598 682.74 240.436 679.913 231.464 680.552C213.526 681.771 195.584 682.411 177.639 682.47C159.695 682.53 141.757 682.044 123.825 681.012C114.833 680.462 106.01 681.831 97.028 680.892C92.5418 680.402 88.1455 681.431 83.6493 680.822C80.562 680.402 77.4646 679.953 74.3672 679.433C74.1904 679.398 74.0312 679.302 73.9169 679.163C73.8025 679.024 73.74 678.849 73.74 678.669C73.74 678.488 73.8025 678.314 73.9169 678.174C74.0312 678.035 74.1904 677.94 74.3672 677.904C77.4546 677.365 80.542 676.905 83.6393 676.456C88.1155 675.796 92.6317 675.257 97.0879 674.727C106.08 673.728 115.023 672.949 123.995 672.309C141.933 671.09 159.875 670.461 177.819 670.421C195.764 670.381 213.712 670.87 231.664 671.889C240.656 672.449 249.648 673.148 258.641 674.088C263.127 674.567 267.633 675.087 272.109 675.686C276.585 676.286 281.002 676.945 285.488 677.804Z" fill="#646464"/>
<path d="M290.794 262.467C274.877 261.318 259.041 259.62 243.244 257.721C235.331 256.832 227.447 255.723 219.554 254.724L195.914 251.417L172.314 247.81C164.461 246.501 156.598 245.292 148.764 243.883C133.078 241.166 117.421 238.248 101.804 234.771C117.721 235.92 133.557 237.609 149.364 239.507C157.277 240.406 165.15 241.505 173.054 242.504L196.763 245.822L220.353 249.439C228.207 250.747 236.07 251.956 243.903 253.365C259.56 256.093 275.217 259.02 290.794 262.467Z" fill="#646464"/>
<path d="M247.45 611.72C231.673 614.048 215.846 615.827 200 617.405C192.087 618.255 184.153 618.894 176.23 619.633L152.43 621.532L128.621 623.141C120.627 623.56 112.734 624.09 104.771 624.409C88.8744 625.169 72.9579 625.718 57.0015 625.708C72.788 623.37 88.6146 621.582 104.451 620.003C112.364 619.164 120.298 618.524 128.221 617.785L152.021 615.887L175.84 614.298C183.784 613.868 191.727 613.299 199.68 613.019C215.577 612.29 231.493 611.72 247.45 611.72Z" fill="#646464"/>
<path d="M614.198 343.618C614.777 346.066 615.267 348.544 615.667 351.022C616.066 353.5 616.446 356.018 616.766 358.476C617.385 363.471 617.855 368.397 618.394 373.263C619.463 382.975 620.762 392.447 624.389 400.18C625.253 402.093 626.287 403.926 627.477 405.655C628.637 407.381 629.94 409.005 631.373 410.511C634.359 413.613 637.746 416.301 641.445 418.504C643.343 419.644 645.331 420.693 647.37 421.682C649.408 422.671 651.496 423.61 653.644 424.469C657.921 426.228 662.397 427.667 666.933 429.046C671.369 430.424 675.883 431.535 680.451 432.373C684.773 433.205 689.171 433.567 693.57 433.452C695.665 433.36 697.751 433.13 699.815 432.762C701.856 432.372 703.861 431.814 705.81 431.094C709.963 429.451 713.932 427.374 717.65 424.899C721.646 422.371 725.643 419.474 729.939 416.696L733.157 414.618C734.226 413.938 735.335 413.289 736.424 412.62C738.592 411.271 740.82 410.032 743.048 408.783C751.974 403.825 761.279 399.582 770.875 396.094C780.477 392.598 790.371 389.964 800.44 388.22C802.957 387.791 805.485 387.451 808.013 387.111C810.541 386.771 813.089 386.512 815.647 386.402C820.743 386.015 825.857 385.919 830.964 386.112C851.346 386.861 871.629 391.897 889.524 401.599C898.478 406.407 906.75 412.388 914.123 419.384C921.421 426.379 927.698 434.367 932.767 443.114C937.778 451.817 941.503 461.2 943.828 470.97C944.963 475.826 945.715 480.763 946.076 485.737C946.406 490.695 946.326 495.671 945.836 500.615C946.151 490.748 944.883 480.895 942.079 471.43C939.287 462.052 935.147 453.13 929.79 444.942C924.515 436.788 918.125 429.413 910.806 423.031C903.492 416.724 895.367 411.424 886.646 407.274C869.179 399.02 850.082 394.793 830.764 394.905C825.976 394.909 821.192 395.189 816.436 395.744C814.048 395.934 811.69 396.373 809.312 396.683C806.934 396.993 804.596 397.502 802.258 398.002C792.883 400.003 783.704 402.835 774.831 406.465C765.959 410.112 757.39 414.455 749.203 419.454C747.205 420.713 745.117 421.962 743.138 423.31C742.139 423.97 741.14 424.619 740.141 425.309L737.203 427.377C733.307 430.115 729.41 433.182 725.144 436.15C720.732 439.328 715.996 442.03 711.016 444.213C708.357 445.329 705.61 446.221 702.802 446.88C700.017 447.499 697.187 447.9 694.34 448.079C688.841 448.36 683.328 448.025 677.904 447.08C672.735 446.164 667.627 444.937 662.607 443.403C657.615 441.916 652.711 440.148 647.919 438.108C642.958 436.053 638.202 433.538 633.711 430.594C628.993 427.552 624.734 423.851 621.062 419.604C619.212 417.423 617.56 415.083 616.126 412.61C614.721 410.123 613.544 407.515 612.609 404.816C610.884 399.628 609.895 394.223 609.672 388.76C609.458 383.61 609.608 378.452 610.121 373.323C611.08 363.271 612.689 353.58 614.198 343.618Z" fill="#646464"/>
<path d="M949.813 491.163C950.712 492.342 951.671 493.501 952.501 494.75C953.33 495.998 954.209 497.227 954.928 498.546C955.648 499.865 956.417 501.174 957.057 502.543C957.376 503.222 957.736 503.892 958.056 504.541L958.945 506.629C961.234 512.292 962.864 518.199 963.801 524.234C964.745 530.282 965.156 536.4 965.03 542.519C965.03 544.048 964.94 545.576 964.87 547.105C964.8 548.634 964.67 550.162 964.52 551.681C964.221 554.679 963.891 557.736 963.401 560.733C959.724 584.813 951.411 607.294 947.805 629.955C946.855 635.573 946.264 641.246 946.036 646.94C945.766 652.538 945.993 658.148 946.716 663.706C946.925 665.075 947.065 666.474 947.365 667.822C947.665 669.171 947.865 670.51 948.214 671.989C949.107 675.32 949.514 678.763 949.423 682.21C949.312 684.306 948.81 686.363 947.944 688.275C947.056 690.222 945.769 691.961 944.168 693.381C941.272 695.81 937.8 697.455 934.086 698.157C932.421 698.507 930.73 698.728 929.031 698.816C928.201 698.816 927.362 698.876 926.543 698.816L924.155 698.716C922.563 698.65 920.976 698.503 919.399 698.277C917.82 698.147 916.271 697.737 914.723 697.457C913.174 697.177 911.665 696.668 910.147 696.278C908.628 695.889 907.149 695.279 905.69 694.759C904.232 694.24 902.813 693.551 901.404 692.891C899.995 692.232 898.596 691.522 897.277 690.713C886.577 684.468 877.734 675.156 873.038 664.136C879.763 673.683 889.019 681.165 899.765 685.737C904.934 687.976 910.399 689.453 915.992 690.123C917.37 690.233 918.739 690.453 920.128 690.453C921.503 690.528 922.88 690.528 924.255 690.453L926.313 690.373C926.982 690.373 927.622 690.263 928.311 690.173C929.569 690.006 930.815 689.752 932.038 689.414C934.161 688.893 936.114 687.837 937.713 686.347C938.316 685.734 938.787 685.003 939.094 684.2C939.402 683.397 939.541 682.54 939.502 681.681C939.35 679.197 938.897 676.741 938.153 674.367C937.763 672.968 937.403 671.369 937.044 669.851C936.684 668.332 936.434 666.763 936.134 665.205C935.139 659.019 934.728 652.753 934.906 646.491C935.091 640.317 935.682 634.162 936.674 628.066C937.673 622.071 938.962 616.076 940.451 610.221C941.94 604.366 943.588 598.611 945.297 592.916C948.684 581.526 952.181 570.335 954.729 559.025C956.042 553.399 957.042 547.706 957.726 541.969C958.375 536.242 958.596 530.474 958.386 524.714C958.056 513.032 955.128 501.571 949.813 491.163Z" fill="#646464"/>
<path d="M907.269 468.941C913.628 491.537 916.509 514.969 915.811 538.432C915.518 550.22 914.393 561.973 912.444 573.602C911.525 579.447 910.246 585.183 909.107 590.838C907.968 596.493 906.749 602.048 905.9 607.584C904.966 613.007 904.462 618.496 904.391 624C904.349 626.684 904.452 629.369 904.701 632.043C904.971 634.81 905.37 637.568 905.79 640.296C906.628 645.71 907.932 651.042 909.687 656.232C911.271 661.173 913.757 665.777 917.02 669.811C918.565 671.623 920.423 673.143 922.506 674.297C923.529 674.853 924.607 675.302 925.723 675.636C926.003 675.716 926.293 675.776 926.582 675.846L927.012 675.955H927.122C926.812 675.536 930.779 677.214 930.439 679.323C931.438 681.451 927.192 684.318 927.122 683.649H926.892L924.464 683.769C918.293 683.74 912.167 682.704 906.33 680.701C900.723 678.81 895.312 676.381 890.173 673.448C885.041 670.571 880.308 667.034 876.095 662.927C878.526 664.492 881.048 665.91 883.649 667.173C884.928 667.822 886.247 668.402 887.546 669.001C888.844 669.601 890.173 670.13 891.542 670.61C896.826 672.668 902.278 674.263 907.838 675.376C910.558 675.91 913.307 676.281 916.071 676.485C918.732 676.717 921.41 676.683 924.064 676.385L925.953 676.105H926.073H926.143C926.143 675.456 921.866 678.263 922.905 680.352C922.566 682.41 926.482 684.059 926.123 683.639H926.043H925.893L925.253 683.549C924.824 683.479 924.394 683.429 923.975 683.339C922.275 682.999 920.616 682.476 919.029 681.78C915.886 680.402 913.032 678.443 910.616 676.005C906.165 671.358 902.692 665.864 900.405 659.849C898.125 654.172 896.405 648.286 895.269 642.274C894.669 639.277 894.21 636.329 893.84 633.342C893.475 630.254 893.278 627.149 893.251 624.04C893.269 617.954 893.777 611.879 894.769 605.875C895.768 599.96 896.958 594.185 898.246 588.52C899.535 582.855 900.854 577.279 901.953 571.724C904.2 560.557 905.868 549.282 906.949 537.943C908.108 526.592 908.588 515.142 908.658 503.652C908.728 492.162 908.088 480.562 907.269 468.941Z" fill="#646464"/>
<path d="M879.642 660.918L881.84 656.672L883.839 652.365L885.697 647.999L887.406 643.583C889.532 637.666 891.221 631.602 892.461 625.438C893.69 619.322 894.435 613.118 894.689 606.884C894.99 600.697 894.79 594.495 894.09 588.34L897.627 591.567C892.471 591.807 887.336 592.346 882.24 593.066C877.144 593.785 872.089 594.794 867.103 596.003C857.142 598.427 847.439 601.806 838.127 606.095L831.503 609.092L831.073 601.629C830.604 596.416 828.24 591.557 824.429 587.97C820.474 584.101 815.619 581.275 810.301 579.747C804.62 578.255 798.743 577.642 792.876 577.929C786.647 578.213 780.438 578.82 774.272 579.747L769.845 580.327L768.257 576.12C766.302 570.747 765.768 564.96 766.706 559.32C767.644 553.68 770.023 548.378 773.612 543.928C777.269 539.511 781.605 536.554 785.442 533.826C789.279 531.098 792.896 528.611 795.434 525.833C797.859 523.249 799.277 519.881 799.43 516.341C799.52 512.526 798.6 508.755 796.763 505.41C795.832 503.656 794.71 502.011 793.415 500.505C792.767 499.756 792.077 499.046 791.347 498.376C790.998 498.047 790.618 497.717 790.208 497.377C789.799 497.037 789.419 496.698 788.999 496.378C785.547 493.853 781.752 491.834 777.729 490.383C773.488 488.836 769.149 487.574 764.74 486.606C760.341 485.533 755.879 484.732 751.381 484.208C747.196 483.675 742.945 484.105 738.952 485.467C737.955 485.855 736.981 486.299 736.034 486.796C735.035 487.296 734.036 487.795 733.097 488.415C731.172 489.567 729.277 490.803 727.412 492.122C723.707 494.741 720.3 497.756 717.25 501.114C715.756 502.751 714.446 504.547 713.344 506.469C712.254 508.468 711.135 510.606 710.036 512.664C705.64 520.997 701.204 529.32 696.658 537.583C700.125 528.8 703.702 520.088 707.309 511.375L708.658 508.108C709.127 507.009 709.507 505.96 710.066 504.811C711.133 502.553 712.44 500.415 713.963 498.436C716.958 494.568 720.362 491.034 724.114 487.895C725.987 486.316 727.938 484.832 729.959 483.449C730.959 482.77 732.018 482.1 733.097 481.451C734.176 480.801 735.245 480.222 736.494 479.642C741.317 477.587 746.546 476.664 751.781 476.945C756.648 477.158 761.494 477.725 766.279 478.643C771.126 479.433 775.911 480.569 780.596 482.04C785.51 483.591 790.174 485.842 794.445 488.725C795.004 489.074 795.514 489.494 796.053 489.884C796.593 490.273 797.052 490.693 797.632 491.142C798.682 492.033 799.683 492.98 800.629 493.98C802.477 495.986 804.096 498.191 805.455 500.554C808.338 505.423 809.844 510.983 809.812 516.641C809.748 519.621 809.159 522.567 808.073 525.343C806.974 528.065 805.439 530.59 803.527 532.817C801.767 534.863 799.813 536.733 797.692 538.402C795.694 540.011 793.695 541.4 791.807 542.799C788.03 545.516 784.583 548.104 782.275 551.022C779.955 553.962 778.422 557.446 777.821 561.143C777.22 564.84 777.57 568.629 778.838 572.154L772.843 568.527C779.393 567.603 785.986 567.013 792.596 566.758C799.619 566.492 806.64 567.339 813.398 569.266C820.496 571.388 826.922 575.312 832.053 580.656C834.681 583.396 836.847 586.545 838.467 589.978C840.127 593.532 841.038 597.388 841.145 601.309L834.091 596.903C849.137 590.545 865.081 586.57 881.351 585.123C886.738 584.64 892.149 584.457 897.557 584.573H900.944L901.104 587.74C901.768 600.791 900.211 613.859 896.498 626.387C894.681 632.57 892.341 638.587 889.504 644.372L887.316 648.669L884.918 652.835L882.36 656.902L879.642 660.918Z" fill="#646464"/>
<path d="M702.792 540.44C697.685 540.374 692.592 540.985 687.645 542.259C685.233 542.894 682.866 543.691 680.561 544.647C679.402 545.096 678.293 545.646 677.174 546.165C676.055 546.685 674.986 547.275 673.937 547.924C669.747 550.361 665.931 553.39 662.607 556.916C659.321 560.463 656.449 564.372 654.044 568.566C649.158 576.989 645.771 586.371 642.754 596.013C641.255 600.849 639.816 605.685 638.557 610.581C637.298 615.477 636.079 620.372 635.04 625.318C634.511 627.786 634.041 630.254 633.521 632.742C633.045 635.05 632.711 637.386 632.522 639.736C632.133 644.262 632.592 648.618 634.301 651.406C634.505 651.756 634.735 652.09 634.99 652.405L635.37 652.875L635.799 653.284C636.382 653.873 637.057 654.362 637.798 654.733C639.557 655.608 641.459 656.159 643.413 656.362C647.839 656.951 653.035 656.612 658.72 657.221C661.788 657.497 664.784 658.308 667.572 659.619C669.06 660.355 670.439 661.293 671.669 662.407C672.807 663.457 673.813 664.641 674.666 665.934C675.466 667.063 676.125 668.092 676.775 668.931C677.061 669.316 677.375 669.68 677.714 670.02C678.018 670.33 678.352 670.608 678.713 670.849C679.259 671.271 679.907 671.54 680.591 671.629C680.831 671.658 681.074 671.63 681.301 671.549C681.559 671.473 681.796 671.336 681.99 671.149C682.564 670.544 682.956 669.789 683.119 668.971C683.37 667.883 683.508 666.771 683.529 665.654C683.529 664.505 683.529 663.186 683.449 661.897L683.359 658.01L683.209 650.247C683.209 647.659 683.209 645.071 683.209 642.474C683.819 644.991 684.348 647.529 684.918 650.057L686.486 657.661L687.256 661.467C687.495 662.736 687.775 663.975 687.965 665.404C688.17 666.857 688.203 668.329 688.065 669.79C687.936 671.54 687.343 673.223 686.346 674.666C685.719 675.498 684.929 676.193 684.023 676.709C683.118 677.224 682.117 677.549 681.081 677.664C679.176 677.841 677.26 677.462 675.566 676.575C674.794 676.191 674.064 675.729 673.388 675.196C672.747 674.693 672.143 674.145 671.579 673.557C670.53 672.468 669.671 671.399 668.881 670.56C668.221 669.771 667.47 669.063 666.643 668.452C665.902 667.905 665.088 667.464 664.225 667.143C662.237 666.482 660.156 666.145 658.061 666.143C653.454 665.984 648.319 666.733 642.474 666.343C639.268 666.19 636.121 665.427 633.202 664.095C629.995 662.569 627.263 660.2 625.298 657.241C623.493 654.436 622.308 651.279 621.821 647.979C621.349 645.006 621.208 641.99 621.402 638.987C621.587 636.196 621.944 633.42 622.471 630.674C622.94 628.086 623.47 625.498 623.989 622.93C625.119 617.795 626.377 612.679 627.806 607.623C629.235 602.568 630.804 597.552 632.602 592.636C634.353 587.623 636.353 582.701 638.597 577.888C639.729 575.457 640.955 573.063 642.274 570.705C643.633 568.357 645.022 566.029 646.6 563.8C647.35 562.661 648.209 561.592 649.028 560.493C649.848 559.394 650.737 558.355 651.676 557.346C653.492 555.278 655.452 553.342 657.541 551.551C661.725 547.977 666.445 545.083 671.529 542.978C674.027 541.935 676.607 541.099 679.243 540.48C681.841 539.841 684.488 539.416 687.156 539.211C689.796 539.012 692.448 539.012 695.089 539.211C697.684 539.424 700.26 539.834 702.792 540.44Z" fill="#646464"/>
<path d="M685.188 657.88C684.948 659.034 684.901 660.219 685.048 661.387C685.241 662.509 685.605 663.594 686.127 664.605C686.654 665.571 687.306 666.465 688.065 667.262C688.819 668.004 689.677 668.63 690.613 669.121C694.36 671.119 698.047 669.061 703.103 667.592C704.484 667.194 705.912 666.976 707.349 666.943C709.008 666.92 710.652 667.261 712.165 667.942C713.698 668.641 715.061 669.664 716.162 670.939C717.167 672.115 718.001 673.427 718.64 674.836C719.778 677.4 720.503 680.128 720.788 682.919C721.087 685.427 721.307 687.735 721.707 689.713C721.953 691.371 722.617 692.939 723.635 694.269C724.539 695.315 725.754 696.043 727.102 696.348C728.739 696.745 730.441 696.792 732.098 696.488C732.975 696.355 733.838 696.141 734.676 695.848C735.526 695.539 736.351 695.164 737.144 694.729C740.561 692.871 743.888 689.953 747.595 686.736C749.539 685.047 751.584 683.478 753.72 682.04C754.259 681.66 754.789 681.27 755.348 680.921L757.037 679.922L758.725 678.922L760.454 678.013C765.073 675.674 769.917 673.809 774.912 672.448C779.783 671.146 784.747 670.217 789.759 669.67C799.554 668.705 809.412 668.538 819.234 669.171C828.866 669.66 838.328 670.38 847.78 670.47C852.509 670.53 857.232 670.376 861.948 670.01C864.316 669.83 866.674 669.53 869.032 669.181C870.201 668.981 871.39 668.811 872.569 668.601C873.748 668.391 874.917 668.112 876.116 667.882C875.027 668.411 873.938 668.881 872.839 669.441C871.739 670 870.59 670.37 869.461 670.839C867.183 671.679 864.865 672.438 862.467 673.097C857.75 674.397 852.949 675.375 848.1 676.025C838.418 677.374 828.686 677.703 819.124 678.083C809.764 678.286 800.423 679.03 791.148 680.311C786.662 680.964 782.228 681.932 777.879 683.209C773.632 684.416 769.515 686.042 765.59 688.065L764.131 688.804L762.732 689.633L761.333 690.453C760.874 690.742 760.434 691.062 759.984 691.362C758.14 692.599 756.362 693.933 754.659 695.359C751.012 698.266 747.095 701.773 741.94 704.291C740.594 704.949 739.197 705.497 737.763 705.929C736.312 706.349 734.828 706.643 733.327 706.809C731.803 706.969 730.265 706.969 728.741 706.809C727.151 706.668 725.583 706.333 724.075 705.81C720.789 704.739 717.937 702.636 715.942 699.815C714.242 697.175 713.213 694.16 712.944 691.032C712.615 688.275 712.695 685.777 712.625 683.509C712.626 681.503 712.34 679.508 711.775 677.584C710.546 673.967 708.668 672.378 704.222 672.978C702.074 673.207 699.646 673.877 696.928 673.977C695.508 674.066 694.083 673.938 692.702 673.597C691.336 673.189 690.056 672.535 688.925 671.669C687.869 670.811 686.946 669.801 686.187 668.671C685.48 667.568 684.932 666.37 684.559 665.114C684.238 663.876 684.113 662.595 684.189 661.317C684.303 660.119 684.642 658.953 685.188 657.88Z" fill="#646464"/>
<path d="M777.669 637.798C783.014 638.687 787.73 642.144 790.988 646.69C792.568 648.917 793.848 651.343 794.794 653.904C795.693 656.298 796.411 658.756 796.943 661.258C797.482 663.646 797.872 666.004 798.231 668.252C798.591 670.5 798.941 672.658 799.341 674.816C799.723 677.001 800.227 679.162 800.849 681.291C801.539 683.631 802.453 685.9 803.577 688.065C800.858 687.555 798.331 686.307 796.273 684.458C794.202 682.643 792.443 680.5 791.068 678.114C789.717 675.826 788.621 673.397 787.8 670.87C787.032 668.518 786.391 666.127 785.882 663.706C784.883 659.05 784.183 654.783 783.064 650.717C781.778 646.214 779.967 641.878 777.669 637.798Z" fill="#646464"/>
</svg>
