<svg width="40" height="40" viewBox="0 0 40 40" fill="none" xmlns="http://www.w3.org/2000/svg">
<path d="M29.5053 40H10.494C4.69838 40 0 35.3016 0 29.506V10.495C0 4.70007 4.69838 0 10.494 0H29.5053C35.3009 0 39.9993 4.70007 39.9993 10.495V29.506C39.9993 35.3016 35.3009 40 29.5053 40Z" fill="#FC5555"/>
<path d="M6.15523 15.8991C6.14148 15.8654 6.13136 15.8316 6.12509 15.7954C5.74165 13.642 9.84968 13.0921 11.171 13.5069C11.8488 13.7216 12.5299 14.0929 13.071 14.5535C13.2796 14.7296 14.6221 16.408 13.6565 16.4321C13.514 16.4345 13.384 16.3525 13.2673 16.2705C12.3859 15.6484 11.9161 14.7247 10.8042 14.4595C9.58466 14.1677 8.24747 14.5632 7.39523 15.4868C7.12587 15.7786 6.44678 16.6081 6.15523 15.8991Z" fill="black"/>
<path d="M33.2798 15.8991C33.2936 15.8654 33.3039 15.8316 33.3102 15.7954C33.6934 13.642 29.5854 13.0921 28.2646 13.5069C27.5862 13.7216 26.9054 14.0929 26.3643 14.5535C26.1555 14.7296 24.813 16.408 25.7785 16.4321C25.9215 16.4345 26.0513 16.3525 26.1678 16.2705C27.0494 15.6484 27.5192 14.7247 28.6309 14.4595C29.8509 14.1677 31.1881 14.5632 32.0401 15.4868C32.3094 15.7786 32.9885 16.6081 33.2798 15.8991Z" fill="black"/>
<path d="M11.9491 23.407C16.8913 25.1076 22.6358 25.0044 27.5671 23.3013C29.3555 22.6837 31.0656 21.817 32.5653 20.6595C33.0329 20.2978 33.8906 19.5406 34.4395 20.2447C34.7537 20.6499 34.4897 21.3227 34.2734 21.7109C33.7491 22.65 32.8216 23.3127 31.9745 23.9397C30.8627 24.7625 29.6268 25.4165 28.3494 25.9425C26.1771 26.8369 23.8416 27.3026 21.5026 27.4595C20.6217 27.5186 19.7372 27.5345 18.8545 27.5075C18.8295 27.5066 18.8039 27.5058 18.7788 27.5051C17.5224 27.4646 16.2687 27.3341 15.0308 27.1171C12.6714 26.704 10.372 25.8952 8.28554 24.7181C8.05789 24.5896 7.83169 24.4577 7.60838 24.3214C6.86033 23.8644 6.13929 23.4055 5.71004 22.6076C5.55425 22.3182 5.46623 21.9738 5.55835 21.6579C5.71534 21.1225 6.29387 20.9272 6.79812 21.0333C7.59175 21.2021 8.23394 21.6603 8.92846 22.0485C9.66229 22.4595 10.4234 22.821 11.2047 23.1313C11.4519 23.2295 11.7 23.3211 11.9491 23.407Z" fill="black"/>
</svg>
