<svg width="40" height="40" viewBox="0 0 40 40" fill="none" xmlns="http://www.w3.org/2000/svg">
<path d="M29.505 40H10.494C4.69814 40 0 35.3016 0 29.506V10.495C0 4.70007 4.69814 0 10.494 0H29.505C35.3007 0 39.9988 4.70007 39.9988 10.495V29.506C39.9988 35.3016 35.3007 40 29.505 40Z" fill="#ACABE8"/>
<path d="M15.7664 19.0728C15.53 19.0728 15.2942 18.9811 15.1141 18.8027L10.2254 13.9121C9.86513 13.5528 9.86513 12.9692 10.2254 12.6074C10.5857 12.2481 11.1695 12.2481 11.5301 12.6074L16.4185 17.498C16.7787 17.8573 16.7787 18.4409 16.4185 18.8027C16.2383 18.9811 16.0025 19.0728 15.7664 19.0728Z" fill="#2E2D2D"/>
<path d="M10.8777 19.0728C10.6416 19.0728 10.4056 18.9811 10.2254 18.8027C9.86513 18.4409 9.86513 17.8573 10.2254 17.498L15.1141 12.6074C15.4748 12.2481 16.0587 12.2481 16.4185 12.6074C16.7787 12.9692 16.7787 13.5528 16.4185 13.9121L11.5301 18.8027C11.3497 18.9811 11.1136 19.0728 10.8777 19.0728Z" fill="#2E2D2D"/>
<path d="M28.6796 19.0728C28.4433 19.0728 28.2074 18.9811 28.0273 18.8027L23.1386 13.9121C22.7783 13.5528 22.7783 12.9692 23.1386 12.6074C23.4989 12.2481 24.0827 12.2481 24.443 12.6074L29.3317 17.498C29.692 17.8573 29.692 18.4409 29.3317 18.8027C29.1515 18.9811 28.9154 19.0728 28.6796 19.0728Z" fill="#2E2D2D"/>
<path d="M23.7907 19.0728C23.5546 19.0728 23.3188 18.9811 23.1386 18.8027C22.7783 18.4409 22.7783 17.8573 23.1386 17.498L28.0273 12.6074C28.3878 12.2481 28.9716 12.2481 29.3317 12.6074C29.692 12.9692 29.692 13.5528 29.3317 13.9121L24.443 18.8027C24.2629 18.9811 24.0268 19.0728 23.7907 19.0728Z" fill="#2E2D2D"/>
<path d="M28.0779 27.6147C27.2862 27.6147 26.3804 27.2475 25.3683 26.5144C24.5023 25.8869 23.8013 25.6515 23.4945 25.885C23.3959 25.96 23.2857 26.1179 23.1685 26.2853C23.0035 26.5223 22.8159 26.7907 22.5364 27.0273C21.504 27.9012 20.0822 27.662 19.0959 27.1472C18.7158 26.9489 18.3787 26.7179 18.0524 26.4944C17.6813 26.2402 17.3309 26 16.9718 25.8483C16.1066 25.4832 15.0267 25.6262 14.2863 26.2055C14.186 26.2838 14.0821 26.3767 13.9716 26.4748C13.6586 26.7538 13.3034 27.0702 12.8148 27.2646C11.3684 27.8395 10.1513 26.9615 9.17293 26.2566C8.62576 25.8618 8.10873 25.4892 7.61123 25.358C6.86631 25.1622 5.94029 25.6706 5.70661 26.4049C5.55227 26.8903 5.03356 27.1587 4.54836 27.0046C4.06292 26.8503 3.79427 26.3318 3.94884 25.8461C4.483 24.1653 6.37508 23.125 8.08148 23.5742C8.9096 23.7925 9.62268 24.3066 10.2521 24.76C11.1866 25.434 11.6775 25.7321 12.1336 25.55C12.3195 25.4762 12.5259 25.2922 12.7447 25.0974C12.8717 24.9843 13.0032 24.867 13.15 24.7523C14.4214 23.7582 16.2025 23.5214 17.6892 24.1487C18.22 24.3729 18.6649 24.6778 19.0954 24.9727C19.3894 25.1743 19.6674 25.3648 19.9493 25.5119C20.4174 25.7562 21.0473 25.8715 21.3446 25.6192C21.4409 25.5379 21.5453 25.3879 21.656 25.2297C21.8308 24.9785 22.0493 24.6659 22.3792 24.4156C23.1 23.8684 24.3914 23.5289 26.4508 25.0204C27.3416 25.6662 28.0352 25.9071 28.3508 25.6843C28.4473 25.6163 28.5592 25.4745 28.6776 25.3245C28.7637 25.2155 28.8503 25.107 28.9424 25.0045C29.7698 24.0819 31.121 23.6936 32.4702 23.9926C33.8192 24.2909 34.8815 25.2129 35.2427 26.3986C35.391 26.886 35.1164 27.4013 34.6293 27.5496C34.1436 27.6979 33.6265 27.4235 33.478 26.9362C33.2778 26.2788 32.6207 25.9151 32.0718 25.7938C31.5235 25.6725 30.774 25.7248 30.3155 26.2363C30.2492 26.3103 30.1875 26.3892 30.1255 26.4676C29.949 26.6911 29.7293 26.9697 29.4146 27.1918C29.0143 27.4737 28.5681 27.6147 28.0779 27.6147Z" fill="#2E2D2D"/>
</svg>
