<svg width="1159" height="1159" viewBox="0 0 1159 1159" fill="none" xmlns="http://www.w3.org/2000/svg">
<path d="M579 1079C855.142 1079 1079 855.142 1079 579C1079 302.858 855.142 79 579 79C302.858 79 79 302.858 79 579C79 855.142 302.858 1079 579 1079Z" fill="#EEEEEF"/>
<path d="M470.248 903.041C470.248 903.041 406.297 832.223 401.45 812.033C384.701 742.262 381.366 712.327 409.296 661.742C437.227 611.158 435.463 617.878 449.161 608.424C503.216 571.117 579.717 579.717 579.717 579.717C579.717 579.717 579.574 719.686 549.619 780.999C518.877 843.925 470.248 903.041 470.248 903.041Z" fill="#F2956A"/>
<path d="M470.248 903.041C463.397 895.929 456.636 888.728 449.963 881.437C443.327 874.116 436.79 866.697 430.351 859.182C423.97 851.615 417.716 843.93 411.776 835.929C408.811 831.922 405.939 827.827 403.282 823.489C401.912 821.272 400.692 818.966 399.631 816.585C399.063 815.303 398.589 813.982 398.215 812.631L397.293 809.037C396.062 804.247 394.821 799.46 393.666 794.637C392.459 789.834 391.358 784.991 390.273 780.138C388.023 770.385 386.3 760.518 385.112 750.579C383.878 740.473 383.624 730.271 384.354 720.116C385.21 709.872 387.324 699.772 390.648 690.043C393.944 680.437 398.019 671.116 402.831 662.173C403.979 659.908 405.155 657.718 406.342 655.561L409.894 649.043C412.272 644.701 414.686 640.364 417.136 636.031C419.638 631.7 422.099 627.377 424.897 623.051C426.285 620.887 427.75 618.719 429.444 616.543C431.224 614.216 433.275 612.11 435.555 610.27C437.699 608.667 439.923 607.174 442.218 605.796C443.23 605.166 444.191 604.52 445.145 603.875L448.302 601.784C452.597 598.94 457.042 596.329 461.618 593.961C470.74 589.312 480.252 585.472 490.046 582.485C499.77 579.537 509.689 577.271 519.729 575.703C529.726 574.187 539.804 573.255 549.911 572.915C554.957 572.737 560.007 572.704 565.061 572.814C567.588 572.862 570.118 572.971 572.653 573.099C575.22 573.248 577.661 573.407 580.394 573.696L580.412 573.697C581.893 573.86 583.261 574.566 584.252 575.679C585.243 576.792 585.786 578.233 585.776 579.723C585.459 609.251 583.574 638.489 580.443 667.757C578.829 682.372 576.942 696.977 574.263 711.484C571.726 726.064 568.343 740.483 564.131 754.668C561.987 761.822 559.422 768.842 556.447 775.692C553.362 782.638 549.773 789.003 546.293 795.501C539.171 808.385 531.45 820.892 523.321 833.103C515.202 845.319 506.717 857.264 497.867 868.937C489.036 880.612 479.829 891.98 470.248 903.041ZM470.248 903.041C487.635 879.544 503.817 855.282 518.795 830.255C526.189 817.719 533.353 805.061 539.875 792.107C543.04 785.601 546.369 779.078 548.956 772.556L550.834 767.563L552.534 762.484C553.127 760.804 553.627 759.081 554.135 757.363C554.629 755.639 555.197 753.945 555.63 752.199C559.342 738.255 562.239 724.107 564.307 709.827C566.461 695.518 568.158 681.111 569.489 666.66C570.806 652.208 571.784 637.72 572.424 623.197C573.049 608.705 573.615 594.113 573.658 579.711L579.04 585.738C576.864 585.521 574.379 585.363 572.02 585.243C569.626 585.136 567.226 585.046 564.82 585.014C560.009 584.933 555.193 584.992 550.371 585.193C540.749 585.571 531.158 586.512 521.646 588.01C512.172 589.445 502.809 591.531 493.621 594.252C484.51 596.974 475.655 600.488 467.157 604.755C462.954 606.899 458.87 609.268 454.921 611.851L451.896 613.829C450.803 614.56 449.71 615.282 448.625 615.95C446.451 617.319 444.447 618.497 442.966 619.663C440.06 621.905 437.407 625.609 434.757 629.523C432.124 633.439 429.624 637.651 427.12 641.823C424.64 646.039 422.183 650.283 419.748 654.556L416.106 660.975C414.877 663.12 413.684 665.258 412.567 667.377C407.875 675.74 403.874 684.473 400.606 693.488C397.297 702.374 395.088 711.631 394.027 721.053C393.082 730.575 393.057 740.165 393.954 749.691C395.677 768.939 399.703 788.247 403.828 807.487L404.606 811.097C404.855 812.133 405.179 813.15 405.576 814.139C406.451 816.298 407.455 818.403 408.582 820.442C410.875 824.642 413.471 828.775 416.179 832.84C421.607 840.975 427.44 848.904 433.392 856.744C439.321 864.606 445.381 872.379 451.572 880.064C457.726 887.774 463.92 895.462 470.248 903.041Z" fill="#E2815A"/>
<path d="M328.478 994.866C324.648 986.832 321.18 978.625 317.811 970.378C314.419 962.136 311.306 953.783 308.299 945.386C305.273 936.993 302.449 928.525 299.737 920.013C298.445 915.738 297.11 911.473 295.908 907.168L294.063 900.72L292.325 894.239C287.612 876.921 283.852 859.357 281.062 841.627C278.212 823.761 276.646 805.713 276.376 787.622C276.231 783.076 276.444 778.515 276.603 773.951L276.721 770.528L276.994 767.104L277.55 760.25C277.68 757.961 278.104 755.686 278.371 753.402L279.298 746.552L280.606 739.731C281.056 737.458 281.422 735.17 282.075 732.928C283.283 728.429 284.309 723.884 285.946 719.472C286.705 717.253 287.434 715.023 288.227 712.812L291.002 706.296L292.398 703.038C292.865 701.952 293.396 700.996 293.891 699.969L296.916 693.905C298.965 689.877 300.872 685.782 303.075 681.823L309.686 669.937L311.34 666.965L313.122 664.057L316.7 658.246L320.282 652.434C321.485 650.502 322.83 648.65 324.099 646.753L327.962 641.095C329.247 639.207 330.538 637.323 331.961 635.524C342.796 620.655 355.054 606.878 368.56 594.387C382.09 581.906 396.778 570.945 411.18 560.495C425.622 550.089 439.59 539.864 452.05 528.363C453.631 526.95 455.045 525.433 456.553 523.976L458.784 521.772C459.522 521.033 460.175 520.245 460.876 519.485C462.237 517.942 463.672 516.443 464.994 514.882L468.794 510.104C473.621 503.663 477.694 496.69 480.935 489.323C484.023 481.733 486.417 473.879 488.087 465.857L489.206 459.658L489.763 456.554L490.179 453.392L491.016 447.068L491.615 440.654C492.065 436.393 492.282 432.055 492.531 427.726C492.837 423.414 492.89 419.027 493.052 414.671L493.157 411.399C493.196 410.304 493.133 409.298 493.128 408.244L493.038 401.984C493.005 400.938 493.062 399.902 492.957 398.847L492.69 395.687L492.165 389.365C490.444 372.464 486.673 355.527 482.085 338.776C477.456 322.014 471.726 305.465 465.457 289.099L463.084 282.967L460.6 276.876C458.974 272.801 457.212 268.785 455.498 264.745C451.985 256.743 448.368 248.63 444.582 240.938L445.389 242.165L438.303 233.004L451.205 230.429C444.114 253.131 436.782 275.762 429.582 298.433C425.978 309.767 422.358 321.096 418.636 332.396L407.557 366.32L405.111 361.841C412.322 364.275 419.224 367.031 426.119 369.991C432.993 372.949 439.763 376.124 446.43 379.514C453.076 382.942 459.549 386.67 465.849 390.7C472.107 394.752 478.055 399.263 483.645 404.196C477.623 399.888 471.325 395.981 464.79 392.501C458.235 389.088 451.531 386.005 444.756 383.101C437.948 380.265 431.057 377.655 424.084 375.27C417.128 372.909 410.042 370.684 403.065 368.773L399.701 367.852L400.619 364.294L409.537 329.739C412.48 318.212 415.526 306.715 418.587 295.223C424.719 272.24 430.718 249.219 436.958 226.268L440.646 212.703L449.861 223.693L457.303 232.568L457.709 233.053L458.11 233.794C462.483 241.892 466.463 249.851 470.335 258.012C472.226 262.094 474.166 266.156 475.969 270.28L478.719 276.447L481.36 282.665C488.442 299.3 494.647 316.295 499.949 333.58C505.423 351.081 509.361 369.025 511.72 387.21L512.425 394.159L512.773 397.635C512.905 398.79 512.877 399.982 512.935 401.155L513.146 408.22C513.165 409.387 513.237 410.603 513.209 411.729L513.138 415.118C513.021 419.643 513.013 424.146 512.744 428.703C512.533 433.248 512.353 437.788 511.925 442.372L511.356 449.235L510.522 456.135L510.102 459.585L509.525 463.048L508.334 469.976C506.419 479.369 503.641 488.566 500.037 497.45C496.164 506.383 491.271 514.838 485.456 522.648L480.978 528.316C479.442 530.153 477.808 531.874 476.216 533.649C475.408 534.519 474.63 535.434 473.796 536.266L471.282 538.741C469.593 540.368 467.954 542.088 466.219 543.632C452.487 556.197 437.665 566.96 423.212 577.219C408.746 587.476 394.794 597.685 382.053 609.183C356.344 631.906 336.006 660.205 318.658 690.416C317.516 692.269 316.533 694.223 315.493 696.142L312.382 701.908L309.268 707.676C308.767 708.634 308.188 709.608 307.751 710.552L306.439 713.383L303.797 719.045L301.578 724.93C299.976 728.807 298.929 732.92 297.692 736.962C293.017 753.264 291.082 770.521 290.381 787.832C289.787 805.296 290.445 822.781 292.348 840.151C294.21 857.606 296.941 875.039 300.405 892.357C307.449 927.119 316.828 961.366 328.478 994.866V994.866Z" fill="#646464"/>
<path d="M284.63 764.674C298.766 773.992 311.818 783.756 324.861 793.434C337.862 803.13 350.656 812.823 363.54 822.303C369.985 827.039 376.464 831.69 382.96 836.329C389.467 840.953 396.056 845.433 402.667 849.964C409.31 854.437 416.062 858.763 422.917 863.143L444.082 876.118C439.839 876.05 435.606 875.693 431.412 875.048C427.184 874.509 423.081 873.533 418.923 872.6C410.715 870.47 402.676 867.737 394.87 864.423C379.376 857.7 364.709 849.212 351.16 839.128C337.659 829.179 325.163 817.933 313.853 805.551C308.203 799.372 302.889 792.894 297.932 786.147C295.478 782.742 293.08 779.303 290.851 775.726C288.565 772.166 286.488 768.476 284.63 764.674V764.674Z" fill="#646464"/>
<path d="M414.698 832.223C408.117 824.133 402.371 815.398 397.551 806.15C392.606 796.87 388.473 787.18 385.196 777.189C384.337 774.684 383.615 772.121 382.909 769.546C382.54 768.262 382.218 766.967 381.874 765.675L381.026 761.735C380.472 759.102 379.85 756.477 379.549 753.763C379.212 751.059 378.698 748.398 378.57 745.629C378.474 744.255 378.353 742.879 378.285 741.501C378.171 740.082 378.132 738.658 378.166 737.235C378.193 734.314 378.37 731.396 378.698 728.494C379.446 723.009 380.537 717.577 381.964 712.229C383.429 707.021 385.089 701.944 386.902 696.968C388.81 692.03 390.756 687.143 392.938 682.389C397.238 672.919 402.045 663.688 407.339 654.736C412.596 645.818 418.254 637.175 424.313 628.808C427.373 624.643 430.495 620.528 433.779 616.523C437.034 612.504 440.455 608.592 444.082 604.844C437.291 624.499 429.493 643.241 422.084 661.976L416.554 675.966C414.806 680.646 412.92 685.256 411.265 689.921C409.55 694.568 407.866 699.191 406.358 703.841C404.784 708.462 403.357 713.087 402.122 717.692C400.866 722.163 399.859 726.701 399.109 731.285C398.796 733.475 398.47 735.677 398.389 737.748C398.301 738.867 398.28 739.989 398.324 741.11C398.347 742.274 398.317 743.441 398.312 744.61C398.545 754.221 399.474 763.803 401.093 773.28C402.65 782.967 404.757 792.711 407.096 802.512C409.426 812.331 412.039 822.16 414.698 832.223Z" fill="#646464"/>
<path d="M444.583 548.482C452.358 546.286 460.275 544.598 468.225 543.165C472.201 542.457 476.191 541.791 480.19 541.225C484.189 540.619 488.198 540.113 492.214 539.651C508.304 537.823 524.477 536.813 540.669 536.625C548.768 536.665 556.889 536.595 564.991 537.043C569.042 537.249 573.11 537.277 577.153 537.652L589.302 538.599C593.359 538.859 597.384 539.46 601.426 539.899C605.459 540.409 609.514 540.764 613.531 541.425C621.581 542.688 629.561 543.867 637.793 545.602C670.36 552.738 700.974 566.423 728.45 584.111C742.159 592.939 755.178 602.793 767.397 613.588C773.47 618.982 779.352 624.57 784.955 630.422C790.601 636.223 795.888 642.362 800.788 648.806C787.836 639.191 774.657 630.242 761.235 621.801C747.82 613.366 734.17 605.478 720.229 598.333C692.4 583.982 663.323 572.617 633.357 566.011C629.578 565.265 625.926 564.383 622 563.782L610.391 561.785C606.537 561.024 602.63 560.565 598.748 559.95L592.915 559.08C590.971 558.788 589.029 558.468 587.074 558.241C571.48 556.09 555.797 554.453 540.05 552.984C524.296 551.625 508.474 550.612 492.575 549.859C476.667 549.103 460.717 548.635 444.583 548.482Z" fill="#646464"/>
<path d="M503.216 228.348C508.062 232.469 512.592 236.947 516.768 241.745C518.885 244.126 520.926 246.574 522.893 249.089C524.92 251.565 526.758 254.171 528.642 256.764C536.106 267.292 542.454 278.569 547.583 290.412L549.501 294.899C550.132 296.4 550.64 297.952 551.215 299.479L552.85 304.1L553.659 306.417L554.335 308.781C555.217 311.939 556.162 315.092 556.964 318.283L558.897 328.001C559.049 328.814 559.236 329.621 559.358 330.44L559.649 332.911L560.198 337.863L560.737 342.82L560.992 347.63C561.136 350.833 561.306 354.061 561.343 357.248L561.419 366.809C561.453 370.005 561.271 373.157 561.202 376.331C561.083 379.496 561.066 382.679 560.861 385.828C560.443 392.136 560.132 398.451 559.516 404.722C558.952 411.005 558.331 417.267 557.534 423.512C556.811 429.763 555.889 435.984 554.959 442.201C551.001 467.029 545.975 491.682 538.143 515.792C537.638 503.125 537.691 490.59 537.798 478.079C537.922 465.574 538.244 453.12 538.601 440.697L539.735 403.547C539.955 397.37 540.11 391.218 540.242 385.062C540.372 381.982 540.366 378.925 540.434 375.855C540.465 372.794 540.586 369.712 540.534 366.669L540.583 357.518C540.606 354.467 540.428 351.464 540.407 348.432L540.35 343.891L540.038 339.53L539.733 335.164L539.598 332.977C539.54 332.248 539.415 331.524 539.328 330.797C538.169 319.122 535.46 307.525 532.193 295.994C528.78 284.342 524.625 272.919 519.753 261.797C514.804 250.378 509.285 239.214 503.216 228.348V228.348Z" fill="#646464"/>
<path d="M800.788 506.775C803.053 527.112 804.558 547.449 805.895 567.786C807.197 588.123 808.175 608.46 808.973 628.797C810.505 669.472 811.258 710.146 811.23 750.82C811.247 791.494 810.504 832.169 809.001 872.843C808.207 893.18 807.228 913.518 805.922 933.855C804.578 954.192 803.068 974.529 800.788 994.866C798.508 974.529 796.997 954.192 795.654 933.855C794.348 913.518 793.369 893.18 792.574 872.843C791.044 832.169 790.301 791.494 790.345 750.82C790.357 710.146 791.11 669.472 792.603 628.797C793.401 608.46 794.379 588.123 795.681 567.786C797.017 547.449 798.523 527.112 800.788 506.775Z" fill="#646464"/>
<path d="M393.253 931.741C396.65 930.928 399.998 929.927 403.284 928.741C406.587 927.612 409.867 926.425 413.123 925.181C419.635 922.708 426.058 920.05 432.323 917.193C438.489 914.429 444.483 911.296 450.272 907.811C452.933 906.216 455.46 904.408 457.83 902.406L459.311 901.016C459.681 900.56 460.149 900.106 460.429 899.695C461.061 898.879 461.219 898.152 460.964 898.253L479.533 907.827C478.664 909.233 477.637 910.535 476.474 911.708C475.527 912.676 474.502 913.564 473.409 914.363C472.401 915.122 471.444 915.679 470.461 916.317C469.51 916.835 468.553 917.375 467.613 917.848C464.082 919.553 460.424 920.979 456.671 922.113C449.7 924.222 442.608 925.909 435.434 927.164C428.396 928.438 421.377 929.451 414.353 930.257C410.841 930.66 407.328 931.007 403.814 931.298C400.304 931.642 396.779 931.79 393.253 931.741V931.741Z" fill="#646464"/>
<path d="M451.909 994.866L449.644 910.698L470.436 912.731L451.909 994.866Z" fill="#646464"/>
<path d="M299.733 208.058C296.795 246.015 292.986 283.649 290.993 321.083C290.092 339.734 289.427 358.498 290.871 376.36C291.047 378.587 291.365 380.749 291.584 382.933C291.945 385.022 292.156 387.238 292.644 389.199C292.873 390.239 293.035 391.134 293.31 392.293L294.156 395.814L295.775 402.853C297.843 412.242 299.589 421.616 301.476 430.758C303.296 439.879 305.184 448.896 307.973 456.733C309.145 460.329 310.8 463.749 312.892 466.901C314.557 469.387 316.849 471.388 319.536 472.702C320.213 473.03 320.911 473.312 321.627 473.544C321.978 473.69 322.397 473.749 322.778 473.864C323.218 473.996 323.665 474.101 324.116 474.181C326.288 474.589 328.432 475.041 330.682 475.363C335.111 476.084 339.701 476.672 344.302 477.248L358.297 478.816L372.48 480.488C381.974 481.681 391.534 483.116 401.043 485.114C403.419 485.629 405.793 486.115 408.16 486.724C410.526 487.308 412.894 487.853 415.238 488.574C417.587 489.248 419.931 489.912 422.252 490.717L425.734 491.871L429.062 493.021C437.85 496.123 446.793 498.88 455.883 501.227C460.428 502.406 465.012 503.467 469.635 504.409C474.256 505.394 478.916 506.184 483.645 506.775C474.103 507.749 464.49 507.816 454.936 506.973C445.33 506.21 435.781 504.857 426.341 502.921L419.438 501.556C417.199 501.085 414.918 500.749 412.646 500.402C408.107 499.697 403.535 499.124 398.932 498.682C389.736 497.771 380.456 497.265 371.093 496.857C361.724 496.443 352.285 496.19 342.666 495.595C337.845 495.288 333.008 494.994 328.067 494.379C325.618 494.134 323.105 493.731 320.609 493.368C320.042 493.302 319.234 493.129 318.472 492.968C317.708 492.792 316.95 492.674 316.182 492.435C314.623 492.013 313.094 491.487 311.605 490.861C308.544 489.604 305.688 487.896 303.134 485.793C300.67 483.767 298.462 481.449 296.559 478.889C293.226 474.271 290.55 469.212 288.608 463.858C284.956 453.874 282.972 444.289 281.003 434.884C279.163 425.469 277.47 416.228 275.616 407.099L274.232 400.263L273.508 396.862C273.266 395.713 273.015 394.277 272.775 392.999C272.516 391.676 272.295 390.367 272.158 389.093L271.673 385.239C271.457 382.713 271.249 380.168 271.146 377.671C270.766 367.867 270.951 358.049 271.702 348.265C272.354 338.607 273.428 329.052 274.694 319.553C277.281 300.564 280.769 281.809 284.916 263.218C287.013 253.927 289.246 244.674 291.699 235.475C294.13 226.273 296.78 217.122 299.733 208.058Z" fill="#646464"/>
<path d="M702.155 219.894C703.989 225.293 705.618 230.745 707.312 236.185L712.055 252.59C715.173 263.543 718.003 274.566 720.751 285.616C726.201 307.725 730.969 330.007 735.058 352.461L736.58 360.763C737.066 363.5 737.662 366.218 738.196 368.944C739.348 374.38 740.497 379.811 741.834 385.192C744.509 395.95 747.408 406.631 750.936 417.048C754.352 427.42 758.367 437.584 762.959 447.491C765.314 452.348 767.658 457.21 770.361 461.8C771.631 464.16 773.111 466.342 774.471 468.624C775.971 470.776 777.351 473.047 778.951 475.095C785.038 483.564 792.132 491.057 800.204 496.491C804.129 499.231 808.41 501.42 812.928 502.997C815.152 503.777 817.421 504.419 819.724 504.92C822.055 505.334 824.407 505.62 826.769 505.776C829.258 505.94 831.754 505.973 834.246 505.872L838.017 505.616C839.277 505.54 840.494 505.31 841.738 505.171C846.606 504.494 851.381 503.265 855.971 501.508C865.112 497.875 873.113 491.858 879.139 484.083C882.283 480.053 885.008 475.713 887.272 471.131C889.585 466.396 891.508 461.482 893.023 456.435C896.142 446.085 897.865 435.364 898.147 424.558C898.529 413.687 897.417 402.741 893.749 392.55C891.918 387.421 889.221 382.643 885.775 378.426C882.236 374.083 877.87 370.487 872.931 367.843C878.5 369.537 883.647 372.391 888.034 376.216C892.467 380.183 896.18 384.888 899.007 390.122C904.751 400.615 907.417 412.516 908.409 424.249C909.445 436.135 908.747 448.11 906.337 459.795C905.136 465.762 903.396 471.607 901.14 477.26C898.852 483.07 895.923 488.606 892.407 493.767C888.791 499.068 884.498 503.874 879.636 508.063C874.677 512.271 869.152 515.765 863.223 518.441C857.357 521.087 851.183 522.992 844.846 524.112C843.282 524.357 841.713 524.686 840.148 524.848L835.448 525.34C832.282 525.585 829.105 525.663 825.93 525.573C822.628 525.495 819.336 525.19 816.077 524.659C812.82 524.045 809.607 523.222 806.456 522.196C800.21 520.167 794.267 517.302 788.789 513.68C777.959 506.522 769.252 497.235 762.06 487.379C760.197 484.932 758.63 482.347 756.92 479.829C755.385 477.237 753.714 474.696 752.308 472.054L750.126 468.119L748.088 464.132C746.694 461.486 745.492 458.779 744.237 456.085C739.48 445.324 735.42 434.269 732.081 422.988C728.773 411.831 726.037 400.513 723.884 389.077C722.789 383.383 721.822 377.673 720.985 371.947C720.612 369.077 720.179 366.218 719.858 363.344L718.859 354.826C716.383 332.402 713.578 309.961 710.709 287.487L706.412 253.737L704.24 236.837L702.155 219.894Z" fill="#646464"/>
<path d="M847.568 208.058C849.422 212.159 850.981 216.335 852.429 220.53C853.897 224.724 855.189 228.953 856.427 233.195C858.878 241.684 860.886 250.256 862.655 258.871C866.089 276.103 868.372 293.545 869.487 311.081C869.746 315.466 869.965 319.853 870.146 324.242C870.241 328.639 870.291 333.036 870.298 337.434C870.343 341.828 870.18 346.235 869.997 350.636C869.794 355.039 869.616 359.431 869.198 363.831C868.807 368.23 868.353 372.621 867.833 377.005C867.337 381.388 866.533 385.767 865.804 390.128L864.581 396.658C864.145 398.83 863.609 400.998 863.064 403.158C861.982 407.478 860.819 411.777 859.404 416.032C856.16 398.363 854.555 381.163 852.771 363.943C850.993 346.743 849.819 329.604 848.641 312.416C847.545 295.23 846.705 278.012 846.383 260.668C846.097 243.31 846.048 225.909 847.568 208.058Z" fill="#646464"/>
<path d="M894.912 219.894L870.61 301.845L851.457 293.502L894.912 219.894Z" fill="#646464"/>
<path d="M579.717 579.717C571.175 586.352 562.903 592.648 554.972 599.228C547.116 605.639 539.655 612.519 532.629 619.83C531.733 620.709 530.936 621.664 530.083 622.576L528.822 623.959L527.627 625.389C525.947 627.234 524.467 629.216 522.896 631.142C519.891 635.083 517.112 639.192 514.572 643.448C512.064 647.8 509.863 652.323 507.984 656.981C506.121 661.888 504.53 666.892 503.216 671.973C501.961 666.619 501.555 661.101 502.014 655.621C502.54 650.053 503.774 644.576 505.686 639.32C507.673 634.077 510.202 629.055 513.233 624.338C514.79 622.025 516.396 619.736 518.129 617.563C518.979 616.458 519.877 615.399 520.802 614.368C521.729 613.339 522.602 612.25 523.577 611.272C534.974 599.421 548.806 590.181 564.119 584.192C569.151 582.17 574.378 580.67 579.717 579.717V579.717Z" fill="#E2815A"/>
<path d="M460.04 806.242C460.396 814.179 460.843 821.978 461.475 829.722C462.108 837.46 462.927 845.122 464.043 852.68C465.132 860.171 466.62 867.598 468.503 874.93C469.413 878.565 470.576 882.102 471.733 885.617C472.949 889.111 474.364 892.501 475.85 895.836L464.14 897.433C464.348 896.329 464.539 895.497 464.749 894.567L465.394 891.882C465.855 890.119 466.351 888.37 466.866 886.641C467.361 884.898 467.926 883.197 468.453 881.474L470.206 876.385C472.587 869.629 475.358 863.05 478.306 856.571C481.264 850.094 484.557 843.787 488.029 837.591C489.78 834.499 491.622 831.457 493.49 828.436C495.4 825.435 497.388 822.48 499.454 819.571C498.545 823.031 497.548 826.436 496.5 829.81C495.519 833.212 494.438 836.561 493.399 839.92C491.338 846.641 489.181 853.292 487.171 859.964C485.107 866.615 483.127 873.26 481.233 879.901C480.329 883.227 479.411 886.544 478.568 889.852C478.138 891.508 477.764 893.162 477.37 894.808L476.817 897.254C476.648 898.04 476.465 898.925 476.357 899.549C476.132 900.842 475.503 902.029 474.561 902.942C473.619 903.854 472.411 904.444 471.113 904.627C469.814 904.81 468.49 904.577 467.333 903.96C466.175 903.343 465.243 902.376 464.67 901.196L464.646 901.146C461.125 893.66 458.502 885.783 456.832 877.68C455.186 869.738 454.248 861.666 454.029 853.559C453.782 845.551 454.15 837.537 455.131 829.586C455.619 825.628 456.243 821.692 457.042 817.793C457.812 813.887 458.813 810.03 460.04 806.242V806.242Z" fill="#E2815A"/>
<path d="M495.308 923.85C489.672 920.457 484.292 916.657 478.941 912.803C473.641 908.884 468.467 904.783 463.379 900.554C458.28 896.334 453.399 891.851 448.58 887.275C443.809 882.651 439.192 877.847 434.729 872.862C425.697 862.798 417.735 851.823 410.972 840.113C409.383 837.074 407.622 834.125 406.248 830.944C405.533 829.371 404.774 827.818 404.097 826.22L402.19 821.356C401.516 819.749 400.994 818.072 400.47 816.394C399.955 814.713 399.368 813.056 398.92 811.346C397.997 807.909 397.27 804.422 396.74 800.903C395.585 793.746 395.332 786.473 395.987 779.253L396.683 773.803C396.787 772.892 396.957 771.989 397.189 771.102L397.811 768.42L398.444 765.738C398.554 765.29 398.648 764.846 398.773 764.395L399.213 763.03L400.112 760.303L401.19 757.63C401.539 756.732 401.933 755.853 402.372 754.995C402.798 754.131 403.211 753.258 403.657 752.403C404.632 750.743 405.532 749.022 406.649 747.453C408.768 744.252 411.181 741.257 413.858 738.506C419.097 733.179 425.063 728.618 431.577 724.96C437.822 721.416 444.403 718.501 451.223 716.255C457.844 714.045 464.596 712.251 471.44 710.884C484.848 708.331 498.438 706.855 512.081 706.469C525.516 706.109 538.961 706.425 552.364 707.416C565.703 708.455 578.965 709.97 592.126 712.052C605.281 714.164 618.363 716.653 631.319 719.788C644.381 722.817 657.262 726.573 669.904 731.04C676.244 733.535 682.617 736.011 688.634 739.027L693.202 741.195C694.729 741.908 696.177 742.747 697.667 743.517C700.624 745.093 703.588 746.66 706.5 748.296C718.103 754.916 729.233 762.166 740.073 769.753C750.847 777.435 761.303 785.486 771.44 793.906C776.501 798.124 781.492 802.414 786.413 806.777C791.287 811.199 796.146 815.628 800.788 820.286C795.371 816.564 789.98 812.844 784.481 809.277C779.042 805.636 773.558 802.073 768.031 798.587C756.969 791.634 745.86 784.822 734.561 778.415C723.252 772.039 711.808 765.987 700.193 760.493C688.692 755.1 676.85 750.471 664.741 746.634C658.697 744.833 652.498 743.256 646.26 741.812C640.024 740.35 633.745 739.01 627.423 737.791C614.786 735.392 602.075 733.277 589.312 731.667C576.553 730.037 563.765 728.724 550.979 728.003C538.202 727.201 525.425 726.905 512.758 727.343C500.212 727.629 487.707 728.888 475.356 731.109C463.217 733.336 451.402 736.803 441.166 742.246C436.155 744.839 431.534 748.125 427.44 752.007C425.494 753.897 423.712 755.947 422.111 758.137C421.263 759.192 420.619 760.369 419.865 761.486L418.895 763.254C418.554 763.836 418.25 764.439 417.985 765.059C416.783 767.558 415.845 770.176 415.186 772.871L414.597 774.947C414.373 775.631 414.208 776.334 414.103 777.047L413.338 781.306C412.482 787.103 412.36 792.985 412.977 798.812C413.979 810.667 417.974 822.48 423.121 833.846C425.815 839.551 428.809 845.111 432.089 850.501C435.324 855.971 438.952 861.244 442.69 866.462C457.806 887.263 475.79 906.322 495.308 923.85Z" fill="#646464"/>
</svg>
