<svg width="1001" height="1001" viewBox="0 0 1001 1001" fill="none" xmlns="http://www.w3.org/2000/svg">
<path d="M500.1 1000.25C776.242 1000.25 1000.1 776.392 1000.1 500.25C1000.1 224.108 776.242 0.25 500.1 0.25C223.958 0.25 0.100098 224.108 0.100098 500.25C0.100098 776.392 223.958 1000.25 500.1 1000.25Z" fill="#EEEEEF"/>
<path d="M422.002 715.947C422.002 715.947 317.546 659.003 306.754 609.272C259.792 545.563 266.247 508.593 266.247 461.041C328.967 431.764 394.804 401.499 410.511 387.8C472.362 333.683 623.341 336.98 623.341 336.98C623.341 336.98 609.562 405.745 590.677 487.46C571.373 571.283 422.002 715.947 422.002 715.947Z" fill="#F2956A" stroke="#E2815A" stroke-width="9" stroke-miterlimit="10"/>
<path d="M619.775 442.347H619.505C619.405 443.746 619.305 445.144 619.205 446.443C619.375 445.144 619.575 443.746 619.775 442.347Z" fill="#E2815A"/>
<path d="M500.1 420.584C512.79 415.588 524.99 410.892 536.781 405.656C548.413 400.647 559.673 394.813 570.474 388.2C571.873 387.411 573.082 386.521 574.351 385.712L576.249 384.423L578.098 383.064C580.716 381.385 583.094 379.377 585.492 377.598C590.248 373.711 594.744 369.515 598.951 365.038C603.167 360.379 607 355.387 610.412 350.11C613.862 344.411 616.965 338.508 619.704 332.435C620.327 339.824 619.788 347.265 618.106 354.487C616.342 361.444 613.636 368.127 610.062 374.351C606.43 380.341 602.067 385.856 597.073 390.768C594.575 393.106 591.947 395.424 589.269 397.532C587.97 398.622 586.461 399.611 585.092 400.62C583.723 401.629 582.224 402.618 580.796 403.548C562.889 414.333 542.607 420.553 521.733 421.663C514.504 421.989 507.261 421.627 500.1 420.584Z" fill="#E2815A"/>
<path d="M348.122 610.052C354.117 618.925 359.972 627.578 366.107 636.081C372.242 644.585 378.557 652.828 385.202 660.941C391.836 668.985 398.873 676.689 406.285 684.023C410.012 687.72 413.899 691.147 417.796 694.565C421.693 697.982 425.959 701.099 430.166 704.087L416.097 711.951C415.598 710.592 415.238 709.583 414.918 708.374L413.919 704.936C413.329 702.728 412.76 700.43 412.17 698.222C411.581 696.013 411.171 693.775 410.642 691.467L409.403 684.782C407.911 675.945 406.871 667.037 406.285 658.094C405.696 649.201 405.606 640.328 405.835 631.435C405.995 627.049 406.265 622.592 406.615 618.256C406.965 613.919 407.544 609.423 408.204 605.056C409.383 609.466 410.468 613.849 411.461 618.206C412.54 622.592 413.459 626.919 414.459 631.285C416.457 639.998 418.215 648.671 420.214 657.264C422.212 665.858 424.111 674.481 426.209 683.024C427.318 687.31 428.447 691.497 429.576 695.684C430.196 697.792 430.805 699.9 431.445 701.909L428.667 702.768C428.937 703.767 427.168 703.837 427.478 704.637C428.118 706.235 426.039 706.755 425.48 708.254C425.32 708.863 425.019 709.426 424.6 709.896C424.182 710.367 423.658 710.732 423.072 710.961C421.523 711.811 421.693 712.78 419.754 712.72C417.816 712.66 420.843 716.717 419.335 715.718H419.235C409.671 709.114 400.85 701.496 392.926 692.996C385.441 684.901 378.665 676.18 372.672 666.927C366.942 658.036 361.908 648.715 357.614 639.049C355.476 634.34 353.601 629.517 351.998 624.601C350.54 619.904 349.181 614.948 348.122 610.052Z" fill="#E2815A"/>
<path d="M644.854 113.609C645.953 121.203 646.853 128.897 647.852 136.491L650.85 159.273C652.848 174.461 654.846 189.649 657.145 204.736C661.541 235.012 666.537 265.088 672.532 294.764L674.83 305.956C675.53 309.653 676.529 313.35 677.328 317.047C679.027 324.441 680.526 331.835 682.524 339.129C686.121 353.817 690.118 368.406 694.515 382.794L697.912 393.585L699.611 398.981C699.91 399.88 700.11 400.78 700.41 401.679L701.309 404.377L705.006 415.068L706.905 420.364C707.504 422.163 708.104 423.961 708.803 425.66L716.897 446.743L725.79 467.426C749.97 522.182 784.243 572.742 815.018 626.199C830.406 652.978 844.994 680.456 856.385 709.433C862.108 723.87 866.914 738.654 870.774 753.697C874.615 768.669 877.132 783.949 878.298 799.361C874.489 784.555 869.75 770.005 864.109 755.796C858.513 741.707 852.119 727.918 845.224 714.429C831.335 687.55 815.148 661.871 798.362 636.491C794.165 630.096 789.968 623.801 785.672 617.406L772.982 598.322C764.489 585.632 756.095 572.642 747.802 559.652C739.509 546.663 731.615 533.274 724.021 519.585C720.324 512.69 716.627 505.796 713.13 498.801C709.633 491.807 706.335 484.712 703.038 477.618L693.945 456.035C691.147 448.741 688.449 441.447 685.752 434.053C685.052 432.254 684.453 430.356 683.853 428.557L682.055 422.962L678.457 411.871L677.558 409.073C677.258 408.174 677.059 407.175 676.759 406.275L675.16 400.68L671.963 389.389C667.966 374.301 664.269 359.213 661.271 344.025C659.573 336.431 658.374 328.837 656.975 321.143C656.375 317.346 655.576 313.549 655.076 309.653L653.378 298.162C649.081 267.486 646.383 236.711 645.084 205.936L644.685 194.345C644.585 190.548 644.385 186.651 644.385 182.854C644.285 175.16 644.085 167.466 644.085 159.772C644.085 152.079 644.185 144.385 644.285 136.691C644.385 128.997 644.555 121.203 644.854 113.609Z" fill="#646464"/>
<path d="M666.037 303.158C661.94 302.858 657.944 302.458 653.947 302.058L641.956 300.759L629.966 299.461C627.968 299.261 625.969 298.961 623.971 298.761L617.976 298.162C602.088 296.463 586.301 294.664 570.514 293.166C566.617 292.766 562.62 292.366 558.623 292.066L552.728 291.467L546.833 290.967C538.939 290.268 531.045 289.568 523.151 288.969C507.364 287.67 491.577 286.571 475.789 285.672C471.892 285.472 467.896 285.172 463.999 284.972C460.102 284.772 456.105 284.473 452.208 284.373L440.318 283.773L428.527 283.273C412.84 282.774 397.452 282.774 382.364 284.373L379.566 284.672L376.769 285.072C374.87 285.272 372.972 285.572 371.173 285.871C369.375 286.171 367.476 286.571 365.578 286.871L360.082 288.07C358.283 288.569 356.385 288.969 354.586 289.469C353.687 289.768 352.788 289.968 351.889 290.268L349.191 291.167C347.392 291.667 345.594 292.466 343.795 293.066C341.996 293.665 340.298 294.465 338.499 295.164C331.423 298.188 324.662 301.903 318.315 306.255C311.781 310.793 305.781 316.055 300.43 321.943C303.671 314.346 308.126 307.327 313.619 301.159C319.214 294.881 325.556 289.311 332.504 284.572C339.533 279.817 347.033 275.799 354.886 272.582C356.885 271.783 358.883 270.983 360.881 270.284C362.88 269.584 364.878 268.885 366.877 268.285L372.972 266.487C373.988 266.162 375.022 265.895 376.069 265.688L379.167 264.988C383.263 264.089 387.46 263.289 391.557 262.59C395.653 261.891 399.85 261.391 403.947 260.991C412.24 260.092 420.534 259.792 428.627 259.493C432.724 259.393 436.821 259.393 440.817 259.393L453.008 259.592C461.101 259.792 469.195 260.092 477.288 260.592C509.666 262.481 541.848 266.891 573.541 273.781C589.329 277.278 605.016 281.375 620.504 286.171C624.4 287.37 628.197 288.569 631.994 289.968C635.791 291.367 639.688 292.566 643.485 294.065C647.282 295.564 651.079 296.863 654.776 298.461C658.473 300.06 662.34 301.459 666.037 303.158Z" fill="#646464"/>
<path d="M758.263 542.866C751.069 547.562 743.775 551.958 736.481 556.255C729.187 560.552 721.792 564.848 714.498 569.045C699.81 577.438 685.022 585.532 670.434 593.825C641.157 610.212 612.38 626.899 584.602 644.984C556.875 662.915 530.523 682.887 505.765 704.736C493.375 715.727 481.585 727.318 470.194 739.508L461.8 748.801C459.103 751.998 456.405 755.196 453.607 758.293C451.009 761.591 448.311 764.788 445.613 768.086C442.916 771.383 440.418 774.78 437.72 778.078C439.219 774.081 440.817 770.084 442.416 766.087L447.812 754.396C449.81 750.6 451.808 746.803 453.907 743.006L460.501 731.914C469.808 717.348 480.302 703.576 491.876 690.737C515.058 665.058 542.036 642.886 570.913 624.001C599.79 605.116 630.366 589.528 661.741 576.139C677.428 569.544 693.315 563.349 709.402 557.854C713.399 556.455 717.396 555.056 721.493 553.757C725.589 552.458 729.586 551.159 733.683 549.86C741.776 547.462 749.97 545.064 758.263 542.866Z" fill="#646464"/>
<path d="M243.276 508.593C244.974 520.584 246.673 532.474 248.571 544.265C250.47 556.055 252.768 567.746 255.466 579.337C260.862 602.318 268.056 624.8 278.248 645.384L282.244 652.978C283.643 655.476 285.042 657.974 286.541 660.372C288.04 662.77 289.539 665.268 291.037 667.666L293.435 671.163C294.235 672.362 295.034 673.561 295.834 674.66C302.343 683.857 309.703 692.421 317.816 700.24C325.764 707.95 334.544 714.753 343.995 720.524L345.794 721.623L347.592 722.622L351.189 724.62C352.371 725.319 353.607 725.921 354.886 726.419L358.583 728.218C363.579 730.516 368.775 732.414 374.271 734.313C385.162 738.11 396.953 741.507 408.943 746.503C415.071 749.018 420.986 752.026 426.629 755.496C432.278 758.935 437.626 762.846 442.616 767.186C452.149 775.62 460.88 784.919 468.695 794.964C472.492 799.86 476.189 804.756 479.686 809.752L490.078 824.54C503.867 844.225 517.456 864.009 530.746 884.093C537.34 894.085 543.935 904.177 550.43 914.369C556.925 924.56 563.22 934.752 569.415 945.144C561.121 936.451 552.928 927.558 544.834 918.565C536.741 909.572 528.847 900.58 520.953 891.487C505.166 873.301 489.678 854.949 474.491 836.431L463.1 822.542C459.303 817.946 455.606 813.449 451.709 809.053C444.015 800.36 436.121 792.166 427.528 785.372C423.339 782.003 418.896 778.963 414.239 776.279C409.556 773.59 404.68 771.252 399.65 769.285C389.359 765.088 378.068 761.891 366.277 757.894C360.232 755.832 354.296 753.465 348.491 750.8C342.577 748.059 336.837 744.956 331.305 741.507C320.389 734.548 310.328 726.332 301.329 717.026C292.486 707.82 284.595 697.744 277.778 686.951C276.879 685.652 276.079 684.253 275.28 682.954L272.882 678.857C272.083 677.558 271.383 676.059 270.584 674.76L268.386 670.564C266.987 667.766 265.688 664.868 264.289 662.07L260.592 653.377C251.299 629.996 246.103 605.706 243.705 581.325C242.491 569.207 241.924 557.033 242.007 544.854C241.807 532.774 242.276 520.684 243.276 508.593Z" fill="#646464"/>
<path d="M500.17 865.608C501.019 867.815 501.687 870.087 502.168 872.402C502.668 874.6 503.067 876.799 503.367 878.997C503.961 883.234 504.262 887.508 504.266 891.787C504.247 900.059 503.309 908.302 501.469 916.367C499.689 924.449 496.973 932.296 493.375 939.748C491.528 943.615 489.425 947.353 487.08 950.939C485.846 952.808 484.511 954.61 483.083 956.335C481.648 958.211 480.042 959.95 478.287 961.531C477.438 959.324 476.77 957.052 476.289 954.736C475.789 952.538 475.389 950.34 475.09 948.142C474.495 943.904 474.195 939.631 474.19 935.352C474.243 927.076 475.215 918.832 477.088 910.772C478.867 902.689 481.583 894.843 485.182 887.39C487.029 883.524 489.132 879.785 491.477 876.199C492.676 874.401 493.975 872.602 495.373 870.804C496.809 868.928 498.414 867.188 500.17 865.608Z" fill="#646464"/>
<path d="M431.425 773.382C426.449 776.211 421.311 778.747 416.037 780.976C414.738 781.575 413.439 782.075 412.041 782.674L408.044 784.173C405.346 785.172 402.648 786.172 399.85 786.971C388.749 790.411 377.337 792.753 365.778 793.965C342.236 796.267 318.472 793.751 295.933 786.571C273.451 779.477 252.668 768.486 233.983 755.596C224.63 749.148 215.625 742.211 207.005 734.813C202.708 731.116 198.511 727.419 194.315 723.522C190.118 719.625 186.121 715.728 182.125 711.531C187.52 713.33 192.816 715.528 198.112 717.726C203.407 719.925 208.503 722.223 213.599 724.521C223.791 729.117 233.783 734.013 243.775 738.61C263.659 747.902 283.344 756.495 303.427 762.89C323.569 769.255 344.401 773.18 365.478 774.581C376.285 775.333 387.124 775.533 397.952 775.18C400.75 775.18 403.447 774.981 406.245 774.881L410.442 774.781C411.841 774.681 413.24 774.581 414.639 774.581C416.037 774.581 417.436 774.381 418.835 774.381L420.933 774.281L423.032 774.081C425.814 773.691 428.616 773.458 431.425 773.382Z" fill="#646464"/>
<path d="M238.579 87.73C239.279 90.4278 239.778 93.0257 240.278 95.6237C240.778 98.2216 241.577 100.819 242.077 103.318C242.776 105.816 243.475 108.413 244.075 110.911C244.874 113.409 245.574 115.907 246.273 118.306C249.371 128.198 252.768 137.79 256.565 147.282C264.059 166.367 272.452 185.252 280.146 205.036C283.943 214.928 287.54 225.12 290.438 235.512C293.482 246.017 295.72 256.74 297.133 267.586C298.581 278.553 298.782 289.648 297.732 300.66C297.432 303.457 297.033 306.155 296.633 308.853C296.033 311.551 295.534 314.249 294.934 316.947C294.335 319.644 293.336 322.242 292.536 324.84C291.537 327.438 290.538 329.936 289.339 332.434C289.039 329.736 288.939 327.039 288.739 324.441C288.539 321.843 288.14 319.145 287.94 316.547C287.54 313.949 287.24 311.351 286.841 308.853L285.442 301.259C283.417 291.31 280.882 281.472 277.848 271.783C271.853 252.498 264.259 233.513 256.765 214.029C249.271 194.545 241.977 174.261 237.68 152.778C235.48 142.02 234.276 131.083 234.083 120.104C234.083 117.306 234.183 114.608 234.283 111.911C234.383 109.213 234.683 106.415 234.982 103.717C235.282 101.019 235.882 98.3215 236.281 95.6237C237.181 92.9258 237.88 90.3279 238.579 87.73Z" fill="#646464"/>
<path d="M279.616 328.208C276.848 329.987 274.101 331.775 271.383 333.604C268.665 335.432 266.007 337.331 263.389 339.229C258.093 343.046 252.918 346.986 247.862 351.05C237.802 359.133 228.233 367.808 219.205 377.029C201.219 395.354 185.841 415.818 174.181 438.06C168.348 449.129 163.461 460.671 159.572 472.563C157.624 478.488 155.995 484.553 154.576 490.548C153.157 496.543 152.018 502.718 151.059 508.953C149.104 521.355 148.042 533.88 147.882 546.433C147.768 558.992 148.499 571.543 150.07 584.003C150.919 590.238 151.878 596.463 153.067 602.668C153.607 605.776 154.316 608.863 154.956 611.961C155.595 615.059 156.355 618.146 157.144 621.224C160.252 633.544 163.929 645.804 168.015 658.024C172.102 670.244 176.489 682.505 180.865 694.915C183.063 701.116 185.165 707.401 187.17 713.77L188.649 718.556L190.058 723.402C190.957 726.619 191.826 729.817 192.666 733.034C199.378 758.75 203.755 785.019 205.745 811.521C206.745 824.721 207.024 837.95 206.874 851.09C206.824 857.664 206.635 864.219 206.545 870.754C206.313 877.286 206.537 883.827 207.214 890.328C206.231 887.181 205.466 883.969 204.926 880.716C204.346 877.469 203.857 874.201 203.417 870.944C202.558 864.419 201.828 857.894 201.069 851.409C199.53 838.42 197.802 825.54 195.533 812.78C191.039 787.337 184.724 762.25 176.639 737.71L173.571 728.558L171.982 724.051L170.324 719.555C168.075 713.56 165.657 707.565 163.269 701.499C158.453 689.409 153.407 677.229 148.861 664.759C146.553 658.534 144.374 652.229 142.256 645.884C141.257 642.696 140.198 639.519 139.258 636.292C138.319 633.064 137.38 629.837 136.501 626.589C132.926 613.535 130.209 600.26 128.367 586.851C124.661 559.819 125.119 532.379 129.726 505.486C130.875 498.812 132.264 492.067 134.013 485.432C135.761 478.798 137.86 472.263 140.228 465.828C144.968 452.995 150.913 440.639 157.984 428.927C172.119 405.828 190.097 385.312 211.141 368.266C221.466 359.834 232.419 352.201 243.905 345.434C255.294 338.681 267.242 332.918 279.616 328.208Z" fill="#646464"/>
</svg>
