<svg width="1159" height="1159" viewBox="0 0 1159 1159" fill="none" xmlns="http://www.w3.org/2000/svg">
<g clip-path="url(#clip0_2205_5024)">
<path d="M579 1079C855.142 1079 1079 855.142 1079 579C1079 302.858 855.142 79 579 79C302.858 79 79 302.858 79 579C79 855.142 302.858 1079 579 1079Z" fill="#EEEEEF"/>
<path d="M320.168 335.176C338.751 344.009 357.811 351.753 376.985 359.091C396.195 366.342 415.655 372.892 435.34 378.544C445.188 381.346 455.086 383.949 465.052 386.202C475.02 388.449 485.036 390.372 495.101 391.972C505.161 393.54 515.268 394.673 525.375 395.3C527.902 395.416 530.429 395.601 532.954 395.661L540.526 395.78C545.541 395.656 550.531 395.556 555.538 395.032C565.58 394.12 575.553 392.555 585.391 390.345C595.271 388.192 605.097 385.672 614.798 382.653C617.233 381.938 619.657 381.184 622.067 380.371L629.307 377.983C634.103 376.284 638.915 374.645 643.669 372.815C653.213 369.274 662.652 365.417 672.017 361.385C681.393 357.378 690.659 353.096 699.872 348.705C709.1 344.346 718.246 339.809 727.31 335.095C736.379 330.399 745.369 325.557 754.281 320.569C763.161 315.588 772.073 310.434 780.611 305.153L787.905 300.641L790.733 308.778L804.537 348.508L818.203 388.287L819.583 392.304L816.711 395.478L756.901 461.591C737 483.661 717.01 505.65 696.932 527.559L636.858 593.433C616.848 615.403 596.66 637.213 576.57 659.111L574.533 661.33L571.595 661.313L531.997 661.073L528.853 661.055L526.919 658.62C518.084 647.5 508.762 636.462 499.475 625.529C490.14 614.602 480.661 603.791 471.04 593.096C451.807 571.702 432.092 550.745 411.894 530.223C391.742 509.654 371.142 489.491 350.398 469.468C329.697 449.399 308.662 429.652 287.578 409.984L286.538 409.014L287.088 407.807L303.799 371.116C309.367 359.032 314.834 347.082 320.168 335.176ZM320.168 335.176C315.06 347.73 310.085 360.24 305.211 372.615L290.596 409.304L290.106 407.127C301.126 416.477 312.039 425.937 322.845 435.507C333.682 445.051 344.466 454.657 355.199 464.324C376.66 483.663 397.797 503.374 418.61 523.456C423.834 528.455 428.966 533.557 434.149 538.605C439.257 543.727 444.394 548.823 449.439 554.009C459.599 564.313 469.574 574.8 479.483 585.351C489.385 595.91 499.146 606.605 508.767 617.435C518.418 628.273 527.81 639.208 537.074 650.565L531.997 648.111L571.595 647.872L566.62 650.074C586.491 627.976 606.264 605.79 626.215 583.765L686.024 517.651C705.955 495.609 725.926 473.602 745.937 451.632L806.01 385.758L804.519 392.949L791.053 353.103L777.726 313.21L787.848 316.833C778.826 322.265 769.863 327.299 760.746 332.272C751.647 337.225 742.47 342.026 733.216 346.675C714.723 356.001 695.886 364.671 676.664 372.475C667.058 376.388 657.373 380.122 647.562 383.543C642.68 385.31 637.724 386.892 632.792 388.528L625.334 390.825C622.854 391.605 620.354 392.329 617.84 393.015C597.819 398.685 577.26 403.053 556.226 404.327C550.984 404.728 545.683 404.696 540.417 404.674L532.569 404.335C529.956 404.199 527.357 403.939 524.752 403.747C514.352 402.813 504.033 401.363 493.816 399.481C473.477 395.528 453.41 390.288 433.735 383.793C414.065 377.458 394.812 369.977 375.855 361.896C366.375 357.853 356.992 353.601 347.707 349.139C338.423 344.687 329.215 340.075 320.168 335.176Z" fill="#646464"/>
<path d="M551.795 225.747C556.36 225.747 560.06 218.684 560.06 209.973C560.06 201.261 556.36 194.199 551.795 194.199C547.231 194.199 543.531 201.261 543.531 209.973C543.531 218.684 547.231 225.747 551.795 225.747Z" fill="#646464"/>
<path d="M360.422 516.573C360.422 516.573 276.635 606.996 285.349 759.911C297.493 973.023 360.422 1004.57 366.682 1004.57C397.846 1004.55 431.52 988.678 412.788 873.333C412.788 873.333 450.534 1013.44 494.288 980.91C538.041 948.376 485.547 759.093 433.419 667.408C381.291 575.724 360.422 516.573 360.422 516.573Z" fill="#F2956A"/>
<path d="M360.422 516.573C355.832 522.071 351.544 527.814 347.576 533.776C343.579 539.71 339.807 545.784 336.261 551.996C329.125 564.368 322.769 577.173 317.23 590.338C306.178 616.613 298.26 644.099 293.642 672.227C293.111 675.741 292.479 679.237 292.029 682.761L290.714 693.332L289.758 703.941C289.429 707.475 289.329 711.027 289.103 714.568C288.855 718.108 288.805 721.658 288.739 725.205C288.672 728.753 288.549 732.298 288.658 735.846C288.725 739.393 288.736 742.94 288.848 746.483L289.391 757.108C291.165 785.575 294.112 814.013 298.597 842.115C300.898 856.155 303.501 870.142 306.802 883.935C309.977 897.719 313.865 911.328 318.451 924.709C322.928 937.987 328.563 950.846 335.289 963.139C338.61 969.17 342.369 974.948 346.535 980.43C348.589 983.104 350.785 985.665 353.115 988.103C355.353 990.487 357.785 992.681 360.385 994.663C361.015 995.156 361.649 995.619 362.292 996.031C362.907 996.465 363.544 996.867 364.202 997.233C364.842 997.641 365.446 997.888 366.04 998.196L366.832 998.518L367.06 998.577C367.097 998.591 367.317 998.663 367.062 998.593C366.984 998.578 366.904 998.571 366.825 998.574C366.74 998.577 366.62 998.597 366.799 998.588L367.424 998.575L368.673 998.552C369.511 998.552 370.325 998.478 371.149 998.44C371.977 998.409 372.784 998.319 373.594 998.239C374.41 998.174 375.21 998.069 376.001 997.942C382.161 997.218 388.032 994.928 393.053 991.289C395.473 989.454 397.64 987.309 399.498 984.907C401.384 982.385 403.005 979.675 404.336 976.822C407.061 970.774 408.963 964.389 409.992 957.836C411.139 951.058 411.782 944.204 411.916 937.33C412.084 930.388 411.979 923.396 411.514 916.386C410.674 902.369 408.894 888.325 406.668 874.327C406.419 872.763 406.778 871.163 407.671 869.855C408.565 868.547 409.924 867.63 411.472 867.293C413.019 866.956 414.637 867.223 415.994 868.041C417.351 868.858 418.343 870.163 418.768 871.689L418.776 871.72C422.317 884.445 426.549 897.29 431.232 909.765C435.822 922.231 441.226 934.382 447.408 946.14C450.448 951.886 453.875 957.418 457.666 962.698C461.425 967.834 465.645 972.594 470.318 975.921C472.473 977.488 474.887 978.662 477.449 979.392C479.748 979.981 482.16 979.975 484.456 979.374C486.948 978.63 489.268 977.403 491.287 975.764C493.397 974.051 495.198 971.988 496.609 969.665C498.154 967.131 499.41 964.432 500.355 961.618C501.388 958.67 502.2 955.651 502.786 952.583C504.011 946.227 504.713 939.782 504.886 933.312C505.215 920.047 504.522 906.776 502.812 893.618C499.326 866.982 494.005 840.618 486.888 814.715C479.91 788.702 471.476 763.057 461.944 737.843C452.344 712.639 441.476 687.97 428.319 664.414C415.366 640.543 402.972 616.371 391.506 591.765C380.111 567.136 369.311 542.197 360.422 516.573ZM360.422 516.573C365.385 529.186 370.962 541.539 376.696 553.804C382.428 566.072 388.373 578.234 394.531 590.289C406.894 614.371 419.891 638.101 433.522 661.48C440.467 673.134 446.912 685.269 452.814 697.535C458.737 709.818 464.26 722.277 469.383 734.91C479.664 760.161 488.582 785.945 496.098 812.153C503.594 838.372 509.92 865.011 513.521 892.267C515.445 905.979 516.309 919.819 516.103 933.664C515.982 940.749 515.282 947.812 514.009 954.782C513.356 958.379 512.439 961.922 511.266 965.384C510.081 969.01 508.494 972.492 506.535 975.764C504.445 979.258 501.769 982.366 498.624 984.951C495.385 987.616 491.645 989.607 487.626 990.807C483.352 991.996 478.842 992.053 474.539 990.972C470.553 989.9 466.792 988.121 463.435 985.721C457.04 981.168 452.226 975.57 447.959 969.831C443.819 964.117 440.073 958.128 436.748 951.904C430.265 939.69 424.592 927.063 419.766 914.105C414.886 901.223 410.573 888.319 406.801 874.946L418.909 872.339C421.338 886.685 422.991 901.152 423.862 915.676C424.319 922.97 424.41 930.325 424.204 937.707C424.028 945.169 423.299 952.607 422.025 959.962C420.785 967.58 418.528 974.998 415.314 982.016C413.598 985.654 411.509 989.103 409.079 992.308C406.538 995.573 403.573 998.486 400.263 1000.97C393.589 1006.03 385.487 1008.74 377.71 1009.81C376.731 1009.97 375.755 1010.09 374.784 1010.17C373.811 1010.26 372.836 1010.36 371.872 1010.39C370.907 1010.44 369.934 1010.52 368.98 1010.51L367.542 1010.54L366.823 1010.55C366.591 1010.55 366.36 1010.54 366.129 1010.51C365.827 1010.49 365.525 1010.45 365.225 1010.41C364.784 1010.35 364.349 1010.25 363.924 1010.11L362.863 1009.79L361.165 1009.1C360.159 1008.61 359.12 1008.13 358.243 1007.58C357.319 1007.05 356.434 1006.5 355.61 1005.91C354.748 1005.35 353.939 1004.75 353.163 1004.13C350.083 1001.74 347.207 999.098 344.562 996.232C341.968 993.461 339.525 990.553 337.244 987.519C332.793 981.541 328.786 975.245 325.255 968.681C318.343 955.742 312.579 942.221 308.032 928.274C298.794 900.625 292.93 872.168 288.861 843.6C284.834 815.007 282.248 786.316 281.104 757.525L280.811 746.667C280.784 743.048 280.858 739.426 280.878 735.807C280.856 732.188 281.067 728.572 281.221 724.956C281.376 721.341 281.516 717.726 281.853 714.121C282.17 710.517 282.361 706.903 282.782 703.31L284.016 692.531L285.613 681.802C286.157 678.229 286.884 674.685 287.512 671.126C293.028 642.761 301.925 615.16 314.011 588.912C320.079 575.857 326.961 563.195 334.615 551.002C338.452 544.923 342.511 538.996 346.791 533.22C351.03 527.429 355.581 521.872 360.422 516.573V516.573Z" fill="#E2815A"/>
<path d="M422.183 907.231C418.167 900.393 414.922 893.131 412.508 885.577C410.013 878.031 408.095 870.305 406.773 862.466C404.082 846.653 403.658 830.536 405.516 814.602C406.436 806.596 407.97 798.673 410.106 790.902C411.195 787.022 412.333 783.155 413.739 779.376C415.042 775.543 416.566 772.095 418.051 768.464C421.107 761.309 424.418 754.234 428.147 747.315C429.985 743.848 432.002 740.444 434.107 737.085C436.195 733.665 438.597 730.447 441.281 727.472C440.856 729.426 440.554 731.36 440.246 733.307L439.283 739.096C438.599 742.932 437.941 746.766 437.176 750.562C435.694 758.169 434.011 765.697 432.176 773.179L430.765 778.779L429.306 784.27C428.356 787.84 427.471 791.422 426.65 795.017C425.055 802.218 423.75 809.479 422.736 816.798C420.729 831.557 419.753 846.439 419.817 861.334C419.834 876.663 420.624 891.981 422.183 907.231V907.231Z" fill="#E2815A"/>
<path d="M746.836 515.912C746.836 515.912 830.623 606.335 821.909 759.25C809.765 972.362 746.836 1003.91 740.576 1003.91C709.412 1003.89 675.738 988.017 694.47 872.672C694.47 872.672 656.724 1012.78 612.97 980.249C569.217 947.716 621.711 758.432 673.839 666.748C725.967 575.063 746.836 515.912 746.836 515.912Z" fill="#F2956A"/>
<path d="M746.836 515.912C751.677 521.211 756.227 526.768 760.467 532.559C764.741 538.33 768.8 544.257 772.643 550.341C780.297 562.534 787.179 575.196 793.247 588.251C805.333 614.499 814.23 642.1 819.746 670.466C820.374 674.024 821.101 677.568 821.645 681.141L823.242 691.87L824.476 702.649C824.897 706.242 825.088 709.856 825.405 713.46C825.742 717.065 825.882 720.68 826.036 724.296C826.191 727.911 826.403 731.527 826.38 735.147C826.4 738.765 826.474 742.387 826.447 746.007L826.153 756.864C824.982 785.648 822.397 814.34 818.396 842.939C814.328 871.507 808.464 899.964 799.226 927.613C794.679 941.56 788.915 955.081 782.003 968.02C778.472 974.584 774.465 980.88 770.014 986.858C767.733 989.892 765.29 992.8 762.696 995.571C760.051 998.438 757.175 1001.08 754.095 1003.47C753.32 1004.09 752.51 1004.69 751.648 1005.25C750.824 1005.84 749.939 1006.39 749.015 1006.92C748.138 1007.47 747.099 1007.95 746.093 1008.44L744.395 1009.13L743.334 1009.45C742.909 1009.59 742.474 1009.69 742.033 1009.75C741.733 1009.79 741.431 1009.83 741.129 1009.85C740.898 1009.88 740.667 1009.89 740.435 1009.89L739.716 1009.88L738.278 1009.85C737.324 1009.85 736.351 1009.78 735.386 1009.73C734.422 1009.7 733.448 1009.6 732.474 1009.5C731.503 1009.43 730.527 1009.31 729.548 1009.15C721.771 1008.08 713.669 1005.37 706.995 1000.31C703.685 997.825 700.72 994.913 698.179 991.647C695.749 988.442 693.66 984.993 691.944 981.355C688.73 974.337 686.473 966.92 685.233 959.301C683.959 951.947 683.23 944.508 683.054 937.046C682.848 929.664 682.939 922.309 683.396 915.015C684.266 900.491 685.92 886.024 688.349 871.678L700.457 874.285C696.685 887.658 692.372 900.562 687.492 913.444C682.666 926.403 676.993 939.029 670.51 951.243C667.185 957.467 663.439 963.456 659.299 969.17C655.032 974.91 650.218 980.507 643.823 985.06C640.466 987.46 636.705 989.239 632.719 990.311C628.416 991.392 623.906 991.335 619.632 990.146C615.613 988.946 611.874 986.955 608.634 984.29C605.489 981.705 602.813 978.598 600.723 975.103C598.764 971.831 597.177 968.349 595.992 964.723C594.819 961.262 593.902 957.718 593.249 954.121C591.976 947.151 591.276 940.088 591.156 933.003C590.949 919.158 591.813 905.318 593.737 891.606C597.338 864.35 603.664 837.711 611.16 811.492C618.676 785.284 627.594 759.5 637.875 734.249C643.018 721.631 648.54 709.173 654.444 696.874C660.346 684.608 666.792 672.473 673.736 660.818C687.404 637.473 700.401 613.743 712.727 589.628C718.877 577.571 724.822 565.41 730.562 553.144C736.296 540.878 741.873 528.525 746.836 515.912ZM746.836 515.912C737.947 541.536 727.147 566.476 715.752 591.104C704.286 615.71 691.893 639.882 678.939 663.753C665.782 687.309 654.914 711.978 645.314 737.182C635.782 762.396 627.348 788.042 620.37 814.054C613.253 839.957 607.932 866.321 604.446 892.957C602.736 906.115 602.043 919.386 602.372 932.651C602.545 939.121 603.247 945.566 604.472 951.922C605.058 954.99 605.87 958.01 606.904 960.957C607.848 963.771 609.104 966.47 610.649 969.004C612.061 971.327 613.861 973.39 615.971 975.103C617.99 976.742 620.31 977.969 622.802 978.713C625.098 979.314 627.51 979.32 629.809 978.731C632.371 978.002 634.785 976.827 636.94 975.26C641.613 971.933 645.833 967.173 649.592 962.037C653.383 956.757 656.81 951.225 659.85 945.48C666.032 933.721 671.436 921.57 676.026 909.104C680.709 896.629 684.941 883.784 688.482 871.059L688.49 871.029C688.915 869.503 689.907 868.198 691.264 867.38C692.62 866.562 694.238 866.295 695.786 866.632C697.334 866.969 698.694 867.886 699.587 869.194C700.48 870.502 700.839 872.102 700.59 873.666C698.364 887.664 696.584 901.708 695.744 915.725C695.279 922.735 695.174 929.727 695.342 936.669C695.476 943.543 696.119 950.397 697.266 957.175C698.295 963.728 700.197 970.113 702.922 976.161C704.253 979.015 705.874 981.724 707.76 984.246C709.618 986.648 711.785 988.793 714.205 990.628C719.226 994.267 725.097 996.557 731.257 997.281C732.048 997.409 732.848 997.513 733.664 997.578C734.474 997.658 735.281 997.748 736.108 997.778C736.933 997.817 737.747 997.891 738.585 997.891L739.834 997.915L740.459 997.927C740.638 997.936 740.518 997.916 740.433 997.914C740.354 997.91 740.274 997.917 740.196 997.932C739.942 998.002 740.161 997.93 740.198 997.916L740.426 997.857L741.218 997.535C741.813 997.227 742.416 996.98 743.057 996.572C743.714 996.205 744.351 995.804 744.966 995.37C745.609 994.958 746.243 994.495 746.873 994.002C749.473 992.02 751.905 989.826 754.143 987.442C756.473 985.004 758.669 982.443 760.723 979.769C764.889 974.288 768.648 968.509 771.97 962.478C778.696 950.186 784.33 937.326 788.807 924.049C793.393 910.668 797.281 897.058 800.456 883.274C803.757 869.481 806.36 855.494 808.661 841.454C813.146 813.352 816.093 784.914 817.867 756.447L818.41 745.822C818.522 742.278 818.533 738.732 818.6 735.185C818.709 731.637 818.586 728.091 818.519 724.544C818.453 720.996 818.403 717.447 818.155 713.907C817.929 710.366 817.829 706.813 817.5 703.279L816.544 692.672L815.229 682.099C814.779 678.576 814.147 675.08 813.616 671.566C808.998 643.438 801.08 615.952 790.028 589.677C784.489 576.512 778.134 563.707 770.998 551.335C767.456 545.127 763.685 539.054 759.682 533.115C755.714 527.153 751.426 521.41 746.836 515.912V515.912Z" fill="#E2815A"/>
<path d="M685.075 906.57C686.634 891.32 687.424 876.002 687.441 860.673C687.505 845.778 686.529 830.896 684.522 816.137C683.52 808.816 682.215 801.556 680.608 794.356C679.783 790.762 678.898 787.18 677.952 783.61L676.492 778.118L675.082 772.517C673.247 765.036 671.564 757.508 670.082 749.901C669.317 746.105 668.658 742.271 667.975 738.436L667.012 732.646C666.704 730.699 666.401 728.765 665.977 726.811C668.661 729.786 671.062 733.005 673.151 736.424C675.256 739.783 677.273 743.187 679.111 746.654C682.84 753.573 686.151 760.648 689.207 767.803C690.692 771.434 692.215 774.882 693.519 778.715C694.925 782.494 696.062 786.361 697.152 790.242C699.287 798.012 700.822 805.936 701.742 813.942C703.599 829.875 703.176 845.992 700.485 861.805C699.163 869.643 697.245 877.369 694.749 884.916C692.336 892.47 689.091 899.732 685.075 906.57Z" fill="#E2815A"/>
<path d="M756.184 1042.84C765.699 1009.83 774.903 976.788 783.796 943.7C788.151 927.125 792.592 910.588 796.8 893.994C801.023 877.404 805.026 860.767 809.017 844.142C816.859 810.86 824.194 777.489 830.308 743.972C833.365 727.217 836.167 710.437 838.438 693.623C840.754 676.82 842.62 659.99 843.672 643.197C844.189 634.803 844.54 626.425 844.583 618.085C844.62 613.904 844.565 609.779 844.403 605.599L843.813 593.06C842.752 576.326 840.787 559.561 838.216 542.858C833.131 509.427 825.661 476.219 817.161 443.257C808.57 410.306 798.832 377.585 788.26 345.109C783.028 328.85 777.463 312.696 771.848 296.552C766.217 280.431 760.343 264.314 754.147 248.486L753.875 247.791L753.818 247.416C753.079 241.704 752.972 235.928 753.499 230.193C753.897 224.661 754.556 219.228 755.334 213.833C756.941 203.057 758.938 192.419 761.257 181.862C763.596 171.311 766.12 160.82 768.83 150.388C771.601 139.968 774.44 129.574 777.603 119.274C775.636 129.865 773.702 140.447 771.967 151.06C770.155 161.655 768.516 172.266 767.05 182.894C765.617 193.516 764.264 204.137 763.453 214.737C763.056 220.032 762.784 225.321 762.767 230.536C762.67 235.544 763.058 240.55 763.926 245.483L763.598 244.413C777.854 275.89 790.834 307.726 802.775 340.077C814.636 372.431 825.52 405.185 834.91 438.444C844.257 471.708 852.309 505.439 857.75 539.815C860.431 557.003 862.64 574.324 863.676 591.836C863.909 596.216 864.054 600.611 864.245 604.997C864.396 609.385 864.438 613.839 864.382 618.232C864.286 627.044 863.922 635.809 863.29 644.528C860.676 679.393 854.927 713.597 847.917 747.42C840.808 781.227 832.376 814.657 822.971 847.773C818.309 864.342 813.295 880.803 808.157 897.215C803.007 913.622 797.759 929.992 792.136 946.237C786.551 962.492 780.904 978.719 774.873 994.811C768.914 1010.92 762.754 1026.96 756.184 1042.84Z" fill="#646464"/>
<path d="M501.564 1062.74C502.025 1028.57 503.253 994.459 504.506 960.352C505.918 926.256 507.402 892.166 509.192 858.098C511.025 824.034 513.009 789.981 515.145 755.939L516.771 730.41L518.504 704.888C519.631 687.872 520.863 670.863 522.102 653.855L522.769 644.701L531.996 644.671C545.196 644.628 558.395 644.626 571.595 644.665L580.801 644.7L581.491 653.805L585.357 704.838C586.611 721.852 587.819 738.87 588.981 755.891C591.357 789.929 593.446 823.99 595.46 858.057C597.42 892.129 599.075 926.225 600.658 960.326C602.074 994.441 603.475 1028.56 604.093 1062.74C599.295 1028.89 595.28 994.982 591.279 961.073C587.446 927.151 583.685 893.223 580.228 859.27C576.826 825.314 573.498 791.351 570.458 757.366C568.888 740.377 567.388 723.383 565.958 706.383L561.699 655.38L571.595 664.52C558.395 664.57 545.196 664.568 531.996 664.514L541.89 655.33C540.594 672.334 539.29 689.338 537.88 706.333L535.81 731.829L533.632 757.317C530.754 791.304 527.666 825.275 524.368 859.23C521.087 893.186 517.498 927.12 513.839 961.048C510.02 994.964 506.176 1028.88 501.564 1062.74Z" fill="#646464"/>
<path d="M323.873 158.4C327.783 165.777 331.315 173.352 334.708 181C338.03 188.678 341.158 196.457 343.986 204.385C346.826 212.374 349.186 220.524 351.054 228.794C352.003 233.03 352.706 237.317 353.16 241.633C353.675 246.188 353.608 250.79 352.961 255.329L352.891 255.786L352.567 256.554C346.2 271.63 340.184 287.041 334.395 302.444C328.596 317.862 322.931 333.327 317.552 348.884C306.715 379.967 296.741 411.325 287.966 442.947C279.233 474.569 271.609 506.473 266.269 538.626C263.549 554.69 261.485 570.822 260.227 586.948C258.924 603.022 258.661 619.164 259.438 635.272C260.183 651.446 261.66 667.68 263.701 683.884C265.708 700.095 268.142 716.285 271.003 732.454C273.794 748.623 276.925 764.756 280.293 780.856C283.603 796.97 287.262 813.025 290.976 829.08C294.758 845.118 298.654 861.141 302.665 877.149C306.69 893.153 311.011 909.084 315.221 925.06C323.809 956.966 332.776 988.804 342.122 1020.58C335.604 1005.34 329.536 989.918 323.666 974.422C317.721 958.948 312.208 943.32 306.729 927.671C301.212 912.032 296.149 896.242 291.121 880.431C288.628 872.519 286.175 864.592 283.761 856.651C281.373 848.702 279.057 840.73 276.813 832.735C267.776 800.772 259.767 768.475 253.18 735.782C246.724 703.071 241.577 669.962 239.727 636.23C238.836 619.291 239.046 602.312 240.353 585.401C241.734 568.553 243.945 551.851 246.81 535.314C252.727 502.392 260.591 469.85 270.363 437.86C279.956 405.925 291.024 374.515 303.113 343.545C315.267 312.572 328.433 282.14 342.976 252.119L342.582 253.344C343.339 249.666 343.679 245.915 343.593 242.161C343.54 238.169 343.256 234.183 342.744 230.224C341.662 222.107 340.125 214.057 338.14 206.113C336.248 198.079 334.029 190.087 331.598 182.146C329.219 174.185 326.622 166.277 323.873 158.4Z" fill="#646464"/>
<path d="M778.715 664.752L771.51 627.268C770.326 621.026 769.092 614.795 767.809 608.577C766.58 602.349 765.313 596.132 763.972 589.935C761.312 577.538 758.58 565.163 755.343 552.964C752.194 540.78 748.628 528.579 743.605 517.443L750.388 516.311C749.669 522.19 748.828 527.953 747.934 533.749C747.048 539.537 746.05 545.304 744.937 551.051C742.757 562.552 740.293 574.002 737.345 585.337C734.462 596.685 731.069 607.891 727.168 618.955C723.313 630.011 718.582 640.74 713.019 651.042C717.27 640.217 720.918 629.165 723.944 617.936C727.049 606.756 729.63 595.443 732.039 584.101C734.361 572.739 736.51 561.341 738.37 549.894C740.159 538.452 742.002 526.951 743.283 515.513C743.37 514.742 743.705 514.019 744.238 513.455C744.772 512.891 745.474 512.516 746.24 512.387C747.005 512.257 747.792 512.381 748.482 512.738C749.171 513.095 749.725 513.667 750.06 514.368L750.066 514.381C752.797 520.308 755.101 526.423 756.962 532.677C758.875 538.842 760.522 545.047 762.068 551.268C763.605 557.49 764.913 563.753 766.18 570.015C767.44 576.279 768.645 582.547 769.667 588.846C770.721 595.139 771.712 601.438 772.64 607.744C773.52 614.058 774.353 620.376 775.138 626.698C776.605 639.357 777.95 652.027 778.715 664.752Z" fill="#E2815A"/>
<path d="M327.891 665.413C328.655 652.688 330.001 640.018 331.468 627.359C332.249 621.037 333.082 614.718 333.965 608.405C334.89 602.098 335.881 595.799 336.939 589.507C337.961 583.208 339.166 576.939 340.426 570.675C341.693 564.414 343 558.151 344.538 551.928C346.084 545.709 347.731 539.503 349.643 533.338C351.504 527.083 353.809 520.969 356.54 515.042L356.543 515.035C356.877 514.333 357.431 513.76 358.12 513.401C358.809 513.043 359.597 512.918 360.363 513.047C361.129 513.176 361.832 513.551 362.366 514.115C362.901 514.679 363.236 515.402 363.323 516.174C364.604 527.612 366.447 539.113 368.236 550.555C370.096 562.002 372.245 573.4 374.567 584.762C376.976 596.104 379.557 607.417 382.662 618.597C385.688 629.826 389.336 640.878 393.587 651.703C388.024 641.401 383.292 630.671 379.438 619.616C375.53 608.575 372.138 597.369 369.261 585.998C366.313 574.663 363.849 563.213 361.669 551.712C360.557 545.965 359.558 540.198 358.672 534.41C357.777 528.613 356.936 522.851 356.218 516.972L363.001 518.104C357.978 529.24 354.412 541.441 351.262 553.625C348.025 565.824 345.294 578.199 342.634 590.595C341.292 596.793 340.026 603.01 338.797 609.238C337.517 615.456 336.284 621.686 335.096 627.929L327.891 665.413Z" fill="#E2815A"/>
<path d="M252.878 1766.82C253.319 1767.52 254.245 1767.73 254.946 1767.29L266.371 1760.1C267.072 1759.66 267.283 1758.73 266.841 1758.03C266.4 1757.33 265.474 1757.12 264.773 1757.56L254.617 1763.95L248.224 1753.8C247.783 1753.1 246.857 1752.89 246.156 1753.33C245.455 1753.77 245.244 1754.69 245.686 1755.4L252.878 1766.82ZM390.764 1158.34L252.685 1765.69L255.61 1766.35L393.69 1159L390.764 1158.34Z" fill="black"/>
</g>
<defs>
<clipPath id="clip0_2205_5024">
<rect width="1159" height="1159" fill="white"/>
</clipPath>
</defs>
</svg>
