<svg width="1001" height="1001" viewBox="0 0 1001 1001" fill="none" xmlns="http://www.w3.org/2000/svg">
<path d="M500.1 1000.25C776.279 1000.25 1000.1 776.429 1000.1 500.25C1000.1 224.071 776.279 0.25 500.1 0.25C223.921 0.25 0.100098 224.071 0.100098 500.25C0.100098 776.429 223.921 1000.25 500.1 1000.25Z" fill="#EEEEEF"/>
<path d="M305.256 401.529C305.256 401.529 196.443 550.41 205.136 703.088C217.226 915.918 197.942 899.331 236.211 916.317C267.286 916.317 342.027 872.852 323.341 757.744C323.341 757.744 325.54 926.509 414.668 895.134C458.334 862.66 462.23 652.928 377.298 535.722C325.14 444.095 305.256 401.529 305.256 401.529Z" fill="#F2956A" stroke="#E2815A" stroke-width="6" stroke-miterlimit="10"/>
<path d="M395.284 816.597C395.371 801.726 394.402 786.867 392.386 772.133C391.387 764.839 390.088 757.545 388.49 750.35C387.69 746.753 386.791 743.156 385.792 739.659L384.293 734.163L382.894 728.568C381.095 721.074 379.397 713.58 377.898 705.986C377.099 702.189 376.499 698.392 375.8 694.495L374.8 688.7C374.501 686.801 374.201 684.803 373.801 682.904C376.482 685.879 378.89 689.09 380.995 692.497C383.094 695.894 385.092 699.291 386.991 702.688C390.688 709.583 393.985 716.677 397.083 723.772C398.581 727.369 400.08 730.866 401.379 734.663C402.678 738.46 403.877 742.257 404.976 746.154C407.103 753.92 408.639 761.837 409.573 769.835C411.44 785.735 411.002 801.821 408.274 817.597C406.978 825.427 405.074 833.144 402.578 840.678C400.153 848.208 396.903 855.446 392.886 862.261C394.487 847.092 395.288 831.85 395.284 816.597Z" fill="#E2815A"/>
<path d="M231.715 772.632C234.313 747.652 238.11 722.772 242.206 697.992C244.305 685.602 246.503 673.212 248.801 660.822C251.199 648.432 253.697 636.141 256.395 623.851C259.093 611.561 261.891 599.271 264.988 587.081C268.086 574.89 271.183 562.6 274.78 550.51C278.378 538.42 282.174 526.329 286.471 514.339C290.683 502.169 295.758 490.315 301.659 478.867C302.39 477.502 303.548 476.414 304.956 475.77C306.371 475.158 307.938 474.984 309.453 475.27C310.975 475.571 312.35 476.381 313.35 477.568C314.338 478.718 314.933 480.153 315.048 481.665C316.547 504.347 319.145 527.129 321.643 549.811C324.141 572.492 327.538 595.174 331.035 617.756C334.732 640.338 338.829 662.82 343.925 685.102C348.924 707.519 355.128 729.65 362.51 751.399C352.501 730.607 344.148 709.057 337.53 686.951C330.836 664.868 325.14 642.486 320.444 619.805C315.648 597.223 311.851 574.441 308.553 551.559C306.855 540.168 305.456 528.677 304.157 517.187C302.858 505.696 301.759 494.305 300.86 482.614L314.149 485.412C303.258 506.895 295.164 530.676 287.87 554.357C280.376 578.138 273.881 602.219 267.586 626.399C264.389 638.49 261.291 650.58 258.394 662.77C255.296 674.86 252.298 687.051 249.401 699.241L231.715 772.632Z" fill="#E2815A"/>
<path d="M619.704 529.327C534.772 646.633 538.669 856.265 582.334 888.739C671.363 920.264 673.661 751.399 673.661 751.399C654.976 866.607 729.716 909.972 760.791 909.972C799.061 892.986 779.676 909.473 791.866 696.743C800.56 544.065 691.747 395.184 691.747 395.184C691.747 395.184 671.763 437.8 619.704 529.327Z" fill="#F2956A" stroke="#E2815A" stroke-width="6" stroke-miterlimit="10"/>
<path d="M603.917 856.065C599.9 849.251 596.649 842.012 594.225 834.483C591.729 826.949 589.825 819.231 588.529 811.401C585.85 795.621 585.413 779.542 587.23 763.639C588.164 755.641 589.7 747.725 591.826 739.958C592.926 736.061 594.025 732.265 595.424 728.468C596.822 724.671 598.221 721.173 599.72 717.576C602.818 710.382 606.115 703.388 609.812 696.493C611.611 692.996 613.709 689.599 615.807 686.301C617.913 682.894 620.32 679.684 623.001 676.709C622.602 678.707 622.302 680.606 622.002 682.504L621.003 688.3C620.304 692.097 619.704 695.994 618.905 699.79C617.406 707.384 615.707 714.878 613.909 722.372L612.51 727.968L611.011 733.464C610.112 737.061 609.213 740.558 608.313 744.155C606.715 751.349 605.416 758.643 604.416 765.938C602.404 780.672 601.435 795.531 601.519 810.402C601.619 825.49 602.418 840.878 603.917 856.065Z" fill="#E2815A"/>
<path d="M747.702 693.096C744.804 680.906 741.807 668.715 738.709 656.625C735.611 644.535 732.714 632.344 729.516 620.254C723.121 596.073 716.727 571.893 709.233 548.212C701.938 524.531 693.845 500.75 682.954 479.267L696.243 476.469C695.344 488.16 694.245 499.551 692.946 511.041C691.647 522.532 690.248 534.023 688.549 545.414C685.252 568.296 681.455 591.077 676.659 613.659C671.863 636.241 666.367 658.723 659.572 680.806C652.954 702.912 644.602 724.462 634.592 745.254C641.998 723.529 648.203 701.414 653.177 679.007C658.273 656.725 662.37 634.143 666.067 611.661C669.764 589.179 672.862 566.397 675.46 543.715C678.058 521.034 680.556 498.152 682.054 475.57C682.167 474.041 682.774 472.591 683.783 471.437C684.792 470.284 686.15 469.49 687.65 469.175C689.165 468.888 690.731 469.062 692.146 469.675C693.556 470.317 694.714 471.406 695.444 472.772C701.362 484.211 706.438 496.066 710.631 508.244C714.928 520.234 718.725 532.324 722.322 544.415C725.919 556.505 729.017 568.795 732.114 580.986C735.212 593.176 738.109 605.466 740.707 617.756C743.305 630.046 745.903 642.336 748.301 654.727C750.699 667.117 752.798 679.507 754.896 691.897C758.893 716.677 762.69 741.557 765.388 766.537L747.702 693.096Z" fill="#E2815A"/>
<path d="M259.892 65.9971C252.998 82.4839 246.703 99.1206 241.007 115.907C235.312 132.694 230.116 149.58 225.62 166.667C216.601 200.737 209.561 235.3 204.536 270.184C203.237 278.877 202.038 287.67 201.039 296.363C200.04 305.056 198.941 313.849 198.042 322.642C196.243 340.228 194.744 357.714 193.545 375.4C192.346 393.085 191.247 410.671 190.448 428.357L189.848 441.647L189.249 454.836C189.001 463.107 189.301 471.385 190.148 479.616C191.747 496.303 195.444 513.289 199.241 530.675C201.039 539.368 202.938 548.161 204.636 557.154C206.335 566.147 207.834 575.24 208.733 584.532C209.668 593.927 210.002 603.372 209.732 612.81C209.433 621.702 209.033 630.495 208.733 639.388C208.433 648.281 208.233 657.074 207.834 665.967L207.434 679.256L207.134 692.546C206.235 728.017 205.935 763.389 206.835 798.861C207.234 816.547 207.934 834.332 208.233 852.218C208.333 856.714 208.333 861.211 208.333 865.607C208.333 870.004 208.233 874.6 208.134 878.997L207.534 892.386C207.234 896.882 206.935 901.279 206.535 905.775C205.436 887.989 203.437 870.304 201.039 852.718C198.641 835.132 196.143 817.446 194.145 799.66C190.048 764.089 187.95 728.317 186.851 692.546L186.451 679.157L186.251 665.767L186.051 652.378C185.951 647.882 185.951 643.485 185.951 638.989V612.21C185.963 603.857 185.429 595.513 184.353 587.23C180.156 553.657 168.365 519.684 164.369 482.214C163.366 472.757 163.065 463.238 163.469 453.737L164.169 440.348L164.868 426.958C166.067 409.073 167.266 391.187 169.065 373.401C170.863 355.615 172.862 337.73 175.46 319.944C176.059 315.448 176.759 311.051 177.458 306.655C178.158 302.258 178.857 297.762 179.656 293.365C181.155 284.472 182.854 275.679 184.652 266.886C191.847 231.615 201.239 196.742 213.729 162.969C219.924 146.083 226.819 129.496 234.612 113.309C242.002 97.0059 250.446 81.2016 259.892 65.9971Z" fill="#646464"/>
<path d="M228.518 138.539C240.008 137.34 251.599 136.541 263.09 135.741C274.581 134.942 286.171 134.343 297.662 133.743C320.644 132.544 343.725 131.745 366.707 131.045C412.67 129.713 458.667 129.18 504.697 129.446C550.66 129.646 596.623 130.446 642.686 132.144C665.668 133.044 688.649 134.043 711.731 135.442C723.222 136.141 734.713 136.841 746.303 137.74C757.894 138.639 769.385 139.538 780.876 140.837C757.894 144.035 734.912 146.233 711.931 148.231C688.949 150.23 665.868 151.529 642.886 152.628C596.823 154.826 550.76 155.792 504.697 155.526C458.633 155.259 412.57 153.927 366.507 151.529C343.526 150.23 320.444 148.631 297.462 146.633C274.381 144.335 251.399 141.936 228.518 138.539Z" fill="#646464"/>
<path d="M211.331 244.654L216.227 247.452L221.123 250.35L230.915 256.045L250.4 267.536C256.895 271.333 263.289 275.33 269.784 279.227L289.069 291.017C314.648 306.905 339.928 323.491 364.508 341.277C389.089 359.063 412.97 378.247 434.952 400.03C437.75 402.728 440.348 405.526 443.046 408.423L444.844 410.322L446.543 412.02C447.142 412.62 447.742 413.12 448.341 413.719C448.941 414.319 449.54 414.818 450.14 415.318C454.96 419.514 460.3 423.074 466.027 425.909C471.673 428.686 477.701 430.606 483.913 431.605C490.22 432.641 496.632 432.876 502.998 432.304C509.524 431.704 515.96 430.364 522.182 428.307C528.513 426.26 534.636 423.617 540.468 420.414C546.227 417.289 551.622 413.536 556.555 409.223C557.754 408.124 558.853 407.124 559.952 406.025L563.749 402.028C566.447 399.131 569.145 396.433 571.943 393.635C574.74 390.837 577.438 388.239 580.236 385.642C583.034 383.044 585.831 380.346 588.629 377.848C594.325 372.752 600.02 367.756 605.815 362.76C617.306 352.868 629.097 343.375 640.887 333.983C664.668 315.331 688.849 297.279 713.429 279.826C725.72 271.133 738.143 262.573 750.7 254.147C763.256 245.72 775.913 237.527 788.669 229.566C743.905 270.034 698.341 309.203 653.877 349.371C642.686 359.363 631.795 369.454 620.903 379.646C615.508 384.742 610.112 389.838 604.816 395.034C602.118 397.632 599.62 400.23 596.923 402.828C594.225 405.426 591.827 408.124 589.229 410.721C586.631 413.319 584.233 416.017 581.935 418.715L578.138 423.012C576.639 424.61 575.04 426.209 573.441 427.708C567.204 433.451 560.332 438.462 552.958 442.646C545.716 446.849 538.045 450.266 530.076 452.838C522.023 455.462 513.718 457.236 505.296 458.134C496.668 458.981 487.965 458.678 479.417 457.234C470.771 455.718 462.391 452.959 454.536 449.041C446.785 445.163 439.592 440.256 433.154 434.452C432.34 433.772 431.572 433.037 430.855 432.254C430.056 431.555 429.357 430.755 428.557 430.056C427.758 429.357 427.058 428.557 426.359 427.758L424.261 425.56C421.763 422.862 419.365 420.164 416.867 417.566C396.783 396.383 374.401 376.899 351.519 357.814C328.637 338.729 304.856 320.444 281.275 301.859L263.589 287.87L245.903 273.781C240.008 269.085 234.213 264.289 228.417 259.492C222.822 254.546 217.026 249.65 211.331 244.654Z" fill="#646464"/>
<path d="M501.399 448.191C502.498 459.582 503.098 470.973 503.397 482.364C503.697 493.755 503.697 505.146 503.397 516.637C502.761 539.543 500.826 562.395 497.602 585.082C495.903 596.473 494.105 607.864 491.707 619.055C490.508 624.65 489.309 630.346 487.91 635.941C486.511 641.537 485.012 647.132 483.513 652.728L481.115 661.121C480.216 663.919 479.417 666.617 478.517 669.414C477.618 672.212 476.719 674.91 475.72 677.708L474.321 681.804L473.122 685.402C471.586 690.292 470.319 695.262 469.325 700.29C468.325 705.386 467.626 710.581 467.027 715.977C465.927 726.669 465.328 737.66 464.928 748.851C464.529 760.042 464.029 771.633 462.83 783.423L462.33 787.82L461.731 792.216C461.431 794.914 461.031 797.612 460.732 800.31C460.432 803.008 460.232 805.705 459.932 808.403C459.632 811.101 459.533 813.899 459.333 816.597C459.033 822.092 458.733 827.588 458.633 833.083C458.533 838.579 458.333 844.175 458.333 849.77C458.134 872.152 458.733 894.934 457.434 917.916C456.789 929.405 455.488 940.847 453.537 952.188C451.595 963.507 448.686 974.639 444.844 985.462C445.843 974.071 446.343 962.78 446.243 951.589C446.143 945.993 446.043 940.398 445.744 934.802C445.444 929.207 445.044 923.611 444.545 918.016C442.646 895.733 439.648 873.351 437.85 850.47C437.35 844.774 437.05 838.979 436.751 833.183C436.451 827.388 436.351 821.593 436.351 815.797C436.351 812.9 436.351 810.002 436.451 807.004C436.551 804.007 436.651 801.109 436.851 798.211C437.051 795.314 437.25 792.316 437.45 789.418L437.75 785.322L438.05 781.225C438.749 770.434 438.849 759.243 439.149 747.952C439.449 736.661 439.848 724.97 441.147 713.079C442.446 701.189 444.644 689.099 448.841 677.208C449.341 675.709 449.94 674.211 450.44 672.812L451.939 668.915C452.938 666.317 453.837 663.719 454.736 661.121C456.535 655.925 458.333 650.729 460.132 645.434C461.931 640.138 463.529 634.942 465.028 629.546C466.527 624.151 468.126 618.855 469.624 613.559C472.522 602.868 475.32 591.976 477.718 581.085C482.814 559.303 487.011 537.32 490.808 515.038C492.706 503.947 494.505 492.756 496.203 481.565L501.399 448.191Z" fill="#646464"/>
<path d="M751.599 71.1934C753.897 74.9903 756.195 78.7873 758.394 82.5842C760.592 86.3812 762.69 90.2781 764.888 94.175C766.887 98.0719 768.985 102.069 770.984 106.065L773.881 112.061C774.88 114.059 775.78 116.057 776.679 118.156C778.478 122.253 780.376 126.249 781.975 130.346C783.574 134.443 785.372 138.539 786.971 142.736L789.369 149.031C790.168 151.129 790.868 153.228 791.567 155.326L793.765 161.621L795.864 168.016C797.263 172.213 798.562 176.509 799.86 180.806C801.159 185.102 802.359 189.399 803.558 193.695C804.157 195.794 804.757 197.992 805.256 200.19L806.855 206.685C807.954 210.982 808.853 215.378 809.952 219.775C810.852 224.171 811.851 228.468 812.75 232.864C813.649 237.26 814.449 241.657 815.248 246.053C816.847 254.846 818.346 263.639 819.545 272.432C820.144 276.829 820.844 281.225 821.343 285.722C821.843 290.218 822.442 294.515 823.042 299.011C824.041 307.904 824.94 316.697 825.74 325.59C826.139 329.986 826.539 334.483 826.939 338.879L827.938 352.169C828.538 361.061 829.137 369.854 829.737 378.647C830.736 396.333 831.635 413.919 832.534 431.605L833.134 444.794C833.334 449.191 833.534 453.487 833.733 458.384C833.833 463.08 833.733 467.876 833.434 472.572C833.134 477.268 832.734 481.965 832.235 486.561C827.738 523.432 816.147 557.005 812.45 590.278C811.951 594.475 811.651 598.571 811.351 602.668C811.251 604.766 811.151 606.765 811.151 608.863V615.258C811.251 624.151 811.151 632.944 811.151 641.837C811.052 659.523 810.852 677.208 810.252 694.994C809.153 730.366 806.955 765.838 802.858 801.109C800.86 818.695 798.362 836.181 796.064 853.667C793.765 871.153 791.767 888.639 790.668 906.225C790.268 901.829 789.968 897.432 789.669 893.036L789.069 879.746C788.969 875.35 788.869 870.854 788.869 866.457C788.869 862.061 788.869 857.564 788.969 853.168C789.269 835.482 789.968 817.796 790.368 800.21C791.267 765.038 790.968 729.966 790.068 694.894C789.869 686.101 789.669 677.308 789.369 668.515C789.069 659.722 788.869 650.93 788.57 642.137C788.27 633.344 787.87 624.551 787.57 615.758L787.47 612.46L787.37 608.963C787.271 606.565 787.37 604.267 787.37 601.869C787.47 597.173 787.77 592.476 788.17 587.88C791.467 550.81 802.758 516.837 806.555 483.563C807.566 475.377 808.033 467.132 807.954 458.883C807.854 454.986 807.654 450.39 807.454 445.993L806.955 432.804L805.156 380.046C804.856 371.253 804.557 362.46 804.157 353.767L802.858 327.488C802.358 318.795 801.859 310.002 801.259 301.309L800.86 294.814L800.36 288.32C800.06 283.923 799.661 279.627 799.261 275.23C798.861 270.834 798.462 266.537 797.962 262.241C797.462 257.944 797.063 253.547 796.563 249.251C796.064 244.954 795.464 240.558 794.964 236.261L793.166 223.272C792.466 218.975 791.867 214.679 791.167 210.382C790.468 206.085 789.669 201.789 788.869 197.492C788.07 193.196 787.271 188.899 786.371 184.603C785.472 180.306 784.573 176.009 783.574 171.813C779.777 154.826 775.214 137.94 769.884 121.153C768.586 116.957 767.087 112.86 765.788 108.663C764.489 104.467 762.79 100.37 761.391 96.2733C759.992 92.1766 758.294 88.0798 756.695 83.8832L754.197 77.7881L751.599 71.1934Z" fill="#646464"/>
<path d="M501.399 448.191C509.093 492.956 515.587 537.62 523.781 581.685C525.779 592.676 527.977 603.667 530.276 614.558C531.475 619.954 532.674 625.35 533.973 630.745C535.272 636.141 536.571 641.437 538.069 646.733C538.769 649.33 539.568 652.028 540.368 654.626C541.167 657.224 541.866 659.822 542.766 662.42C543.665 665.018 544.464 667.516 545.364 670.014L546.762 673.811C547.262 675.31 547.862 676.709 548.361 678.207C552.122 689.826 554.602 701.821 555.755 713.979C557.054 725.769 557.354 737.46 557.654 748.751C557.953 760.042 558.053 771.133 558.753 781.924L559.053 785.921L559.352 790.018C559.552 792.916 559.852 795.913 559.952 798.811C560.052 801.709 560.252 804.706 560.352 807.604C560.451 810.502 560.451 813.399 560.451 816.397C560.451 822.192 560.252 827.988 560.052 833.783C559.852 839.578 559.352 845.274 558.953 850.969C557.154 873.751 554.156 896.133 552.258 918.315C551.359 929.406 550.659 940.597 550.559 951.789C550.459 962.98 550.959 974.271 551.958 985.561C548.104 974.777 545.196 963.677 543.265 952.388C541.315 941.047 540.014 929.604 539.368 918.115C537.969 895.234 538.569 872.452 538.369 850.07C538.369 844.474 538.269 838.979 538.069 833.383C537.87 827.788 537.77 822.392 537.37 816.896C536.97 811.401 536.571 806.005 535.971 800.609C535.671 797.912 535.372 795.214 534.972 792.516L534.472 788.219L533.973 783.823C532.774 772.132 532.374 760.641 531.874 749.35C531.375 738.06 530.975 727.168 529.876 716.477C529.376 711.181 528.577 705.885 527.678 700.789C526.717 695.763 525.482 690.793 523.981 685.901L522.782 682.304L521.383 678.107C520.483 675.31 519.584 672.412 518.685 669.614C517.786 666.817 517.086 663.919 516.287 661.121C515.487 658.323 514.888 655.426 514.288 652.628C512.989 646.932 511.89 641.237 510.791 635.641C509.692 630.046 508.793 624.251 507.993 618.555C506.295 607.164 504.896 595.873 503.797 584.482C501.599 561.801 500.3 539.019 499.9 516.337C499.7 504.946 499.7 493.655 499.9 482.264C500.1 470.873 500.499 459.482 501.399 448.191Z" fill="#646464"/>
<path d="M293.965 390.837C293.366 394.035 292.666 397.232 291.967 400.33C291.267 403.427 290.668 406.625 290.068 409.722C289.469 412.82 288.869 416.017 288.27 419.115C287.67 422.212 287.171 425.31 286.671 428.407C284.573 440.797 282.974 453.088 281.875 465.478C279.579 489.926 279.278 514.521 280.976 539.019C282.733 563.489 286.442 587.781 292.067 611.661C294.864 623.751 298.262 635.642 301.959 647.632C302.958 650.63 303.957 653.627 304.856 656.625C305.756 659.622 306.955 662.62 307.954 665.618C308.953 668.615 310.152 671.613 311.151 674.71C312.151 677.808 313.45 680.706 314.449 683.903C312.151 681.605 309.952 679.207 307.754 676.709C305.556 674.211 303.557 671.713 301.559 669.115C299.561 666.517 297.662 663.819 295.764 661.221C293.865 658.623 292.167 655.725 290.368 653.028C283.382 641.853 277.396 630.084 272.482 617.856C252.753 568.254 248.946 513.743 261.591 461.881C264.743 449.119 269.023 436.663 274.381 424.66C275.78 421.663 277.179 418.765 278.577 415.767C279.976 412.77 281.575 409.972 283.174 407.174L288.27 398.781C290.168 396.233 291.967 393.535 293.965 390.837Z" fill="#646464"/>
<path d="M713.529 390.837C715.428 393.435 717.326 396.133 719.125 398.831C720.923 401.529 722.522 404.327 724.221 407.224C725.919 410.122 727.318 412.92 728.817 415.817C730.316 418.715 731.615 421.713 733.014 424.71C738.286 436.764 742.564 449.229 745.804 461.98C752.127 487.751 754.385 514.35 752.498 540.817C750.736 567.296 744.801 593.33 734.912 617.956C729.977 630.174 723.993 641.942 717.027 653.128C715.228 655.825 713.429 658.623 711.631 661.321C709.832 664.019 707.834 666.617 705.836 669.215C703.837 671.813 701.739 674.311 699.64 676.809C697.542 679.307 695.244 681.605 692.946 684.003C693.945 680.905 695.144 677.908 696.243 674.81C697.342 671.713 698.341 668.715 699.441 665.717C700.54 662.72 701.539 659.722 702.538 656.725C703.537 653.727 704.537 650.729 705.436 647.732C709.233 635.741 712.63 623.751 715.328 611.761C726.693 563.935 730.136 514.568 725.52 465.628C724.421 453.337 722.722 440.947 720.724 428.557C720.224 425.46 719.624 422.362 719.125 419.265C718.625 416.167 717.926 413.07 717.326 409.872C716.727 406.675 716.027 403.677 715.428 400.48C714.828 397.282 714.129 394.135 713.529 390.837Z" fill="#646464"/>
<path d="M486.611 65.9974C488.11 66.1973 489.509 66.2972 490.608 66.3971C491.641 66.4188 492.675 66.3855 493.705 66.2972C495.16 66.1175 496.597 65.8166 498.002 65.3979C500.2 64.6985 501.099 63.999 501.599 63.999C502.099 63.999 502.898 64.7984 504.996 65.7976C506.334 66.4296 507.743 66.8993 509.193 67.1965C510.212 67.4354 511.248 67.6023 512.29 67.6961C513.618 67.8347 514.954 67.8682 516.287 67.796C516.66 68.4415 516.994 69.1089 517.286 69.7944C517.5 70.4479 517.667 71.1157 517.786 71.7928C517.886 72.4922 517.886 73.0918 517.986 73.7912C518.086 74.4906 517.886 75.0902 517.886 75.7896C517.512 78.379 516.402 80.8066 514.689 82.784C512.88 84.8104 510.636 86.4009 508.124 87.4359C505.613 88.471 502.9 88.9238 500.188 88.7603C497.477 88.5969 494.838 87.8214 492.469 86.4922C490.1 85.1629 488.063 83.3144 486.511 81.0853C485.065 78.8794 484.237 76.3261 484.113 73.6913C484.096 73.0236 484.13 72.3556 484.213 71.6929C484.298 71.018 484.432 70.3501 484.613 69.6945C484.818 69.0377 485.086 68.402 485.412 67.796C485.705 67.1316 486.11 66.5231 486.611 65.9974Z" fill="#646464"/>
</svg>
