<svg width="1159" height="1159" viewBox="0 0 1159 1159" fill="none" xmlns="http://www.w3.org/2000/svg">
<path d="M580 1079C856.179 1079 1080 855.179 1080 579C1080 302.821 856.179 79 580 79C303.821 79 80 302.821 80 579C80 855.179 303.821 1079 580 1079Z" fill="#EEEEEF"/>
<path d="M421.4 406.5C421.4 406.5 431.3 450.7 457.1 453C483 455.3 604.2 410.5 604.2 410.5L616.5 400.3L621.7 436.6L639.3 497.8L648.3 521.7L572.5 514.2H502.1L429.5 526L402.4 540.3L397.4 518.9V475.6L414.2 431.7L421.4 406.5Z" fill="#F2956A"/>
<path d="M560.9 285.2C559.5 288.9 558.9 292.8 559.1 296.6C559.2 300.4 560.1 304 561.3 307.5C563.9 314.4 568.2 320.4 573.6 324.9C579.1 329.5 585.5 333 592.3 335.7C595.7 337.1 599.2 338.3 602.8 339.4C606.4 340.5 610.1 341.5 613.8 342.6L625.3 345.8C629.2 346.9 633.1 348.2 637 349.6C644.9 352.4 652.9 356.2 660.2 361.5C667.6 366.7 673.7 373.3 679 380.1C684.2 387 688.5 394.4 692.3 401.8C696 409.2 699.2 416.7 702.1 424.2L704.3 429.8L706.4 435.4C707.8 439.2 709.2 442.9 710.4 446.7C713 454.3 715.4 461.9 717.6 469.6C718.7 473.4 719.7 477.3 720.8 481.2L723.6 492.9C727.2 508.5 729.9 524.2 731.8 540.1C732.7 548 733.4 556 733.9 563.9C734.2 567.9 734.2 571.9 734.4 575.8C734.4 577.8 734.4 579.8 734.4 581.8C734.4 583.8 734.4 585.8 734.4 587.8L728.2 564.9C727.1 561.1 726.2 557.3 725 553.5L723.4 547.8C722.9 545.9 722.3 544 721.8 542.1C717.4 527 712.8 512.1 707.9 497.4C702.9 482.6 697.6 468 691.9 453.6C691.2 451.8 690.5 450 689.8 448.2C689.1 446.4 688.3 444.6 687.6 442.8L685.4 437.4L683.1 432.1C680.1 424.9 677.1 417.9 673.7 411.3C670.4 404.6 666.7 398.3 662.6 392.5C658.5 386.8 653.8 381.6 648.5 377.4C643.3 373.1 637 369.8 630.3 366.8C626.9 365.3 623.4 363.9 619.8 362.5L608.8 358.3C605.1 356.9 601.3 355.3 597.5 353.7C593.7 352 590 350.2 586.3 348.1C579 344 571.9 338.7 566.3 332.1C560.6 325.4 556.9 317.3 555.7 308.8C555.1 304.6 555.1 300.3 556 296.2C556.9 292.3 558.5 288.4 560.9 285.2Z" fill="#646464"/>
<path d="M486.4 330.7C488.4 333.1 489.8 336.2 490.3 339.6C490.8 342.9 490.4 346.4 489.5 349.7C488.6 353 487 356.2 485 359.1C483 362 480.5 364.6 477.6 366.8C474.6 369 471.4 370.6 468.1 371.9C464.8 373.2 461.4 374.1 458 374.7C454.6 375.3 451.2 375.7 447.9 375.8C444.6 376 441.3 376 438.1 376C431.7 375.9 425.7 375.6 420 375.7C414.3 375.9 408.9 376.4 404.3 377.8C402 378.5 399.8 379.4 397.9 380.5C396 381.6 394.1 382.9 392.4 384.5C390.7 386.1 389.1 387.9 387.6 389.9C386.1 391.9 384.7 394.1 383.4 396.5C380.8 401.2 378.5 406.5 376.2 412C375.1 414.7 374 417.6 372.8 420.5C371.7 423.3 370.6 426.2 369.5 429L362.9 446.1L356.4 463.3L343.5 497.9L337 515.3C334.8 521.1 332.6 527 330.2 532.8C330.3 526.5 330.7 520.2 331.3 514C331.9 507.8 332.6 501.5 333.5 495.3C335.3 482.9 337.7 470.6 340.6 458.4C342 452.3 343.6 446.2 345.3 440.2C346.9 434.2 348.8 428.2 350.7 422.2C352.6 416.2 354.7 410.4 356.8 404.4C357.9 401.4 359.1 398.3 360.5 395.3C361.9 392.2 363.4 389.2 365.1 386.1C366.8 383.1 368.8 380.1 371 377.1C373.3 374.2 375.8 371.4 378.8 368.9C381.7 366.4 385.1 364.2 388.6 362.4C392.1 360.6 395.8 359.3 399.5 358.5C406.9 356.9 414 356.8 420.6 357.2C423.9 357.4 427.2 357.8 430.3 358.2L439.5 359.5C442.5 359.9 445.4 360.3 448.3 360.6C451.2 360.9 454 361 456.7 361C459.5 361 462.2 360.7 464.8 360.3C467.4 359.8 470.1 359.1 472.3 358.1C474.7 357.1 476.9 355.6 478.9 353.8C480.9 352 482.7 349.9 484.2 347.5C485.6 345.1 486.8 342.5 487.2 339.6C487.6 336.8 487.4 333.7 486.4 330.7Z" fill="#646464"/>
<path d="M713.4 542.9C697.5 537.9 681.5 534.7 665.3 532.6C649.2 530.4 632.9 529.3 616.7 528.8C584.2 527.7 551.6 528.9 519.1 531.2L494.6 533.1C486.4 533.8 478.3 534.4 470.3 535.2C462.3 536 454.3 536.9 446.3 538.2C438.4 539.3 430.5 540.9 422.8 542.6C415.1 544.4 407.4 546.5 399.9 549.2C396.1 550.5 392.4 551.9 388.8 553.5C385.1 555.1 381.5 556.7 377.9 558.5C374.3 560.3 370.8 562.2 367.4 564.3C363.9 566.4 360.6 568.6 357.3 570.9C350.7 575.6 344.5 580.9 338.6 586.9C342.5 579.5 347.4 572.6 353.2 566.3C356.1 563.1 359.1 560.2 362.3 557.3C365.5 554.5 368.8 551.8 372.3 549.3C386.2 539.2 401.8 531.6 418.1 526.2C426.2 523.4 434.5 521.3 442.8 519.4C451.1 517.6 459.5 516.1 467.8 515C476.1 513.9 484.5 512.9 492.8 512.2L505.2 511.1C509.3 510.8 513.5 510.5 517.6 510.2C551 508.1 584.6 508.5 617.9 512.7C634.6 514.9 651.1 518.1 667.3 522.8C675.4 525.2 683.3 527.9 691.1 531.2C698.9 534.6 706.4 538.4 713.4 542.9Z" fill="#646464"/>
<path d="M734.4 587.8C726.7 590.6 718.8 592.9 710.9 594.9L707.9 595.7L704.9 596.4C702.9 596.9 700.9 597.3 698.9 597.7C694.9 598.5 690.9 599.3 686.8 600.1C670.7 603 654.4 604.9 638 606C605.3 608.2 572.3 607.4 539.6 602.8C531.4 601.6 523.2 600.3 515.1 598.5L509 597.1L502.9 595.6L496.9 593.9L491 592.1C475.3 587.3 460.5 582 445.4 578.9C444.5 578.7 443.5 578.5 442.6 578.3C441.7 578.1 440.6 577.9 439.9 577.9C439.1 577.8 438.2 577.8 437.4 577.7C436.5 577.7 435.6 577.6 434.7 577.7C431 577.8 427.1 578 423.3 578.5C415.5 579.4 407.7 580.8 399.9 582.5C396 583.3 392.1 584.3 388.2 585.3C384.3 586.3 380.5 587.4 376.6 588.6C372.8 589.8 369 591.1 365.2 592.5C361.4 593.9 357.8 595.6 354.3 597.7C357.2 594.9 360.6 592.5 364.1 590.3C367.6 588.1 371.2 586.2 374.9 584.3C378.6 582.5 382.3 580.7 386.1 579.1C389.9 577.5 393.7 576 397.6 574.5C405.3 571.7 413.2 569.2 421.4 567.2C425.5 566.2 429.6 565.4 434 564.9C435.1 564.8 436.2 564.7 437.3 564.6C438.5 564.6 439.6 564.5 440.8 564.5L444.1 564.6C445.2 564.6 446.2 564.7 447.3 564.7C455.8 565.2 464.2 566.5 472.3 568.1C476.4 568.9 480.4 569.8 484.4 570.7C488.4 571.6 492.3 572.5 496.2 573.4L502 574.7L507.7 576L513.5 577.2L519.3 578.3C527 579.7 534.8 580.9 542.7 582C550.5 583 558.4 584 566.3 584.7L578.2 585.8C582.2 586.1 586.1 586.5 590.1 586.7C598 587.3 606 587.8 614 588.1C622 588.5 630 588.8 638 589C654 589.4 670 589.5 686.1 589.3C690.1 589.2 694.1 589.2 698.2 589.1C702.2 589 706.3 588.9 710.3 588.7C714.3 588.6 718.4 588.4 722.4 588.2L728.5 587.9C730.3 588 732.3 587.9 734.4 587.8Z" fill="#646464"/>
<path d="M616.6 401.5C618.2 404 619.4 406.6 620.6 409.3C621.8 411.9 622.9 414.5 623.9 417.2C626 422.4 627.7 427.7 629.3 433C632.5 443.5 635 454 637.3 464.4C639.6 474.8 641.6 485.2 643.7 495.4C644.8 500.5 645.9 505.6 647.3 510.7C648 513.2 648.8 515.8 649.7 518.3C649.9 518.9 650.2 519.6 650.4 520.2L651.2 522.1L651.6 523.1L652.1 524C652.4 524.6 652.7 525.3 653.1 526C652.4 525.8 651.7 525.5 651 525.2C650.6 525.1 650.3 524.9 650 524.8L649 524.3L647 523.2C646.4 522.8 645.8 522.3 645.1 521.9C643.8 521 642.8 520 641.6 519C640.5 518 639.5 516.9 638.4 515.8C634.4 511.3 631.1 506.3 628.3 501.2C625.5 496 623.3 490.7 621.4 485.3C619.5 479.9 618 474.4 616.8 468.9C614.4 457.9 613.2 446.7 613 435.5C612.9 429.9 613.2 424.3 613.7 418.7C614 415.9 614.3 413.1 614.8 410.2C615.3 407.2 615.9 404.4 616.6 401.5Z" fill="#646464"/>
<path d="M418.6 414.4C419.4 420.2 419.6 425.8 419.7 431.3C419.8 436.8 419.7 442.3 419.4 447.7C418.8 458.6 417.6 469.3 415.8 479.9C414 490.5 411.7 501 408.7 511.4C407.2 516.6 405.5 521.8 403.7 527C401.8 532.2 399.9 537.3 397.6 542.7C396.5 540 395.6 537.2 395 534.4C394.7 533 394.4 531.6 394.1 530.2C393.9 528.8 393.7 527.4 393.5 526C393.1 523.2 392.9 520.4 392.7 517.6C392.5 514.8 392.4 512 392.4 509.2C392.3 498.1 393.4 487.1 395.2 476.3C397.1 465.5 399.7 454.8 403.4 444.4C404.3 441.8 405.3 439.2 406.4 436.6C407.5 434 408.6 431.5 409.8 428.9C410.4 427.6 411 426.4 411.7 425.1C412.4 423.9 413.1 422.6 413.8 421.4C415.1 419.1 416.8 416.7 418.6 414.4Z" fill="#646464"/>
<path d="M415.8 392.1C418.3 397.6 420.7 403 423.3 408.3C425.9 413.6 428.5 418.7 431.6 423.4C434.6 428.1 437.9 432.5 441.7 436.1L443.1 437.4C443.6 437.9 444.1 438.2 444.6 438.6L446.1 439.8C446.6 440.2 447.1 440.5 447.6 440.8L449.1 441.8C449.6 442.2 450.2 442.4 450.7 442.7C451.8 443.2 452.8 443.9 453.9 444.2C455 444.6 456.1 445.1 457.2 445.4L458.9 445.9C459.5 446 460.1 446.1 460.6 446.2C461.2 446.3 461.7 446.4 462.3 446.5L464.1 446.7C465.3 446.9 466.5 446.9 467.7 446.9C472.5 447 477.5 446.3 482.6 445C487.7 443.7 492.9 442.1 498 440C503.2 438 508.4 435.8 513.9 433.4C535.6 424.2 557.7 415.6 580 407.8C591.2 403.9 602.4 400.2 613.8 396.8C619.5 395.1 625.2 393.5 631 391.9C636.8 390.4 642.6 388.9 648.4 387.7C643.4 391.1 638.3 394.2 633.2 397.3C628.1 400.4 622.9 403.3 617.8 406.3C607.4 412.1 597 417.6 586.4 423C565.3 433.6 543.8 443.5 522 452.7C511.1 457.3 499.5 462 486.5 464.4C484.9 464.7 483.2 464.9 481.6 465.1C479.9 465.3 478.2 465.4 476.6 465.6C474.9 465.6 473.2 465.7 471.5 465.7L468.9 465.6C468 465.6 467.2 465.5 466.3 465.4C464.6 465.2 462.8 465 461.1 464.6L458.5 464C457.6 463.8 456.8 463.5 455.9 463.2C455.1 462.9 454.2 462.7 453.4 462.3L450.9 461.2C449.2 460.5 447.7 459.6 446.2 458.8C445.4 458.3 444.6 458 443.9 457.4L441.8 455.8C441.1 455.3 440.4 454.8 439.7 454.2L437.8 452.5C437.2 451.9 436.5 451.4 435.9 450.7L434.2 448.8C433 447.6 432 446.2 431.1 444.8C427.2 439.4 424.4 433.5 422.2 427.7C420.1 421.8 418.7 415.8 417.6 409.9C416.7 404.1 416.1 398.1 415.8 392.1Z" fill="#646464"/>
<path d="M543.4 318C544.5 319.8 545.4 321.7 546.2 323.6C546.9 325.5 547.6 327.4 548.1 329.4C548.6 331.3 549 333.3 549.3 335.3C549.6 337.3 549.8 339.2 549.9 341.2C550.3 349.1 549.3 357 547 364.6C544.7 372.1 541.3 379.3 536.6 385.7C535.4 387.3 534.1 388.8 532.8 390.3C531.4 391.8 530 393.2 528.5 394.5C527 395.8 525.4 397.1 523.7 398.3C522 399.5 520.2 400.5 518.2 401.4C518.2 399.2 518.4 397.2 518.7 395.2C518.9 393.2 519.2 391.3 519.5 389.4C519.8 387.5 520.1 385.7 520.5 383.9C520.8 382.1 521.2 380.3 521.6 378.6C523.1 371.6 524.9 365 526.9 358.4C528.9 351.8 531 345.3 533.6 338.7C534.2 337 534.9 335.4 535.6 333.7C536.3 332 537 330.3 537.8 328.6C538.6 326.9 539.4 325.1 540.3 323.3C541.2 321.6 542.2 319.8 543.4 318Z" fill="#646464"/>
<path d="M380.8 584.5C379.5 589.7 378.1 594.7 377.1 599.8C376.5 602.3 376 604.9 375.5 607.4C375 609.9 374.5 612.5 374 615C372.1 625.1 370.5 635.3 369.1 645.4C366.2 665.7 363.9 685.9 362.1 706.2C360.4 726.5 359.2 746.8 359.2 767.1C359.2 777.2 359.5 787.4 360.4 797.5C361.3 807.6 362.9 817.7 366 827.9C365.1 826.9 364.3 825.9 363.4 824.8C363 824.3 362.6 823.7 362.1 823.2L361 821.5L358.8 818.1C358.1 816.9 357.5 815.7 356.8 814.6C354.2 809.8 352.1 804.8 350.3 799.7C346.7 789.5 344.3 778.9 342.7 768.3C341.1 757.7 340.3 747 340.1 736.3C339.9 725.6 340.3 715 341.2 704.4C342.1 693.8 343.6 683.2 345.5 672.8C347.5 662.3 349.9 652 353 641.8C356.1 631.6 359.7 621.6 364.2 611.8C366.5 607 368.9 602.2 371.6 597.6C374.4 593 377.4 588.6 380.8 584.5Z" fill="#646464"/>
<path d="M350.3 759.1C350.4 754.3 350.7 749.5 351.1 744.7C351.3 742.3 351.5 739.9 351.8 737.5C352.1 735.1 352.5 732.8 352.8 730.4L354 723.3C354.2 722.1 354.4 720.9 354.6 719.8C354.8 718.6 355.1 717.5 355.4 716.3C355.9 714 356.5 711.6 357.1 709.3C357.7 707 358.2 704.6 358.8 702.3C364.1 683.8 371.7 665.6 382.5 648.9C393.2 632.2 407.4 617.8 423.1 606.3C430.9 600.5 439.2 595.5 447.6 591C451.8 588.8 456.1 586.7 460.5 584.6C464.9 582.6 469.3 580.7 473.8 579.1C470.6 582.7 467.2 586.1 463.8 589.4C462.1 591.1 460.4 592.7 458.8 594.4C457.1 596.1 455.4 597.6 453.7 599.3L448.7 604.2C447.9 605 447 605.8 446.2 606.6C445.4 607.4 444.6 608.2 443.7 609.1C442.1 610.8 440.4 612.3 438.8 613.9C437.1 615.5 435.6 617.2 434 618.8C421.3 631.9 409.8 645.3 400.2 660.3C390.5 675.2 382.3 691.3 374.4 707.9C373.5 710 372.5 712.1 371.5 714.2C370.5 716.3 369.6 718.4 368.6 720.5C368.1 721.6 367.6 722.6 367.1 723.7C366.6 724.8 366.2 725.8 365.7 726.9L362.8 733.3C361.8 735.4 360.8 737.6 359.8 739.7C358.8 741.8 357.9 744 356.9 746.2C354.7 750.5 352.6 754.8 350.3 759.1Z" fill="#646464"/>
<path d="M700.3 597.8C704.5 605.1 708.1 612.7 711.6 620.4L722 643.2C725.5 650.7 729.1 658.1 733.2 664.9C733.7 665.8 734.2 666.6 734.8 667.4C735.4 668.2 735.8 669 736.4 669.8L740 674.8C742.4 678.2 744.8 681.5 747.2 684.8C757 698 767.3 710.8 778 723.3C780.7 726.4 783.4 729.5 786.1 732.6L790.2 737.2L794.3 741.8C797 744.9 799.9 747.8 802.6 750.9C805.4 753.9 808.2 756.9 811.1 759.8C833.9 783.5 857.9 806 883.1 827.3C895.7 838 908.6 848.2 921.8 858.3C935 868.4 948.6 878 962.4 887.6C954.4 884.8 946.5 881.8 938.9 878.3L936 877L933.1 875.6L927.4 872.9C923.6 871 919.9 869.1 916.1 867.1C901.2 859.1 886.8 850.2 872.9 840.5C859 830.8 845.6 820.3 832.7 809.3C826.3 803.7 820 798.1 813.9 792.2C810.8 789.3 807.8 786.3 804.8 783.3C801.8 780.3 798.8 777.3 795.9 774.2C772.5 749.6 751.4 722.7 734.1 693.4L730.9 687.9C729.8 686.1 728.8 684.2 727.8 682.3L724.8 676.7C724.3 675.8 723.8 674.7 723.3 673.7C722.8 672.7 722.3 671.7 721.9 670.7L720.6 667.7L719.4 664.7C718.6 662.7 717.9 660.7 717.1 658.6C716.4 656.6 715.7 654.6 715 652.5C714.4 650.5 713.7 648.4 713.1 646.4C711.9 642.4 710.7 638.3 709.6 634.2C708.5 630.1 707.5 626.1 706.4 622C704.5 614 702.6 605.8 700.3 597.8Z" fill="#646464"/>
<path d="M779.6 845.4C777.4 849.7 776.6 854.1 777 858.3C777 859.3 777.3 860.4 777.5 861.4C777.6 861.9 777.8 862.4 777.9 862.9C778 863.4 778.2 863.9 778.4 864.4C779 866.3 779.9 868.2 780.9 869.9C782 871.6 783 873.2 784.4 874.5L784.9 875L785.4 875.5L786.4 876.4L787.5 877.2L788 877.6L788.6 878L789.8 878.8C790.2 879 790.6 879.3 791 879.5C791.4 879.7 791.8 880 792.2 880.2C792.6 880.4 793 880.6 793.5 880.8C795.2 881.6 797 882.2 798.9 882.7C806.3 884.7 814.5 884.8 822.6 883.8C830.9 882.8 839.6 880.6 848.9 878.7C853.5 877.8 858.4 876.9 863.4 876.3C865.9 876 868.4 875.8 870.9 875.7L874.6 875.5H878.3C888.3 875.5 898.2 876.7 907.8 879.1C917.4 881.5 926.6 885 935.2 889.6C936.3 890.2 937.3 890.7 938.4 891.4C939.4 892 940.5 892.6 941.5 893.3C943.6 894.5 945.6 895.9 947.5 897.3C949.5 898.7 951.3 900.3 953.2 901.7C955 903.3 956.8 904.9 958.5 906.6C956.2 906 953.9 905.2 951.7 904.5L948.3 903.5C947.2 903.2 946.1 902.8 945 902.5C942.7 901.9 940.6 901.2 938.3 900.8C937.2 900.5 936.1 900.3 935 900C933.9 899.7 932.8 899.5 931.7 899.3C922.8 897.4 914 896.1 905.2 895.5C896.4 894.9 887.7 894.9 879 895.5L875.8 895.7L872.6 896.1C871.5 896.2 870.5 896.3 869.4 896.5L866.2 897C864.1 897.3 861.9 897.7 859.8 898.1C857.6 898.5 855.4 898.9 853.2 899.4C844.3 901.2 834.7 903.2 824.4 903.7C814 904.2 803.2 902.8 793.1 898.1C788.1 895.7 783.4 892.5 779.6 888.4L778.9 887.6L778.2 886.8L776.8 885.1L775.6 883.3C775.4 883 775.2 882.7 775 882.4L774.5 881.5L773.5 879.6L772.7 877.7L772.3 876.7L772 875.7C771.8 875 771.6 874.4 771.4 873.7C770.1 868.4 769.9 862.9 771.3 857.8C771.9 855.3 773.1 852.9 774.5 850.7L775.6 849.2C776 848.7 776.4 848.3 776.9 847.8C777.6 846.8 778.7 846.1 779.6 845.4Z" fill="#646464"/>
<path d="M572.7 635.4C575.3 637.8 577.7 640.3 580 642.8C582.4 645.2 584.8 647.6 587 650.1C589.4 652.5 591.7 654.8 593.9 657.2C595.1 658.3 596.2 659.5 597.4 660.6C598.5 661.8 599.7 662.9 600.8 664.1C610 673.2 619.3 681.9 628.9 690.2C638.5 698.5 648.5 706.4 658.9 714.2C660.2 715.1 661.5 716.1 662.8 717.1C664.1 718.1 665.4 719 666.7 720.1C669.4 722 672 723.9 674.7 725.9C677.4 727.8 680.2 729.7 682.9 731.8C685.7 733.7 688.5 735.7 691.3 738C687.8 738 684.3 737.7 680.8 737.3C677.4 736.8 673.9 736.1 670.5 735.4C667.1 734.5 663.8 733.5 660.4 732.5C658.8 731.9 657.1 731.3 655.5 730.7C653.9 730.1 652.2 729.4 650.6 728.8C637.8 723.2 625.8 715.5 615.2 706.3C604.6 697.1 595.3 686.4 587.9 674.5C587 673 586.1 671.5 585.3 669.9C584.4 668.4 583.6 666.9 582.8 665.3C581.3 662.1 579.8 659 578.4 655.8C577.2 652.5 576 649.2 575 645.9C574 642.2 573.2 638.8 572.7 635.4Z" fill="#646464"/>
<path d="M766.6 811.3C763.6 823 758.2 834.2 751.5 844.4C748.2 849.5 744.5 854.5 740.6 859.2C736.7 863.9 732.5 868.5 728.1 872.8C723.7 877.1 719.1 881.3 714.3 885.1C709.5 889 704.5 892.7 699.3 896.1C694.1 899.5 688.6 902.7 682.9 905.5C680.1 906.9 677.3 908.1 674.4 909.4L670.1 911.2L667.9 912.1L665.7 912.9L661.3 914.6C659.8 915.1 658.4 915.6 656.9 916.1C654 917.1 651 918 648 918.9C645 919.8 642 920.6 639.1 921.4C636.1 922.1 633.1 922.9 630.1 923.6C627.1 924.3 624.1 925 621.1 925.5C618.1 926.1 615.1 926.7 612 927.2C609 927.8 605.9 928.2 602.9 928.7C599.9 929.1 596.8 929.6 593.8 930C581.7 931.6 569.6 932.9 557.5 933.9C551.5 934.4 545.4 935 539.4 935.3C533.4 935.7 527.3 936.1 521.3 936.4C472.9 939 424.4 938.3 376.2 934.3C352.1 932.3 328.1 929.4 304.2 925.7L295.3 924.3L286.4 922.7C280.5 921.6 274.5 920.6 268.6 919.3C262.7 918.1 256.8 916.9 250.9 915.6C245 914.2 239.1 912.9 233.3 911.4C239.3 911.7 245.3 912.1 251.4 912.4L269.4 913.4C275.4 913.8 281.4 914.1 287.4 914.4L296.4 914.9L305.4 915.3C329.4 916.4 353.3 917.3 377.2 917.7C401.1 918.1 425 918.2 448.9 917.8C460.8 917.7 472.8 917.3 484.7 917L502.6 916.4C508.6 916.1 514.5 915.8 520.5 915.6C532.4 915 544.3 914.3 556.2 913.5L565.1 912.9L574 912.2C579.9 911.7 585.8 911.2 591.7 910.6C615.2 908.2 638.4 904.7 660.6 897.9L662.7 897.3L664.8 896.6L668.9 895.2C670.3 894.7 671.6 894.2 673 893.7C674.3 893.2 675.8 892.7 677 892.2C682.3 890.1 687.5 887.6 692.6 884.9C697.7 882.1 702.7 879.1 707.5 875.9C712.4 872.7 717.1 869.2 721.7 865.5C730.9 858.2 739.5 850 747.2 841.1C754.8 832.1 761.6 822.2 766.6 811.3Z" fill="#646464"/>
<path d="M676.5 800.1C671.5 801.6 666.5 802.9 661.6 804.3L646.7 808.6L631.9 813C627 814.6 622.1 816 617.2 817.6C597.6 823.8 578.2 830.2 558.7 836.8L529.5 846.7C519.8 850 510 853.2 500.2 856.4C490.4 859.6 480.5 862.7 470.7 865.8C465.8 867.3 460.8 868.8 455.8 870.2L453.9 870.7L453 871C452.7 871.1 452.4 871.2 452 871.3L447.6 872.4C444.6 873 441.5 873.5 438.2 873.6C436.6 873.8 434.9 873.6 433.3 873.6C431.6 873.6 430 873.3 428.3 873C426.6 872.8 425 872.3 423.4 871.9C422.6 871.7 421.8 871.4 421.1 871.2L418.8 870.4C412.8 868 407.9 864.8 403.5 862C399.1 859.1 395.1 856.3 391 853.9L387.9 852.2C386.9 851.7 385.9 851.1 384.9 850.6C382.9 849.6 380.8 848.7 378.7 847.9C370.4 844.7 361.8 843.5 353.9 845.2C351.9 845.6 350.1 846.2 348.3 846.9C346.6 847.7 344.8 848.6 343.2 849.8C339.8 852.1 336.6 855.4 333.2 859.1C329.8 862.8 326 866.9 321.5 870.6C320.9 871.1 320.3 871.5 319.8 872C319.2 872.4 318.7 872.9 318 873.3C316.7 874.2 315.4 875.1 314 875.8L311.9 876.9C311.2 877.2 310.5 877.5 309.8 877.8C308.4 878.4 306.9 878.8 305.5 879.3C304.1 879.7 302.6 880 301.2 880.4C299.8 880.6 298.3 880.9 296.9 881.1C295.5 881.2 294.1 881.4 292.7 881.5L290.6 881.6H288.5C283 881.6 277.7 881.1 272.5 880.6L264.8 879.7C263.5 879.5 262.3 879.4 261.1 879.3C259.9 879.2 258.6 879.1 257.4 879C252.5 878.7 247.5 878.9 242.7 879.7C237.9 880.5 233.1 881.8 228.8 884.1L227.2 885.1L226.4 885.6L225.7 886.2L224.2 887.3C223.7 887.7 223.3 888.2 222.8 888.6C221 890.3 219.5 892.4 218.2 894.7C219.6 889.7 222.8 885.1 226.9 881.6C231.1 878.2 236.1 875.8 241.3 874.1C246.5 872.4 251.8 871.4 257.2 870.9C258.5 870.8 259.9 870.6 261.2 870.6C262.6 870.5 263.9 870.5 265.2 870.5L272.9 870.3C278 870.2 283 870 287.8 869.5C292.6 868.9 297.1 868.1 301.1 866.4C302.1 866 303.1 865.6 304 865L305.4 864.3L306.7 863.5C307.6 863 308.3 862.3 309.1 861.7C309.5 861.4 309.9 861 310.3 860.6L311.5 859.5C314.7 856.3 317.6 852.6 320.9 848.5C324.2 844.4 327.8 840 332.7 836C335.1 834 337.8 832.3 340.7 830.8C343.6 829.4 346.6 828.2 349.6 827.4C355.6 825.7 362 825.2 368 825.7C371 825.9 374 826.4 377 827C379.9 827.7 382.8 828.4 385.5 829.4C396.7 833.1 406.4 839.5 414.8 844.9C419 847.6 422.9 850 426.5 851.3C430.1 852.7 433.5 853.2 437.3 853C439.2 853 441.2 852.6 443.2 852.3L446.3 851.6C446.5 851.6 446.9 851.5 447.2 851.4L448.1 851.1L449.9 850.6L464.7 846.4L494.3 837.9C504.2 835.1 514.1 832.2 524 829.5C533.9 826.7 543.9 824.1 553.9 821.5C574 816.4 594.2 811.8 614.6 808.1C619.7 807.2 624.8 806.4 629.9 805.5C635 804.7 640.2 804 645.3 803.4C650.4 802.8 655.6 802.3 660.8 801.7C666.2 800.8 671.4 800.4 676.5 800.1Z" fill="#646464"/>
<path d="M595.2 739.4C599.3 738 603.5 736.9 607.7 735.9C609.8 735.4 611.9 735 614 734.5C616.1 734.1 618.2 733.7 620.3 733.3C628.7 731.8 637.3 730.8 645.9 730.3C663.2 729.4 681 730.8 698.3 736C707 738.6 715.4 742.2 723.2 746.8C731 751.4 738.3 757 744.7 763.5C751 770 756.5 777.4 760.4 785.6C761.3 787.7 762.2 789.7 763 791.8C763.7 793.9 764.4 796.1 765 798.2C765.5 800.4 765.9 802.6 766.3 804.7C766.5 806.9 766.7 809.1 766.7 811.2C758 796.2 746.8 784.9 734 776C721.2 767.1 707.1 760.5 692.3 756.1C677.3 751.6 661.6 748.9 645.3 746.8C637.2 745.7 628.9 744.7 620.5 743.6C616.3 743 612.1 742.5 607.9 741.8C603.7 741.1 599.5 740.4 595.2 739.4Z" fill="#646464"/>
<path d="M592.9 678.1C593 682.7 592.8 687.3 592.5 691.9C591.9 696.4 591.2 701 590.5 705.6C589.4 710.1 588.3 714.6 587.1 719C586.4 721.2 585.6 723.4 584.8 725.6C584 727.8 583.3 730 582.4 732.2C575.5 749.4 565.5 765.5 553.3 779.7C541.1 793.9 526.7 806.1 510.7 815.5C508.7 816.6 506.6 817.7 504.6 818.8C502.5 819.9 500.5 821 498.4 822C494.1 823.9 489.9 825.6 485.6 827.3C481.2 828.7 476.8 830.1 472.4 831.3C467.9 832.3 463.4 833.1 458.8 833.7C462.5 830.9 466.2 828.4 470 825.9C473.6 823.2 477.2 820.6 480.8 818.1C484.3 815.4 487.7 812.7 491.2 810.1C492.8 808.7 494.5 807.3 496.2 805.9C497.9 804.5 499.5 803.1 501.2 801.8C514.3 790.6 526.4 778.6 537.5 765.8C548.6 752.9 558.7 739.2 567.8 724.6C568.9 722.7 570 720.9 571.1 719C572.2 717.1 573.3 715.3 574.5 713.4C576.5 709.6 578.7 705.8 580.8 701.9C582.7 698 584.7 694 586.9 690.1C588.8 686.2 590.7 682.2 592.9 678.1Z" fill="#646464"/>
<path d="M337 615.2C336 621.7 334.9 628.1 333.6 634.4C332.3 640.8 331 647.1 329.5 653.4C326.6 666 323.4 678.5 320.1 691L317.5 700.3L314.8 709.6C313 715.8 311.1 722 309.3 728.1C305.5 740.4 301.7 752.6 297.3 765C293 777.3 288 789.6 281.9 801.6C278.8 807.5 275.5 813.4 271.8 819.1C270 821.9 268 824.7 266 827.4L262.8 831.4C261.7 832.7 260.6 834 259.5 835.3C250.5 845.5 240 854.5 228.1 861.1C222.2 864.3 215.9 867 209.5 868.9C203.1 870.8 196.5 871.8 189.9 871.8C196 869.5 201.8 866.7 207.2 863.5C212.6 860.3 217.6 856.6 222.3 852.6C231.7 844.6 239.7 835.2 246.5 825.2C253.3 815.2 259 804.3 263.9 793C266.4 787.4 268.8 781.6 271 775.8C273.2 770 275.4 764 277.5 758.1L283.9 740C286.1 734 288.2 727.9 290.5 721.8C292.8 715.8 295 709.7 297.3 703.7L300.8 694.7L304.4 685.7C309.3 673.8 314.3 661.9 319.7 650.1C322.4 644.2 325.1 638.3 328 632.5C330.9 626.7 333.9 620.9 337 615.2Z" fill="#646464"/>
<path d="M546.8 272.5C550.2 272.6 553.5 271.7 556.3 270.1C559.2 268.6 561.5 266.3 563.4 263.8C565.3 261.3 566.7 258.4 567.4 255.4C568.1 252.5 568.1 249.4 567.6 246.4C566.5 240.4 563.5 234.9 559.4 230.5C557.3 228.3 555 226.4 552.5 224.7C550 223 547.2 221.7 544.4 220.5C538.7 218.1 532.5 216.7 526.2 215.7C519.9 214.8 513.1 214 506.4 213.1C499.6 212.2 492.8 211.1 486 209.6C479.2 208.1 472.3 206.4 465.5 203.9C462.1 202.7 458.7 201.2 455.4 199.6C452.1 197.9 448.7 196 445.5 193.7C442.3 191.4 439.3 188.7 436.5 185.5C433.8 182.3 431.5 178.6 429.8 174.5C428.2 170.4 427.2 166.1 426.9 161.8C426.8 160.7 426.8 159.7 426.8 158.6C426.8 157.5 426.8 156.5 426.9 155.4C427 154.3 427.1 153.2 427.3 152.1L428 148.9C429.1 144.6 430.9 140.5 433.1 136.9C435.3 133.2 438.1 130.1 441 127.2C443.9 124.3 447 121.9 450.3 119.8C453.5 117.6 456.8 115.8 460.2 114.1C466.9 110.8 473.8 108.3 480.8 106.4C484.3 105.4 487.8 104.6 491.4 103.9C495 103.2 498.5 102.7 502.2 102.3C505.8 101.9 509.5 101.6 513.2 101.5C514.1 101.5 515.1 101.5 516 101.5C516.9 101.5 517.9 101.5 518.8 101.6C519.8 101.6 520.7 101.7 521.7 101.7C522.7 101.8 523.7 101.8 524.6 102C554.3 105.3 581.8 120.7 600.3 143.6C609.6 155.1 616.4 168.1 621.4 181.2C623.9 187.8 626.1 194.4 628 201C629.9 207.6 631.6 214.2 633.3 220.8C639.8 246.9 646.2 273.1 652.2 299.3C655.2 312.4 658.2 325.6 661 338.7C663.9 351.9 666.6 365.1 669.1 378.3C664.4 365.7 659.8 353 655.3 340.3C650.8 327.6 646.5 314.8 642.2 302.1C633.6 276.6 625.4 250.9 617.3 225.3C615.3 218.9 613.3 212.6 611.1 206.4C609 200.2 606.7 194.1 604.1 188.2C599 176.5 592.8 165.5 584.8 156.4C580.8 151.8 576.5 147.5 571.7 143.7C566.9 139.9 561.8 136.5 556.5 133.7C545.8 128 534.1 124.1 522.2 122.9C516.6 122.3 510.5 122.4 504.3 123.1C498.2 123.7 492 124.9 486 126.4C480 127.9 474.2 129.9 468.8 132.5C466.1 133.8 463.5 135.1 461.1 136.7C458.7 138.2 456.4 139.9 454.5 141.7C452.6 143.5 450.8 145.4 449.5 147.4C448.2 149.4 447.2 151.5 446.5 153.8C446.4 154.4 446.2 154.9 446.1 155.5C446 156.1 446 156.7 445.9 157.2C445.8 157.8 445.8 158.4 445.8 159C445.8 159.6 445.7 160.3 445.7 160.9C445.8 163.3 446.2 165.6 446.9 167.9C447.7 170.1 448.9 172.2 450.4 174.2C451.9 176.2 453.9 178 456 179.8C458.2 181.6 460.6 183.2 463.2 184.7C465.8 186.1 468.5 187.5 471.4 188.7C477.1 191.2 483.2 193.2 489.4 194.9C495.6 196.7 502.1 198.1 508.5 199.6L518.3 201.7C521.6 202.4 524.9 203.1 528.4 203.9C535.2 205.6 542.1 207.9 548.6 211.3C551.8 213 554.9 215 557.8 217.3C560.7 219.6 563.3 222.3 565.5 225.3C567.7 228.3 569.6 231.5 570.9 235C572.2 238.5 573.1 242.1 573.2 245.8C573.3 249.5 572.9 253.3 571.5 256.7C570.2 260.2 568.1 263.2 565.6 265.8C563.1 268.3 560.1 270.4 556.8 271.5C553.7 272.8 550.1 273.2 546.8 272.5Z" fill="#646464"/>
<path d="M436 172.3C435.3 175.2 434.5 178.1 434 181.1C433.4 184 432.8 187 432.4 189.9C431.5 195.8 430.8 201.7 430.3 207.6C429.3 219.4 429.2 231.2 429.9 242.9C430.7 254.6 432.3 266.1 435.2 277.2C436 279.9 436.7 282.7 437.7 285.3C438.1 286.6 438.7 287.9 439.2 289.3C439.7 290.6 440.3 291.9 440.8 293.2C443 298.4 445.7 303.2 448.9 307.3C449.7 308.3 450.5 309.3 451.4 310.2C451.8 310.6 452.4 311.2 452.9 311.7L454.4 313.3C456.4 315.3 458.5 317.3 460.5 319C462.5 320.7 464.6 322.2 466.7 323.2C467.7 323.7 468.7 324.1 469.6 324.3C470.1 324.4 470.5 324.5 470.9 324.5C471.1 324.5 471.3 324.5 471.5 324.5H472.4C474.8 324.4 477.4 324 480 323.4C482.6 322.8 485.3 322 487.9 321C493.2 319 498.5 316.7 503.8 314C514.3 308.8 524.6 302.7 534.8 296.6C539.9 293.5 545.1 290.4 550.2 287.3C555.4 284.2 560.6 281.1 566 278.5C556.7 286.1 547.8 294.2 538.3 301.7C528.9 309.2 519.1 316.4 508.6 322.8C503.3 326 497.9 329 492.1 331.5C486.3 334 480.1 336.2 472.9 336.7L471.5 336.8C471 336.8 470.4 336.8 469.9 336.8C468.8 336.7 467.8 336.6 466.8 336.4C464.8 336 462.9 335.3 461.2 334.5C457.8 332.9 455 330.9 452.4 328.9C449.8 326.8 447.5 324.6 445.2 322.5L443.6 320.9C443.1 320.4 442.6 319.9 441.9 319.2C440.7 318 439.6 316.7 438.5 315.3C434.3 310 431.3 304.1 428.8 298.2C428.2 296.7 427.6 295.3 427.1 293.8C426.6 292.3 426 290.8 425.6 289.3C424.6 286.3 423.8 283.2 423.1 280.2C420.4 267.9 419.3 255.5 419.5 243.2C419.7 230.9 421.1 218.7 423.8 206.7C425.1 200.7 426.7 194.8 428.7 189.1C429.7 186.2 430.8 183.4 432 180.6C433.3 177.7 434.6 175 436 172.3Z" fill="#646464"/>
</svg>
