<svg width="1001" height="1001" viewBox="0 0 1001 1001" fill="none" xmlns="http://www.w3.org/2000/svg">
<path d="M500.1 1000.25C776.279 1000.25 1000.1 776.429 1000.1 500.25C1000.1 224.071 776.279 0.25 500.1 0.25C223.921 0.25 0.0999756 224.071 0.0999756 500.25C0.0999756 776.429 223.921 1000.25 500.1 1000.25Z" fill="#EEEEEF"/>
<path d="M264.788 459.982L262.19 404.227L286.071 337.58L318.245 300.21L348.821 288.919L383.094 285.222L407.274 278.328L412.57 274.531L426.359 281.425L462.43 290.318L501.799 291.417L533.273 286.421L550.06 283.024L564.349 276.629L572.542 280.626L590.628 286.022L616.907 289.918L646.383 299.511L674.161 322.992L690.847 349.87L704.137 396.933L707.834 419.615L712.83 439.898L698.541 444.894L674.46 461.082L661.97 473.871L645.783 493.456L632.494 475.62L618.006 500.3L604.317 536.571L597.922 583.733L600.62 630.196L604.017 651.779L607.414 682.255L564.049 672.662L539.169 665.568L522.382 671.963L512.49 690.048L493.705 713.03L467.226 701.04L454.836 676.559L443.245 663.47L418.665 665.568L399.78 673.961C399.78 673.961 380.296 676.859 379.796 677.259C379.297 677.658 373.201 677.458 373.201 677.458L372.802 654.577L374.201 567.247L363.909 521.183L359.512 499.001L354.217 485.212L340.428 466.527L320.743 504.347L314.548 516.437L300.759 497.352L280.975 475.87L269.984 470.574L262.29 466.277L264.788 459.982Z" fill="#F2956A"/>
<path d="M538.969 240.857C539.153 244.757 540.069 248.587 541.667 252.148C543.303 255.626 545.422 258.856 547.962 261.741C553.138 267.376 559.434 271.869 566.447 274.93C569.905 276.476 573.48 277.745 577.138 278.727C580.835 279.626 584.632 280.426 588.429 281.025C596.023 282.224 603.817 282.924 611.711 283.823C615.608 284.323 619.604 284.822 623.601 285.522C627.619 286.206 631.59 287.14 635.492 288.319C643.473 290.652 651.077 294.118 658.074 298.611C661.55 300.873 664.887 303.342 668.066 306.005C674.301 311.406 679.93 317.471 684.852 324.091C687.332 327.362 689.634 330.764 691.747 334.283C700.19 348.263 706.52 363.415 710.532 379.247C712.53 387.14 714.129 395.034 715.428 402.928C716.727 410.821 717.626 418.715 718.525 426.609C720.224 442.396 721.323 457.984 723.222 473.371C724.121 481.065 725.22 488.659 726.519 496.153C727.718 502.848 730.516 509.642 733.813 516.337C737.11 523.032 740.907 529.826 744.804 536.721C748.846 543.785 752.514 551.056 755.796 558.503C756.595 560.402 757.394 562.4 758.094 564.499C758.793 566.597 759.293 568.495 759.892 570.394C760.492 572.292 760.991 574.291 761.491 576.189C761.991 578.088 762.59 580.086 762.99 582.084C764.888 589.878 766.487 597.772 767.886 605.566C769.285 613.359 770.484 621.053 771.983 628.647C773.481 636.241 775.18 643.635 777.178 651.129L780.376 662.47C781.475 666.367 782.474 670.164 783.373 674.061L788.769 697.042C790.568 704.636 792.466 712.13 794.664 719.524C796.772 726.783 799.445 733.866 802.658 740.708C809.552 754.197 818.745 767.286 825.44 781.974C828.902 789.347 831.388 797.14 832.834 805.156C834.368 813.229 834.198 821.533 832.334 829.536C830.328 837.51 826.101 844.752 820.144 850.42C817.172 853.145 813.803 855.402 810.152 857.114C806.491 858.718 802.556 859.6 798.561 859.712C802.436 859.292 806.179 858.067 809.552 856.115C812.894 854.225 815.899 851.794 818.445 848.921C823.534 843.281 826.928 836.319 828.238 828.837C829.373 821.378 828.999 813.767 827.138 806.455C825.266 799.108 822.48 792.025 818.845 785.372C815.248 778.577 811.051 772.082 806.755 765.588C802.458 759.093 798.062 752.498 793.965 745.404C790.114 738.227 786.872 730.74 784.273 723.022C781.675 715.428 779.377 707.834 777.278 700.14L771.083 677.358C770.084 673.561 768.985 669.864 767.886 666.267L764.289 654.976C761.991 647.282 759.992 639.489 758.294 631.695C756.595 623.901 755.196 616.107 753.697 608.513C752.198 600.919 750.6 593.425 748.701 585.931C748.202 584.033 747.702 582.234 747.202 580.436C746.703 578.637 746.203 576.739 745.604 574.94C744.601 571.411 743.4 567.942 742.007 564.548C738.955 557.634 735.519 550.895 731.715 544.365C727.918 537.57 723.921 530.676 720.324 523.281C716.727 515.887 713.529 507.994 711.831 499.201C710.432 491.207 709.333 483.313 708.533 475.42C706.835 459.632 705.835 443.845 704.437 428.357C703.737 420.564 702.938 412.87 701.839 405.276C700.74 397.682 699.441 390.088 697.742 382.694C696.045 375.323 693.842 368.078 691.147 361.011C689.848 357.514 688.349 354.017 686.751 350.62C685.152 347.222 683.453 343.825 681.555 340.628C674.161 327.538 664.469 315.748 652.478 307.154C646.46 302.771 639.827 299.303 632.794 296.863C629.297 295.664 625.6 294.664 621.903 293.765C618.206 292.866 614.409 292.166 610.512 291.467C602.818 290.068 595.024 288.869 587.23 287.07C583.315 286.204 579.446 285.137 575.64 283.873C571.806 282.569 568.095 280.931 564.549 278.977C557.375 275.201 551.103 269.917 546.163 263.489C543.725 260.277 541.803 256.703 540.468 252.898C539.849 251.006 539.381 249.068 539.069 247.102C538.969 244.804 538.969 242.856 538.969 240.857Z" fill="#646464"/>
<path d="M437.05 240.857C437.134 242.825 437.067 244.796 436.851 246.753C436.538 248.718 436.07 250.656 435.452 252.548C434.116 256.354 432.194 259.927 429.756 263.14C424.77 269.523 418.508 274.797 411.371 278.627C407.836 280.604 404.122 282.243 400.28 283.523C396.383 284.822 392.586 285.821 388.689 286.721C380.895 288.519 373.102 289.718 365.408 291.117C361.611 291.817 357.814 292.516 354.017 293.415C350.22 294.315 346.623 295.314 343.126 296.513C336.102 298.975 329.471 302.441 323.441 306.805C311.351 315.398 301.759 327.288 294.365 340.278C292.466 343.575 290.767 346.873 289.169 350.27C287.57 353.667 286.171 357.164 284.772 360.662C282.078 367.729 279.874 374.974 278.177 382.344C276.479 389.738 275.18 397.332 274.081 404.926C272.982 412.52 272.182 420.214 271.483 428.008C270.084 443.495 269.085 459.183 267.386 475.07C266.487 482.964 265.388 490.957 264.089 498.851C262.49 507.644 259.193 515.538 255.596 522.932C251.998 530.326 248.002 537.22 244.205 544.015C240.4 550.546 236.964 557.284 233.913 564.199C232.475 567.575 231.273 571.048 230.316 574.59C229.716 576.389 229.217 578.287 228.717 580.086C228.217 581.885 227.718 583.783 227.218 585.582C225.32 592.976 223.721 600.47 222.222 608.164C220.723 615.857 219.325 623.551 217.626 631.345C215.927 639.139 213.929 646.933 211.631 654.626L208.034 665.917C206.934 669.614 205.835 673.311 204.836 677.009L198.641 699.79C196.543 707.384 194.245 715.078 191.647 722.672C189.084 730.405 185.841 737.895 181.954 745.054C177.858 752.148 173.461 758.643 169.165 765.238C164.868 771.833 160.671 778.228 157.074 785.022C153.398 791.656 150.609 798.744 148.781 806.105C146.921 813.417 146.547 821.028 147.682 828.487C148.95 835.983 152.349 842.956 157.474 848.571C160.02 851.444 163.025 853.876 166.367 855.766C169.747 857.703 173.487 858.927 177.358 859.363C173.353 859.336 169.4 858.45 165.767 856.765C162.076 855.125 158.696 852.86 155.775 850.07C149.779 844.434 145.544 837.18 143.585 829.187C141.487 821.193 141.687 812.8 143.086 804.806C144.578 796.802 147.062 789.015 150.48 781.625C157.274 766.937 166.467 753.847 173.261 740.358C176.534 733.542 179.209 726.454 181.255 719.175C183.453 711.781 185.352 704.287 187.15 696.693L192.546 673.711C193.445 669.814 194.444 666.017 195.544 662.12L198.741 650.829C200.739 643.435 202.438 635.941 203.937 628.347C205.436 620.753 206.635 613.06 208.034 605.266C209.432 597.472 211.031 589.578 212.93 581.785C213.429 579.786 213.929 577.888 214.428 575.889C214.928 573.891 215.528 571.993 216.027 570.094C216.527 568.196 217.126 566.297 217.826 564.199C218.525 562.1 219.325 560.202 220.124 558.204C223.421 550.41 227.318 543.415 231.115 536.421C234.912 529.427 238.809 522.832 242.106 516.037C245.412 509.658 247.864 502.872 249.401 495.853C250.699 488.359 251.799 480.666 252.698 473.072C254.596 457.684 255.695 442.096 257.394 426.309C258.293 418.415 259.193 410.522 260.492 402.628C261.791 394.734 263.389 386.841 265.388 378.947C269.362 363.103 275.695 347.946 284.173 333.983C286.286 330.464 288.587 327.062 291.067 323.791C295.992 317.188 301.621 311.141 307.854 305.756C311.033 303.092 314.37 300.623 317.846 298.361C324.832 293.851 332.44 290.383 340.428 288.07C344.424 286.971 348.321 286.071 352.318 285.272C356.315 284.473 360.212 283.973 364.209 283.573C372.102 282.674 379.896 281.975 387.49 280.776C391.287 280.176 395.084 279.377 398.781 278.477C402.435 277.483 406.009 276.213 409.472 274.68C416.464 271.582 422.754 267.095 427.958 261.491C430.552 258.648 432.677 255.41 434.253 251.899C435.969 248.463 436.924 244.696 437.05 240.857Z" fill="#646464"/>
<path d="M635.092 471.373C627.454 486.847 621.492 503.093 617.306 519.834C613.299 536.313 610.626 553.087 609.313 569.994C607.914 586.981 607.614 604.067 607.514 621.453C607.414 630.146 607.414 638.839 607.314 647.632C607.214 656.425 607.014 665.218 606.215 674.011C603.717 665.518 601.719 656.925 599.92 648.232C598.122 639.538 596.823 630.845 595.723 622.052C593.49 604.356 593.055 586.479 594.425 568.695C595.791 550.698 599.762 532.994 606.215 516.137C609.478 507.747 613.526 499.685 618.305 492.057C622.993 484.473 628.635 477.521 635.092 471.373Z" fill="#646464"/>
<path d="M343.425 471.373C349.91 477.559 355.584 484.543 360.312 492.156C365.091 499.785 369.14 507.847 372.402 516.237C378.855 533.094 382.826 550.798 384.193 568.795C385.562 586.579 385.127 604.456 382.894 622.152C381.795 630.945 380.396 639.638 378.697 648.331C376.998 657.024 375 665.518 372.402 674.111C371.703 665.218 371.503 656.425 371.303 647.732C371.103 639.039 371.203 630.246 371.103 621.553C371.003 604.267 370.604 587.08 369.305 570.094C367.991 553.187 365.318 536.412 361.311 519.934C357.152 503.139 351.154 486.853 343.425 471.373Z" fill="#646464"/>
<path d="M627.098 404.227C625.851 411.896 625.75 419.709 626.799 427.408C627.938 434.993 629.846 442.442 632.494 449.64C637.69 464.029 645.384 477.318 652.878 491.107C654.776 494.604 656.675 498.002 658.473 501.599C660.272 505.196 662.07 508.693 663.769 512.39C667.105 519.719 670.04 527.224 672.562 534.872C675.16 542.466 677.258 550.06 679.556 557.554C681.855 565.048 683.853 572.542 686.351 579.736C695.744 608.713 710.332 636.291 723.621 664.768C736.911 693.245 749.8 721.822 761.391 751.099C744.305 724.62 728.517 697.442 713.13 670.164L707.434 659.872L701.739 649.58C697.942 642.686 694.345 635.691 690.747 628.597C687.15 621.503 683.853 614.309 680.656 606.914C677.458 599.52 674.66 592.026 672.162 584.332C669.664 576.639 667.566 569.045 665.468 561.451C663.369 553.857 661.371 546.363 659.173 538.969C656.975 531.575 654.576 524.38 651.779 517.386C648.981 510.392 645.783 503.297 642.486 496.203C640.887 492.706 639.189 489.109 637.59 485.412C635.991 481.715 634.393 478.117 632.894 474.42C629.817 466.97 627.344 459.285 625.5 451.439C623.622 443.584 622.683 435.534 622.702 427.458C622.771 423.439 623.138 419.432 623.801 415.468C624.573 411.632 625.677 407.871 627.098 404.227Z" fill="#646464"/>
<path d="M348.122 404.227C349.568 407.914 350.671 411.727 351.419 415.617C352.087 419.581 352.454 423.589 352.518 427.608C352.592 435.687 351.652 443.744 349.72 451.589C347.83 459.422 345.358 467.104 342.326 474.57C340.827 478.267 339.329 481.964 337.63 485.562C335.931 489.159 334.432 492.756 332.734 496.353C329.436 503.447 326.339 510.542 323.441 517.536C320.544 524.53 318.245 531.725 316.047 539.119C313.849 546.513 311.851 554.007 309.752 561.601C307.654 569.195 305.456 576.789 303.058 584.482C300.66 592.176 297.662 599.67 294.564 607.064C291.467 614.458 288.07 621.653 284.472 628.747C280.875 635.841 277.278 642.836 273.481 649.73L267.786 660.022L262.09 670.314C246.703 697.692 231.015 724.87 213.829 751.249C225.42 721.972 238.309 693.295 251.599 664.918C264.888 636.541 279.377 608.863 288.869 579.886C291.267 572.592 293.465 565.198 295.663 557.704C297.862 550.21 300.06 542.616 302.658 535.022C305.146 527.362 308.082 519.855 311.451 512.54C313.15 508.843 314.948 505.246 316.747 501.749C318.545 498.251 320.444 494.754 322.342 491.257C329.836 477.468 337.53 464.079 342.726 449.79C345.371 442.608 347.279 435.176 348.421 427.608C349.471 419.842 349.37 411.963 348.122 404.227Z" fill="#646464"/>
<path d="M724.021 736.461C731.07 737.838 737.966 739.914 744.604 742.656C751.279 745.524 757.613 749.126 763.489 753.398C769.465 757.74 774.782 762.923 779.277 768.785C779.876 769.485 780.376 770.284 780.975 770.983L782.574 773.282L783.373 774.481L784.073 775.68L785.472 778.078C787.266 781.385 788.802 784.826 790.068 788.37C791.337 791.912 792.306 795.556 792.966 799.261L793.365 802.059C793.465 802.558 793.465 802.958 793.565 803.457L793.665 804.856L793.865 807.654L793.965 810.552C794.11 818.291 792.788 825.987 790.068 833.234C787.219 840.536 782.938 847.194 777.478 852.818C772.023 858.369 765.673 862.963 758.693 866.407C744.881 873.18 729.6 876.408 714.229 875.8C698.941 875.3 684.353 871.503 670.464 866.507C656.575 861.511 643.485 855.316 630.596 849.221L611.211 840.228L591.827 831.335C539.968 807.854 487.51 785.738 434.453 764.988L414.568 757.294L394.584 749.7C381.295 744.605 367.906 739.708 354.516 734.812C341.127 729.916 327.638 725.02 314.249 720.424C307.641 718.074 300.755 716.596 293.765 716.027C290.286 715.809 286.792 716.044 283.373 716.727C279.918 717.537 276.636 718.958 273.681 720.924C276.402 718.514 279.604 716.709 283.074 715.628C286.565 714.496 290.197 713.857 293.865 713.729C301.159 713.429 308.453 714.828 315.448 716.427C318.945 717.226 322.442 718.226 325.839 719.125L336.131 722.023C343.026 723.921 349.92 725.92 356.815 727.918C370.504 731.915 384.193 736.211 397.882 740.508C411.571 744.804 425.06 749.401 438.649 754.097C492.706 772.882 545.863 794.132 598.122 817.846L617.606 826.839L636.99 836.031C649.88 842.226 662.47 848.421 675.46 853.318C688.449 858.214 701.639 861.811 714.928 862.71C721.543 863.095 728.181 862.726 734.712 861.611C741.224 860.522 747.57 858.608 753.597 855.915C759.544 853.266 765.013 849.654 769.784 845.224C774.524 840.833 778.33 835.532 780.975 829.637C783.653 823.616 785.146 817.137 785.372 810.552L785.472 808.054L785.372 805.556V804.257C785.372 803.857 785.272 803.457 785.272 802.958L785.072 800.46C784.598 797.126 783.931 793.824 783.074 790.568C779.576 777.478 771.383 765.788 760.891 756.595C750.095 747.452 737.55 740.601 724.021 736.461Z" fill="#646464"/>
<path d="M684.752 815.198C687.174 813.466 689.214 811.255 690.747 808.703C692.227 806.208 693.242 803.466 693.745 800.61C694.829 794.976 694.275 789.15 692.146 783.823C691.629 782.52 691.028 781.252 690.348 780.026C689.948 779.427 689.648 778.827 689.249 778.227L688.05 776.529C686.371 774.272 684.499 772.166 682.454 770.234C678.215 766.403 673.516 763.113 668.465 760.442C663.307 757.681 657.965 755.277 652.478 753.247C649.78 752.148 646.983 751.149 644.185 750.25C642.786 749.75 641.387 749.351 639.988 748.851C638.589 748.351 637.19 747.952 635.791 747.552C624.46 744.295 612.95 741.693 601.319 739.758C577.938 735.761 554.057 733.563 529.976 729.766C517.986 727.868 505.895 725.67 493.905 722.572C481.835 719.52 470.038 715.476 458.633 710.482L454.636 708.783L454.237 704.486C453.852 699.92 453.184 695.381 452.238 690.897C451.758 688.832 451.158 686.797 450.44 684.802C450.101 683.877 449.7 682.976 449.241 682.104C448.741 681.305 448.341 680.406 447.842 679.706C447.342 679.007 446.743 678.307 446.243 677.608C445.064 676.391 443.719 675.348 442.246 674.51C441.499 674.136 440.732 673.802 439.948 673.511C439.131 673.253 438.296 673.053 437.45 672.912C436.555 672.796 435.655 672.729 434.752 672.712C432.737 672.673 430.725 672.875 428.757 673.311C424.289 674.272 419.91 675.609 415.668 677.308L408.673 679.906C406.275 680.805 403.677 681.605 401.179 682.304C391.101 685.123 380.668 686.469 370.204 686.301C365.016 686.187 359.841 685.719 354.716 684.902C349.52 684.003 344.624 682.704 339.828 681.405C335.032 680.106 330.436 678.807 325.839 678.008C323.561 677.594 321.258 677.327 318.945 677.208C316.678 677.125 314.408 677.192 312.15 677.408C307.603 678.013 303.203 679.435 299.161 681.605C294.968 683.877 291.074 686.663 287.57 689.898C280.376 696.393 274.181 704.187 268.186 711.98C272.982 703.287 278.178 694.794 284.872 687.2C288.267 683.341 292.126 679.918 296.363 677.008C300.797 674.03 305.743 671.896 310.951 670.714C313.578 670.129 316.255 669.795 318.945 669.714C321.58 669.613 324.219 669.713 326.839 670.014C332.034 670.514 337.03 671.513 341.927 672.412C346.607 673.454 351.345 674.221 356.115 674.71C360.793 675.226 365.502 675.393 370.204 675.21C379.512 674.848 388.725 673.2 397.582 670.314C399.78 669.614 401.879 668.815 404.177 667.916L410.971 665.118C415.844 662.987 420.892 661.282 426.059 660.022C428.91 659.349 431.824 658.981 434.752 658.923C436.32 658.892 437.889 658.959 439.449 659.123C441.035 659.35 442.604 659.684 444.145 660.122C445.731 660.573 447.27 661.175 448.741 661.921C450.197 662.691 451.599 663.559 452.938 664.518C454.26 665.476 455.497 666.545 456.635 667.716C457.747 668.852 458.75 670.09 459.632 671.413C460.539 672.643 461.341 673.946 462.03 675.31C462.744 676.602 463.378 677.937 463.929 679.307C464.975 681.943 465.843 684.647 466.527 687.4C467.725 692.564 468.56 697.807 469.025 703.088L464.628 696.992C475.302 701.6 486.329 705.342 497.602 708.184C500.4 708.983 503.297 709.582 506.095 710.282C508.893 710.981 511.791 711.581 514.688 712.18C520.484 713.379 526.279 714.478 532.174 715.478C555.656 719.474 579.636 722.472 603.517 727.668C627.398 732.864 651.179 740.558 672.262 753.747C677.596 757.131 682.466 761.196 686.751 765.837C691.102 770.597 694.344 776.261 696.243 782.424C697.895 788.591 697.791 795.098 695.943 801.209C694.998 804.169 693.544 806.942 691.647 809.403C689.866 811.877 687.496 813.869 684.752 815.198Z" fill="#646464"/>
<path d="M486.611 713.08C489.213 712.615 491.694 711.629 493.905 710.182C496.045 708.772 497.937 707.016 499.501 704.986C502.727 700.956 505.352 696.48 507.294 691.697C509.493 686.801 511.591 681.705 514.788 676.709C516.392 674.091 518.304 671.676 520.484 669.514C522.842 667.174 525.578 665.248 528.577 663.819C531.601 662.463 534.794 661.522 538.07 661.021C541.221 660.639 544.404 660.605 547.562 660.921C550.635 661.236 553.676 661.804 556.655 662.62C559.552 663.419 562.25 664.419 564.948 665.418C570.244 667.416 575.14 669.714 579.836 671.513C584.429 673.265 589.181 674.57 594.025 675.41C596.423 675.909 598.821 676.109 601.319 676.409C603.777 676.627 606.247 676.693 608.713 676.609C613.612 676.56 618.495 676.059 623.301 675.11C625.7 674.61 628.098 674.011 630.596 673.311L638.289 671.113C643.846 669.369 649.575 668.23 655.376 667.716C658.512 667.502 661.662 667.636 664.768 668.116C666.336 668.362 667.876 668.763 669.365 669.315C670.164 669.614 670.863 669.814 671.663 670.114L673.861 671.113C679.297 673.851 684.018 677.82 687.65 682.704C691.011 687.257 693.765 692.228 695.843 697.492C697.898 702.589 699.568 707.833 700.839 713.18C698.042 708.483 695.144 703.887 692.146 699.49C689.278 695.161 685.925 691.172 682.154 687.6C678.737 684.276 674.649 681.721 670.164 680.106L668.565 679.606L666.967 679.307C665.882 679.075 664.778 678.941 663.669 678.907C661.393 678.828 659.115 678.996 656.875 679.407C654.501 679.83 652.163 680.431 649.88 681.205C647.482 681.905 645.084 682.804 642.586 683.703C637.382 685.826 632.041 687.595 626.599 688.999C623.733 689.718 620.832 690.285 617.906 690.697C609.147 691.964 600.243 691.829 591.527 690.298C585.739 689.277 580.077 687.636 574.64 685.402C569.345 683.204 564.449 680.805 559.752 678.707C557.507 677.679 555.205 676.778 552.858 676.009C550.666 675.27 548.43 674.67 546.163 674.211C541.916 673.345 537.521 673.551 533.373 674.81C531.385 675.491 529.526 676.504 527.878 677.808C526.043 679.257 524.368 680.898 522.882 682.704C519.784 686.501 516.887 690.997 513.889 695.494C510.805 700.313 506.958 704.599 502.498 708.184C500.233 709.963 497.705 711.379 495.004 712.38C492.277 713.149 489.428 713.386 486.611 713.08Z" fill="#646464"/>
<path d="M356.615 738.409C346.619 742.379 336.934 747.088 327.638 752.498C318.645 757.794 309.852 763.589 300.959 769.484C296.806 772.14 292.864 775.113 289.169 778.377L286.771 780.775C286.071 781.575 285.372 782.474 284.672 783.273C283.405 785.034 282.302 786.907 281.375 788.869C280.506 790.797 279.966 792.857 279.776 794.964C279.693 795.493 279.66 796.028 279.676 796.563C279.66 797.064 279.693 797.567 279.776 798.062C279.879 799.143 280.08 800.214 280.376 801.259C281.07 803.654 282.318 805.852 284.019 807.674C285.72 809.497 287.827 810.894 290.168 811.751C288.723 812.053 287.244 812.154 285.771 812.05C284.259 811.851 282.78 811.448 281.375 810.851C278.431 809.529 275.883 807.463 273.981 804.856C272.938 803.557 272.096 802.108 271.483 800.56C271.14 799.777 270.839 798.977 270.584 798.161C270.384 797.362 270.184 796.563 269.984 795.663C269.702 793.98 269.568 792.275 269.584 790.568C269.597 788.89 269.764 787.218 270.084 785.572C270.715 782.327 271.826 779.195 273.381 776.279C274.175 774.836 275.042 773.436 275.979 772.082C276.892 770.75 277.893 769.482 278.977 768.285C283.023 763.879 287.625 760.016 292.666 756.795C302.015 750.404 312.159 745.265 322.842 741.507C328.251 739.642 333.845 738.369 339.528 737.71C345.23 737.192 350.975 737.427 356.615 738.409Z" fill="#646464"/>
<path d="M600.52 729.667C603.894 727.72 607.044 725.408 609.912 722.772C612.71 720.274 615.408 717.577 618.605 714.879C620.26 713.51 621.995 712.242 623.801 711.082C624.7 710.482 625.699 709.883 626.599 709.383L629.596 707.884C635.607 705.12 642.078 703.493 648.681 703.088C653.061 702.819 657.457 703.087 661.771 703.888C662.87 704.087 663.869 704.387 664.968 704.587L666.567 704.987C667.08 705.108 667.582 705.275 668.066 705.486C672.156 706.841 676.052 708.722 679.656 711.082C680.556 711.681 681.355 712.381 682.254 712.98C683.154 713.58 683.853 714.379 684.652 715.079C686.203 716.51 687.578 718.12 688.749 719.875C684.552 719.175 680.755 718.376 676.958 717.876C676.032 717.727 675.098 717.627 674.161 717.577L671.363 717.277C669.569 717.11 667.769 717.011 665.967 716.977C665.071 716.877 664.166 716.877 663.269 716.977H660.572C659.672 716.977 658.773 717.077 657.974 717.077C657.538 717.061 657.102 717.094 656.675 717.177L655.376 717.277C653.677 717.377 651.879 717.577 650.18 717.776L647.582 718.176L646.283 718.376L644.984 718.676C641.606 719.308 638.27 720.142 634.992 721.174C634.193 721.473 633.393 721.673 632.494 721.973L630.096 722.872C628.36 723.478 626.659 724.179 625 724.971C621.284 726.691 617.443 728.127 613.509 729.267C609.213 730.416 604.616 730.966 600.52 729.667Z" fill="#646464"/>
<path d="M256.295 731.265C251.521 732.22 246.841 733.59 242.306 735.362C237.811 737.061 233.466 739.133 229.317 741.557C221.098 746.287 213.734 752.367 207.534 759.543C195.351 773.654 188.307 791.475 187.55 810.102C187.035 819.053 188.292 828.017 191.247 836.481C191.983 838.485 192.886 840.423 193.945 842.276C194.902 844.086 196.04 845.793 197.342 847.372C198.559 848.972 199.969 850.415 201.539 851.669L202.638 852.668L203.837 853.567L205.036 854.467L206.335 855.266C213.329 859.363 222.122 861.061 231.115 861.361C235.682 861.476 240.252 861.343 244.804 860.961C247.102 860.762 249.501 860.462 251.799 860.162C254.097 859.862 256.495 859.463 258.793 859.063C268.166 857.5 277.44 855.398 286.571 852.768C295.763 850.17 304.856 847.073 313.849 843.775C331.935 837.18 349.82 829.487 368.006 822.092C404.277 807.304 440.648 792.916 477.718 779.826C443.246 798.511 408.074 815.897 372.802 832.784L359.512 839.079C355.116 841.177 350.62 843.276 346.123 845.274C337.23 849.371 328.138 853.268 318.845 856.965C309.652 860.662 300.16 863.959 290.568 866.857C280.895 869.765 271.05 872.068 261.091 873.751C258.593 874.151 256.095 874.551 253.597 874.85C251.099 875.15 248.601 875.45 246.003 875.65C240.82 876.084 235.615 876.217 230.416 876.049C225.024 875.817 219.668 875.047 214.429 873.751C208.968 872.428 203.744 870.271 198.941 867.356C197.742 866.557 196.543 865.857 195.344 864.958L193.645 863.659L192.046 862.16C189.884 860.25 187.94 858.105 186.251 855.766C184.563 853.511 183.091 851.102 181.855 848.571C180.602 846.088 179.533 843.517 178.657 840.877C175.49 830.672 174.469 819.922 175.66 809.303C176.719 798.936 179.558 788.829 184.053 779.427C188.527 770.134 194.617 761.709 202.038 754.547C209.401 747.545 217.964 741.926 227.318 737.96C231.911 736.007 236.656 734.436 241.507 733.264C246.368 732.164 251.316 731.495 256.295 731.265Z" fill="#646464"/>
<path d="M490.907 34.2227C484.912 36.0212 478.817 37.6199 473.022 39.5184C470.124 40.5176 467.226 41.5168 464.429 42.7159C461.631 43.9149 458.933 45.2139 456.335 46.6127C451.203 49.4431 446.466 52.937 442.246 57.0044C440.164 59.0011 438.259 61.1741 436.551 63.4992C434.836 65.7965 433.268 68.1993 431.855 70.6935C429.055 75.7665 426.811 81.1266 425.16 86.6807C424.361 89.4784 423.561 92.2762 422.962 95.1739C422.362 98.0716 421.963 100.969 421.463 103.867C420.963 106.765 420.763 109.762 420.564 112.76C420.364 115.757 420.164 118.755 420.164 121.653C420.112 127.527 420.412 133.4 421.063 139.239C421.463 142.136 421.863 145.134 422.362 148.032C422.862 150.929 423.461 153.827 424.161 156.725C425.56 162.52 427.158 168.315 429.057 174.011C432.946 185.498 437.517 196.742 442.746 207.684C444.045 210.482 445.444 213.179 446.743 215.977C448.042 218.775 449.54 221.573 450.939 224.071C453.71 229.35 456.954 234.366 460.632 239.059C464.247 243.759 468.6 247.842 473.521 251.149C478.595 254.521 484.518 256.392 490.608 256.545C489.072 256.965 487.499 257.232 485.911 257.344C484.285 257.544 482.641 257.544 481.015 257.344C479.364 257.216 477.726 256.949 476.119 256.545C474.522 256.151 472.953 255.65 471.423 255.046C465.312 252.536 459.721 248.91 454.936 244.355C450.172 239.881 445.886 234.925 442.146 229.566C440.248 226.869 438.549 224.271 436.851 221.573C435.152 218.875 433.553 216.177 431.855 213.479C428.557 207.984 425.66 202.388 422.862 196.593C420.064 190.797 417.566 184.902 415.368 178.807C414.269 175.809 413.269 172.712 412.27 169.614C411.271 166.517 410.472 163.419 409.672 160.222C408.873 157.024 408.174 153.827 407.674 150.63C407.174 147.432 406.675 144.135 406.275 140.937C405.573 134.367 405.373 127.753 405.676 121.153C405.991 114.613 406.759 108.103 407.974 101.669C409.166 95.1723 410.904 88.788 413.17 82.584C415.529 76.3167 418.614 70.3474 422.362 64.7982C426.184 59.229 430.834 54.2759 436.151 50.1099C438.784 48.038 441.593 46.1992 444.544 44.6143C447.426 43.0065 450.433 41.6364 453.537 40.5176C459.576 38.2754 465.841 36.7006 472.222 35.8214C478.317 34.9721 484.612 34.6223 490.907 34.2227Z" fill="#646464"/>
<path d="M490.907 34.2227C497.202 34.6223 503.397 34.9221 509.692 35.8214C516.073 36.7006 522.339 38.2754 528.377 40.5176C531.464 41.6783 534.469 43.0471 537.37 44.6143C546.263 49.4841 553.867 56.4032 559.552 64.7982C563.377 70.3017 566.467 76.2808 568.745 82.584C571.011 88.788 572.749 95.1723 573.941 101.669C575.106 108.11 575.874 114.617 576.239 121.153C576.539 127.754 576.338 134.367 575.64 140.937C575.24 144.235 574.84 147.432 574.241 150.63C573.641 153.827 572.942 157.024 572.242 160.222C571.543 163.419 570.644 166.517 569.644 169.614C568.645 172.712 567.646 175.809 566.547 178.807C564.349 184.902 561.751 190.797 559.053 196.593C556.355 202.388 553.257 207.984 550.06 213.479C548.461 216.177 546.763 218.975 545.064 221.573C543.365 224.171 541.667 226.869 539.768 229.566C536.025 234.922 531.739 239.878 526.979 244.355C522.177 248.889 516.59 252.512 510.492 255.046C508.962 255.65 507.393 256.151 505.795 256.545C504.182 256.916 502.547 257.183 500.899 257.344C499.269 257.444 497.634 257.444 496.003 257.344C494.415 257.232 492.842 256.965 491.307 256.545C497.397 256.392 503.32 254.521 508.393 251.149C513.315 247.842 517.668 243.759 521.283 239.059C524.983 234.382 528.228 229.364 530.975 224.071C532.374 221.473 533.773 218.675 535.172 215.977C536.571 213.279 537.87 210.482 539.169 207.684C544.38 196.734 548.951 185.491 552.858 174.011C554.756 168.315 556.355 162.52 557.754 156.725C558.42 153.827 559.02 150.929 559.552 148.032C560.052 145.134 560.552 142.236 560.851 139.239C561.5 133.4 561.8 127.527 561.751 121.653C561.751 118.755 561.551 115.658 561.351 112.76C561.151 109.862 560.851 106.865 560.452 103.867C560.052 100.869 559.552 98.0716 558.953 95.1739C558.373 92.3054 557.639 89.4702 556.755 86.6807C555.129 81.1176 552.884 75.7549 550.06 70.6935C548.647 68.1993 547.078 65.7965 545.364 63.4992C543.656 61.1741 541.751 59.0011 539.668 57.0044C535.475 52.9063 530.733 49.4091 525.58 46.6127C522.982 45.2139 520.284 43.9149 517.486 42.7159C514.688 41.5168 511.791 40.5176 508.893 39.5184C502.998 37.6199 496.903 36.1211 490.907 34.2227Z" fill="#646464"/>
<path d="M564.748 276.029C562.25 278.228 559.652 280.326 556.954 282.324C554.157 284.123 551.359 285.922 548.461 287.72C545.464 289.219 542.466 290.718 539.369 292.216C536.271 293.515 533.074 294.714 529.876 295.913C516.929 300.237 503.358 302.397 489.708 302.308C476.087 302.296 462.557 300.086 449.64 295.764C446.443 294.565 443.345 293.366 440.148 292.067C437.05 290.568 434.053 289.069 431.155 287.47C428.257 285.672 425.46 283.873 422.662 282.075C419.964 280.076 417.366 277.878 414.868 275.68C418.166 276.479 421.363 277.278 424.46 278.278C427.658 278.977 430.755 279.776 433.853 280.576C437.05 281.175 440.148 281.875 443.245 282.574C446.343 283.074 449.54 283.673 452.538 284.273C477.214 288.302 502.371 288.403 527.078 284.573C530.176 283.973 533.273 283.473 536.371 282.974C539.468 282.274 542.566 281.575 545.763 280.975C548.861 280.176 551.958 279.377 555.156 278.677C558.253 277.628 561.451 276.829 564.748 276.029Z" fill="#646464"/>
<path d="M715.927 439.998C710.032 445.494 704.237 449.99 698.741 454.587C693.245 459.183 687.75 463.579 682.354 468.076C676.958 472.572 671.663 477.169 666.167 481.865C660.671 486.561 655.176 491.357 648.681 496.153C649.914 488.305 652.81 480.81 657.174 474.171C665.759 460.872 678.206 450.516 692.846 444.495C700.14 441.497 707.834 439.649 715.927 439.998Z" fill="#646464"/>
<path d="M259.892 468.475C266.57 468.228 273.213 469.564 279.277 472.372C285.289 475.043 290.799 478.727 295.564 483.263C300.372 487.732 304.362 493.008 307.354 498.851C310.252 504.746 312.35 511.041 312.35 517.936C307.336 514.208 302.533 510.205 297.962 505.945C293.565 501.948 289.468 498.052 285.272 494.155C281.075 490.258 276.978 486.361 272.782 482.164C268.585 477.968 264.289 473.771 259.892 468.475Z" fill="#646464"/>
</svg>
