<svg width="45" height="45" viewBox="0 0 45 45" fill="none" xmlns="http://www.w3.org/2000/svg">
<path d="M33.0585 45H11.9418C5.34634 45 0 39.6535 0 33.0581V11.9416C0 5.34657 5.34634 3.05176e-05 11.9418 3.05176e-05H33.0585C39.6537 3.05176e-05 45 5.34657 45 11.9416V33.0581C45 39.6535 39.6537 45 33.0585 45Z" fill="#FF9C94"/>
<path d="M16.955 16.2456C17.1563 16.2035 17.4029 16.178 17.5326 16.3378C17.5966 16.4168 17.614 16.5237 17.6191 16.6251C17.6566 17.3593 17.1813 18.0386 16.5876 18.4716C15.5182 19.2513 14.1204 19.3854 12.7978 19.4315C11.3086 19.4836 9.7277 19.4339 8.46966 18.6355C7.955 18.3091 7.49188 17.8194 7.41592 17.2147C7.31798 16.4374 7.97887 15.8099 8.72875 16.0245C9.43143 16.2252 10.0042 16.6837 10.7426 16.8538C12.8295 17.334 14.9191 16.6723 16.955 16.2456Z" fill="#2E2D2D"/>
<path d="M28.0449 16.2456C27.8436 16.2035 27.5972 16.178 27.4673 16.3378C27.4032 16.4168 27.3859 16.5237 27.381 16.6251C27.3433 17.3593 27.8186 18.0386 28.4128 18.4716C29.4817 19.2513 30.8795 19.3854 32.2021 19.4315C33.6916 19.4836 35.2722 19.4339 36.5302 18.6355C37.0449 18.3091 37.508 17.8194 37.584 17.2147C37.6822 16.4374 37.0213 15.8099 36.2711 16.0245C35.5687 16.2252 34.9957 16.6837 34.2575 16.8538C32.1706 17.334 30.0808 16.6723 28.0449 16.2456Z" fill="#2E2D2D"/>
<path d="M16.4055 26.4593C21.8702 27.0048 27.3022 27.0705 32.7888 26.1502C34.2053 25.9126 35.2916 27.0119 34.2691 28.3003C33.7593 28.9419 32.9033 29.4487 32.1757 29.8126C29.9485 30.9262 27.4306 31.1262 24.9785 31.1395C22.3577 31.1536 19.716 31.2089 17.1212 30.7754C15.2302 30.4596 10.6525 29.3904 10.5079 26.8771C10.4379 25.6546 12.7266 26.0276 13.3941 26.1133C14.3992 26.2428 15.4028 26.3591 16.4055 26.4593Z" fill="#2E2D2D"/>
</svg>
