<svg width="40" height="40" viewBox="0 0 40 40" fill="none" xmlns="http://www.w3.org/2000/svg">
<path d="M29.3845 40H10.6148C4.75263 40 0 35.2469 0 29.3845V10.6146C0 4.75216 4.75263 0 10.6148 0H29.3845C35.2469 0 39.9993 4.75216 39.9993 10.6146V29.3845C39.9993 35.2469 35.2469 40 29.3845 40Z" fill="#72B3FF"/>
<path d="M25.767 27.5974C26.094 27.7156 26.4234 27.4406 26.3745 27.0959C25.9652 24.2237 23.2125 22.0051 19.8776 22.0051C16.5436 22.0051 13.7916 24.2237 13.3814 27.0934C13.332 27.4383 13.6628 27.7156 13.9898 27.5926L17.1323 26.4327C18.8835 25.7864 20.8079 25.7815 22.5611 26.423L25.767 27.5974Z" fill="black"/>
<path d="M14.7882 13.7841C14.9935 13.8061 15.1963 13.8333 15.3952 13.8656C17.1547 14.1524 17.5224 15.8506 15.5691 16.1453C14.5266 16.3027 13.4383 16.0191 12.4281 15.8368C11.0009 15.5795 9.59285 15.4052 8.21418 15.9268C7.85535 16.0625 7.55607 15.8935 7.50182 15.5867C7.43646 15.2187 7.94578 14.9197 8.27254 14.7678C10.1359 13.9023 12.6198 13.5529 14.7882 13.7841Z" fill="black"/>
<path d="M30.4097 13.7841C30.6151 13.8061 30.8177 13.8333 31.0169 13.8656C32.7763 14.1524 33.1439 15.8506 31.1905 16.1453C30.148 16.3027 29.0597 16.0191 28.0495 15.8368C26.6224 15.5795 25.2143 15.4052 23.8356 15.9268C23.4768 16.0625 23.1775 15.8935 23.1232 15.5867C23.0581 15.2187 23.5672 14.9197 23.8942 14.7678C25.7573 13.9023 28.2412 13.5529 30.4097 13.7841Z" fill="black"/>
<path d="M13.9929 16.3316C13.9929 15.6983 14.5063 15.1849 15.1396 15.1849C15.7726 15.1849 16.2861 15.6983 16.2861 16.3316C16.2861 16.9646 15.7726 17.478 15.1396 17.478C14.5063 17.478 13.9929 16.9646 13.9929 16.3316Z" fill="black"/>
<path d="M29.8285 16.3316C29.8285 15.6983 30.3417 15.1849 30.9749 15.1849C31.6082 15.1849 32.1216 15.6983 32.1216 16.3316C32.1216 16.9646 31.6082 17.478 30.9749 17.478C30.3417 17.478 29.8285 16.9646 29.8285 16.3316Z" fill="black"/>
</svg>
