<svg width="1001" height="1001" viewBox="0 0 1001 1001" fill="none" xmlns="http://www.w3.org/2000/svg">
<path d="M500.1 1000.25C776.279 1000.25 1000.1 776.429 1000.1 500.25C1000.1 224.071 776.279 0.25 500.1 0.25C223.921 0.25 0.100098 224.071 0.100098 500.25C0.100098 776.429 224.021 1000.25 500.1 1000.25Z" fill="#EEEEEF"/>
<path d="M90.028 474.371C90.028 474.371 94.0248 469.075 100.819 460.781C103.117 457.984 105.615 454.886 108.513 451.589C121.603 433.104 136.191 416.217 152.878 401.629C155.276 399.53 157.674 397.532 160.172 395.534C174.86 383.943 190.847 372.952 209.133 365.058C212.653 363.623 216.299 362.519 220.024 361.761C223.377 361.078 226.795 360.776 230.216 360.861C282.774 363.359 331.735 324.69 381.095 307.004C394.984 302.008 410.771 289.219 426.259 273.331C427.958 271.533 429.756 269.734 431.455 267.936L437.15 259.842C440.548 254.846 443.845 249.95 447.242 245.054C448.941 242.556 450.54 240.158 452.238 237.66C468.625 213.979 483.613 188 505.595 169.015C484.313 159.722 461.331 158.223 438.349 155.026C434.288 154.472 430.436 152.89 427.158 150.43H427.058C425.119 149.025 423.002 147.883 420.763 147.032C395.384 137.04 347.422 155.226 300.959 179.007C298.961 180.006 297.062 181.005 295.164 182.004C288.569 186.001 282.274 190.098 276.079 194.195C273.981 195.594 271.982 196.992 269.884 198.391C267.586 200.19 265.288 202.088 263.089 203.887C260.891 205.685 258.493 207.484 256.195 209.283C254.396 210.781 252.598 212.38 250.699 213.779C248.801 215.178 246.902 216.677 245.004 218.076C227.818 229.167 210.831 239.159 191.547 246.553C189.149 247.752 186.851 248.951 184.552 250.15C175.251 255.072 166.676 261.259 159.073 268.535C156.848 270.679 154.746 272.948 152.778 275.33C148.271 280.364 144.035 285.634 140.088 291.117C138.793 292.899 137.625 294.768 136.591 296.713C123.901 314.199 115.907 335.182 107.414 355.366C106.215 358.164 105.016 360.961 103.917 363.759C94.2246 389.239 90.9272 417.016 90.7274 443.895C90.5276 447.192 90.3277 450.59 90.2278 453.987C90.028 460.632 89.928 467.476 90.028 474.371Z" fill="#F2956A" stroke="#E2815A" stroke-width="9" stroke-miterlimit="10"/>
<path d="M594.325 71.6929C593.908 75.7809 593.942 79.9023 594.425 83.983C594.976 87.9711 595.948 91.8897 597.322 95.6737C600.07 103.169 604.093 110.133 609.213 116.257C611.704 119.278 614.409 122.117 617.306 124.75C620.227 127.399 623.332 129.837 626.599 132.045C633.145 136.572 640.064 140.533 647.282 143.885C654.477 147.382 661.971 150.48 669.564 153.477L692.546 162.67C700.24 165.668 707.834 168.865 715.528 171.963C723.221 175.06 730.815 178.158 738.509 181.355L761.391 190.748L784.273 200.34C799.461 206.735 814.848 213.03 830.236 220.724C838.018 224.544 845.59 228.78 852.918 233.413C860.429 238.172 867.577 243.483 874.301 249.301C881.176 255.296 887.405 261.993 892.886 269.285C898.278 276.5 903.058 284.154 907.174 292.166C915.268 308.054 920.763 324.541 925.36 340.828C926.459 344.924 927.558 348.921 928.657 353.018L931.655 365.208C933.753 373.302 935.552 381.395 937.35 389.589C938.249 393.685 939.049 397.782 939.948 401.879L942.446 414.169C943.945 422.362 945.544 430.556 946.843 438.849C949.54 455.336 951.939 471.823 953.737 488.409C957.493 521.486 959.461 554.741 959.632 588.03C959.632 596.323 959.632 604.617 959.333 612.91L958.933 625.4L958.333 637.79C958.034 646.083 957.234 654.377 956.635 662.57C956.335 666.667 955.835 670.864 955.436 674.96C955.036 679.057 954.536 683.154 954.137 687.35C953.238 670.764 952.338 654.277 951.139 637.89L950.24 625.6L949.141 613.31C948.741 609.213 948.541 605.116 948.042 601.019L946.843 588.729C943.545 556.055 939.049 523.481 933.553 491.307C928.058 459.133 921.363 427.059 913.469 395.384C911.371 387.49 909.572 379.497 907.374 371.703L904.177 359.912C903.078 356.015 901.978 352.118 900.779 348.222C896.283 332.834 891.087 317.846 884.093 304.257C880.771 297.508 876.823 291.085 872.302 285.072C867.843 279.142 862.824 273.654 857.314 268.685C851.674 263.571 845.626 258.925 839.229 254.796C832.834 250.5 825.939 246.603 818.945 242.806C804.956 235.312 789.968 228.617 774.98 221.523L752.598 210.931L730.216 200.24C722.722 196.743 715.328 193.046 707.934 189.449C700.54 185.852 693.046 182.254 685.652 178.557C678.258 174.86 670.863 171.263 663.369 167.566C655.875 163.869 648.481 159.872 641.187 155.476C633.772 151.107 626.781 146.056 620.304 140.388C617.067 137.501 613.998 134.432 611.111 131.195C608.284 127.909 605.681 124.437 603.317 120.804C602.718 119.904 602.218 118.905 601.619 118.006C601.019 117.107 600.52 116.107 600.02 115.208C599.52 114.309 599.021 113.31 598.521 112.31L597.222 109.313C595.567 105.347 594.295 101.231 593.425 97.0226C592.609 92.8437 592.241 88.5897 592.326 84.3328C592.451 80.0515 593.123 75.8039 594.325 71.6929Z" fill="#646464"/>
<path d="M426.159 71.6929L426.958 74.9902C427.106 75.513 427.207 76.0481 427.258 76.5889L427.558 78.2876C427.674 78.8469 427.741 79.4153 427.758 79.9862L427.858 81.6849C427.991 82.8122 428.024 83.949 427.958 85.0822C427.958 86.1813 427.958 87.3803 427.858 88.4794L427.558 91.8767C427.304 94.1649 426.904 96.4344 426.359 98.6713C425.267 103.164 423.762 107.546 421.863 111.761C419.862 115.973 417.523 120.017 414.868 123.851C412.181 127.696 409.172 131.306 405.875 134.643C402.652 137.999 399.178 141.105 395.484 143.935C388.224 149.58 380.541 154.658 372.502 159.123C364.508 163.519 356.515 167.616 348.521 171.513L324.64 183.304L312.65 189.099L306.755 191.997C304.856 192.996 302.758 193.895 301.059 194.794C293.565 198.891 286.071 203.288 278.477 207.884L279.177 207.484C274.353 210.963 269.313 214.134 264.089 216.977L256.295 221.173L248.501 224.97L249.6 224.371C246.248 226.381 242.74 228.119 239.109 229.567C235.711 230.965 232.314 232.164 229.117 233.264C222.722 235.362 216.926 237.26 212.33 239.658L211.931 239.858L211.031 240.158L206.235 241.957L203.837 242.856L201.739 243.855L197.442 245.854L195.044 247.053L192.546 248.252C189.349 249.85 186.251 251.349 183.453 252.948C182.054 253.747 180.755 254.547 179.456 255.346L178.557 255.945L177.558 256.645L175.66 258.044C173.062 259.842 170.464 261.941 167.866 264.039C165.268 266.137 162.87 268.336 160.572 270.534C155.89 274.978 151.611 279.826 147.782 285.022C143.936 290.303 140.464 295.845 137.39 301.609C135.891 304.507 134.393 307.504 132.994 310.602L130.895 315.198C130.196 316.697 129.596 318.296 128.997 319.894C123.947 332.846 119.577 346.054 115.907 359.463L115.707 360.062L115.508 360.462L112.31 369.854C111.311 372.952 110.312 376.149 109.313 379.347C107.414 385.742 105.715 392.137 104.117 398.531C102.518 404.926 101.219 411.521 99.9201 418.016C98.6212 424.511 97.622 431.105 96.7227 437.7L96.6228 438.399V438.499C94.4245 448.691 92.4261 458.883 90.5276 469.075C89.5284 474.171 88.5292 479.267 87.7299 484.463C86.9305 489.658 85.9313 494.754 85.132 499.85L83.833 507.544L82.634 515.238L81.4349 522.932L80.3358 530.626L79.2367 538.32L78.2375 546.113C77.538 551.309 76.9385 556.505 76.339 561.601C73.841 582.284 71.7427 603.168 70.1439 624.051C68.5452 644.934 67.2463 665.917 66.1471 686.901C63.6491 666.017 62.0504 644.934 61.2511 623.851C60.4517 602.768 60.4517 581.585 61.1511 560.402C61.351 555.106 61.5508 549.81 61.8506 544.515L62.2503 536.621L62.7499 528.727L63.3494 520.834L64.0488 512.94L64.7483 505.046L65.5476 497.152C66.0472 491.857 66.7467 486.661 67.3462 481.365C67.9457 476.069 68.6451 470.874 69.3446 465.578C70.044 460.282 70.8434 455.086 71.6427 449.79C72.4421 444.495 73.3414 439.299 74.1407 434.103L74.0408 434.902C74.7403 427.908 75.5396 420.814 76.6387 413.819C77.7379 406.825 78.9369 399.83 80.4357 392.936C81.9345 386.041 83.5332 379.047 85.4317 372.252C86.331 368.855 87.3302 365.458 88.4293 362.061L91.7267 351.869L91.4269 352.868C95.0346 338.434 99.5738 324.249 105.016 310.402C105.715 308.703 106.315 306.905 107.114 305.106L109.413 299.81C110.909 296.251 112.611 292.781 114.508 289.419C118.171 282.467 122.381 275.818 127.098 269.535C131.83 263.156 137.149 257.235 142.986 251.849C145.883 249.151 148.881 246.553 151.879 244.255C154.876 241.957 157.874 239.559 161.271 237.36L163.769 235.662L164.968 234.862L166.267 234.063C168.066 232.964 169.764 231.965 171.563 231.065C175.06 229.167 178.557 227.568 181.755 225.969L186.551 223.671C188.349 222.872 190.248 222.073 192.146 221.173L194.944 219.974L197.642 219.075L203.038 217.276L201.739 217.876C208.933 214.479 215.827 212.58 222.022 210.682C225.12 209.782 228.018 208.883 230.715 207.884C233.273 207.005 235.747 205.902 238.11 204.587L238.909 204.187L239.209 204.087L246.603 200.889C249.001 199.79 251.399 198.691 253.697 197.492C258.358 195.166 262.894 192.598 267.286 189.798L267.886 189.399L267.986 189.299C275.879 185.202 283.773 180.905 292.266 177.009C294.564 175.909 296.563 175.21 298.661 174.311L304.956 171.813L317.346 166.817L342.126 156.925C350.42 153.627 358.613 150.53 366.507 146.933C370.504 145.134 374.401 143.336 378.197 141.437C381.994 139.539 385.691 137.34 389.289 135.042C392.894 132.783 396.364 130.314 399.68 127.648C402.935 124.959 406.006 122.055 408.873 118.955C414.614 112.618 419.181 105.31 422.362 97.3723C425.816 89.2817 427.124 80.4368 426.159 71.6929Z" fill="#646464"/>
<path d="M585.032 247.352C586.331 252.848 587.33 258.343 588.229 263.839C589.129 269.334 590.028 274.73 590.827 280.226C592.426 291.117 593.825 301.908 595.324 312.5C598.421 333.683 602.018 354.366 607.914 374.051C613.645 393.635 622.195 412.282 633.293 429.406C638.917 438.092 645.375 446.208 652.578 453.637C654.377 455.536 656.375 457.234 658.174 459.133C660.172 460.931 662.17 462.63 664.169 464.428C666.267 466.027 668.465 467.726 670.564 469.524C672.762 471.123 675.06 472.722 677.358 474.42C674.56 474.121 671.763 473.621 668.965 473.121C666.267 472.422 663.469 471.623 660.672 470.823C657.974 469.824 655.276 468.825 652.578 467.726C649.88 466.627 647.382 465.228 644.784 463.829C634.597 458.05 625.334 450.775 617.306 442.246C609.252 433.69 602.303 424.156 596.623 413.869C590.909 403.613 586.352 392.756 583.034 381.495C576.439 359.213 574.241 336.131 575.04 313.649C575.414 302.473 576.448 291.329 578.138 280.276C578.637 277.478 579.037 274.78 579.536 271.982C580.036 269.185 580.536 266.487 581.135 263.789C582.234 258.243 583.433 252.798 585.032 247.352Z" fill="#646464"/>
<path d="M414.569 248.551C416.867 253.647 418.865 258.743 420.664 263.939C422.462 269.135 424.161 274.331 425.76 279.526C428.874 290.112 431.278 300.894 432.954 311.801C434.707 322.87 435.509 334.068 435.352 345.274C435.201 356.772 433.861 368.224 431.355 379.447C428.763 390.849 424.699 401.866 419.265 412.22C413.786 422.548 406.854 432.037 398.681 440.398C390.638 448.632 381.451 455.665 371.403 461.281C370.204 461.981 368.905 462.58 367.606 463.279C366.307 463.979 365.108 464.578 363.809 465.078C361.211 466.177 358.613 467.376 356.015 468.275C350.773 470.21 345.35 471.616 339.828 472.472C344.125 468.975 348.421 465.678 352.318 462.08C356.215 458.483 360.112 454.886 363.709 451.189C365.508 449.291 367.306 447.492 368.905 445.494C369.704 444.495 370.604 443.595 371.403 442.596L373.801 439.598L375 438.1L376.199 436.601L378.497 433.603C379.197 432.604 379.996 431.505 380.696 430.506C381.452 429.513 382.153 428.479 382.794 427.408C388.32 419.26 393.038 410.592 396.883 401.529C400.701 392.487 403.71 383.124 405.876 373.551C410.372 354.267 411.771 333.983 412.37 313.1C412.67 302.608 412.77 292.017 412.87 281.225C412.97 275.829 413.07 270.434 413.27 264.938C413.869 259.542 414.069 254.047 414.569 248.551Z" fill="#646464"/>
<path d="M798.761 423.312C795.763 434.003 792.466 444.595 789.069 455.086C785.971 465.678 782.774 476.269 779.576 486.761C776.579 497.352 773.581 507.944 770.484 518.435C769.085 523.731 767.686 529.027 766.187 534.323C764.688 539.618 763.289 544.914 761.791 550.11C750.6 592.376 740.841 634.942 732.514 677.808C724.321 720.674 717.593 763.806 712.33 807.204C711.831 812.6 711.131 818.096 710.532 823.491C709.932 828.887 709.333 834.383 708.633 839.778L707.034 856.165L705.336 872.552C704.437 883.543 703.537 894.435 702.438 905.426C701.639 916.417 700.739 927.408 699.64 938.499C697.942 927.508 696.543 916.517 695.244 905.426C694.245 894.335 693.445 883.244 692.646 872.152L692.046 855.466L691.647 838.779C691.647 833.184 691.747 827.688 691.847 822.092C691.947 816.497 691.946 811.001 692.146 805.406C695.264 716.134 712.219 627.886 742.406 543.815C744.305 538.619 746.403 533.423 748.401 528.228C750.4 523.032 752.398 517.836 754.496 512.64C758.893 502.348 763.289 492.156 767.786 482.065C772.582 472.073 777.478 462.08 782.474 452.188C787.77 442.646 793.166 432.904 798.761 423.312Z" fill="#646464"/>
<path d="M213.829 404.527C217.826 415.218 221.523 426.01 225.12 436.801C228.717 447.592 232.015 458.484 235.312 469.375C238.409 480.266 241.507 491.257 244.505 502.249C246.003 507.744 247.402 513.24 248.801 518.736C250.2 524.231 251.599 529.727 252.998 535.322C263.589 579.487 272.282 624.251 279.077 669.215C285.871 714.179 290.768 759.443 293.665 804.807C294.065 810.502 294.265 816.198 294.564 821.793C294.864 827.389 295.164 833.184 295.364 838.779L295.863 855.866L296.263 872.952C296.363 884.343 296.363 895.734 296.163 907.125C295.963 918.516 295.564 929.906 294.864 941.297C292.666 930.106 290.768 918.915 288.969 907.724C287.17 896.533 285.272 885.342 283.573 874.151L280.875 857.365L278.377 840.578C277.478 834.982 276.679 829.387 275.78 823.791C274.88 818.196 274.081 812.6 273.282 807.005L253.298 673.112L233.014 539.119C232.114 533.524 231.315 527.928 230.416 522.333C229.517 516.737 228.717 511.142 227.918 505.546C226.119 494.355 224.521 483.164 222.922 471.973C221.323 460.782 219.624 449.591 218.126 438.3C216.627 427.009 215.028 415.918 213.829 404.527Z" fill="#646464"/>
<path d="M757.694 537.62C758.293 539.818 758.793 541.917 759.293 544.015C759.792 546.113 760.192 548.112 760.691 550.21C761.191 552.308 761.691 554.307 762.19 556.305C762.69 558.304 763.189 560.402 763.689 562.4L765.188 568.395C765.588 570.394 766.287 572.392 766.787 574.391C767.886 578.387 768.685 582.384 769.784 586.281C773.881 602.168 777.878 617.956 781.775 633.743C785.672 649.531 789.668 665.318 793.565 681.205C794.464 685.202 795.564 689.199 796.463 693.196C797.362 697.192 798.461 701.189 799.46 705.186C799.96 707.184 800.36 709.283 800.959 711.281C801.559 713.28 802.058 715.278 802.558 717.376C803.058 719.475 803.657 721.473 804.257 723.571C804.856 725.67 805.356 727.768 805.855 729.966C799.065 724.397 793.05 717.945 787.97 710.782C785.388 707.276 782.987 703.641 780.775 699.89C779.676 697.992 778.577 696.193 777.478 694.295C776.379 692.396 775.48 690.498 774.48 688.499C759.029 657.573 750.537 623.638 749.6 589.079C749.401 584.782 749.6 580.386 749.8 576.089C750 571.793 750.5 567.396 750.999 563.1C752.047 554.339 754.3 545.765 757.694 537.62Z" fill="#646464"/>
<path d="M257.894 562.4C258.393 564.499 258.793 566.697 259.193 568.795L259.692 571.993C259.892 573.092 259.892 574.091 260.092 575.19C260.592 579.487 260.891 583.783 260.991 588.08C261.191 592.376 261.191 596.673 261.091 600.87C261.091 602.968 260.991 605.166 260.891 607.265C260.791 609.363 260.592 611.461 260.492 613.659C259.183 630.522 256.408 647.238 252.198 663.619C248.067 680.108 242.379 696.167 235.212 711.581C234.313 713.48 233.413 715.478 232.414 717.376C231.415 719.275 230.416 721.173 229.317 723.072C228.217 724.97 227.218 726.869 226.119 728.667C225.02 730.466 223.821 732.364 222.522 734.163L220.723 736.861C220.148 737.767 219.514 738.635 218.825 739.459C217.426 741.157 216.127 742.956 214.728 744.555C214.029 745.354 213.329 746.253 212.63 747.053L210.332 749.451C208.733 750.95 207.234 752.548 205.536 753.947C205.935 751.749 206.435 749.651 206.935 747.552L207.734 744.455L208.333 741.357C209.133 737.261 210.132 733.264 210.931 729.167C211.331 727.169 211.731 725.17 212.23 723.172L213.429 717.077C213.829 715.078 214.329 713.08 214.728 711.081L216.027 705.086C219.425 689.099 223.122 673.212 227.218 657.324C231.315 641.437 235.612 625.65 240.608 609.862C241.907 605.966 243.106 601.969 244.504 598.072C245.204 596.073 245.903 594.175 246.603 592.177C247.302 590.178 248.002 588.28 248.701 586.281C250.2 582.384 251.599 578.388 253.197 574.391L255.596 568.396C256.141 566.32 256.912 564.309 257.894 562.4Z" fill="#646464"/>
<path d="M508.693 437.9C510.06 440.623 511.261 443.426 512.29 446.293C513.289 449.091 514.189 451.889 515.088 454.686C516.685 460.168 517.953 465.74 518.885 471.373C520.759 482.399 521.694 493.563 521.683 504.746C521.744 515.932 520.808 527.101 518.885 538.12C517.905 543.743 516.638 549.313 515.088 554.806C514.289 557.604 513.389 560.402 512.29 563.2C511.261 566.067 510.06 568.87 508.693 571.593C507.285 568.89 506.082 566.084 505.096 563.2C503.997 560.402 503.198 557.604 502.298 554.806C500.701 549.325 499.433 543.753 498.501 538.12C494.771 516.027 494.771 493.466 498.501 471.373C499.481 465.75 500.748 460.18 502.298 454.686C503.098 451.889 503.997 449.091 505.096 446.293C506.125 443.426 507.326 440.623 508.693 437.9Z" fill="#646464"/>
<path d="M500.899 691.697C502.33 696.061 503.531 700.496 504.496 704.986C505.596 709.383 506.395 713.879 507.294 718.275C508.893 727.168 510.192 736.061 511.191 744.854C514.954 780.254 515.055 815.948 511.491 851.369C510.592 860.262 509.293 869.155 507.694 878.048C506.894 882.444 505.995 886.941 504.996 891.337C504.031 895.827 502.83 900.263 501.399 904.626C499.9 900.23 498.801 895.734 497.702 891.337C496.603 886.941 495.703 882.444 494.904 878.048C493.305 869.155 492.006 860.262 491.007 851.469C489.046 833.785 488.078 816.004 488.109 798.212C488.061 780.424 488.962 762.646 490.807 744.954C491.707 736.061 493.006 727.168 494.604 718.275C495.404 713.879 496.303 709.383 497.302 704.986C498.301 700.59 499.5 696.093 500.899 691.697Z" fill="#646464"/>
<path d="M320.943 270.934C332.734 273.032 345.724 275.03 358.114 271.333C360.463 270.65 362.766 269.816 365.008 268.835C369.498 266.639 373.868 264.204 378.098 261.541C384.493 257.544 390.788 253.448 397.083 249.151C399.181 247.752 401.279 246.253 403.278 244.854C405.8 243.386 408.175 241.68 410.372 239.759C415.868 235.362 419.465 229.267 423.961 223.971C425.404 222.163 427.009 220.49 428.757 218.975C430.756 222.272 431.155 225.17 430.456 227.768C429.555 230.536 427.893 232.995 425.66 234.862C421.063 238.959 414.269 241.957 409.673 244.055C405.776 245.354 401.979 246.653 397.982 247.752C393.985 248.851 390.088 249.95 386.091 250.95C382.095 251.949 377.998 252.848 373.801 253.647C364.808 254.946 356.115 255.746 347.822 253.947C242.506 231.365 219.824 284.123 199.241 300.91C196.443 303.408 193.645 305.906 190.947 308.504C166.467 331.685 146.583 358.364 133.593 390.238C132.537 393.033 131.702 395.906 131.095 398.831C131.087 395.91 131.389 392.996 131.995 390.138C142.087 354.866 165.068 324.89 186.651 297.013L190.548 291.917C192.246 289.818 193.945 287.82 195.644 285.822C211.031 264.239 233.613 249.95 258.094 240.158C313.949 217.776 365.808 241.957 372.103 241.857C375.933 241.351 379.735 240.651 383.493 239.759C387.29 238.959 391.187 237.96 394.984 236.961C398.781 235.962 402.578 234.862 406.375 233.563C409.536 232.251 412.55 230.61 415.368 228.667C418.231 226.711 420.968 224.575 423.561 222.273C440.848 207.984 454.836 186.002 477.818 183.004C456.835 190.998 446.843 211.981 433.753 227.668C431.755 230.166 429.756 232.664 427.558 234.962C425.387 237.299 423.013 239.439 420.464 241.357C418.531 243.295 416.496 245.13 414.369 246.853C412.277 248.563 410.074 250.132 407.774 251.549C405.576 252.848 403.378 254.147 401.179 255.546C394.585 259.443 387.89 263.34 381.095 266.837C376.479 269.212 371.744 271.347 366.907 273.232C364.4 274.129 361.828 274.83 359.213 275.33C356.613 275.848 353.97 276.116 351.319 276.129C343.825 275.93 335.832 275.93 328.338 273.232C325.832 272.603 323.364 271.836 320.943 270.934Z" fill="#E2815A"/>
</svg>
