<svg width="1159" height="1159" viewBox="0 0 1159 1159" fill="none" xmlns="http://www.w3.org/2000/svg">
<path d="M579 1079C855.142 1079 1079 855.142 1079 579C1079 302.858 855.142 79 579 79C302.858 79 79 302.858 79 579C79 855.142 302.858 1079 579 1079Z" fill="#EEEEEF"/>
<path d="M585.023 326.738C587.829 377.003 589.354 427.275 590.421 477.549C591.486 527.822 592.066 578.098 592.16 628.376C592.277 678.653 591.853 728.932 590.887 779.212C590.606 791.783 590.417 804.353 590.057 816.923L588.928 854.633C588.453 867.201 587.98 879.774 587.395 892.341C586.736 904.904 586.23 917.493 585.023 930.028L584.819 920.594C584.749 917.458 584.593 914.309 584.484 911.168L583.863 892.316L582.672 854.613L581.707 816.911C581.37 804.343 581.206 791.776 580.946 779.209C580.027 728.939 579.519 678.668 579.424 628.396C579.328 578.124 579.693 527.85 580.517 477.574C581.324 427.298 582.557 377.021 585.023 326.738Z" fill="#646464"/>
<path d="M635.468 396.723C640.466 413.267 644.171 429.869 647.778 446.439C651.323 463.005 654.54 479.579 657.993 495.925C659.771 504.041 661.515 512.246 663.809 519.877L664.629 522.768C664.913 523.718 665.283 524.537 665.602 525.432C665.928 526.312 666.271 527.186 666.577 528.08C666.838 528.956 667.382 529.923 667.771 530.841C668.608 532.708 669.479 534.563 670.406 536.407C671.277 538.275 672.196 540.127 673.162 541.963C680.712 556.767 689.367 571.269 697.964 586.228C691.212 580.825 684.906 574.887 679.107 568.472C673.239 562.069 667.809 555.279 662.853 548.147C660.354 544.566 657.982 540.872 655.797 537.033C655.255 536.044 654.654 535.205 654.158 534.091C653.637 533.029 653.152 531.947 652.651 530.87C652.174 529.797 651.615 528.698 651.213 527.639L650.056 524.472C648.417 520.225 647.33 516.011 646.076 511.791C644.989 507.563 643.995 503.342 643.046 499.117C639.584 482.299 637.204 465.276 635.921 448.154C634.664 431.089 634.117 413.967 635.468 396.723Z" fill="#646464"/>
<path d="M362.674 1000.29C363.608 996.629 364.427 992.96 365.171 989.275C365.592 987.45 365.907 985.592 366.276 983.756C366.648 981.919 366.981 980.074 367.276 978.221C367.573 976.369 367.936 974.535 368.256 972.693L369.117 967.145C369.745 963.462 370.139 959.734 370.671 956.041C372.628 941.231 373.921 926.375 374.887 911.522C375.185 904.077 375.714 896.66 375.779 889.214C375.857 885.495 376.035 881.781 376.031 878.061L376.037 866.904L376.043 861.327L375.881 855.75L375.636 844.596L374.582 822.302L374.555 821.742L374.587 821.366C375.654 808.898 376.817 796.436 378.076 783.983C379.339 771.53 380.708 759.085 382.181 746.649C383.647 734.212 385.264 721.788 387.03 709.375C388.811 696.963 390.652 684.557 392.915 672.184C393.172 684.759 393.009 697.301 392.784 709.837C392.551 722.373 392.162 734.897 391.617 747.407C391.1 759.921 390.463 772.424 389.707 784.918C388.954 797.412 388.112 809.899 387.18 822.379L387.186 821.443C387.571 829.028 388.112 836.608 388.312 844.202L388.48 855.598L388.525 861.296L388.395 866.995L388.085 878.389C387.949 882.185 387.631 885.977 387.413 889.769C386.998 897.355 386.116 904.915 385.32 912.465C383.485 927.547 380.776 942.509 377.205 957.277C373.453 971.966 369.162 986.599 362.674 1000.29Z" fill="#646464"/>
<path d="M347.074 474.111C354.715 504.617 361.855 535.13 368.898 565.632C375.95 596.128 382.909 626.604 390.101 656.978C397.271 687.352 404.553 717.67 412.68 747.653C416.68 762.658 420.966 777.54 425.539 792.301C430.23 806.983 435.162 821.574 441.147 835.417L442.546 838.652L441.683 841.62L430.183 881.174L418.495 920.708L406.651 960.213C402.684 973.381 398.642 986.533 394.81 999.762L394.826 999.662C393.95 1004.16 393.1 1008.65 392.159 1013.14C392.226 1008.56 392.384 1003.98 392.516 999.405L392.531 999.306C394.125 985.573 396.226 971.915 398.519 958.305C400.857 944.703 403.385 931.145 406.103 917.63C408.791 904.108 411.637 890.625 414.642 877.181C417.616 863.723 420.72 850.297 423.955 836.902L424.491 843.105C417.663 828.591 411.721 813.677 406.697 798.445C401.595 783.394 397.207 768.19 393.015 752.965C388.931 737.709 385.1 722.422 381.666 707.054C379.922 699.376 378.238 691.689 376.613 683.994C375.046 676.287 373.451 668.585 371.96 660.869C366.004 629.995 360.918 598.993 356.7 567.864C352.498 536.741 349.026 505.511 347.074 474.111Z" fill="#646464"/>
<path d="M810.229 1006.34C803.538 992.071 798.369 977.154 793.622 962.122C788.972 947.054 785.068 931.765 781.91 916.256C780.309 908.518 778.962 900.726 777.713 892.914C776.554 885.09 775.468 877.246 774.686 869.364C774.28 865.425 773.916 861.481 773.596 857.531C773.332 853.577 773.029 849.625 772.859 845.663C772.386 837.747 772.316 829.808 772.283 821.873L772.304 822.379C771.365 809.899 770.523 797.412 769.776 784.918C769.035 772.423 768.398 759.919 767.866 747.407C767.327 734.896 766.938 722.373 766.699 709.837C766.475 697.301 766.311 684.759 766.569 672.184C768.831 684.557 770.673 696.963 772.453 709.375C774.225 721.787 775.841 734.212 777.302 746.649C778.79 759.084 780.158 771.529 781.407 783.983C782.66 796.437 783.823 808.898 784.896 821.366L784.914 821.579L784.916 821.873C785.03 837.326 785.751 852.785 786.992 868.224C788.268 883.661 790.014 899.073 792.23 914.46C794.463 929.836 797.076 945.182 800.07 960.498C801.553 968.158 803.125 975.812 804.843 983.442C805.672 987.266 806.541 991.083 807.452 994.894C808.323 998.718 809.269 1002.52 810.229 1006.34Z" fill="#646464"/>
<path d="M648.632 112.742C647.822 122.868 647.384 133 647.371 143.117C647.326 153.227 647.623 163.326 648.56 173.323C649.383 183.243 651.026 193.077 653.471 202.726C654.677 207.422 656.286 212.004 658.281 216.423C660.142 220.661 662.594 224.615 665.564 228.166C666.354 228.983 666.988 229.767 667.882 230.618L670.563 233.178L673.247 235.73L676.032 238.19C677.877 239.84 679.737 241.472 681.678 243.023C683.604 244.587 685.476 246.206 687.474 247.688C695.296 253.803 703.455 259.476 711.913 264.678C720.364 269.866 728.989 274.751 737.858 279.054C746.666 283.319 755.745 286.998 765.037 290.067C769.603 291.568 774.241 292.838 778.935 293.874C781.292 294.317 783.521 294.836 785.974 295.229L793.421 296.396C803.484 297.926 814.067 299.83 824.482 303.252C835.105 306.664 845.086 311.819 854.017 318.508C858.468 321.872 862.652 325.577 866.531 329.59C870.315 333.595 873.833 337.842 877.064 342.305C883.345 351.095 888.715 360.502 893.089 370.38C897.43 380.023 901.122 389.946 904.139 400.082L905.301 403.843L906.327 407.628C906.998 410.153 907.711 412.673 908.345 415.203C909.509 420.276 910.829 425.333 911.801 430.427L913.364 438.057L914.722 445.704C915.682 450.786 916.389 455.939 917.146 461.079C922.821 502.269 922.633 543.657 919.972 584.542C917.244 625.458 911.684 665.957 905.365 706.098C902.251 726.166 898.875 746.18 896.213 766.061C895.872 768.548 895.557 771.03 895.289 773.501L894.862 777.216L894.526 780.908C894.05 785.73 893.833 790.573 893.875 795.418L894.043 798.86C894.158 799.95 894.34 800.969 894.469 802.036L895.819 809.768C896.529 814.942 897.231 820.085 897.6 825.208C898.493 835.464 898.909 845.664 899.248 855.858C899.536 866.051 899.747 876.227 899.672 886.403C899.636 896.577 899.506 906.744 899.28 916.904C898.972 927.065 898.677 937.222 898.113 947.369C897.491 937.226 896.923 927.092 896.197 916.967C895.556 906.841 894.832 896.726 894.026 886.621C892.348 866.44 890.731 846.208 887.662 826.393C886.954 821.427 886.064 816.544 885.118 811.712L883.457 804.528C883.172 803.093 882.847 801.622 882.624 800.201L882.189 796.058C881.844 790.763 881.786 785.454 882.017 780.154L882.16 776.251L882.391 772.386C882.53 769.801 882.715 767.234 882.925 764.678C883.701 754.432 884.817 744.288 885.954 734.175L889.486 703.918C894.24 663.671 898.747 623.553 900.671 583.417C901.643 563.359 902.097 543.313 901.562 523.345C901.198 503.445 899.661 483.584 896.959 463.865C896.256 458.964 895.608 454.06 894.701 449.168L893.43 441.826L891.966 434.541C891.058 429.662 889.824 424.894 888.744 420.073C888.155 417.681 887.492 415.316 886.871 412.936L885.929 409.37L884.884 405.85C882.227 396.497 878.946 387.333 875.062 378.419C871.304 369.694 866.715 361.35 861.359 353.503C858.716 349.691 855.829 346.054 852.716 342.615C849.603 339.269 846.238 336.168 842.649 333.339C835.414 327.69 827.312 323.252 818.657 320.197C809.861 317.02 800.444 315.045 790.518 313.194L782.974 311.737C780.433 311.238 777.733 310.536 775.126 309.938C769.954 308.606 764.852 307.015 759.839 305.17C739.938 297.836 721.626 287.636 704.596 275.78C696.067 269.874 687.874 263.496 680.058 256.675C678.067 255.019 676.189 253.216 674.268 251.475C672.334 249.748 670.475 247.932 668.633 246.096L665.858 243.362L663.175 240.521L660.501 237.675C659.612 236.721 658.695 235.488 657.807 234.405C654.542 229.936 651.929 225.025 650.048 219.82C648.199 214.843 646.783 209.716 645.814 204.496C643.909 194.31 642.95 183.969 642.949 173.606C642.862 153.182 644.765 132.797 648.632 112.742V112.742Z" fill="#646464"/>
<path d="M810.229 449.919C809.603 482.87 807.383 515.722 804.333 548.488C801.261 581.254 797.262 613.931 792.335 646.519C787.393 679.101 781.367 711.554 773.877 743.806C771.969 751.862 769.965 759.906 767.866 767.937C765.725 775.957 763.43 783.954 760.981 791.926C758.551 799.906 755.865 807.836 752.925 815.717C749.993 823.605 746.784 831.446 743.011 839.166L743.435 832.736C747.778 848.067 751.586 863.316 755.191 878.716C756.949 886.415 758.663 894.123 760.276 901.855C761.848 909.597 763.376 917.348 764.772 925.125C767.525 940.688 769.921 956.33 771.503 972.078C773.008 987.815 774.007 1003.69 772.932 1019.44L772.229 1013.58L771.415 1007.75C770.813 1003.87 770.155 1000.01 769.466 996.158C768.09 988.453 766.461 980.803 764.721 973.181C761.247 957.937 757.382 942.796 753.24 927.727C749.115 912.656 744.785 897.643 740.252 882.689C735.769 867.749 731.081 852.765 726.263 838.062L725.257 834.992L726.687 831.632C729.751 824.431 732.503 816.965 735.052 809.388C737.593 801.805 739.875 794.086 742.113 786.334C744.335 778.577 746.384 770.744 748.348 762.876C750.352 755.019 752.261 747.127 754.076 739.198C761.42 707.504 767.711 675.454 773.921 643.354C786.27 579.111 797.355 514.512 810.229 449.919Z" fill="#646464"/>
<path d="M547.727 388.226C549.077 405.47 548.531 422.591 547.274 439.656C545.99 456.779 543.611 473.801 540.149 490.619C539.2 494.844 538.206 499.066 537.119 503.293C535.865 507.513 534.778 511.727 533.139 515.975L531.983 519.141C531.58 520.2 531.021 521.3 530.544 522.373C530.043 523.449 529.558 524.531 529.037 525.593C528.541 526.707 527.94 527.547 527.398 528.535C525.213 532.374 522.841 536.069 520.342 539.65C515.386 546.782 509.956 553.572 504.088 559.974C498.289 566.39 491.983 572.328 485.231 577.73C493.828 562.771 502.483 548.269 510.033 533.466C510.995 531.628 511.914 529.776 512.789 527.91C513.715 526.066 514.587 524.21 515.424 522.344C515.813 521.425 516.357 520.458 516.618 519.582C516.924 518.688 517.267 517.814 517.593 516.934C517.912 516.039 518.282 515.221 518.566 514.271L519.386 511.379C521.68 503.748 523.424 495.544 525.202 487.428C528.655 471.081 531.872 454.508 535.418 437.941C539.024 421.371 542.729 404.769 547.727 388.226Z" fill="#646464"/>
<path d="M247.696 502.335C247.696 502.335 295.138 422.703 336.971 424.719C378.803 426.735 417.107 438.756 456.419 424.681C495.731 410.607 540.084 337.741 540.084 337.741C540.084 337.741 489.792 342.181 453.395 315.855C416.999 289.528 340.045 307.159 313.56 324.107C287.074 341.055 246.02 416.876 247.696 502.335Z" fill="#F2956A"/>
<path d="M419.821 383.774C424.767 384.899 429.798 385.612 434.862 385.906C439.858 386.234 444.875 386.066 449.839 385.406C454.691 384.763 459.426 383.432 463.903 381.454C468.384 379.272 472.744 376.849 476.962 374.194C485.514 368.883 493.928 363.253 502.214 357.436C510.467 351.579 518.773 345.72 526.865 339.708L531.421 348.157C523.787 351.259 516.211 354.045 508.469 356.658C500.724 359.197 492.889 361.525 484.906 363.522C476.803 365.625 468.545 367.076 460.21 367.86C455.746 368.26 451.251 368.17 446.806 367.593C442.43 366.857 438.143 365.665 434.015 364.037C426.177 361.141 418.88 357.857 411.506 354.962C404.28 352.027 396.901 349.483 389.401 347.339C382.13 345.279 374.648 344.047 367.099 343.667C365.251 343.626 363.399 343.564 361.571 343.686C359.726 343.704 357.923 343.955 356.106 344.136C348.908 345.103 341.956 347.417 335.615 350.958C334.09 351.957 332.489 352.838 331.011 353.926C329.564 355.061 328.005 356.039 326.653 357.321C320.907 362.387 315.681 368.016 311.056 374.123C301.396 386.371 293.254 400.066 285.814 414.119C278.302 428.162 271.65 442.727 265.302 457.45C259.073 472.224 253.119 487.16 247.696 502.335C249.394 494.454 251.377 486.628 253.569 478.862C254.651 474.974 255.787 471.101 256.944 467.23C258.129 463.37 259.374 459.527 260.636 455.687C265.686 440.281 271.568 425.159 278.254 410.389C284.956 395.412 293.058 381.102 302.454 367.651C307.36 360.787 312.947 354.435 319.129 348.692C320.67 347.168 322.481 345.914 324.17 344.534C325.896 343.194 327.788 342.051 329.603 340.814C333.395 338.534 337.4 336.626 341.56 335.119C349.88 332.203 358.67 330.861 367.48 331.164C371.782 331.27 376.071 331.684 380.314 332.404C384.493 333.09 388.634 333.989 392.721 335.098C408.957 339.381 423.931 346.653 438.401 352.321C441.736 353.708 445.206 354.744 448.755 355.41C452.289 355.883 455.862 355.996 459.418 355.747C467.125 355.228 474.779 354.096 482.306 352.362C489.982 350.669 497.64 348.63 505.248 346.371C512.85 344.158 520.513 341.764 527.914 339.142L564.4 326.218L532.47 347.591C523.93 353.308 515.398 358.883 506.634 364.189C497.876 369.486 489.066 374.718 479.91 379.441C475.294 381.839 470.55 383.982 465.699 385.86C460.696 387.635 455.446 388.621 450.14 388.781C439.805 389.09 429.508 387.39 419.821 383.774V383.774Z" fill="#E2815A"/>
<path d="M361.719 1037.44C362.676 1033.69 363.515 1029.93 364.278 1026.15C364.71 1024.28 365.032 1022.38 365.41 1020.49C365.791 1018.61 366.133 1016.72 366.435 1014.82C366.739 1012.92 367.111 1011.05 367.44 1009.16L368.323 1003.47C368.965 999.697 369.369 995.876 369.915 992.091C371.921 976.912 373.246 961.686 374.236 946.463C374.541 938.833 375.084 931.232 375.15 923.6C375.23 919.789 375.412 915.982 375.409 912.17L375.414 900.735L375.42 895.019L375.255 889.303L375.003 877.872L373.923 855.024L373.896 854.45L373.929 854.065C375.022 841.285 376.214 828.514 377.504 815.751C378.799 802.988 380.201 790.233 381.712 777.488C383.214 764.742 384.87 752.008 386.681 739.286C388.506 726.565 390.393 713.85 392.712 701.169C392.976 714.058 392.808 726.911 392.578 739.76C392.339 752.608 391.941 765.443 391.382 778.265C390.852 791.089 390.199 803.904 389.424 816.709C388.653 829.514 387.79 842.312 386.834 855.102L386.84 854.143C387.235 861.917 387.79 869.685 387.995 877.468L388.167 889.148L388.213 894.988L388.08 900.829L387.762 912.506C387.622 916.397 387.297 920.283 387.073 924.17C386.648 931.945 385.744 939.692 384.928 947.43C383.048 962.887 380.271 978.222 376.611 993.357C372.766 1008.41 368.368 1023.41 361.719 1037.44Z" fill="#646464"/>
<path d="M243.281 519.002L242.955 502.428C241.288 417.516 281.466 339.014 311.003 320.113C339.493 301.882 418.199 284.543 456.175 312.012C490.657 336.955 539.179 333.058 539.67 333.017L549.001 332.205L544.135 340.207C542.287 343.241 498.444 414.673 458.018 429.146C428.84 439.594 400.922 436.268 371.366 432.747C360.113 431.407 348.478 430.021 336.741 429.456C298.182 427.574 252.23 503.992 251.77 504.763L243.281 519.002ZM400.873 307.121C368.594 307.121 333.198 317.171 316.115 328.101C294.447 341.967 255.987 406.799 252.625 486.068C268.76 462.711 303.929 418.358 337.198 419.982C349.268 420.564 361.072 421.97 372.487 423.329C400.907 426.714 427.747 429.91 454.82 420.217C484.825 409.475 518.826 361.515 531.206 342.791H531.161C514.491 342.791 478.859 340.127 450.616 319.697C438.139 310.671 420.054 307.121 400.873 307.121H400.873Z" fill="#E2815A"/>
<path d="M510.851 112.742C514.718 132.797 516.621 153.182 516.534 173.606C516.533 183.969 515.574 194.31 513.669 204.496C512.7 209.716 511.283 214.843 509.435 219.82C507.554 225.025 504.941 229.936 501.676 234.405C500.788 235.488 499.871 236.721 498.982 237.675L496.309 240.521L493.625 243.362L490.85 246.096C489.008 247.932 487.148 249.748 485.215 251.475C483.294 253.216 481.416 255.019 479.425 256.675C471.609 263.496 463.416 269.875 454.887 275.78C437.857 287.636 419.544 297.836 399.644 305.17C394.631 307.015 389.529 308.606 384.357 309.938C381.75 310.536 379.05 311.238 376.509 311.737L368.966 313.194C359.039 315.045 349.622 317.02 340.826 320.197C332.171 323.252 324.069 327.69 316.834 333.339C313.245 336.168 309.879 339.269 306.767 342.615C303.654 346.054 300.767 349.691 298.124 353.503C292.768 361.35 288.179 369.694 284.421 378.419C280.538 387.333 277.256 396.497 274.599 405.85L273.554 409.37L272.612 412.936C271.991 415.316 271.329 417.681 270.739 420.073C269.659 424.894 268.424 429.662 267.517 434.541L266.053 441.826L264.782 449.168C263.875 454.06 263.227 458.964 262.523 463.865C259.822 483.584 258.285 503.445 257.921 523.345C257.386 543.313 257.84 563.359 258.813 583.417C260.736 623.553 265.243 663.671 269.997 703.918L273.529 734.175C274.666 744.288 275.782 754.432 276.558 764.678C276.768 767.234 276.953 769.801 277.092 772.385L277.323 776.251L277.466 780.154C277.697 785.454 277.639 790.763 277.294 796.058L276.859 800.2C276.637 801.622 276.311 803.093 276.026 804.528L274.365 811.712C273.419 816.544 272.528 821.427 271.821 826.393C268.753 846.208 267.135 866.44 265.457 886.621C264.638 896.723 263.914 906.838 263.286 916.967C262.56 927.092 261.991 937.226 261.37 947.369C260.806 937.222 260.511 927.065 260.203 916.904C259.965 906.743 259.834 896.576 259.811 886.403C259.736 876.227 259.947 866.051 260.235 855.858C260.574 845.664 260.991 835.464 261.883 825.208C262.252 820.085 262.954 814.942 263.664 809.768L265.014 802.036C265.143 800.969 265.325 799.95 265.44 798.86L265.608 795.418C265.65 790.573 265.433 785.73 264.957 780.908L264.621 777.216L264.194 773.501C263.926 771.029 263.611 768.548 263.27 766.061C260.608 746.18 257.232 726.166 254.118 706.098C247.799 665.957 242.238 625.458 239.511 584.542C236.85 543.657 236.662 502.269 242.337 461.079C243.093 455.939 243.801 450.786 244.761 445.704L246.119 438.057L247.682 430.427C248.654 425.333 249.974 420.276 251.138 415.203C251.772 412.673 252.485 410.153 253.156 407.628L254.181 403.843L255.344 400.082C258.361 389.946 262.053 380.023 266.394 370.38C270.768 360.502 276.137 351.095 282.419 342.305C285.65 337.842 289.168 333.594 292.952 329.59C296.831 325.577 301.015 321.872 305.466 318.508C314.397 311.819 324.378 306.664 335 303.252C345.416 299.83 355.999 297.926 366.062 296.396L373.509 295.229C375.962 294.836 378.19 294.317 380.548 293.874C385.242 292.838 389.88 291.568 394.446 290.067C403.738 286.998 412.817 283.319 421.625 279.054C430.494 274.751 439.119 269.866 447.57 264.678C456.028 259.476 464.187 253.803 472.009 247.688C474.006 246.206 475.879 244.587 477.806 243.023C479.746 241.472 481.606 239.84 483.451 238.19L486.236 235.73L488.92 233.178L491.601 230.618C492.495 229.767 493.128 228.983 493.918 228.166C496.889 224.615 499.341 220.661 501.202 216.423C503.197 212.004 504.806 207.422 506.012 202.726C508.457 193.077 510.1 183.243 510.923 173.323C511.859 163.326 512.157 153.227 512.112 143.117C512.099 133 511.661 122.868 510.851 112.742Z" fill="#646464"/>
</svg>
