<svg width="1000" height="1000" viewBox="0 0 1000 1000" fill="none" xmlns="http://www.w3.org/2000/svg">
<path d="M500.005 1000C776.15 1000 1000 776.19 1000 500.005C1000 223.82 776.15 0 500.005 0C223.86 0 0 223.86 0 500.005C0 776.15 223.86 1000 500.005 1000Z" fill="#EEEEEF"/>
<path d="M81.7704 259.56C81.7704 259.56 131.318 261.558 144.087 276.545C156.857 291.532 189.399 301.474 189.399 301.474C189.399 301.474 226.447 312.335 234.71 316.331C242.973 320.328 248.579 310.536 248.579 310.536L225.198 360.434L200.829 404.396L186.451 455.853L182.894 500.325L181.046 534.466L178.518 575.191L174.941 607.374L146.965 615.297L51.7559 644.752C51.7559 644.752 30.9836 632.533 23.7097 539.671C16.5958 448.689 15.1271 428.596 81.7704 259.56Z" fill="#F39469"/>
<path d="M248.578 316.341C244.936 328.543 239.883 340.279 233.521 351.311C227.197 362.371 220.282 372.922 214.437 383.893C208.629 394.855 203.805 406.31 200.02 418.124C198.135 424.026 196.423 429.997 194.884 436.039C194.185 439.036 193.385 442.084 192.736 445.141C192.406 446.65 192.036 448.208 191.737 449.677L191.327 451.865L190.977 454.123C190.078 460.118 189.489 466.423 188.979 472.668C188.469 478.912 187.98 485.187 187.48 491.462C186.541 504.031 185.722 516.63 184.673 529.22C184.163 535.514 183.674 541.819 183.104 548.114C182.534 554.408 181.915 560.713 181.236 567.007C180.556 573.302 179.777 579.577 178.778 585.841C178.298 588.979 177.779 592.106 177.179 595.224C176.58 598.341 175.89 601.448 174.951 604.476C175.83 598.211 176.14 591.916 176.43 585.612C176.719 579.307 176.919 573.012 177.049 566.708L178.048 528.86C178.348 516.204 178.811 503.568 179.437 490.952C180.137 478.293 180.826 465.694 182.614 452.845L183.004 450.427L183.484 447.959C183.813 446.34 184.183 444.831 184.483 443.253C185.172 440.135 185.982 437.038 186.761 433.941C188.449 427.756 190.258 421.601 192.386 415.546C196.607 403.37 202.092 391.669 208.752 380.636C212.083 375.141 215.57 369.812 219.213 364.65C222.86 359.464 226.527 354.348 230.044 349.153C233.561 343.957 236.928 338.682 240.036 333.226C243.143 327.771 245.941 322.086 248.578 316.341Z" fill="#646464"/>
<path d="M199.88 607.184C205.095 606.694 210.421 607.314 216.326 607.434C212.829 611.95 213.398 615.926 215.936 619.303C220.353 625.158 226.417 624.089 232.582 621.981C231.013 626.467 229.844 630.664 231.063 635.09C232.382 639.886 235.21 641.964 240.106 641.225C242.913 640.805 245.611 639.666 248.529 638.797C249.698 644.202 253.384 647.34 259.17 647.37C261.797 647.37 264.845 646.93 266.963 645.551C271.473 642.697 275.649 639.345 279.412 635.56C284.068 630.744 288.015 625.238 292.261 620.033C293.021 619.104 293.56 618.314 295.129 619.104C301.204 622.101 307.259 625.278 313.553 627.826C332.897 635.64 352.22 643.473 372.683 648.129C388.869 651.816 404.926 656.072 420.972 660.289C425.448 661.458 429.715 663.406 434.61 665.194C431.773 685.867 409.931 701.733 392.017 711.575C372.034 722.566 348.773 725.873 327.322 733.486C313.144 738.482 299.136 744.107 285.307 750.012C278.002 752.985 271.743 758.058 267.323 764.59C266.423 765.979 265.714 768.587 266.413 769.696C267.712 771.754 270.12 770.775 272.059 769.826C273.997 768.876 276.055 767.697 278.143 766.828C288.694 762.182 299.026 756.956 309.866 753.13C331.668 745.416 353.719 738.422 375.7 731.228C394.804 724.994 408.972 712.055 426.178 701.394C434.351 696.328 440.565 676.865 448.888 672.039C449.804 671.541 450.87 671.396 451.886 671.629C470.67 677.214 489.634 677.534 508.757 673.807C512.524 673.078 516.211 672.039 519.009 669.151C522.006 666.044 520.827 661.637 516.611 660.818C514.47 660.466 512.292 660.409 510.136 660.648C502.822 661.278 495.529 662.647 488.225 662.647C473.807 662.647 459.929 659.419 446.62 653.974C428.586 646.499 409.862 640.81 390.718 636.988C375.481 633.991 360.314 630.824 345.546 625.878C334.286 622.091 322.865 618.774 311.515 615.277C307.518 614.038 303.432 612.879 299.215 611.63C308.897 598.961 318.279 586.471 327.911 574.172C334.703 565.512 342.792 557.952 351.891 551.761C353.02 550.992 354.199 550.302 355.598 549.423C355.138 559.314 354.139 568.457 350.602 577.399C347.499 585.222 346.533 593.729 347.804 602.048C348.853 609.042 352.8 615.766 361.513 616.196C362.195 616.321 362.815 616.673 363.271 617.195C364.146 618.193 365.303 618.901 366.59 619.226C367.876 619.551 369.231 619.477 370.475 619.014C373.213 618.164 374.032 616.016 374.541 613.408C375.471 608.692 376.08 603.837 377.689 599.35C382.295 586.561 387.051 573.802 392.246 561.233C399.53 543.618 404.636 525.583 404.396 506.34C404.166 487.825 402.198 469.551 396.593 451.806C393.388 441.656 391.962 431.028 392.376 420.393C392.676 412.319 392.966 404.226 392.886 396.153C392.736 379.347 392.037 362.542 392.127 345.736C392.206 331.398 393.845 305.77 394.375 291.462C394.534 287.166 394.544 287.136 398.581 286.017C409.342 283.019 420.093 280.022 431.393 279.802C445.012 279.562 458.64 279.312 472.258 278.863C476.873 278.767 481.471 278.262 485.997 277.354C487.902 277.023 489.663 276.12 491.044 274.766C492.425 273.412 493.362 271.67 493.73 269.771C494.539 266.084 492.151 263.426 488.425 264.025C487.086 264.235 478.813 267.263 475.895 267.592C465.604 268.751 455.273 269.461 444.982 270.54C434.331 271.669 423.66 272.678 413.109 274.407C407.184 275.406 401.489 277.714 395.414 279.512C395.783 274.646 395.304 280.951 395.773 276.025C397.638 256.489 399.544 236.962 401.489 217.445C402.408 208.313 403.537 199.211 404.486 190.088C404.556 189.389 403.906 188.63 403.587 187.9C403.087 188.51 402.288 189.069 402.148 189.759C401.349 193.755 400.749 197.802 399.99 201.818C391.997 244.132 385.003 286.596 382.565 329.71C381.745 344.297 381.506 358.935 381.196 373.552C380.936 386.262 380.946 398.981 380.816 411.69C380.716 422.041 380.147 432.422 382.555 442.664C385.952 457.141 389.549 471.569 392.776 486.107C397.842 509.197 396.113 531.368 384.633 552.68C375.256 569.828 368.283 588.185 363.911 607.234C363.759 607.71 363.559 608.169 363.311 608.603C359.264 608.403 356.946 606.874 355.787 603.297C355.18 601.399 354.844 599.424 354.788 597.432C354.598 590.058 356.367 583.004 358.895 576.16C362.439 567.052 363.259 557.11 361.253 547.544C360.883 545.826 361.313 545.087 362.422 543.908C366.308 539.761 370.335 535.655 373.562 531.008C374.971 529.01 374.851 525.683 374.831 523.015C374.709 522.337 374.416 521.701 373.981 521.166C373.546 520.631 372.983 520.216 372.343 519.958C371.344 519.758 369.925 521.057 368.996 522.006C368.257 522.93 367.698 523.984 367.348 525.114C365.699 529.226 363.043 532.857 359.624 535.675C356.187 538.492 352.687 541.23 349.123 543.888C344.827 547.095 340.261 549.952 336.134 553.35C324.534 562.921 315.701 574.941 306.889 586.991C296.268 601.509 285.577 615.966 274.516 630.164C271.579 633.931 267.522 636.988 263.446 639.656C258.81 642.724 253.634 640.565 251.816 635.24C252.655 634.614 253.431 633.908 254.134 633.132C259.989 625.498 265.884 617.885 271.589 610.151C283.928 593.415 295.419 576.04 309.227 560.394C311.74 557.294 313.792 553.848 315.322 550.162C316.146 548.476 316.544 546.613 316.482 544.737C316.419 542.861 315.897 541.029 314.962 539.401C314.463 538.522 313.194 537.483 312.354 537.553C311.168 537.847 310.126 538.556 309.417 539.551C308.909 540.411 308.602 541.374 308.518 542.369C307.242 548.534 304.364 554.255 300.175 558.955C295.968 563.731 291.642 568.437 287.945 573.592C276.695 589.349 265.704 605.365 254.483 621.272C251.036 626.188 247.669 631.203 242.174 634.151C237.878 636.449 235.38 635.04 235.04 630.154C235 629.519 235.041 628.881 235.16 628.256C235.999 623.13 237.368 618.474 241.315 614.478C248.359 607.334 252.215 598.042 256.652 589.199C264.545 573.472 271.589 557.296 282.07 542.978C284.068 540.241 285.267 536.893 286.666 533.756C287.336 532.237 287.665 530.499 285.737 529.46C283.809 528.421 282.739 529.46 281.74 530.779C278.623 534.775 275.226 538.622 272.548 542.898C262.727 558.545 254.923 575.241 247.25 592.007C244.022 599.001 240.565 606.055 234.7 611.28C232.322 613.398 228.945 614.478 225.888 615.697C225.128 615.996 223.73 615.147 222.89 614.488C222.661 614.318 223.33 612.839 223.74 612.05C225.069 609.472 226.737 607.054 227.806 604.376C229.635 599.93 231.173 595.384 232.802 590.838C238.147 575.79 242.793 560.463 252.285 547.245C254.603 543.997 256.642 540.55 258.81 537.193C261.807 532.517 264.545 527.701 265.324 522.056C265.634 519.818 265.614 517.61 263.456 516.201C261.298 514.792 259.17 515.572 257.461 517.1C251.746 522.256 245.961 527.362 240.475 532.787C231.913 541.3 223.22 549.773 216.496 559.914C214.926 562.14 213.006 564.097 210.811 565.709C209.359 566.786 207.62 567.405 205.815 567.487C204.616 567.487 203.197 566.488 202.258 565.489C201.958 565.189 202.767 563.611 203.257 562.732C209.702 551.681 216.386 540.75 222.561 529.58C226.048 523.235 228.376 516.251 231.833 509.896C240.625 493.74 252.965 480.392 266.463 468.122C276.815 458.71 287.276 449.398 298.007 440.436C310.176 430.284 314.213 417.455 311.845 402.218C311.025 396.932 310.026 391.647 309.497 386.331C308.218 373.582 307.169 360.823 306.03 348.064C304.271 328.351 302.313 308.638 300.824 288.894C299.525 271.599 298.896 254.254 297.707 236.938C296.518 219.623 295.159 202.378 293.68 185.083C293.6 184.083 292.681 183.224 292.181 182.305C291.792 183.164 291.062 184.033 291.072 184.893C291.162 203.247 291.072 221.602 291.572 239.936C292.042 257.551 293.131 275.146 293.86 292.751C293.83 293.222 293.69 293.679 293.45 294.085C293.211 294.491 292.879 294.835 292.481 295.089C289.474 296.367 286.348 297.344 283.149 298.007C269.451 300.265 255.772 302.812 241.974 304.261C224.059 306.15 206.924 303.152 191.067 293.9C180.736 287.905 170.235 282.08 159.544 276.695C141.854 267.942 122.842 262.166 103.272 259.599C99.9349 259.14 96.5877 258.77 93.2805 258.35C94.9043 259.648 96.679 260.745 98.566 261.618C108.378 266.733 118.119 271.999 128.021 276.944C146.136 285.997 164.34 294.849 181.446 305.76C189.509 310.906 197.932 315.332 207.294 317.75C226.537 322.636 245.721 321.197 264.755 316.751C275.016 314.373 285.397 312.075 294.729 306.369C295.898 324.644 297.007 342.679 298.216 360.693C299.156 374.731 299.385 388.849 302.523 402.658C305.26 414.647 302.153 424.729 292.841 432.832C291.332 434.141 289.843 435.5 288.285 436.739C274.34 447.674 261.105 459.484 248.658 472.099C236.019 485.008 225.678 499.435 218.464 516.061C213.798 526.882 209.402 537.863 202.678 547.674C199.59 552.171 196.483 556.667 193.495 561.213C191.057 564.95 193.126 568.866 197.542 569.146C198.227 569.152 198.894 569.361 199.46 569.746C203.617 573.203 207.723 573.582 212.449 570.875C216.863 568.276 220.564 564.623 223.22 560.244C229.435 550.322 239.077 544.087 248.049 536.903C234.56 554.588 228.566 575.621 221.561 596.273C214.128 594.275 207.024 593.455 200.01 594.684C188.32 596.683 176.56 598.751 165.129 601.878C143.218 607.873 122.166 616.506 101.184 625.148C92.1215 628.875 83.1991 633.002 74.2767 637.008C73.5573 637.328 73.0577 638.127 72.4482 638.707C73.2824 639.046 74.1669 639.245 75.066 639.296C77.404 639.017 79.7221 638.517 82.0601 638.067C104.741 633.651 126.602 626.248 148.683 619.663C165.549 614.717 182.225 608.842 199.88 607.184Z" fill="#646464"/>
<path d="M805.296 509.806C802.483 510.505 799.756 511.51 797.163 512.804C786.971 518.179 776.86 523.704 766.788 529.28C764.479 530.567 762.301 532.076 760.284 533.786C747.205 544.866 748.294 553.189 754.289 565.479C754.579 566.058 755.478 566.338 756.087 566.768C756.41 566.163 756.626 565.507 756.727 564.829C756.657 562.751 756.417 560.673 756.237 558.595C756.167 549.762 758.386 544.467 765.919 540.08C777.979 533.086 790.428 526.732 802.738 520.097C803.866 519.513 805.047 519.038 806.265 518.679C808.245 517.985 810.378 517.85 812.429 518.289C814.481 518.728 816.372 519.724 817.895 521.167C820.133 523.033 821.968 525.335 823.287 527.933C824.607 530.532 825.384 533.371 825.571 536.279C825.758 539.187 825.351 542.103 824.375 544.849C823.399 547.594 821.874 550.113 819.893 552.25C818.375 553.929 816.616 555.417 815.197 557.176C813.963 558.616 812.974 560.25 812.27 562.012C810.981 565.579 812.849 567.487 816.566 566.588C817.808 566.347 818.99 565.861 820.043 565.159C826.891 560.226 831.884 553.136 834.221 545.026C837.219 534.106 830.224 517.799 820.463 512.054C818.23 510.646 815.728 509.718 813.116 509.331C810.505 508.944 807.841 509.106 805.296 509.806Z" fill="#646464"/>
<path d="M827.887 683.999C825.888 685.128 824.579 686.247 824.889 688.585C825.199 690.923 826.887 692.162 829.135 692.581C832.782 693.251 836.13 691.582 838.248 687.985C841.465 682.56 842.134 676.545 842.244 670.4C842.244 658.66 838.298 648.139 831.983 638.427C831.384 637.498 829.155 636.599 828.446 637.008C827.307 637.668 826.668 639.376 826.088 640.755C825.868 641.285 826.408 642.124 826.608 642.824C827.857 647.18 829.295 651.496 830.334 655.902C832.185 663.809 832.24 672.031 830.494 679.962C830.168 681.589 829.236 683.032 827.887 683.999Z" fill="#646464"/>
<path d="M815.777 530.869C815.267 529.12 814.688 527.242 812.21 526.552C811.95 528.211 811.8 529.71 811.471 531.179C811.159 532.686 810.718 534.163 810.152 535.595C808.154 540.471 805.266 543.318 799.161 541.14C793.886 539.262 786.812 541.33 785.033 545.726C783.035 550.722 779.558 551.721 774.982 551.661C774.527 551.65 774.071 551.683 773.623 551.761C771.385 552.171 770.076 554.059 770.925 556.157C771.479 557.586 772.412 558.836 773.623 559.774C775.78 561.393 778.342 562.385 781.027 562.641C783.713 562.897 786.416 562.406 788.84 561.223C790.434 560.4 791.717 559.082 792.497 557.466C793.62 555.003 794.371 552.387 794.725 549.703C795.045 547.265 796.104 546.845 798.142 547.325C799.891 547.744 801.669 548.534 803.398 548.434C811.451 548.004 818.025 538.602 815.777 530.869Z" fill="#646464"/>
<path d="M974.622 541.829C969.406 507.049 957.257 474.217 944.427 441.684C939.502 429.185 933.127 417.375 923.016 408.103C919.948 405.305 916.671 402.747 913.164 399.8C921.837 392.41 927.456 382.063 928.931 370.765C932.747 343.458 919.489 318.389 894.24 305.88C864.475 291.132 833.132 288.055 800.909 295.269C773.782 301.334 750.672 314.163 734.156 337.353C722.166 354.129 717.071 383.504 738.213 400.609C719.599 416.276 703.942 433.691 704.521 460.458C704.794 461.588 704.974 462.737 705.061 463.895C685.847 462.776 672.319 452.795 667.093 434.271C663.666 422.081 661.468 409.502 659.34 396.992C656.282 379.008 654.174 360.853 650.957 342.898C648.239 327.721 643.283 313.124 634.611 300.205C630.195 293.61 624.799 287.685 619.564 281.121C619.753 280.831 620.293 279.892 620.922 279.023C633.732 261.038 646.621 243.123 659.33 225.068C664.875 217.205 670.121 209.082 675.316 201.089C675.976 200.09 676.205 198.001 675.606 197.192C675.08 196.673 674.455 196.264 673.769 195.99C673.083 195.715 672.348 195.581 671.609 195.593C670.372 195.729 669.233 196.329 668.422 197.272C666.074 199.8 663.826 202.438 661.738 205.175C640.756 232.522 620.413 260.308 601.969 289.394C583.834 317.989 566.669 347.205 549.173 376.2C543.656 385.077 539.152 394.545 535.745 404.426C533.577 410.99 532.448 417.635 533.807 424.519C534.256 426.817 534.856 429.085 535.545 432.033C529.8 426.437 525.893 420.043 519.858 415.716C519.487 418.764 520.326 421.835 522.196 424.269C525.18 428.379 528.399 432.312 531.838 436.049C536.834 441.335 541.12 446.96 543.668 453.834C545.926 459.959 548.334 466.034 550.662 472.138C556.777 488.235 560.324 505.28 568.647 520.567C569.212 521.71 569.609 522.928 569.826 524.184C571.025 530.329 571.824 536.554 573.383 542.619C576.57 555.388 580.437 567.937 587.091 579.857C585.512 580.04 583.911 579.855 582.415 579.317C580.571 578.349 578.819 577.215 577.18 575.93C576.775 575.607 576.473 575.173 576.31 574.681C570.908 559.954 565.506 545.226 560.104 530.499C559.874 529.859 559.175 529.39 558.695 528.83C558.396 529.49 557.826 530.159 557.856 530.829C558.016 534.186 558.306 537.533 558.595 540.88C559.355 549.413 562.592 557.246 565.59 565.129C567.928 571.184 569.586 577.399 569.116 583.983C568.467 592.766 567.698 601.548 567.068 610.341C566.689 615.547 566.489 620.772 566.209 626.078C562.432 625.988 559.744 623.75 557.077 621.591C556.691 621.25 556.377 620.837 556.152 620.374C555.928 619.91 555.797 619.408 555.768 618.894C555.948 610.181 555.428 601.339 556.767 592.786C559.009 578.967 556.69 564.794 550.163 552.41C547.964 548.134 545.906 543.778 543.898 539.421C540.612 532.721 538.487 525.511 537.613 518.099C537.523 517.2 536.614 515.681 536.005 515.641C534.166 515.502 534.406 517.14 534.386 518.399C534.305 526.939 536.039 535.398 539.472 543.218C541.77 548.553 544.248 553.809 546.536 559.144C550.113 567.487 551.412 576.05 548.534 584.903C544.667 596.972 544.637 609.402 544.957 621.871C545.087 627.217 544.957 632.562 544.957 638.197H537.853C539.791 634.201 538.922 630.654 537.853 627.057C534.036 614.727 531.968 602.078 532.707 589.199C533.352 578.798 530.983 568.432 525.883 559.344C520.608 549.812 515.052 540.44 509.527 531.058C505.92 524.924 502.533 518.729 501.094 511.675C500.964 511.005 500.285 510.456 499.865 509.846C499.215 510.358 498.648 510.968 498.187 511.655C497.9 512.518 497.754 513.423 497.757 514.333C497.168 520.977 499.006 527.102 501.934 532.957C507.319 543.758 512.814 554.508 518.13 565.339C521.487 572.193 523.535 579.327 522.746 587.161C521.237 602.078 523.945 616.436 529.041 630.424C529.228 631.063 529.375 631.714 529.48 632.372L528.661 632.942C526.023 631.243 523.046 629.944 520.867 627.736C513.104 620.053 509.987 610.071 508.188 599.67C507.059 593.156 506.969 586.441 505.66 579.967C503.772 570.685 497.937 563.281 492.931 555.488C489.609 550.413 486.68 545.092 484.169 539.571C477.045 523.475 470.26 507.239 463.336 491.052C463.05 490.286 462.688 489.55 462.257 488.854C461.998 488.485 461.438 488.315 461.018 488.045C460.668 488.498 460.391 489.004 460.199 489.544C460.199 490.088 460.29 490.628 460.469 491.142C462.625 502.568 465.942 513.743 470.37 524.494C473.509 531.844 474.878 539.828 474.367 547.804C473.907 555.118 472.968 562.372 469.441 568.866C467.021 572.987 464.278 576.909 461.238 580.596C459.71 582.595 458.241 581.725 457.451 579.667C456.927 578.508 456.59 577.274 456.452 576.01C456.212 571.014 455.663 566.019 456.123 561.083C457.303 549.764 456.716 538.33 454.384 527.192C451.656 514.792 448.229 502.543 445.242 490.223C441.635 475.346 441.185 460.548 447.11 446.071C451.716 434.82 456.103 423.44 461.158 412.409C473.738 385.132 487.216 358.265 499.346 330.789C515.872 293.36 531.708 255.622 547.365 217.815C553.36 203.427 558.026 188.509 563.162 173.782C563.511 172.783 562.682 171.404 562.402 170.195C561.403 170.785 560.094 171.134 559.585 171.984C556.377 177.359 552.91 182.644 550.342 188.32C541.01 208.902 531.748 229.515 522.936 250.267C507.489 286.696 492.192 323.205 474.977 358.835C462.987 383.754 451.626 409.012 440.346 434.281C435.18 445.851 431.823 458.01 431.783 470.889C431.907 481.537 433.697 492.099 437.089 502.193C443.593 522.606 446.631 543.358 445.082 564.78C444.899 568.591 445.077 572.412 445.611 576.19C445.937 578.799 446.588 581.357 447.55 583.803C451.357 593.595 461.408 595.743 469.062 588.48C473.513 584.159 477.006 578.951 479.313 573.193C481.141 568.806 482.6 564.27 484.309 559.674C492.042 569.755 497.717 580.526 497.947 593.645C498.217 603.398 500.539 612.985 504.761 621.781C509.347 631.653 516.082 639.286 527.062 642.254C527.5 642.346 527.894 642.581 528.181 642.923C530.689 646.92 534.726 647.549 538.872 647.719C542.589 647.879 546.326 647.719 550.053 647.719C554.229 647.719 556.048 646.031 556.148 641.834C556.237 638.597 556.148 635.35 556.148 632.752C561.753 633.601 567.138 634.63 572.594 635.17C576.59 635.569 578.489 632.552 577.519 628.585C576.616 625.181 576.1 621.685 575.981 618.164C575.901 611.44 576.28 604.716 576.55 598.001C576.71 593.865 577.02 589.738 577.28 585.372C578.169 585.722 578.748 585.922 579.278 586.161C585.053 588.699 588.63 588.1 593.196 583.824C596.663 580.576 596.773 580.097 594.695 575.83C588.19 562.671 582.535 549.173 580.337 534.585C578.009 519.098 573.143 504.551 566.908 490.213C558.695 471.339 551.452 452.046 543.928 432.872C540.401 423.879 540.321 414.727 544.457 405.895C547.974 398.331 551.252 390.578 555.588 383.504C574.572 352.53 593.925 321.786 613.149 290.962C613.599 290.253 614.148 289.604 614.708 288.844C621.812 298.476 629.295 307.558 632.333 319.069C634.591 327.651 636.809 336.334 637.918 345.116C640.026 361.782 641.115 378.578 643.034 395.274C644.742 410.151 647.03 424.979 651.666 439.306C654.834 449.098 659.4 458.18 667.203 465.154C679.663 476.315 694.76 480.142 710.896 480.541C712.485 482.959 714.103 485.307 715.832 487.535C716.971 489.014 719.718 489.254 721.727 490.063C722.096 487.835 722.976 485.547 722.726 483.389C721.867 475.286 719.549 467.203 719.728 459.159C720.158 443.353 728.811 431.243 739.781 420.552C750.602 410.021 763.701 402.977 776.67 395.643C778.499 394.644 780.437 391.527 780.237 389.649C779.887 386.201 776.61 384.803 773.333 385.722C766.619 387.6 759.934 389.649 753.43 392.156C750.742 393.156 749.343 393.106 747.595 390.788C743.159 385.223 741.044 378.161 741.69 371.074C743.219 354.289 751.941 341.21 764.99 331.638C796.963 308.198 832.413 303.512 870.36 313.593C879.093 315.921 884.428 321.586 888.345 329.06C895.099 341.829 895.079 354.598 888.345 367.507C887.416 369.296 887.536 372.683 888.685 374.152C889.584 375.311 893.611 375.63 894.86 374.611C898.477 371.674 903.063 368.357 904.222 364.31C906.15 357.616 905.74 350.252 906.22 343.148C906.32 341.639 905.84 340.091 905.51 337.733C911.326 344.817 914.573 356.457 913.753 366.708C912.924 377.169 908.318 385.262 898.227 389.359C896.29 389.982 894.224 390.092 892.232 389.678C886.337 388.679 880.512 387.231 874.597 386.471C873.068 386.271 871.29 387.99 869.601 388.819C870.44 390.498 870.85 392.866 872.209 393.715C877.375 397.099 882.797 400.075 888.425 402.618C907.759 410.821 920.957 425.108 929.99 443.583C942.539 469.271 951.062 496.328 956.657 524.314C961.863 550.292 965.539 576.49 961.983 603.057V603.267C960.561 613.61 957.377 623.634 952.571 632.902C930.02 676.525 903.203 689.244 880.012 696.208C864.505 700.874 848.629 703.202 832.642 700.304C819.124 697.807 805.905 693.73 792.417 690.313C792.147 686.376 793.556 680.631 796.363 674.506C798.482 669.89 800.61 665.284 802.558 660.588C802.968 659.589 802.558 658.25 802.558 657.071C801.309 657.071 799.77 656.712 798.861 657.291C796.213 658.97 793.376 660.678 791.388 663.036C784.493 671.229 781.266 680.961 780.717 691.592C780.637 693.28 780.137 694.14 778.439 694.679C771.195 696.997 764.78 700.864 758.535 705.18C754.097 708.16 749.479 710.863 744.707 713.273C739.891 715.791 738.293 715.581 736.874 709.487C736.744 708.936 736.644 708.379 736.574 707.818C736.194 704.661 736.144 701.453 735.525 698.346C734.626 693.77 731.898 691.832 727.252 692.541C724.684 692.941 722.256 693.99 719.678 694.639C718.071 695.203 716.385 695.51 714.683 695.549C709.587 695.169 705.97 689.374 707.549 684.558C708.108 682.839 708.458 681.051 708.898 679.292C710.716 671.999 712.465 664.695 714.383 657.431C714.803 655.862 715.462 654.434 713.883 653.264C713.555 652.968 713.163 652.75 712.737 652.628C712.312 652.505 711.864 652.481 711.428 652.557C710.992 652.633 710.579 652.807 710.22 653.067C709.861 653.326 709.566 653.663 709.357 654.054C707.266 657.399 705.519 660.948 704.142 664.645C702.463 669.71 701.554 675.026 700.145 680.202C699.506 682.639 698.506 684.957 696.148 686.456C692.771 676.465 688.745 673.997 678.164 675.086C675.636 675.365 673.092 675.465 670.55 675.386C662.847 675.096 658.9 671.579 657.561 664.045C657.395 663.055 657.322 662.052 657.341 661.048C657.531 647.06 657.851 633.072 661.068 619.333C662.807 611.91 664.246 604.416 665.674 596.932C665.844 596.003 665.105 594.934 664.785 593.935C663.817 594.367 662.926 594.954 662.147 595.673C661.041 597.226 660.014 598.833 659.07 600.489L648.159 599.73C648.265 599.389 648.392 599.056 648.539 598.731C648.949 597.931 649.378 597.122 649.848 596.353C653.818 589.908 659 584.292 665.105 579.817C676.975 570.964 688.965 562.282 700.904 553.519C701.644 552.97 702.323 552.36 703.033 551.771L702.623 551.061L682.64 558.565C685.258 554.019 687.955 550.182 689.754 545.956C692.033 540.346 694.005 534.615 695.659 528.79C696.119 527.262 696.658 524.794 694.26 524.114C692.002 523.445 691.472 525.733 690.653 527.112C689.654 528.73 689.035 530.549 688.205 532.267C684.898 539.121 681.941 546.185 678.144 552.75C674.404 559.287 669.087 564.783 662.677 568.736C647.62 578.118 636.249 591.017 632.842 608.922C630.404 621.731 629.365 634.84 628.286 647.889C627.437 658.11 627.647 668.412 627.067 678.663C626.63 688.976 623.655 699.021 618.405 707.908C608.213 724.894 594.255 737.992 577.349 748.104C571.084 751.785 564.586 755.056 557.896 757.896C554.249 759.304 550.612 760.723 546.905 762.102C525.334 770.305 503.652 778.228 481.961 786.361C471.12 790.358 460.319 794.564 449.498 798.761C438.677 802.957 427.927 807.323 417.216 811.86C406.505 816.396 395.814 821.072 385.243 826.118C375.421 830.774 365.659 835.669 356.068 840.955L344.637 840.325L330.649 839.706L316.661 839.146L302.673 838.707C283.999 838.137 265.325 837.848 246.661 837.708C227.996 837.568 209.322 837.568 190.648 837.708L176.66 837.858C171.984 837.908 167.318 837.967 162.672 838.077C155.608 838.197 148.544 838.327 141.47 838.527C141.306 838.519 141.145 838.577 141.023 838.687C140.901 838.798 140.828 838.952 140.821 839.117C140.813 839.281 140.87 839.441 140.981 839.563C141.091 839.685 141.246 839.758 141.41 839.766C143.778 840.096 146.146 840.425 148.514 840.765L162.322 842.524C171.604 843.693 180.906 844.692 190.199 845.651C208.803 847.549 227.417 849.158 246.031 850.647C264.645 852.135 283.259 853.364 301.864 854.533C311.156 855.153 320.451 855.739 329.75 856.292C336.744 856.712 343.688 857.161 350.732 857.781C363.801 858.93 374.642 850.297 385.932 844.712C398.452 838.507 411.141 832.652 423.9 826.927C434.391 822.231 444.929 817.588 455.513 812.999C475.266 804.456 494.97 794.734 514.992 786.371C535.015 778.008 556.387 772.923 575.561 762.761L577.879 761.493C593.074 753.147 606.618 742.099 617.845 728.89C629.935 714.453 637.468 698.176 638.168 679.172C638.817 661.737 638.867 644.282 641.895 627.017C642.894 621.302 643.713 615.547 644.752 609.831C644.892 609.052 645.851 607.833 646.381 607.833C649.188 607.963 651.976 608.423 654.884 608.832C654.544 610.071 654.434 610.601 654.254 611.12C648.545 628.04 646.216 645.917 647.4 663.736C647.999 672.728 651.966 679.662 660.129 683.938C666.434 687.246 673.168 687.605 680.042 686.936C685.667 686.406 685.657 686.346 685.927 691.932C686.107 695.798 687.985 697.487 691.762 697.507C695.863 697.515 699.826 696.03 702.913 693.33C703.203 693.9 703.382 694.21 703.522 694.539C706.66 701.534 711.306 703.971 718.849 702.303C721.237 701.729 723.576 700.967 725.843 700.025C726.229 699.83 726.657 699.739 727.089 699.759C727.52 699.779 727.938 699.909 728.304 700.139C728.67 700.368 728.97 700.687 729.176 701.066C729.382 701.445 729.487 701.871 729.48 702.303C729.72 705.52 729.74 708.777 730.27 711.945C731.658 720.108 737.783 724.454 745.866 722.715C749.477 721.882 752.949 720.536 756.177 718.719C760.794 716.201 765 712.954 769.576 710.356C773.703 708.028 778.089 706.15 782.475 704.011C786.652 714.233 787.161 717.889 798.611 721.167C794.745 713.084 793.925 711.335 793.136 701.673C796.253 701.673 799.211 701.194 801.959 701.753C815.107 704.441 828.166 707.628 841.345 710.206C850.168 711.925 859.16 712.984 868.172 711.835C879.223 710.436 889.294 705.71 900.065 702.912C938.922 692.831 970.825 624.559 970.645 624.649C977.499 599.43 978.568 568.137 974.622 541.829Z" fill="#646464"/>
<path d="M857.411 406.984C855.913 406.115 853.834 406.275 852.026 405.985C852.495 407.893 852.406 410.261 853.525 411.64C859.02 418.364 864.515 425.159 870.61 431.303C885.397 446.141 897.817 462.447 905.58 482.1C907.978 488.095 911.335 493.78 914.353 499.545C915.662 502.033 917.18 505.42 920.568 503.772C922.516 502.833 923.445 499.775 924.824 497.647C922.606 476.095 913.633 458.37 901.324 442.154C889.704 426.767 873.777 416.526 857.411 406.984Z" fill="#646464"/>
<path d="M912.644 641.925C912.464 647.04 915.991 649.438 920.058 646.561C923.978 643.849 927.209 640.256 929.49 636.07C934.113 626.908 936.363 616.732 936.034 606.475C935.615 584.773 928.571 565.6 913.803 549.523C912.654 548.274 910.166 548.264 908.298 547.685C908.198 549.583 907.349 551.861 908.098 553.34C920.827 578.599 922.306 604.716 914.632 631.663C913.564 634.993 912.896 638.437 912.644 641.925Z" fill="#646464"/>
<path d="M818.864 389.469C818.611 388.748 818.243 388.074 817.775 387.47L815.557 387.58C815.237 397.912 813.219 408.563 815.067 418.484C817.066 428.995 821.831 439.256 826.857 448.798C839.277 472.408 852.316 495.549 850.907 523.914C850.767 526.832 854.124 531.838 856.652 532.467C859.18 533.097 864.375 529.879 865.225 527.262C867.143 521.39 867.874 515.194 867.373 509.037C864.905 482.999 853.694 460.309 840.186 438.757C830.574 423.42 822.011 407.733 818.864 389.469Z" fill="#646464"/>
<path d="M852.275 569.306C854.753 564.75 856.132 559.594 857.741 555.318C856.372 549.223 856.142 543.948 854.024 539.591C846.211 523.585 837.908 507.808 829.635 492.022C827.409 487.906 824.937 483.929 822.231 480.112C821.592 479.183 819.913 478.973 818.704 478.423C818.387 479.735 818.186 481.073 818.104 482.42C818.104 483.169 818.814 483.899 819.104 484.668C824.229 496.278 829.685 507.808 834.221 519.598C836.819 526.393 838.117 533.736 839.566 540.92C841.015 548.104 838.677 554.768 836.459 561.473C835.628 563.869 835.739 566.493 836.771 568.81C837.802 571.128 839.677 572.966 842.014 573.952C847.07 576.16 850.287 572.943 852.275 569.306Z" fill="#646464"/>
<path d="M756.687 427.816C750.75 430.281 745.859 434.74 742.859 440.426C733.697 457.351 734.566 474.087 744.308 490.493C745.077 491.792 746.306 492.821 748.164 494.869C748.714 492.701 749.044 492.082 748.994 491.482C747.475 472.179 750.223 454.134 764.271 439.406C764.62 439.047 764.86 438.587 765.18 438.198C767.358 435.55 768.667 432.702 766.179 429.605C763.621 426.358 760.284 426.308 756.687 427.816Z" fill="#646464"/>
<path d="M318.339 743.988C313.553 745.307 308.757 746.426 303.961 747.485C299.165 748.544 294.359 749.483 289.543 750.423C279.921 752.241 269.75 749.913 260.098 751.332C240.781 754.096 221.418 756.238 202.008 757.756C182.597 759.275 163.141 760.221 143.637 760.594C133.875 760.714 124.413 762.912 114.662 762.592C109.766 762.422 105.08 763.901 100.174 763.591C96.797 763.392 93.4098 763.162 90.0227 762.852C89.8259 762.834 89.642 762.746 89.5033 762.605C89.3646 762.465 89.2801 762.279 89.2646 762.082C89.249 761.885 89.3035 761.689 89.4185 761.528C89.5334 761.368 89.7014 761.253 89.8928 761.203C93.19 760.364 96.4972 759.605 99.8044 758.875C104.6 757.806 109.406 756.877 114.222 755.878C123.844 754.06 133.486 752.501 143.138 751.092C162.454 748.314 181.818 746.18 201.228 744.688C220.642 743.169 240.095 742.21 259.609 741.92C269.36 741.8 279.132 741.83 288.924 742.12C293.819 742.28 298.715 742.469 303.621 742.769C308.527 743.069 313.403 743.429 318.339 743.988Z" fill="#646464"/>
</svg>
