<svg width="40" height="40" viewBox="0 0 40 40" fill="none" xmlns="http://www.w3.org/2000/svg">
<path d="M29.3852 40H10.6148C4.75251 40 0 35.2475 0 29.3852V10.6148C0 4.75251 4.75251 0 10.6148 0H29.3852C35.2475 0 40 4.75251 40 10.6148V29.3852C40 35.2475 35.2475 40 29.3852 40Z" fill="#979797"/>
<path d="M24.5531 30.999C25.689 30.999 26.4694 29.8217 25.9907 28.7917C25.0176 26.6984 22.7018 25.2257 20.0001 25.2257C17.2981 25.2257 14.9828 26.6984 14.0094 28.7917C13.5307 29.8217 14.3109 30.999 15.4467 30.999H24.5531Z" fill="black"/>
<path d="M7.1824 15.5816C7.27067 15.7417 7.44912 15.8782 7.73152 15.9515C10.0768 16.5614 14.6892 15.7832 15.0659 12.8242C15.1276 12.3399 14.878 11.1585 14.1818 11.7201C13.4489 12.3112 12.9475 13.1328 12.1913 13.7111C11.4492 14.2788 10.5815 14.5928 9.64149 14.5598C9.03064 14.5383 8.36818 14.403 7.77011 14.5887C7.23281 14.7556 6.98658 15.2271 7.1824 15.5816Z" fill="black"/>
<path d="M32.8175 15.5816C32.7292 15.7417 32.5505 15.8782 32.2681 15.9515C29.9234 16.5614 25.311 15.7832 24.934 12.8242C24.8721 12.3399 25.1221 11.1585 25.8179 11.7201C26.5508 12.3112 27.0521 13.1328 27.8084 13.7111C28.5504 14.2788 29.4186 14.5928 30.3582 14.5598C30.9693 14.5383 31.6317 14.403 32.2296 14.5887C32.7673 14.7556 33.0131 15.2271 32.8175 15.5816Z" fill="black"/>
<path d="M14.8677 19.5758C15.1369 19.6742 15.3944 19.7943 15.6221 19.9651C16.7929 20.8431 15.521 21.8936 14.6999 22.4102C13.8088 22.9709 12.3635 23.9676 11.253 23.7513C11.0786 23.717 10.8963 23.6435 10.8078 23.4891C10.3885 22.7589 11.5595 22.4128 12.0334 22.2083C12.3848 22.0564 13.075 21.7144 13.0335 21.2401C13.0212 21.1002 12.9351 20.977 12.8348 20.8791C12.1397 20.2007 10.647 20.3999 10.373 19.2713C10.3364 19.1198 10.3595 18.9474 10.462 18.8302C10.5623 18.7154 10.7191 18.6696 10.8693 18.644C11.7973 18.4873 12.7108 18.8068 13.5602 19.1483C13.9754 19.3149 14.4365 19.4176 14.8677 19.5758Z" fill="black"/>
<path d="M25.1324 19.5758C24.8633 19.6742 24.6059 19.7943 24.3783 19.9651C23.2072 20.8431 24.4793 21.8936 25.3002 22.4102C26.1911 22.9709 27.6363 23.9676 28.7471 23.7513C28.9215 23.717 29.1038 23.6435 29.1923 23.4891C29.6117 22.7589 28.4404 22.4128 27.9667 22.2083C27.6151 22.0564 26.9249 21.7144 26.9669 21.2401C26.9792 21.1002 27.0648 20.977 27.1651 20.8791C27.8604 20.2007 29.3531 20.3999 29.6269 19.2713C29.6638 19.1198 29.6408 18.9474 29.5381 18.8302C29.438 18.7154 29.281 18.6696 29.1308 18.644C28.2028 18.4873 27.2895 18.8068 26.4399 19.1483C26.0249 19.3149 25.5638 19.4176 25.1324 19.5758Z" fill="black"/>
</svg>
