<svg width="40" height="40" viewBox="0 0 40 40" fill="none" xmlns="http://www.w3.org/2000/svg">
<path d="M35.8333 8.91666C35.8333 10.4333 35.1167 11.7833 34.0167 12.65C33.2167 13.2833 32.2 13.6667 31.0833 13.6667C28.45 13.6667 26.3333 11.55 26.3333 8.91666C26.3333 7.79999 26.7167 6.79999 27.35 5.98332H27.3667C28.2167 4.88332 29.5667 4.16666 31.0833 4.16666C33.7167 4.16666 35.8333 6.28332 35.8333 8.91666Z" stroke="#1B5DEC" stroke-width="1.5" stroke-linecap="round" stroke-linejoin="round"/>
<path d="M13.6667 8.91666C13.6667 11.55 11.55 13.6667 8.91667 13.6667C7.8 13.6667 6.8 13.2833 5.98333 12.65C4.88333 11.7833 4.16667 10.4333 4.16667 8.91666C4.16667 6.28332 6.28333 4.16666 8.91667 4.16666C10.4333 4.16666 11.7833 4.88332 12.65 5.98332C13.2833 6.79999 13.6667 7.79999 13.6667 8.91666Z" stroke="#1B5DEC" stroke-width="1.5" stroke-linecap="round" stroke-linejoin="round"/>
<path d="M35.8333 31.0833C35.8333 33.7167 33.7167 35.8333 31.0833 35.8333C29.5667 35.8333 28.2167 35.1167 27.3667 34.0167H27.35C26.7167 33.2167 26.3333 32.2 26.3333 31.0833C26.3333 28.45 28.45 26.3333 31.0833 26.3333C32.2 26.3333 33.2 26.7167 34.0167 27.35V27.3667C35.1167 28.2167 35.8333 29.5667 35.8333 31.0833Z" stroke="#1B5DEC" stroke-width="1.5" stroke-linecap="round" stroke-linejoin="round"/>
<path d="M13.6667 31.0833C13.6667 32.2 13.2833 33.2 12.65 34.0167C11.7833 35.1333 10.4333 35.8333 8.91667 35.8333C6.28333 35.8333 4.16667 33.7167 4.16667 31.0833C4.16667 29.5667 4.88333 28.2167 5.98333 27.3667V27.35C6.78333 26.7167 7.8 26.3333 8.91667 26.3333C11.55 26.3333 13.6667 28.45 13.6667 31.0833Z" stroke="#1B5DEC" stroke-width="1.5" stroke-linecap="round" stroke-linejoin="round"/>
<path d="M35.8333 20C35.8333 22.6667 35.1833 25.15 34.0167 27.35C33.2167 26.7167 32.2 26.3333 31.0833 26.3333C28.45 26.3333 26.3333 28.45 26.3333 31.0833C26.3333 32.2 26.7167 33.2 27.35 34.0167C25.15 35.1833 22.6667 35.8333 20 35.8333C17.35 35.8333 14.85 35.1833 12.65 34.0167C13.2833 33.2167 13.6667 32.2 13.6667 31.0833C13.6667 28.45 11.55 26.3333 8.91667 26.3333C7.8 26.3333 6.8 26.7167 5.98333 27.35C4.81667 25.15 4.16667 22.6667 4.16667 20C4.16667 17.35 4.81667 14.85 5.98333 12.65C6.8 13.2833 7.8 13.6667 8.91667 13.6667C11.55 13.6667 13.6667 11.55 13.6667 8.91666C13.6667 7.79999 13.2833 6.79999 12.65 5.98332C14.85 4.81666 17.35 4.16666 20 4.16666C22.6667 4.16666 25.15 4.81666 27.35 5.98332C26.7167 6.78332 26.3333 7.79999 26.3333 8.91666C26.3333 11.55 28.45 13.6667 31.0833 13.6667C32.2 13.6667 33.2 13.2833 34.0167 12.65C35.1833 14.85 35.8333 17.35 35.8333 20Z" stroke="#1B5DEC" stroke-width="1.5" stroke-linecap="round" stroke-linejoin="round"/>
</svg>
