<svg width="1159" height="1159" viewBox="0 0 1159 1159" fill="none" xmlns="http://www.w3.org/2000/svg">
<path d="M579 1079C855.142 1079 1079 855.142 1079 579C1079 302.858 855.142 79 579 79C302.858 79 79 302.858 79 579C79 855.142 302.858 1079 579 1079Z" fill="#EEEEEF"/>
<path d="M535.734 281.846C535.734 281.846 566.689 327.809 566.689 362.516C566.689 397.224 556.537 620.031 552.815 632.626C549.092 645.221 535.734 641.876 535.734 641.876C535.734 641.876 517.298 617.466 499.698 588.45C481.863 559.048 464.887 524.916 468.821 506.661C476.638 470.39 463.774 380.368 432.819 349.399C401.864 318.429 365.241 308.18 365.241 308.18C365.241 308.18 464.816 286.436 481.3 240.601L535.734 281.846Z" fill="#F39469"/>
<path d="M797.877 574.579C797.877 574.579 766.138 608.203 690.981 591.716C635.857 579.624 623.147 612.013 609.047 622.644C594.947 633.275 598.728 775.943 609.047 802.208C619.365 828.473 632.53 867.871 657.826 865.995C683.122 864.118 715.503 826.911 741.524 777.038C767.545 727.166 797.877 574.579 797.877 574.579Z" fill="#F39469"/>
<path d="M656.06 870.804C630.494 870.804 616.929 835.715 606.952 809.909C606.162 807.864 605.389 805.867 604.633 803.942C598.725 788.901 595.574 742.95 595.148 706.619C594.895 685.019 595.51 665.799 596.927 651.039C599.238 626.964 603.094 621.194 606.192 618.857C609.145 616.398 611.886 613.694 614.384 610.774C626.758 597.275 645.451 576.875 691.998 587.084C763.261 602.717 794.14 571.625 794.443 571.309L805.674 559.623L802.528 575.505C801.284 581.762 771.764 729.33 745.728 779.233C716.841 834.597 684.112 868.8 658.177 870.725C657.464 870.777 656.758 870.803 656.06 870.804ZM668.294 593.767C642.84 593.767 631.151 606.519 621.375 617.181C618.496 620.537 615.325 623.632 611.902 626.43C608.621 629.357 603.955 653.333 604.642 707.301C605.181 749.654 608.889 788.838 613.461 800.473C614.224 802.415 615.001 804.427 615.799 806.489C624.975 830.228 637.526 862.763 657.475 861.265C679.439 859.636 710.779 825.714 737.32 774.844C758.441 734.363 782.869 623.214 790.686 585.98C775.428 595.364 743.191 608.025 689.964 596.349C682.855 594.711 675.589 593.845 668.294 593.767V593.767Z" fill="#E2815A"/>
<path d="M621.212 283.476C621.212 283.476 590.257 329.44 590.257 364.147C590.257 398.854 600.408 621.662 604.131 634.256C607.853 646.851 621.212 643.507 621.212 643.507C621.212 643.507 639.648 619.097 657.248 590.081C675.083 560.679 692.059 526.547 688.125 508.291C680.308 472.021 693.171 381.999 724.126 351.029C755.082 320.06 791.705 309.81 791.705 309.81C791.705 309.81 707.735 284.563 675.646 242.231C675.646 242.231 627.758 269.139 621.212 283.476Z" fill="#F39469"/>
<path d="M352.019 985.436C352.925 981.879 353.721 978.314 354.444 974.735C354.854 972.961 355.159 971.156 355.518 969.371C355.879 967.587 356.203 965.795 356.489 963.994C356.778 962.194 357.131 960.413 357.442 958.623L358.279 953.232C358.888 949.654 359.271 946.031 359.788 942.443C361.69 928.053 362.946 913.619 363.885 899.187C364.174 891.954 364.689 884.748 364.751 877.512C364.827 873.898 364.999 870.29 364.996 866.676L365.002 855.835L365.008 850.416L364.85 844.997L364.612 834.16L363.588 812.499L363.562 811.955L363.594 811.59C364.63 799.475 365.76 787.367 366.983 775.267C368.211 763.168 369.54 751.076 370.972 738.993C372.396 726.909 373.967 714.837 375.683 702.776C377.413 690.717 379.202 678.662 381.401 666.641C381.651 678.859 381.492 691.045 381.274 703.226C381.047 715.406 380.669 727.574 380.14 739.729C379.637 751.887 379.018 764.036 378.284 776.176C377.552 788.315 376.734 800.448 375.829 812.573L375.834 811.665C376.208 819.034 376.734 826.399 376.928 833.778L377.092 844.851L377.136 850.387L377.01 855.924L376.708 866.995C376.576 870.683 376.267 874.368 376.055 878.052C375.652 885.423 374.795 892.767 374.021 900.104C372.239 914.758 369.606 929.296 366.136 943.644C362.491 957.916 358.322 972.134 352.019 985.436Z" fill="#646464"/>
<path d="M820.454 991.312C813.954 977.451 808.931 962.957 804.319 948.352C799.8 933.711 796.007 918.856 792.939 903.787C791.384 896.268 790.075 888.698 788.861 881.107C787.735 873.505 786.679 865.884 785.92 858.226C785.526 854.399 785.172 850.566 784.86 846.728C784.605 842.886 784.31 839.047 784.145 835.197C783.685 827.506 783.617 819.792 783.585 812.082L783.605 812.573C782.693 800.448 781.875 788.316 781.15 776.176C780.429 764.035 779.81 751.887 779.294 739.73C778.77 727.573 778.392 715.405 778.16 703.226C777.942 691.045 777.783 678.859 778.033 666.641C780.231 678.662 782.021 690.717 783.751 702.776C785.472 714.836 787.043 726.908 788.461 738.993C789.907 751.075 791.237 763.166 792.451 775.267C793.668 787.368 794.797 799.476 795.84 811.59L795.858 811.796L795.86 812.082C795.97 827.097 796.672 842.117 797.877 857.118C799.116 872.117 800.813 887.092 802.966 902.042C805.136 916.982 807.675 931.892 810.584 946.774C812.025 954.216 813.552 961.653 815.222 969.066C816.027 972.781 816.872 976.491 817.756 980.193C818.603 983.909 819.521 987.605 820.454 991.312Z" fill="#646464"/>
<path d="M820.454 450.683C818.395 482.121 814.865 513.393 810.588 544.551C806.281 575.707 801.152 606.746 795.2 637.668L790.562 660.828C788.887 668.526 787.253 676.231 785.499 683.918C782.018 699.293 778.288 714.628 774.157 729.89C773.139 733.707 772.095 737.52 770.999 741.325C769.902 745.129 768.881 748.945 767.721 752.739L764.234 764.11L760.552 775.446C759.279 779.216 757.972 782.98 756.631 786.736C755.294 790.49 753.807 794.22 752.401 797.961C750.982 801.699 749.357 805.404 747.844 809.124C746.257 812.83 744.462 816.496 742.78 820.176L742.993 813.359C748.574 828.852 753.568 844.304 758.339 859.935C760.676 867.753 762.978 875.581 765.141 883.451C767.273 891.331 769.367 899.22 771.297 907.156C775.13 923.031 778.538 939.031 781.025 955.2C783.348 971.366 785.225 987.753 784.216 1004.04C783.336 995.993 782.019 987.996 780.27 980.087C778.614 972.185 776.592 964.369 774.494 956.584C772.351 948.805 770.068 941.07 767.704 933.362C765.286 925.666 762.842 917.982 760.262 910.34C755.124 895.047 749.737 879.841 744.102 864.721C738.517 849.615 732.688 834.483 726.705 819.672L725.442 816.545L726.919 812.855C728.33 809.328 729.809 805.863 731.168 802.301C732.484 798.706 733.897 795.176 735.136 791.536C736.363 787.888 737.662 784.285 738.83 780.607L742.354 769.577L745.711 758.462L748.908 747.274C750.016 743.56 750.995 739.791 752.046 736.052C753.096 732.313 754.098 728.554 755.074 724.786L760.958 702.176L766.576 679.461C768.469 671.892 770.246 664.286 772.062 656.691L777.447 633.874C784.596 603.432 791.518 572.892 798.579 542.344C805.607 511.787 812.779 481.228 820.454 450.683Z" fill="#646464"/>
<path d="M578.037 317.693C580.763 366.533 582.245 415.378 583.282 464.225C584.317 513.072 584.88 561.921 584.972 610.772C585.086 659.623 584.673 708.475 583.735 757.329C583.461 769.542 583.278 781.756 582.928 793.969L581.831 830.609C581.37 842.821 580.91 855.037 580.342 867.247C579.702 879.454 579.21 891.685 578.037 903.865L577.839 894.699C577.771 891.652 577.619 888.592 577.513 885.54L576.91 867.223L575.753 830.59L574.816 793.958C574.488 781.747 574.329 769.536 574.076 757.325C573.183 708.482 572.69 659.638 572.598 610.792C572.504 561.947 572.858 513.099 573.66 464.25C574.443 415.401 575.641 366.55 578.037 317.693Z" fill="#646464"/>
<path d="M539.614 647.065C537.919 647.072 536.229 646.875 534.582 646.477L532.959 646.071L531.949 644.735C531.764 644.489 513.167 619.797 495.644 590.91C471.247 550.689 460.662 522.007 464.187 505.662C472.067 469.094 458.172 381.471 429.466 352.751C399.821 323.093 364.314 312.845 363.958 312.745L345.696 307.601L364.228 303.546C365.198 303.334 461.431 281.832 476.837 238.996L479.02 232.925L539.227 278.542L539.667 279.197C540.965 281.122 571.432 326.772 571.432 362.517C571.432 393.094 561.553 619.79 557.362 633.97C554.302 644.328 546.045 647.065 539.614 647.065ZM538.405 637.525C541.182 637.814 546.44 637.46 548.267 631.282C551.456 620.491 561.947 401.7 561.947 362.517C561.947 331.826 535.877 290.74 532.221 285.134L483.223 248.008C465.876 281.563 408.639 301.265 381.133 309.01C401.628 317.816 420.296 330.377 436.173 346.045C467.77 377.657 481.76 469.134 473.457 507.66C470.546 521.166 481.306 548.985 503.752 585.991C518.582 610.438 534.172 631.81 538.405 637.525Z" fill="#E2815A"/>
<path d="M617.332 648.695C610.9 648.695 602.645 645.96 599.584 635.6C595.392 621.421 585.514 394.724 585.514 364.147C585.514 329.503 614.135 285.552 617.077 281.127C624.613 265.79 668.325 240.905 673.324 238.097L676.928 236.072L679.426 239.366C710.199 279.964 792.247 305.02 793.072 305.268L808.71 309.976L792.983 314.377C792.632 314.476 757.125 324.723 727.48 354.382C698.774 383.102 684.879 470.724 692.759 507.292C696.283 523.639 685.698 552.32 661.302 592.54C643.779 621.428 625.181 646.119 624.997 646.366L623.987 647.701L622.364 648.107C620.716 648.505 619.027 648.702 617.332 648.695ZM674.468 248.365C656.311 258.881 629.556 276.62 625.525 285.445L625.146 286.124C624.844 286.572 594.999 331.31 594.999 364.147C594.999 403.331 605.489 622.122 608.679 632.912C610.52 639.143 615.842 639.447 618.534 639.164C622.76 633.46 638.367 612.065 653.193 587.621C675.64 550.615 686.399 522.797 683.489 509.29C675.186 470.764 689.176 379.288 720.773 347.676C737.045 331.623 756.24 318.834 777.322 310C752.927 301.289 700.721 279.886 674.468 248.365H674.468Z" fill="#E2815A"/>
<path d="M499.302 740.802C499.096 740.802 498.938 740.795 498.829 740.789L499.41 731.321L499.264 731.316C499.393 731.316 512.373 730.95 526.4 702.896L534.884 707.138C518.936 739.031 502.7 740.802 499.302 740.802Z" fill="#E2815A"/>
<path d="M359.069 572.948C359.069 572.948 390.808 606.572 465.965 590.086C521.089 577.994 533.799 610.382 547.899 621.013C561.999 631.644 558.217 774.313 547.899 800.578C537.581 826.843 524.416 866.24 499.12 864.364C473.824 862.488 441.443 825.281 415.422 775.408C389.401 725.535 359.069 572.948 359.069 572.948Z" fill="#F39469"/>
<path d="M500.887 869.172C500.189 869.172 499.483 869.146 498.769 869.093C472.834 867.17 440.104 832.968 411.218 777.603C385.182 727.7 355.662 580.13 354.418 573.873L351.204 557.708L362.507 569.681C362.984 570.171 393.895 601.043 464.948 585.454C511.489 575.244 530.188 595.644 542.562 609.143C545.059 612.064 547.8 614.769 550.754 617.227C553.852 619.563 557.708 625.334 560.019 649.409C561.436 664.169 562.051 683.389 561.797 704.989C561.371 741.32 558.221 787.271 552.312 802.312C551.556 804.237 550.784 806.232 549.994 808.279C540.017 834.084 526.451 869.171 500.887 869.172ZM366.261 584.351C374.078 621.586 398.505 732.733 419.626 773.214C446.167 824.084 477.507 858.006 499.471 859.634C519.39 861.114 531.967 828.598 541.146 804.859C541.945 802.797 542.722 800.785 543.484 798.843C548.056 787.207 551.765 748.024 552.304 705.671C552.991 651.703 548.324 627.727 545.019 624.78C541.605 621.987 538.444 618.899 535.57 615.553C523.369 602.242 508.182 585.675 466.981 594.719C413.759 606.389 381.522 593.736 366.261 584.351Z" fill="#E2815A"/>
<path d="M561.705 706.192C558.173 718.118 554.385 729.835 550.308 741.52C546.216 753.185 541.87 764.774 536.851 776.119C534.372 781.827 531.589 787.4 528.516 792.812C526.96 795.552 525.22 798.182 523.308 800.686C522.797 801.303 522.314 801.932 521.781 802.534L520.093 804.28C519.486 804.805 518.898 805.347 518.278 805.853C517.63 806.329 517.018 806.845 516.343 807.281C513.716 809.108 510.754 810.397 507.627 811.073C504.499 811.749 501.269 811.799 498.123 811.219C492.003 810.018 486.288 807.285 481.513 803.274C486.443 806.911 492.214 809.24 498.288 810.045C501.258 810.381 504.265 810.148 507.148 809.358C509.983 808.542 512.633 807.185 514.952 805.361C519.719 801.798 522.64 796.512 525.385 791.124C528.04 785.657 530.401 780.051 532.458 774.332C536.666 762.884 540.222 751.168 543.521 739.389C546.799 727.614 549.819 715.699 552.516 703.841L561.705 706.192Z" fill="#E2815A"/>
<path d="M547.78 629.609C549.16 640.02 549.245 650.562 548.033 660.993C546.934 671.512 544.65 681.873 541.224 691.878C540.405 694.405 539.321 696.861 538.333 699.34C537.842 700.579 537.235 701.782 536.646 702.988C536.053 704.193 535.478 705.406 534.864 706.598C532.349 711.344 529.415 715.856 526.097 720.08C522.775 724.398 518.817 728.189 514.36 731.322C512.107 732.883 509.661 734.144 507.082 735.073C504.552 736.061 501.814 736.399 499.12 736.056C504.199 734.726 508 731.298 511.347 727.766C514.638 724.103 517.529 720.1 519.972 715.825C521.271 713.734 522.383 711.503 523.56 709.326C524.668 707.108 525.751 704.851 526.802 702.608C528.778 698.07 530.677 693.487 532.274 688.749C535.555 679.314 538.268 669.589 540.713 659.709C543.154 649.817 545.395 639.817 547.78 629.609Z" fill="#E2815A"/>
<path d="M603.972 688.607C606.668 700.465 609.688 712.38 612.966 724.155C616.266 735.934 619.822 747.65 624.03 759.098C626.087 764.818 628.448 770.423 631.102 775.891C633.848 781.279 636.769 786.564 641.536 790.127C643.855 791.951 646.505 793.308 649.34 794.124C652.223 794.914 655.23 795.147 658.2 794.811C664.273 794.006 670.044 791.677 674.975 788.04C670.199 792.051 664.484 794.784 658.365 795.985C655.218 796.565 651.988 796.515 648.861 795.839C645.734 795.163 642.771 793.875 640.145 792.047C639.47 791.611 638.858 791.095 638.21 790.619C637.59 790.113 637.001 789.572 636.395 789.046L634.706 787.3C634.174 786.698 633.691 786.069 633.18 785.452C631.268 782.948 629.528 780.318 627.972 777.578C624.898 772.166 622.116 766.594 619.637 760.885C614.618 749.54 610.272 737.951 606.18 726.286C602.103 714.601 598.315 702.884 594.783 690.958L603.972 688.607Z" fill="#E2815A"/>
<path d="M603.79 616.91C607.129 626.847 610.303 636.592 613.668 646.208C617.035 655.813 620.655 665.239 624.811 674.322C626.849 678.888 629.171 683.271 631.568 687.602C632.826 689.737 634.117 691.88 635.43 693.984C636.807 696.04 638.125 698.156 639.615 700.116C642.451 704.141 645.707 707.853 649.329 711.188C652.995 714.389 657.102 717.443 662.284 718.287C659.634 718.883 656.877 718.805 654.265 718.061C651.61 717.379 649.056 716.355 646.665 715.014C641.932 712.315 637.635 708.915 633.919 704.93C630.218 701.038 626.871 696.823 623.918 692.336C623.194 691.207 622.508 690.054 621.804 688.911C621.104 687.765 620.385 686.626 619.78 685.438C618.562 683.064 617.251 680.721 616.197 678.283C611.842 668.645 608.59 658.547 606.502 648.179C604.311 637.908 603.4 627.405 603.79 616.91V616.91Z" fill="#E2815A"/>
<path d="M563.541 344.233C564.921 354.644 565.006 365.185 563.794 375.617C562.695 386.136 560.411 396.497 556.985 406.502C556.166 409.029 555.082 411.485 554.094 413.964C553.603 415.203 552.995 416.405 552.407 417.612C551.814 418.817 551.239 420.03 550.625 421.222C548.11 425.968 545.176 430.48 541.858 434.704C538.536 439.022 534.578 442.812 530.121 445.946C527.868 447.507 525.422 448.768 522.843 449.697C520.313 450.685 517.575 451.023 514.881 450.68C519.96 449.35 523.761 445.922 527.108 442.389C530.399 438.727 533.29 434.724 535.733 430.449C537.032 428.358 538.144 426.126 539.321 423.95C540.429 421.731 541.512 419.475 542.563 417.231C544.539 412.693 546.438 408.11 548.035 403.373C551.315 393.938 554.029 384.212 556.474 374.333C558.916 364.441 561.156 354.44 563.541 344.233Z" fill="#E2815A"/>
<path d="M595.281 344.233C597.666 354.44 599.906 364.441 602.348 374.333C604.793 384.212 607.506 393.938 610.787 403.373C612.384 408.11 614.282 412.693 616.259 417.231C617.31 419.475 618.393 421.731 619.501 423.95C620.677 426.126 621.79 428.358 623.089 430.449C625.532 434.724 628.423 438.727 631.714 442.389C635.061 445.922 638.862 449.35 643.941 450.679C641.246 451.023 638.509 450.685 635.979 449.697C633.4 448.768 630.954 447.507 628.701 445.946C624.243 442.812 620.286 439.022 616.964 434.704C613.646 430.48 610.712 425.968 608.196 421.222C607.583 420.03 607.008 418.817 606.415 417.612C605.826 416.405 605.218 415.203 604.728 413.964C603.74 411.485 602.656 409.029 601.836 406.502C598.411 396.496 596.127 386.136 595.028 375.617C593.816 365.185 593.901 354.644 595.281 344.233V344.233Z" fill="#E2815A"/>
<path d="M336.861 474.188C345.766 502.865 354.101 531.604 362.288 560.354L386.672 646.533C394.811 675.213 402.969 703.86 411.729 732.237C416.049 746.441 420.583 760.545 425.33 774.549C430.149 788.503 435.141 802.375 440.911 815.693L442.422 819.179L441.218 822.408L426.163 862.803L411.256 903.302C406.326 916.817 401.416 930.339 396.69 943.921C391.95 957.499 387.195 971.087 383.243 984.923L383.257 984.826C382.407 989.193 381.58 993.563 380.666 997.924C380.732 993.469 380.884 989.025 381.013 984.577L381.028 984.48C382.826 970.059 385.736 955.827 388.887 941.687C392.103 927.557 395.617 913.512 399.431 899.552C403.203 885.583 407.187 871.68 411.382 857.844C415.552 843.99 419.892 830.236 424.42 816.447L424.727 823.162C418.061 809.281 412.352 795.197 407.179 780.974C401.955 766.774 397.313 752.427 392.813 738.061C384 709.274 376.223 680.264 369.23 651.091C362.266 621.91 356.042 592.583 350.558 563.108C345.102 533.634 340.293 504.028 336.861 474.188Z" fill="#646464"/>
<path d="M495.991 123.073C499.747 142.559 501.597 162.365 501.512 182.21C501.511 192.279 500.58 202.326 498.729 212.223C497.787 217.295 496.411 222.277 494.615 227.113C492.787 232.17 490.248 236.941 487.076 241.283C486.213 242.336 485.322 243.534 484.458 244.461L481.861 247.226L479.253 249.986L476.557 252.643C474.767 254.427 472.96 256.192 471.082 257.869C469.215 259.561 467.391 261.313 465.456 262.921C457.861 269.549 449.902 275.747 441.614 281.485C425.014 293.255 406.976 302.852 387.939 310.041C383.068 311.833 378.111 313.379 373.085 314.674C370.552 315.254 367.929 315.937 365.461 316.421L358.131 317.837C348.486 319.636 339.336 321.554 330.79 324.642C322.381 327.61 314.508 331.922 307.478 337.41C303.992 340.159 300.722 343.173 297.697 346.424C294.673 349.765 291.868 353.298 289.3 357.002C284.096 364.626 279.637 372.734 275.985 381.212C272.212 389.872 269.024 398.776 266.442 407.864L265.427 411.284L264.511 414.749C263.908 417.062 263.265 419.359 262.692 421.683C261.643 426.367 260.443 431 259.561 435.741L258.139 442.819L256.904 449.952C256.022 454.706 255.393 459.471 254.709 464.232C252.084 483.392 250.591 502.69 250.238 522.025C249.717 541.427 250.159 560.904 251.103 580.392C252.972 619.39 257.352 658.369 261.97 697.474L265.403 726.872C266.507 736.698 267.592 746.555 268.346 756.51C268.55 758.993 268.729 761.487 268.864 763.999L269.089 767.755L269.228 771.547C269.452 776.697 269.396 781.855 269.061 786.999L268.638 791.025C268.422 792.406 268.106 793.835 267.829 795.229L266.215 802.209C265.296 806.904 264.431 811.648 263.743 816.474C260.762 835.726 259.19 855.385 257.56 874.993C256.764 884.808 256.06 894.636 255.45 904.478C254.745 914.316 254.193 924.162 253.589 934.017C253.041 924.158 252.754 914.289 252.455 904.416C252.224 894.543 252.096 884.665 252.074 874.781C252.001 864.894 252.206 855.006 252.486 845.103C252.815 835.198 253.22 825.288 254.087 815.323C254.445 810.345 255.128 805.348 255.817 800.321L257.13 792.807C257.255 791.771 257.431 790.781 257.543 789.723L257.706 786.378C257.747 781.671 257.536 776.964 257.074 772.279L256.747 768.692L256.332 765.083C256.072 762.681 255.766 760.27 255.435 757.854C252.849 738.537 249.568 719.091 246.542 699.592C240.403 660.59 235 621.24 232.35 581.485C229.764 541.761 229.582 501.547 235.096 461.525C235.831 456.532 236.518 451.525 237.451 446.587L238.77 439.157L240.289 431.743C241.234 426.794 242.516 421.88 243.647 416.951C244.263 414.493 244.956 412.045 245.608 409.591L246.604 405.914L247.733 402.259C250.665 392.411 254.252 382.77 258.47 373.401C262.72 363.802 267.937 354.662 274.04 346.122C277.179 341.786 280.598 337.659 284.275 333.768C288.043 329.869 292.108 326.269 296.433 323C305.11 316.501 314.808 311.492 325.13 308.177C335.25 304.852 345.533 303.003 355.31 301.516L362.546 300.382C364.929 300 367.094 299.496 369.385 299.065C373.945 298.059 378.452 296.825 382.889 295.366C391.917 292.384 400.738 288.81 409.296 284.666C417.914 280.485 426.294 275.738 434.505 270.697C442.723 265.643 450.65 260.132 458.251 254.19C460.191 252.75 462.011 251.177 463.882 249.657C465.768 248.151 467.575 246.565 469.367 244.961L472.074 242.571L474.681 240.091L477.287 237.604C478.155 236.777 478.771 236.016 479.538 235.222C482.425 231.772 484.807 227.93 486.615 223.812C488.553 219.519 490.117 215.066 491.289 210.504C493.665 201.129 495.261 191.573 496.06 181.935C496.97 172.222 497.259 162.41 497.216 152.586C497.203 142.757 496.777 132.912 495.991 123.073Z" fill="#646464"/>
<path d="M663.443 123.073C662.656 132.912 662.231 142.757 662.218 152.586C662.174 162.41 662.464 172.222 663.373 181.935C664.173 191.573 665.769 201.129 668.145 210.504C669.317 215.066 670.88 219.519 672.819 223.812C674.627 227.93 677.009 231.772 679.895 235.222C680.663 236.016 681.279 236.777 682.147 237.604L684.752 240.091L687.36 242.571L690.066 244.961C691.858 246.565 693.665 248.151 695.551 249.657C697.423 251.177 699.242 252.75 701.183 254.19C708.783 260.132 716.711 265.643 724.929 270.697C733.139 275.738 741.52 280.485 750.138 284.666C758.695 288.81 767.517 292.384 776.545 295.366C780.981 296.825 785.488 298.059 790.049 299.065C792.339 299.496 794.505 300 796.888 300.382L804.123 301.516C813.901 303.003 824.184 304.852 834.304 308.177C844.625 311.492 854.323 316.501 863 323C867.325 326.269 871.391 329.869 875.159 333.767C878.836 337.659 882.254 341.786 885.393 346.122C891.497 354.662 896.714 363.802 900.963 373.401C905.182 382.77 908.769 392.411 911.7 402.259L912.83 405.914L913.826 409.591C914.478 412.045 915.171 414.493 915.787 416.951C916.918 421.88 918.2 426.794 919.145 431.743L920.663 439.157L921.983 446.587C922.915 451.525 923.603 456.532 924.338 461.525C929.852 501.547 929.67 541.761 927.084 581.485C924.434 621.24 919.031 660.59 912.891 699.592C909.865 719.091 906.585 738.537 903.999 757.854C903.668 760.27 903.362 762.681 903.101 765.083L902.687 768.692L902.36 772.279C901.898 776.964 901.686 781.67 901.728 786.378L901.891 789.723C902.003 790.781 902.179 791.771 902.304 792.807L903.616 800.321C904.306 805.348 904.988 810.345 905.346 815.323C906.214 825.288 906.618 835.198 906.948 845.103C907.228 855.006 907.433 864.894 907.36 874.781C907.325 884.666 907.198 894.545 906.978 904.416C906.68 914.289 906.393 924.158 905.845 934.017C905.241 924.162 904.689 914.315 903.984 904.478C903.361 894.639 902.657 884.811 901.874 874.993C900.244 855.385 898.672 835.726 895.69 816.474C895.003 811.648 894.138 806.904 893.219 802.209L891.605 795.229C891.328 793.835 891.012 792.406 890.796 791.025L890.373 786.999C890.038 781.855 889.982 776.697 890.206 771.547L890.345 767.755L890.57 763.999C890.705 761.487 890.884 758.993 891.088 756.51C891.842 746.555 892.926 736.698 894.031 726.872L897.463 697.474C902.082 658.369 906.461 619.39 908.33 580.392C909.275 560.904 909.716 541.427 909.196 522.025C908.843 502.69 907.349 483.392 904.724 464.232C904.041 459.471 903.411 454.706 902.53 449.952L901.295 442.819L899.872 435.741C898.991 431 897.791 426.367 896.742 421.683C896.169 419.359 895.526 417.062 894.922 414.749L894.007 411.284L892.992 407.864C890.41 398.776 887.222 389.872 883.448 381.212C879.796 372.733 875.338 364.626 870.134 357.002C867.566 353.298 864.761 349.765 861.736 346.423C858.712 343.172 855.442 340.159 851.955 337.41C844.926 331.922 837.053 327.61 828.644 324.642C820.097 321.554 810.948 319.636 801.303 317.837L793.973 316.421C791.504 315.937 788.881 315.254 786.348 314.674C781.323 313.379 776.365 311.833 771.495 310.041C752.458 302.852 734.419 293.255 717.819 281.485C709.532 275.747 701.572 269.549 693.978 262.921C692.043 261.313 690.218 259.561 688.352 257.869C686.473 256.192 684.666 254.427 682.877 252.643L680.18 249.986L677.573 247.226L674.975 244.46C674.112 243.534 673.22 242.336 672.358 241.283C669.185 236.941 666.647 232.17 664.819 227.113C663.023 222.277 661.647 217.295 660.705 212.223C658.854 202.326 657.922 192.279 657.921 182.21C657.837 162.365 659.686 142.559 663.443 123.073V123.073Z" fill="#646464"/>
</svg>
