<svg width="1001" height="1001" viewBox="0 0 1001 1001" fill="none" xmlns="http://www.w3.org/2000/svg">
<path d="M500.1 1000.25C776.279 1000.25 1000.1 776.429 1000.1 500.25C1000.1 224.071 776.279 0.25 500.1 0.25C223.921 0.25 0.100098 224.071 0.100098 500.25C0.100098 776.429 223.921 1000.25 500.1 1000.25Z" fill="#EEEEEF"/>
<path d="M547.262 177.858C547.262 177.858 512.69 228.517 512.69 266.787C512.69 305.056 523.981 550.56 528.178 564.349C532.374 578.138 547.262 574.54 547.262 574.54C547.262 574.54 567.846 547.662 587.53 515.687C607.414 483.313 626.399 445.643 622.003 425.56C613.309 385.592 627.598 286.371 662.17 252.298C696.743 218.225 737.61 206.835 737.61 206.835C737.61 206.835 643.785 179.057 608.014 132.394C608.114 132.344 554.656 162.02 547.262 177.858Z" fill="#F39469"/>
<path d="M452.438 177.108C452.438 177.108 488.01 226.969 488.01 264.638C488.01 302.308 476.319 543.915 472.022 557.604C467.726 571.293 452.438 567.596 452.438 567.596C452.438 567.596 431.255 541.117 411.071 509.642C390.588 477.768 371.103 440.698 375.6 420.913C384.592 381.545 369.804 283.923 334.233 250.35C298.661 216.777 256.595 205.686 256.595 205.686C256.595 205.686 347.522 182.604 390.488 135.642L452.438 177.108Z" fill="#F39469"/>
<path d="M753.597 494.604C753.597 494.604 717.126 531.075 630.795 513.19C567.446 500.1 552.858 535.172 536.671 546.763C520.484 558.354 524.78 713.03 536.671 741.507C548.561 769.984 563.649 812.75 592.726 810.652C621.803 808.553 658.973 768.286 688.849 714.229C718.725 660.172 753.597 494.604 753.597 494.604Z" fill="#F39469"/>
<path d="M590.627 815.798C561.251 815.798 545.663 777.728 534.173 749.751C533.273 747.552 532.374 745.354 531.475 743.256C524.68 726.969 521.083 677.109 520.583 637.74C520.284 614.359 520.983 593.476 522.582 577.488C525.28 551.409 529.676 545.114 533.273 542.616C536.64 539.948 539.782 537.007 542.666 533.823C556.854 519.235 578.337 497.053 631.794 508.144C713.629 525.13 749.101 491.357 749.5 491.058L762.39 478.368L758.793 495.604C757.394 502.398 723.421 662.47 693.545 716.527C660.372 776.579 622.802 813.649 592.926 815.748C592.162 815.819 591.394 815.835 590.627 815.798ZM604.716 515.338C575.44 515.338 562.05 529.127 550.859 540.718C547.522 544.354 543.878 547.697 539.968 550.71C536.171 553.907 530.875 579.886 531.675 638.44C532.274 684.403 536.571 726.869 541.766 739.459C542.666 741.557 543.565 743.755 544.464 745.954C555.056 771.733 569.444 807.005 592.326 805.406C617.606 803.607 653.577 766.837 684.053 711.681C708.333 667.816 736.411 547.213 745.404 506.845C727.918 517.037 690.847 530.726 629.696 518.136C621.478 516.405 613.113 515.468 604.716 515.338Z" fill="#E2815A"/>
<path d="M456.935 573.192C454.987 573.19 453.045 572.989 451.139 572.592L449.241 572.192L448.042 570.794C447.842 570.494 426.459 543.715 406.375 512.44C378.297 468.775 366.207 437.7 370.204 420.014C379.297 380.346 363.309 285.322 330.336 254.147C296.263 221.973 255.496 210.882 255.096 210.782L234.113 205.186L255.396 200.79C256.495 200.59 371.203 181.805 388.889 135.342L393.785 134.043L456.435 173.711L456.935 174.411C458.433 176.509 493.405 225.969 493.405 264.738C493.405 297.912 482.014 543.715 477.218 559.103C473.721 570.194 464.329 573.192 456.935 573.192ZM455.536 562.8C458.733 563.1 464.728 562.7 466.827 556.005C470.524 544.315 482.514 307.005 482.514 264.539C482.514 231.265 452.538 186.701 448.341 180.606L392.086 140.338C372.202 176.709 306.355 198.092 274.78 206.485C298.123 215.931 319.555 229.541 338.03 246.653C374.301 280.925 390.388 380.146 380.895 421.913C377.598 436.601 389.888 466.777 415.668 506.845C432.754 533.423 450.64 556.605 455.536 562.8Z" fill="#E2815A"/>
<path d="M546.163 574.99C538.769 574.99 529.277 571.992 525.779 560.801C520.983 545.414 509.592 299.61 509.592 266.437C509.592 228.867 542.466 181.205 545.863 176.409C554.556 159.822 604.716 132.744 610.512 129.746L614.608 127.548L617.506 131.145C652.878 175.21 747.102 202.388 748.101 202.588L766.087 207.684L748.002 212.48C747.602 212.58 706.834 223.671 672.762 255.845C639.788 287.02 623.801 382.044 632.894 421.712C636.99 439.398 624.8 470.573 596.723 514.139C576.639 545.513 555.256 572.292 555.056 572.492L553.857 573.891L551.958 574.29C550.056 574.726 548.114 574.96 546.163 574.99ZM611.811 140.887C590.927 152.278 560.252 171.563 555.556 181.055L555.156 181.754C554.856 182.254 520.484 230.715 520.484 266.387C520.484 308.853 532.574 546.163 536.171 557.854C538.269 564.648 544.364 564.948 547.462 564.648C552.358 558.453 570.244 535.272 587.33 508.793C613.109 468.625 625.5 438.449 622.102 423.861C612.61 382.094 628.597 282.874 664.968 248.601C683.894 231.066 705.918 217.208 729.916 207.734C701.938 198.241 641.986 175.06 611.811 140.887Z" fill="#E2815A"/>
<path d="M249.5 492.756C249.5 492.756 285.971 529.227 372.302 511.341C435.652 498.251 450.24 533.323 466.427 544.914C482.614 556.505 478.317 711.181 466.427 739.658C454.536 768.136 439.449 810.901 410.372 808.803C381.295 806.705 344.125 766.437 314.249 712.38C284.373 658.323 249.5 492.756 249.5 492.756Z" fill="#F39469"/>
<path d="M412.37 813.999C411.569 814.015 410.769 813.982 409.972 813.899C380.196 811.801 342.526 774.73 309.353 714.678C279.476 660.522 245.504 500.55 244.105 493.755L240.408 476.269L253.397 489.259C253.897 489.758 289.468 523.231 371.103 506.345C424.56 495.254 446.043 517.436 460.232 532.024C463.116 535.208 466.257 538.149 469.624 540.817C473.221 543.315 477.618 549.61 480.316 575.689C481.915 591.677 482.614 612.56 482.314 635.941C481.815 675.31 478.217 725.17 471.423 741.457C470.524 743.555 469.624 745.753 468.725 747.952C457.334 776.029 441.747 813.999 412.37 813.999ZM257.694 505.146C266.687 545.514 294.764 666.017 319.045 709.982C349.52 765.138 385.592 801.908 410.771 803.707C433.653 805.356 448.142 770.034 458.633 744.404C459.532 742.206 460.432 740.008 461.331 737.91C466.627 725.32 470.823 682.754 471.423 636.891C472.222 578.337 466.827 552.358 463.03 549.161C459.12 546.148 455.476 542.805 452.138 539.169C438.15 524.78 420.663 506.795 373.301 516.587C312.25 529.027 275.28 515.338 257.694 505.146Z" fill="#E2815A"/>
<path d="M482.314 637.34C478.218 650.23 473.921 663.02 469.225 675.61C464.528 688.199 459.532 700.789 453.737 713.179C450.877 719.381 447.675 725.419 444.145 731.265C442.353 734.236 440.349 737.075 438.15 739.758C437.603 740.47 437.002 741.139 436.351 741.757L434.453 743.655C433.753 744.255 433.054 744.854 432.354 745.354C431.662 745.91 430.927 746.411 430.156 746.853C427.129 748.866 423.733 750.258 420.164 750.949C416.575 751.665 412.886 751.732 409.273 751.149C402.315 749.853 395.771 746.906 390.188 742.556C395.927 746.521 402.546 749.025 409.473 749.85C412.885 750.219 416.335 749.982 419.664 749.151C422.889 748.253 425.933 746.799 428.657 744.854C434.153 740.957 437.45 735.262 440.648 729.366C443.732 723.484 446.435 717.41 448.741 711.181C453.537 698.791 457.634 686.101 461.431 673.311C465.228 660.522 468.625 647.632 471.723 634.742L482.314 637.34Z" fill="#E2815A"/>
<path d="M466.227 554.207C467.826 565.501 467.927 576.958 466.527 588.279C465.236 599.702 462.621 610.935 458.733 621.752C457.834 624.45 456.535 627.148 455.436 629.846C454.836 631.145 454.137 632.444 453.538 633.843C452.938 635.242 452.239 636.441 451.539 637.74C448.627 642.9 445.249 647.783 441.447 652.328C437.592 657.049 433.044 661.159 427.958 664.518C425.348 666.239 422.527 667.616 419.565 668.615C416.624 669.678 413.48 670.054 410.372 669.714C416.167 668.315 420.564 664.518 424.461 660.721C428.233 656.774 431.551 652.417 434.353 647.732C435.852 645.434 437.151 643.035 438.45 640.637C439.749 638.239 440.948 635.741 442.147 633.343C444.445 628.447 446.643 623.451 448.442 618.355C452.197 608.032 455.432 597.528 458.134 586.88C460.932 576.189 463.53 565.298 466.227 554.207Z" fill="#E2815A"/>
<path d="M530.876 618.255C533.973 631.145 537.47 644.035 541.167 656.824C544.864 669.614 549.061 682.304 553.857 694.694C556.248 700.888 558.949 706.958 561.951 712.88C565.148 718.675 568.446 724.47 573.941 728.367C576.62 730.389 579.678 731.85 582.934 732.664C586.256 733.544 589.715 733.781 593.126 733.363C600.041 732.492 606.65 729.992 612.41 726.069C606.852 730.458 600.297 733.41 593.326 734.662C589.716 735.296 586.018 735.228 582.434 734.462C578.866 733.771 575.469 732.379 572.442 730.366C571.643 729.866 570.944 729.366 570.244 728.867C569.545 728.367 568.845 727.768 568.146 727.168L566.247 725.27C565.648 724.57 565.048 723.971 564.449 723.271C562.272 720.571 560.27 717.734 558.454 714.778C554.956 708.883 551.759 702.888 548.861 696.693C543.066 684.402 538.07 671.813 533.374 659.123C528.677 646.433 524.381 633.743 520.284 620.853L530.876 618.255Z" fill="#E2815A"/>
<path d="M530.576 540.568C534.373 551.359 538.07 561.951 541.967 572.342C545.863 582.734 549.96 593.026 554.756 602.818C557.096 607.749 559.698 612.552 562.55 617.207C563.949 619.505 565.448 621.803 566.947 624.101C568.445 626.399 570.044 628.597 571.743 630.796C575.022 635.191 578.775 639.212 582.934 642.786C587.13 646.283 591.827 649.581 597.822 650.48C594.782 651.113 591.638 651.045 588.629 650.28C585.602 649.557 582.681 648.449 579.936 646.983C574.537 644.086 569.588 640.417 565.248 636.091C560.99 631.905 557.143 627.321 553.757 622.402C552.958 621.203 552.158 619.904 551.359 618.705C550.56 617.506 549.76 616.207 549.061 614.908C547.662 612.311 546.163 609.812 544.964 607.115C539.994 596.698 536.271 585.731 533.873 574.441C531.24 563.352 530.131 551.956 530.576 540.568Z" fill="#E2815A"/>
<path d="M484.412 244.804C486.011 256.099 486.112 267.556 484.712 278.877C483.421 290.299 480.806 301.533 476.918 312.35C476.019 315.048 474.72 317.746 473.621 320.444C473.022 321.743 472.322 323.042 471.723 324.44C471.123 325.839 470.424 327.038 469.724 328.337C466.812 333.497 463.434 338.38 459.632 342.926C455.777 347.646 451.229 351.756 446.143 355.116C443.533 356.837 440.712 358.214 437.75 359.213C434.809 360.275 431.665 360.651 428.557 360.312C434.352 358.913 438.749 355.116 442.646 351.319C446.418 347.372 449.736 343.015 452.538 338.329C454.037 336.031 455.336 333.633 456.635 331.235C457.934 328.837 459.133 326.339 460.332 323.941C462.63 319.045 464.828 314.049 466.627 308.953C470.382 298.63 473.617 288.125 476.319 277.478C479.017 266.637 481.615 255.845 484.412 244.804Z" fill="#E2815A"/>
<path d="M520.883 244.804C523.581 255.895 526.179 266.687 528.977 277.478C531.679 288.125 534.914 298.63 538.669 308.953C540.468 314.049 542.666 319.045 544.964 323.941C546.163 326.339 547.462 328.837 548.661 331.235C550.06 333.633 551.259 336.031 552.758 338.329C555.585 342.998 558.901 347.352 562.65 351.319C566.447 355.116 570.843 358.913 576.739 360.312C573.631 360.696 570.476 360.318 567.546 359.213C564.584 358.214 561.763 356.837 559.153 355.116C554.067 351.756 549.519 347.646 545.664 342.926C541.885 338.363 538.508 333.482 535.572 328.337C534.872 327.038 534.173 325.739 533.573 324.44C532.84 323.158 532.206 321.822 531.675 320.444C530.576 317.746 529.277 315.048 528.377 312.35C524.454 301.543 521.838 290.306 520.584 278.877C519.184 267.556 519.285 256.099 520.883 244.804Z" fill="#E2815A"/>
<path d="M594.225 71.5928C593.808 75.6808 593.842 79.8022 594.325 83.8829C594.876 87.871 595.848 91.7896 597.222 95.5736C599.97 103.069 603.993 110.032 609.113 116.157C611.604 119.178 614.309 122.017 617.206 124.65C620.127 127.299 623.232 129.737 626.499 131.944C633.046 136.454 639.966 140.399 647.182 143.735C654.377 147.232 661.871 150.33 669.465 153.327L692.446 162.52C700.14 165.518 707.734 168.715 715.428 171.813C723.122 174.91 730.716 178.008 738.409 181.205L761.291 190.598L784.173 200.19C799.361 206.585 814.748 212.88 830.136 220.574C837.919 224.394 845.49 228.63 852.818 233.263C860.329 238.022 867.477 243.332 874.201 249.151C881.076 255.146 887.305 261.843 892.786 269.135C898.178 276.35 902.958 284.004 907.074 292.016C915.168 307.904 920.664 324.391 925.26 340.678C926.359 344.774 927.458 348.771 928.557 352.868L931.555 365.058C933.653 373.152 935.452 381.245 937.25 389.439C938.15 393.535 938.949 397.632 939.848 401.729L942.346 414.019C943.845 422.212 945.444 430.406 946.743 438.699C949.441 455.186 951.839 471.673 953.637 488.259C957.393 521.336 959.361 554.591 959.533 587.88C959.533 596.173 959.533 604.466 959.233 612.76L958.833 625.25L958.234 637.64C957.934 645.933 957.134 654.227 956.535 662.42C956.235 666.517 955.736 670.713 955.336 674.81C954.936 678.907 954.437 683.004 954.037 687.2C953.138 670.614 952.238 654.127 951.039 637.74L950.14 625.45L949.041 613.16C948.641 609.063 948.441 604.966 947.942 600.869L946.743 588.579C943.445 555.905 938.949 523.331 933.453 491.157C927.958 458.983 921.263 426.909 913.369 395.234C911.271 387.34 909.473 379.347 907.274 371.553L904.077 359.762C902.978 355.865 901.879 351.968 900.68 348.072C896.183 332.684 890.987 317.696 883.993 304.107C880.671 297.357 876.723 290.934 872.202 284.922C867.743 278.992 862.724 273.504 857.214 268.535C851.574 263.421 845.526 258.775 839.129 254.646C832.734 250.35 825.839 246.453 818.845 242.656C804.856 235.162 789.868 228.467 774.88 221.373L752.498 210.831L730.116 200.14C722.622 196.643 715.228 192.946 707.834 189.349C700.44 185.751 692.946 182.154 685.552 178.457C678.158 174.76 670.764 171.163 663.27 167.466C655.776 163.769 648.381 159.772 641.087 155.376C633.672 151.007 626.681 145.955 620.204 140.288C616.967 137.401 613.898 134.332 611.011 131.095C608.185 127.809 605.581 124.337 603.218 120.703C602.618 119.804 602.118 118.805 601.519 117.906C600.919 117.006 600.42 116.007 599.92 115.108C599.421 114.209 598.921 113.209 598.421 112.21L597.122 109.213C595.467 105.247 594.195 101.131 593.325 96.9225C592.51 92.7436 592.141 88.4896 592.226 84.2327C592.417 79.9578 593.087 75.7179 594.225 71.5928Z" fill="#646464"/>
<path d="M426.159 71.5928L426.959 74.8901C427.107 75.4129 427.207 75.948 427.258 76.4889L427.558 78.1875C427.674 78.7468 427.741 79.3152 427.758 79.8861L427.858 81.5848C427.991 82.7121 428.024 83.8489 427.958 84.9821C427.958 86.0812 427.958 87.2802 427.858 88.3793L427.558 91.7766C427.304 94.0648 426.904 96.3343 426.359 98.5712C425.267 103.064 423.762 107.446 421.863 111.661C419.862 115.873 417.523 119.917 414.868 123.751C412.181 127.596 409.173 131.206 405.876 134.542C402.652 137.898 399.178 141.005 395.484 143.835C388.225 149.48 380.541 154.558 372.502 159.023C364.509 163.419 356.515 167.516 348.521 171.413L324.641 183.203L312.65 188.999L306.755 191.897C304.856 192.896 302.758 193.795 301.059 194.694C293.565 198.791 286.071 203.188 278.478 207.784L279.177 207.384C274.353 210.863 269.313 214.034 264.089 216.877L256.295 221.073L248.501 224.87L249.601 224.271C246.248 226.281 242.74 228.018 239.109 229.466C235.712 230.865 232.314 232.064 229.117 233.164C222.722 235.262 216.927 237.16 212.33 239.558L211.931 239.758L211.031 240.058L206.235 241.857L203.837 242.756L201.739 243.755L197.442 245.753L195.044 246.952L192.546 248.152C189.349 249.75 186.251 251.249 183.454 252.848C182.055 253.647 180.756 254.447 179.457 255.246L178.557 255.845L177.558 256.545L175.66 257.944C173.062 259.742 170.464 261.841 167.866 263.939C165.268 266.037 162.87 268.235 160.572 270.434C155.891 274.878 151.611 279.726 147.782 284.922C143.936 290.202 140.464 295.745 137.39 301.509C135.892 304.407 134.393 307.404 132.994 310.502L130.896 315.098C130.196 316.597 129.597 318.195 128.997 319.794C123.947 332.746 119.578 345.954 115.908 359.363L115.708 359.962L115.508 360.362L112.31 369.754C111.311 372.852 110.312 376.049 109.313 379.247C107.414 385.642 105.716 392.036 104.117 398.431C102.518 404.826 101.219 411.421 99.9204 417.916C98.6214 424.41 97.6222 431.005 96.7229 437.6L96.623 438.299V438.399C94.4248 448.591 92.4264 458.783 90.5279 468.975C89.5287 474.071 88.5295 479.167 87.7301 484.363C86.9308 489.558 85.9316 494.654 85.1322 499.75L83.8332 507.444L82.6342 515.138L81.4352 522.832L80.336 530.526L79.2369 538.219L78.2377 546.013C77.5383 551.209 76.9387 556.405 76.3392 561.501C73.8412 582.184 71.7429 603.068 70.1442 623.951C68.5455 644.834 67.2465 665.817 66.1474 686.801C63.6494 665.917 62.0507 644.834 61.2513 623.751C60.4519 602.668 60.4519 581.485 61.1514 560.302C61.3512 555.006 61.5511 549.71 61.8508 544.414L62.2505 536.521L62.7501 528.627L63.3496 520.733L64.0491 512.84L64.7485 504.946L65.5479 497.052C66.0475 491.757 66.7469 486.561 67.3464 481.265C67.9459 475.969 68.6454 470.773 69.3448 465.478C70.0443 460.182 70.8436 454.986 71.643 449.69C72.4424 444.395 73.3416 439.199 74.141 434.003L74.0411 434.802C74.7405 427.808 75.5399 420.713 76.639 413.719C77.7381 406.725 78.9372 399.73 80.436 392.836C81.9348 385.941 83.5335 378.947 85.432 372.152C86.3312 368.755 87.3304 365.358 88.4296 361.96L91.7269 351.769L91.4272 352.768C95.0348 338.334 99.5741 324.149 105.016 310.302C105.716 308.603 106.315 306.805 107.115 305.006L109.413 299.71C110.909 296.151 112.611 292.681 114.509 289.319C118.171 282.367 122.381 275.718 127.099 269.434C131.833 263.073 137.152 257.169 142.986 251.799C145.884 249.101 148.881 246.503 151.879 244.205C154.876 241.907 157.874 239.508 161.271 237.31L163.769 235.612L164.968 234.812L166.267 234.013C168.066 232.914 169.764 231.915 171.563 231.015C175.06 229.117 178.557 227.518 181.755 225.919L186.551 223.621C188.35 222.822 190.248 222.022 192.147 221.123L194.944 219.924L197.642 219.025L203.038 217.226L201.739 217.826C208.933 214.428 215.828 212.53 222.023 210.632C225.12 209.732 228.018 208.833 230.716 207.834C233.273 206.955 235.747 205.852 238.11 204.536L238.909 204.137L239.209 204.037L246.603 200.839C249.001 199.74 251.399 198.641 253.697 197.442C258.358 195.116 262.894 192.548 267.286 189.748L267.886 189.349L267.986 189.249C275.88 185.152 283.773 180.855 292.266 176.958C294.565 175.859 296.563 175.16 298.661 174.261L304.956 171.763L317.346 166.767L342.127 156.875C350.42 153.577 358.613 150.48 366.507 146.883C370.504 145.084 374.401 143.285 378.198 141.387C381.995 139.488 385.692 137.29 389.289 134.992C392.895 132.733 396.364 130.264 399.681 127.598C402.935 124.909 406.007 122.005 408.873 118.905C414.614 112.568 419.182 105.259 422.362 97.3222C425.789 89.2063 427.095 80.3524 426.159 71.5928Z" fill="#646464"/>
<path d="M585.032 247.352C586.331 252.848 587.33 258.343 588.229 263.839C589.129 269.334 590.028 274.73 590.827 280.226C592.426 291.117 593.825 301.908 595.324 312.5C598.421 333.683 602.018 354.366 607.914 374.051C613.645 393.635 622.195 412.282 633.293 429.406C638.917 438.092 645.375 446.208 652.578 453.637C654.377 455.536 656.375 457.234 658.174 459.133C660.172 460.931 662.17 462.63 664.169 464.428C666.267 466.027 668.465 467.726 670.564 469.524C672.762 471.123 675.06 472.722 677.358 474.42C674.56 474.121 671.763 473.621 668.965 473.121C666.267 472.422 663.469 471.623 660.672 470.823C657.974 469.824 655.276 468.825 652.578 467.726C649.88 466.627 647.382 465.228 644.784 463.829C634.597 458.05 625.334 450.775 617.306 442.246C609.252 433.69 602.303 424.156 596.623 413.869C590.909 403.613 586.352 392.756 583.034 381.495C576.439 359.213 574.241 336.131 575.04 313.649C575.414 302.473 576.448 291.329 578.138 280.276C578.637 277.478 579.037 274.78 579.536 271.982C580.036 269.185 580.536 266.487 581.135 263.789C582.136 258.244 583.437 252.757 585.032 247.352Z" fill="#646464"/>
<path d="M414.568 248.451C416.866 253.547 418.865 258.643 420.663 263.839C422.462 269.035 424.161 274.231 425.759 279.426C428.874 290.012 431.278 300.794 432.954 311.701C434.707 322.769 435.509 333.968 435.352 345.174C435.2 356.672 433.861 368.124 431.355 379.346C428.763 390.749 424.699 401.766 419.265 412.12C413.785 422.448 406.854 431.937 398.681 440.298C390.637 448.531 381.45 455.565 371.403 461.181C370.204 461.88 368.905 462.48 367.606 463.179C366.307 463.879 365.108 464.478 363.809 464.978C361.211 466.077 358.613 467.276 356.015 468.175C350.773 470.11 345.35 471.516 339.828 472.372C344.125 468.875 348.421 465.577 352.318 461.98C356.215 458.383 360.112 454.786 363.709 451.089C365.508 449.191 367.306 447.392 368.905 445.394C369.704 444.394 370.604 443.495 371.403 442.496L373.801 439.498L375 438L376.199 436.501L378.497 433.503C379.197 432.504 379.996 431.405 380.695 430.406C381.452 429.413 382.152 428.379 382.794 427.308C388.319 419.16 393.038 410.492 396.882 401.429C400.701 392.387 403.71 383.024 405.875 373.451C410.372 354.167 411.771 333.883 412.37 313C412.67 302.508 412.77 291.916 412.87 281.125C412.97 275.729 413.07 270.334 413.269 264.838C413.769 259.542 413.969 254.047 414.568 248.451Z" fill="#646464"/>
<path d="M798.761 423.312C795.764 434.003 792.466 444.595 789.069 455.086C785.972 465.678 782.774 476.269 779.577 486.761C776.579 497.352 773.581 507.944 770.484 518.435C769.085 523.731 767.686 529.027 766.187 534.323C764.689 539.618 763.29 544.914 761.791 550.11C750.6 592.376 740.841 634.942 732.514 677.808C724.321 720.674 717.593 763.806 712.33 807.204C711.831 812.6 711.131 818.096 710.532 823.491C709.932 828.887 709.333 834.383 708.633 839.778L707.035 856.165L705.336 872.552C704.437 883.543 703.537 894.435 702.438 905.426C701.639 916.417 700.74 927.408 699.641 938.499C697.942 927.508 696.543 916.517 695.244 905.426C694.245 894.335 693.446 883.244 692.646 872.152L692.047 855.466L691.647 838.779C691.647 833.184 691.747 827.688 691.847 822.092C691.947 816.497 691.947 811.001 692.147 805.406C695.264 716.134 712.219 627.886 742.406 543.815C744.305 538.619 746.403 533.423 748.402 528.228L754.397 512.64C758.793 502.348 763.19 492.156 767.686 482.065C772.482 472.073 777.378 462.08 782.374 452.188C787.67 442.646 793.066 432.904 798.761 423.312Z" fill="#646464"/>
<path d="M213.829 404.527C217.826 415.218 221.523 426.01 225.12 436.801C228.717 447.592 232.015 458.484 235.312 469.375C238.409 480.266 241.507 491.257 244.505 502.249C246.003 507.744 247.402 513.24 248.801 518.736C250.2 524.231 251.599 529.727 252.998 535.322C263.589 579.487 272.282 624.251 279.077 669.215C285.871 714.179 290.768 759.443 293.665 804.807C294.065 810.502 294.265 816.198 294.564 821.793C294.864 827.389 295.164 833.184 295.364 838.779L295.863 855.866L296.263 872.952C296.363 884.343 296.363 895.734 296.163 907.125C295.963 918.516 295.564 929.906 294.864 941.297C292.666 930.106 290.768 918.915 288.969 907.724C287.17 896.533 285.272 885.342 283.573 874.151L280.875 857.365L278.377 840.578C277.478 834.982 276.679 829.387 275.78 823.791C274.88 818.196 274.081 812.6 273.282 807.005L253.298 673.112L232.914 539.319C232.015 533.723 231.215 528.128 230.316 522.532C229.417 516.937 228.617 511.341 227.818 505.746C226.019 494.555 224.421 483.364 222.822 472.173C221.223 460.982 219.525 449.791 218.026 438.5C216.527 427.209 215.028 415.818 213.829 404.527Z" fill="#646464"/>
<path d="M757.594 537.57C758.193 539.769 758.693 541.867 759.193 543.965C759.692 546.064 760.092 548.062 760.591 550.16C761.091 552.259 761.591 554.257 762.09 556.255C762.59 558.254 763.089 560.352 763.589 562.35L765.088 568.346C765.487 570.344 766.187 572.342 766.687 574.341C767.786 578.338 768.585 582.335 769.684 586.231C773.781 602.119 777.778 617.906 781.675 633.693C785.571 649.481 789.568 665.268 793.465 681.155C794.364 685.152 795.464 689.149 796.363 693.146C797.262 697.143 798.361 701.139 799.36 705.136C799.86 707.135 800.26 709.233 800.859 711.231C801.459 713.23 801.958 715.228 802.458 717.327C802.957 719.425 803.557 721.423 804.157 723.522C804.756 725.62 805.256 727.718 805.755 729.916C798.965 724.347 792.95 717.895 787.87 710.732C785.288 707.226 782.887 703.591 780.675 699.841C779.576 697.942 778.477 696.143 777.378 694.245C776.279 692.346 775.38 690.448 774.38 688.45C758.929 657.523 750.437 623.588 749.5 589.029C749.3 584.733 749.5 580.336 749.7 576.04C749.9 571.743 750.4 567.346 750.899 563.05C752.019 554.303 754.269 545.738 757.594 537.57Z" fill="#646464"/>
<path d="M257.794 562.4C258.294 564.499 258.693 566.697 259.093 568.795L259.593 571.993C259.793 573.092 259.793 574.091 259.992 575.19C260.492 579.487 260.792 583.783 260.892 588.08C261.092 592.376 261.092 596.673 260.992 600.87C260.992 602.968 260.892 605.166 260.792 607.265C260.692 609.363 260.492 611.461 260.392 613.659C259.083 630.522 256.308 647.238 252.099 663.619C247.967 680.108 242.279 696.167 235.112 711.581C234.213 713.48 233.314 715.478 232.315 717.376C231.315 719.275 230.316 721.173 229.217 723.072C228.118 724.97 227.119 726.869 226.02 728.667C224.92 730.466 223.721 732.364 222.422 734.163L220.624 736.861C220.048 737.767 219.414 738.635 218.725 739.459C217.327 741.157 216.028 742.956 214.629 744.555C213.929 745.354 213.23 746.253 212.53 747.053L210.232 749.451C208.633 750.95 207.135 752.548 205.436 753.947C205.836 751.749 206.335 749.651 206.835 747.552L207.634 744.455L208.234 741.357C209.033 737.261 210.032 733.264 210.832 729.167C211.231 727.169 211.631 725.17 212.131 723.172L213.33 717.077C213.729 715.078 214.229 713.08 214.629 711.081L215.928 705.086C219.325 689.099 223.022 673.212 227.119 657.324C231.215 641.437 235.512 625.65 240.508 609.862C241.807 605.966 243.006 601.969 244.405 598.072C245.104 596.073 245.804 594.175 246.503 592.177C247.203 590.178 247.902 588.28 248.601 586.281C250.1 582.384 251.499 578.388 253.098 574.391L255.496 568.396C256.086 566.334 256.855 564.328 257.794 562.4Z" fill="#646464"/>
<path d="M508.593 437.9C509.96 440.623 511.161 443.426 512.19 446.293C513.189 449.091 514.089 451.889 514.988 454.686C516.585 460.168 517.853 465.74 518.785 471.373C520.659 482.399 521.594 493.563 521.583 504.746C521.644 515.932 520.708 527.101 518.785 538.12C517.805 543.743 516.538 549.313 514.988 554.806C514.189 557.604 513.289 560.402 512.19 563.2C511.161 566.067 509.96 568.87 508.593 571.593C507.185 568.89 505.982 566.084 504.996 563.2C503.897 560.402 503.097 557.604 502.198 554.806C500.601 549.325 499.333 543.753 498.401 538.12C494.671 516.027 494.671 493.466 498.401 471.373C499.381 465.75 500.648 460.18 502.198 454.686C502.998 451.889 503.897 449.091 504.996 446.293C506.095 443.495 507.194 440.698 508.593 437.9Z" fill="#646464"/>
<path d="M500.899 691.697C502.33 696.061 503.531 700.496 504.496 704.986C505.595 709.383 506.395 713.879 507.294 718.275C508.893 727.168 510.192 736.061 511.191 744.854C514.954 780.254 515.055 815.948 511.491 851.369C510.591 860.262 509.292 869.155 507.694 878.048C506.894 882.444 505.995 886.941 504.996 891.337C504.03 895.827 502.83 900.263 501.399 904.626C499.9 900.23 498.801 895.734 497.702 891.337C496.602 886.941 495.703 882.444 494.904 878.048C493.305 869.155 492.006 860.262 491.007 851.469C489.046 833.785 488.078 816.004 488.109 798.212C488.061 780.424 488.962 762.646 490.807 744.954C491.706 736.061 493.005 727.168 494.604 718.275C495.403 713.879 496.303 709.383 497.302 704.986C498.267 700.496 499.468 696.061 500.899 691.697Z" fill="#646464"/>
</svg>
